0
SECTION
2
HEADER
9
$ACADVER
1
AC1006
0
ENDSEC
0
SECTION
2
TABLES
0
TABLE
2
LAYER
70
5
0
LAYER
70
0
62 
1
6
CONTINUOUS
2
STRUC1
0
LAYER
70
0
62 
2
6
CONTINUOUS
2
STRUCTURE
0
LAYER
70
0
62 
3
6
CONTINUOUS
2
EBL
0
LAYER
70
0
62 
4
6
CONTINUOUS
2
STRUC2
0
LAYER
70
0
62 
5
6
CONTINUOUS
2
BOUNDARY
0
ENDTAB
0
ENDSEC
0
SECTION
2
BLOCKS
0
ENDSEC
0
SECTION
2
ENTITIES
0
POLYLINE
8
STRUCTURE
70
1
40
0
41
0
66
1
0
VERTEX
8
STRUCTURE
10
1.5
20
0.0
0
VERTEX
8
STRUCTURE
10
1.4927770900082953
20
-0.14702571049434077
0
VERTEX
8
STRUCTURE
10
1.4711779206048459
20
-0.2926354830241921
0
VERTEX
8
STRUCTURE
10
1.4354105035983133
20
-0.4354270158816932
0
VERTEX
8
STRUCTURE
10
1.3858192987669304
20
-0.5740251485476341
0
VERTEX
8
STRUCTURE
10
1.3228818965225329
20
-0.7070951052389958
0
VERTEX
8
STRUCTURE
10
1.2472044184538182
20
-0.8333553495294026
0
VERTEX
8
STRUCTURE
10
1.1595156800441062
20
-0.9515899262454675
0
VERTEX
8
STRUCTURE
10
1.0606601717798223
20
-1.0606601717798205
0
VERTEX
8
STRUCTURE
10
0.9515899262454695
20
-1.1595156800441044
0
VERTEX
8
STRUCTURE
10
0.8333553495294046
20
-1.247204418453817
0
VERTEX
8
STRUCTURE
10
0.7070951052389979
20
-1.3228818965225317
0
VERTEX
8
STRUCTURE
10
0.5740251485476362
20
-1.3858192987669296
0
VERTEX
8
STRUCTURE
10
0.4354270158816954
20
-1.4354105035983127
0
VERTEX
8
STRUCTURE
10
0.29263548302419445
20
-1.4711779206048452
0
VERTEX
8
STRUCTURE
10
0.14702571049434313
20
-1.492777090008295
0
VERTEX
8
STRUCTURE
10
2.42331686164888e-15
20
-1.5
0
VERTEX
8
STRUCTURE
10
-0.14702571049433832
20
-1.4927770900082955
0
VERTEX
8
STRUCTURE
10
-0.29263548302418974
20
-1.471177920604846
0
VERTEX
8
STRUCTURE
10
-0.43542701588169075
20
-1.4354105035983142
0
VERTEX
8
STRUCTURE
10
-0.5740251485476318
20
-1.3858192987669313
0
VERTEX
8
STRUCTURE
10
-0.7070951052389935
20
-1.3228818965225342
0
VERTEX
8
STRUCTURE
10
-0.8333553495294008
20
-1.2472044184538196
0
VERTEX
8
STRUCTURE
10
-0.9515899262454659
20
-1.1595156800441073
0
VERTEX
8
STRUCTURE
10
-1.0606601717798194
20
-1.0606601717798232
0
VERTEX
8
STRUCTURE
10
-1.1595156800441038
20
-0.9515899262454702
0
VERTEX
8
STRUCTURE
10
-1.2472044184538165
20
-0.8333553495294055
0
VERTEX
8
STRUCTURE
10
-1.3228818965225315
20
-0.7070951052389985
0
VERTEX
8
STRUCTURE
10
-1.3858192987669293
20
-0.5740251485476366
0
VERTEX
8
STRUCTURE
10
-1.4354105035983127
20
-0.4354270158816955
0
VERTEX
8
STRUCTURE
10
-1.4711779206048452
20
-0.2926354830241942
0
VERTEX
8
STRUCTURE
10
-1.4927770900082953
20
-0.14702571049434257
0
VERTEX
8
STRUCTURE
10
-1.5
20
-1.515964649422291e-15
0
VERTEX
8
STRUCTURE
10
-1.4927770900082953
20
0.14702571049433955
0
VERTEX
8
STRUCTURE
10
-1.471177920604846
20
0.29263548302419123
0
VERTEX
8
STRUCTURE
10
-1.4354105035983136
20
0.4354270158816926
0
VERTEX
8
STRUCTURE
10
-1.3858192987669304
20
0.5740251485476339
0
VERTEX
8
STRUCTURE
10
-1.3228818965225329
20
0.7070951052389959
0
VERTEX
8
STRUCTURE
10
-1.2472044184538182
20
0.8333553495294029
0
VERTEX
8
STRUCTURE
10
-1.1595156800441058
20
0.9515899262454679
0
VERTEX
8
STRUCTURE
10
-1.0606601717798214
20
1.0606601717798212
0
VERTEX
8
STRUCTURE
10
-0.9515899262454689
20
1.1595156800441049
0
VERTEX
8
STRUCTURE
10
-0.8333553495294043
20
1.2472044184538171
0
VERTEX
8
STRUCTURE
10
-0.707095105238998
20
1.3228818965225317
0
VERTEX
8
STRUCTURE
10
-0.5740251485476368
20
1.3858192987669293
0
VERTEX
8
STRUCTURE
10
-0.4354270158816962
20
1.4354105035983125
0
VERTEX
8
STRUCTURE
10
-0.2926354830241956
20
1.471177920604845
0
VERTEX
8
STRUCTURE
10
-0.14702571049434465
20
1.4927770900082948
0
VERTEX
8
STRUCTURE
10
-4.2723484184587184e-15
20
1.5
0
VERTEX
8
STRUCTURE
10
0.14702571049433613
20
1.4927770900082957
0
VERTEX
8
STRUCTURE
10
0.2926354830241872
20
1.4711779206048465
0
VERTEX
8
STRUCTURE
10
0.435427015881688
20
1.435410503598315
0
VERTEX
8
STRUCTURE
10
0.5740251485476289
20
1.3858192987669327
0
VERTEX
8
STRUCTURE
10
0.7070951052389904
20
1.3228818965225357
0
VERTEX
8
STRUCTURE
10
0.8333553495293973
20
1.2472044184538218
0
VERTEX
8
STRUCTURE
10
0.9515899262454622
20
1.1595156800441102
0
VERTEX
8
STRUCTURE
10
1.0606601717798154
20
1.0606601717798272
0
VERTEX
8
STRUCTURE
10
1.1595156800440998
20
0.951589926245475
0
VERTEX
8
STRUCTURE
10
1.2472044184538127
20
0.833355349529411
0
VERTEX
8
STRUCTURE
10
1.322881896522528
20
0.7070951052390051
0
VERTEX
8
STRUCTURE
10
1.385819298766926
20
0.5740251485476442
0
VERTEX
8
STRUCTURE
10
1.43541050359831
20
0.4354270158817039
0
VERTEX
8
STRUCTURE
10
1.4711779206048434
20
0.2926354830242035
0
VERTEX
8
STRUCTURE
10
1.4927770900082942
20
0.1470257104943527
0
VERTEX
8
STRUCTURE
10
1.5
20
1.2357802705695896e-14
0
VERTEX
8
STRUCTURE
10
1.5
20
0.0
0
SEQEND
0
POLYLINE
8
BOUNDARY
70
1
40
0
41
0
66
1
0
VERTEX
8
BOUNDARY
10
2.0
20
0.0
0
VERTEX
8
BOUNDARY
10
1.9903694533443939
20
-0.196034280659121
0
VERTEX
8
BOUNDARY
10
1.961570560806461
20
-0.39018064403225616
0
VERTEX
8
BOUNDARY
10
1.9138806714644179
20
-0.5805693545089242
0
VERTEX
8
BOUNDARY
10
1.847759065022574
20
-0.7653668647301788
0
VERTEX
8
BOUNDARY
10
1.7638425286967105
20
-0.9427934736519944
0
VERTEX
8
BOUNDARY
10
1.6629392246050911
20
-1.1111404660392035
0
VERTEX
8
BOUNDARY
10
1.5460209067254749
20
-1.2687865683272899
0
VERTEX
8
BOUNDARY
10
1.4142135623730963
20
-1.414213562373094
0
VERTEX
8
BOUNDARY
10
1.2687865683272925
20
-1.5460209067254727
0
VERTEX
8
BOUNDARY
10
1.1111404660392061
20
-1.6629392246050894
0
VERTEX
8
BOUNDARY
10
0.9427934736519972
20
-1.763842528696709
0
VERTEX
8
BOUNDARY
10
0.7653668647301817
20
-1.8477590650225726
0
VERTEX
8
BOUNDARY
10
0.5805693545089272
20
-1.913880671464417
0
VERTEX
8
BOUNDARY
10
0.39018064403225927
20
-1.9615705608064604
0
VERTEX
8
BOUNDARY
10
0.19603428065912418
20
-1.9903694533443934
0
VERTEX
8
BOUNDARY
10
3.2310891488651735e-15
20
-2.0
0
VERTEX
8
BOUNDARY
10
-0.19603428065911777
20
-1.990369453344394
0
VERTEX
8
BOUNDARY
10
-0.39018064403225294
20
-1.9615705608064615
0
VERTEX
8
BOUNDARY
10
-0.580569354508921
20
-1.913880671464419
0
VERTEX
8
BOUNDARY
10
-0.7653668647301757
20
-1.847759065022575
0
VERTEX
8
BOUNDARY
10
-0.9427934736519914
20
-1.763842528696712
0
VERTEX
8
BOUNDARY
10
-1.111140466039201
20
-1.6629392246050927
0
VERTEX
8
BOUNDARY
10
-1.2687865683272879
20
-1.5460209067254764
0
VERTEX
8
BOUNDARY
10
-1.4142135623730925
20
-1.4142135623730976
0
VERTEX
8
BOUNDARY
10
-1.5460209067254718
20
-1.2687865683272936
0
VERTEX
8
BOUNDARY
10
-1.6629392246050887
20
-1.1111404660392072
0
VERTEX
8
BOUNDARY
10
-1.7638425286967085
20
-0.9427934736519981
0
VERTEX
8
BOUNDARY
10
-1.8477590650225724
20
-0.7653668647301822
0
VERTEX
8
BOUNDARY
10
-1.913880671464417
20
-0.5805693545089273
0
VERTEX
8
BOUNDARY
10
-1.9615705608064604
20
-0.39018064403225894
0
VERTEX
8
BOUNDARY
10
-1.9903694533443936
20
-0.19603428065912343
0
VERTEX
8
BOUNDARY
10
-2.0
20
-2.021286199229721e-15
0
VERTEX
8
BOUNDARY
10
-1.9903694533443939
20
0.1960342806591194
0
VERTEX
8
BOUNDARY
10
-1.9615705608064613
20
0.390180644032255
0
VERTEX
8
BOUNDARY
10
-1.913880671464418
20
0.5805693545089234
0
VERTEX
8
BOUNDARY
10
-1.847759065022574
20
0.7653668647301785
0
VERTEX
8
BOUNDARY
10
-1.7638425286967105
20
0.9427934736519945
0
VERTEX
8
BOUNDARY
10
-1.662939224605091
20
1.111140466039204
0
VERTEX
8
BOUNDARY
10
-1.5460209067254742
20
1.2687865683272905
0
VERTEX
8
BOUNDARY
10
-1.4142135623730954
20
1.414213562373095
0
VERTEX
8
BOUNDARY
10
-1.2687865683272919
20
1.5460209067254733
0
VERTEX
8
BOUNDARY
10
-1.1111404660392057
20
1.6629392246050896
0
VERTEX
8
BOUNDARY
10
-0.9427934736519974
20
1.763842528696709
0
VERTEX
8
BOUNDARY
10
-0.7653668647301823
20
1.8477590650225724
0
VERTEX
8
BOUNDARY
10
-0.5805693545089282
20
1.9138806714644168
0
VERTEX
8
BOUNDARY
10
-0.3901806440322608
20
1.96157056080646
0
VERTEX
8
BOUNDARY
10
-0.1960342806591262
20
1.9903694533443932
0
VERTEX
8
BOUNDARY
10
-5.696464557944958e-15
20
2.0
0
VERTEX
8
BOUNDARY
10
0.19603428065911485
20
1.9903694533443943
0
VERTEX
8
BOUNDARY
10
0.3901806440322496
20
1.9615705608064622
0
VERTEX
8
BOUNDARY
10
0.5805693545089173
20
1.9138806714644199
0
VERTEX
8
BOUNDARY
10
0.7653668647301718
20
1.8477590650225768
0
VERTEX
8
BOUNDARY
10
0.9427934736519873
20
1.7638425286967143
0
VERTEX
8
BOUNDARY
10
1.1111404660391964
20
1.6629392246050958
0
VERTEX
8
BOUNDARY
10
1.268786568327283
20
1.5460209067254804
0
VERTEX
8
BOUNDARY
10
1.4142135623730872
20
1.414213562373103
0
VERTEX
8
BOUNDARY
10
1.5460209067254664
20
1.2687865683273
0
VERTEX
8
BOUNDARY
10
1.6629392246050836
20
1.1111404660392148
0
VERTEX
8
BOUNDARY
10
1.7638425286967039
20
0.9427934736520068
0
VERTEX
8
BOUNDARY
10
1.8477590650225681
20
0.7653668647301922
0
VERTEX
8
BOUNDARY
10
1.9138806714644134
20
0.5805693545089385
0
VERTEX
8
BOUNDARY
10
1.961570560806458
20
0.3901806440322714
0
VERTEX
8
BOUNDARY
10
1.9903694533443923
20
0.19603428065913694
0
VERTEX
8
BOUNDARY
10
2.0
20
1.6477070274261195e-14
0
VERTEX
8
BOUNDARY
10
2.0
20
0.0
0
SEQEND
0
ENDSEC
0
EOF