  0
SECTION
  2
HEADER
  9
$ACADVER
  1
AC1018
  9
$ACADMAINTVER
 70
     0
  9
$DWGCODEPAGE
  3
ANSI_1252
  9
$INSBASE
 10
0.0
 20
0.0
 30
0.0
  9
$EXTMIN
 10
0
 20
0
 30
0.0
  9
$EXTMAX
 10
7000
 20
2000
 30
0.0
  9
$LIMMIN
 10
0.0
 20
0.0
  9
$LIMMAX
 10
12.0
 20
9.0
  9
$ORTHOMODE
 70
     0
  9
$REGENMODE
 70
     1
  9
$FILLMODE
 70
     1
  9
$QTEXTMODE
 70
     0
  9
$MIRRTEXT
 70
     1
  9
$LTSCALE
 40
1.0
  9
$ATTMODE
 70
     1
  9
$TEXTSIZE
 40
0.2
  9
$TRACEWID
 40
0.05
  9
$TEXTSTYLE
  7
Standard
  9
$CLAYER
  8
0
  9
$CELTYPE
  6
ByLayer
  9
$CECOLOR
 62
   256
  9
$CELTSCALE
 40
1.0
  9
$DISPSILH
 70
     0
  9
$DIMSCALE
 40
1.0
  9
$DIMASZ
 40
0.18
  9
$DIMEXO
 40
0.0625
  9
$DIMDLI
 40
0.38
  9
$DIMRND
 40
0.0
  9
$DIMDLE
 40
0.0
  9
$DIMEXE
 40
0.18
  9
$DIMTP
 40
0.0
  9
$DIMTM
 40
0.0
  9
$DIMTXT
 40
0.18
  9
$DIMCEN
 40
0.09
  9
$DIMTSZ
 40
0.0
  9
$DIMTOL
 70
     0
  9
$DIMLIM
 70
     0
  9
$DIMTIH
 70
     1
  9
$DIMTOH
 70
     1
  9
$DIMSE1
 70
     0
  9
$DIMSE2
 70
     0
  9
$DIMTAD
 70
     0
  9
$DIMZIN
 70
     0
  9
$DIMBLK
  1

  9
$DIMASO
 70
     1
  9
$DIMSHO
 70
     1
  9
$DIMPOST
  1

  9
$DIMAPOST
  1

  9
$DIMALT
 70
     0
  9
$DIMALTD
 70
     2
  9
$DIMALTF
 40
25.4
  9
$DIMLFAC
 40
1.0
  9
$DIMTOFL
 70
     0
  9
$DIMTVP
 40
0.0
  9
$DIMTIX
 70
     0
  9
$DIMSOXD
 70
     0
  9
$DIMSAH
 70
     0
  9
$DIMBLK1
  1

  9
$DIMBLK2
  1

  9
$DIMSTYLE
  2
Standard
  9
$DIMCLRD
 70
     0
  9
$DIMCLRE
 70
     0
  9
$DIMCLRT
 70
     0
  9
$DIMTFAC
 40
1.0
  9
$DIMGAP
 40
0.09
  9
$DIMJUST
 70
     0
  9
$DIMSD1
 70
     0
  9
$DIMSD2
 70
     0
  9
$DIMTOLJ
 70
     1
  9
$DIMTZIN
 70
     0
  9
$DIMALTZ
 70
     0
  9
$DIMALTTZ
 70
     0
  9
$DIMUPT
 70
     0
  9
$DIMDEC
 70
     4
  9
$DIMTDEC
 70
     4
  9
$DIMALTU
 70
     2
  9
$DIMALTTD
 70
     2
  9
$DIMTXSTY
  7
Standard
  9
$DIMAUNIT
 70
     0
  9
$DIMADEC
 70
     0
  9
$DIMALTRND
 40
0.0
  9
$DIMAZIN
 70
     0
  9
$DIMDSEP
 70
    46
  9
$DIMATFIT
 70
     3
  9
$DIMFRAC
 70
     0
  9
$DIMLDRBLK
  1

  9
$DIMLUNIT
 70
     2
  9
$DIMLWD
 70
    -2
  9
$DIMLWE
 70
    -2
  9
$DIMTMOVE
 70
     0
  9
$LUNITS
 70
     2
  9
$LUPREC
 70
     4
  9
$SKETCHINC
 40
0.1
  9
$FILLETRAD
 40
0.5
  9
$AUNITS
 70
     0
  9
$AUPREC
 70
     0
  9
$MENU
  1
.
  9
$ELEVATION
 40
0.0
  9
$PELEVATION
 40
0.0
  9
$THICKNESS
 40
0.0
  9
$LIMCHECK
 70
     0
  9
$CHAMFERA
 40
0.5
  9
$CHAMFERB
 40
0.5
  9
$CHAMFERC
 40
1.0
  9
$CHAMFERD
 40
0.0
  9
$SKPOLY
 70
     0
  9
$TDCREATE
 40
2455343.56230316
  9
$TDUCREATE
 40
2455343.728969826
  9
$TDUPDATE
 40
2455343.562303171
  9
$TDUUPDATE
 40
2455343.728969838
  9
$TDINDWG
 40
0.0000000116
  9
$TDUSRTIMER
 40
0.0000000116
  9
$USRTIMER
 70
     1
  9
$ANGBASE
 50
0.0
  9
$ANGDIR
 70
     0
  9
$PDMODE
 70
     0
  9
$PDSIZE
 40
0.0
  9
$PLINEWID
 40
0.0
  9
$SPLFRAME
 70
     0
  9
$SPLINETYPE
 70
     6
  9
$SPLINESEGS
 70
     8
  9
$HANDSEED
  5
00020019
  9
$SURFTAB1
 70
     6
  9
$SURFTAB2
 70
     6
  9
$SURFTYPE
 70
     6
  9
$SURFU
 70
     6
  9
$SURFV
 70
     6
  9
$UCSBASE
  2

  9
$UCSNAME
  2

  9
$UCSORG
 10
0.0
 20
0.0
 30
0.0
  9
$UCSXDIR
 10
1.0
 20
0.0
 30
0.0
  9
$UCSYDIR
 10
0.0
 20
1.0
 30
0.0
  9
$UCSORTHOREF
  2

  9
$UCSORTHOVIEW
 70
     0
  9
$UCSORGTOP
 10
0.0
 20
0.0
 30
0.0
  9
$UCSORGBOTTOM
 10
0.0
 20
0.0
 30
0.0
  9
$UCSORGLEFT
 10
0.0
 20
0.0
 30
0.0
  9
$UCSORGRIGHT
 10
0.0
 20
0.0
 30
0.0
  9
$UCSORGFRONT
 10
0.0
 20
0.0
 30
0.0
  9
$UCSORGBACK
 10
0.0
 20
0.0
 30
0.0
  9
$PUCSBASE
  2

  9
$PUCSNAME
  2

  9
$PUCSORG
 10
0.0
 20
0.0
 30
0.0
  9
$PUCSXDIR
 10
1.0
 20
0.0
 30
0.0
  9
$PUCSYDIR
 10
0.0
 20
1.0
 30
0.0
  9
$PUCSORTHOREF
  2

  9
$PUCSORTHOVIEW
 70
     0
  9
$PUCSORGTOP
 10
0.0
 20
0.0
 30
0.0
  9
$PUCSORGBOTTOM
 10
0.0
 20
0.0
 30
0.0
  9
$PUCSORGLEFT
 10
0.0
 20
0.0
 30
0.0
  9
$PUCSORGRIGHT
 10
0.0
 20
0.0
 30
0.0
  9
$PUCSORGFRONT
 10
0.0
 20
0.0
 30
0.0
  9
$PUCSORGBACK
 10
0.0
 20
0.0
 30
0.0
  9
$USERI1
 70
     0
  9
$USERI2
 70
     0
  9
$USERI3
 70
     0
  9
$USERI4
 70
     0
  9
$USERI5
 70
     0
  9
$USERR1
 40
0.0
  9
$USERR2
 40
0.0
  9
$USERR3
 40
0.0
  9
$USERR4
 40
0.0
  9
$USERR5
 40
0.0
  9
$WORLDVIEW
 70
     1
  9
$SHADEDGE
 70
     3
  9
$SHADEDIF
 70
    70
  9
$TILEMODE
 70
     1
  9
$MAXACTVP
 70
    64
  9
$PINSBASE
 10
0.0
 20
0.0
 30
0.0
  9
$PLIMCHECK
 70
     0
  9
$PEXTMIN
 10
1.000000000000000E+20
 20
1.000000000000000E+20
 30
1.000000000000000E+20
  9
$PEXTMAX
 10
-1.000000000000000E+20
 20
-1.000000000000000E+20
 30
-1.000000000000000E+20
  9
$PLIMMIN
 10
0.0
 20
0.0
  9
$PLIMMAX
 10
12.0
 20
9.0
  9
$UNITMODE
 70
     0
  9
$VISRETAIN
 70
     1
  9
$PLINEGEN
 70
     0
  9
$PSLTSCALE
 70
     1
  9
$TREEDEPTH
 70
  3020
  9
$CMLSTYLE
  2
Standard
  9
$CMLJUST
 70
     0
  9
$CMLSCALE
 40
1.0
  9
$PROXYGRAPHICS
 70
     1
  9
$MEASUREMENT
 70
     0
  9
$CELWEIGHT
370
    -1
  9
$ENDCAPS
280
     0
  9
$JOINSTYLE
280
     0
  9
$LWDISPLAY
290
     0
  9
$INSUNITS
 70
     1
  9
$HYPERLINKBASE
  1

  9
$STYLESHEET
  1

  9
$XEDIT
290
     1
  9
$CEPSNTYPE
380
     0
  9
$PSTYLEMODE
290
     1
  9
$FINGERPRINTGUID
  2
{E7F7769E-AACA-40AB-9EF3-61BBAFBCBA26}
  9
$VERSIONGUID
  2
{FAEB1C32-E019-11D5-929B-00C0DF256EC4}
  9
$EXTNAMES
290
     1
  9
$PSVPSCALE
 40
0.0
  9
$OLESTARTUP
290
     0
  9
$SORTENTS
280
   127
  9
$INDEXCTL
280
     0
  9
$HIDETEXT
280
     1
  9
$XCLIPFRAME
290
     0
  9
$HALOGAP
280
     0
  9
$OBSCOLOR
 70
   257
  9
$OBSLTYPE
280
     0
  9
$INTERSECTIONDISPLAY
280
     0
  9
$INTERSECTIONCOLOR
 70
   257
  9
$DIMASSOC
280
     2
  9
$PROJECTNAME
  1

  0
ENDSEC
  0
SECTION
  2
CLASSES
  0
CLASS
  1
ACDBDICTIONARYWDFLT
  2
AcDbDictionaryWithDefault
  3
ObjectDBX Classes
 90
        0
 91
        4
280
     0
281
     0
  0
CLASS
  1
VISUALSTYLE
  2
AcDbVisualStyle
  3
ObjectDBX Classes
 90
     4095
 91
        4
280
     0
281
     0
  0
ENDSEC
  0
SECTION
  2
TABLES
  0
TABLE
  2
VPORT
  5
8
330
0
100
AcDbSymbolTable
 70
     1
  0
VPORT
  5
29
330
8
100
AcDbSymbolTableRecord
100
AcDbViewportTableRecord
  2
*Active
 70
     0
 10
0.0
 20
0.0
 11
1.0
 21
1.0
 12
80.25
 22
106.4409457059851
 13
0.0
 23
0.0
 14
0.5
 24
0.5
 15
0.5
 25
0.5
 16
0.0
 26
0.0
 36
1.0
 17
0.0
 27
0.0
 37
0.0
 40
113.3818914119703
 41
0.8863849310366128
 42
50.0
 43
0.0
 44
0.0
 50
0.0
 51
0.0
 71
     0
 72
  1000
 73
     1
 74
     3
 75
     0
 76
     0
 77
     0
 78
     0
281
     0
 65
     1
110
0.0
120
0.0
130
0.0
111
1.0
121
0.0
131
0.0
112
0.0
122
1.0
132
0.0
 79
     0
146
0.0
  0
ENDTAB
  0
TABLE
  2
LTYPE
  5
5
330
0
100
AcDbSymbolTable
 70
     1
  0
LTYPE
  5
14
330
5
100
AcDbSymbolTableRecord
100
AcDbLinetypeTableRecord
  2
ByBlock
 70
     0
  3

 72
    65
 73
     0
 40
0.0
  0
LTYPE
  5
15
330
5
100
AcDbSymbolTableRecord
100
AcDbLinetypeTableRecord
  2
ByLayer
 70
     0
  3

 72
    65
 73
     0
 40
0.0
  0
LTYPE
  5
16
330
5
100
AcDbSymbolTableRecord
100
AcDbLinetypeTableRecord
  2
Continuous
 70
     0
  3
Solid line
 72
    65
 73
     0
 40
0.0
  0
ENDTAB
  0
TABLE
  2
LAYER
  5
2
330
0
100
AcDbSymbolTable
 70
     1
  0
LAYER
  5
10
330
2
100
AcDbSymbolTableRecord
100
AcDbLayerTableRecord
  2
0
 70
     0
 62
     7
  6
Continuous
370
    -3
390
F
  0
ENDTAB
  0
TABLE
  2
STYLE
  5
3
330
0
100
AcDbSymbolTable
 70
     1
  0
STYLE
  5
11
330
3
100
AcDbSymbolTableRecord
100
AcDbTextStyleTableRecord
  2
Standard
 70
     0
 40
0.0
 41
1.0
 50
0.0
 71
     0
 42
0.2
  3
txt
  4

  0
ENDTAB
  0
TABLE
  2
VIEW
  5
6
330
0
100
AcDbSymbolTable
 70
     0
  0
ENDTAB
  0
TABLE
  2
UCS
  5
7
330
0
100
AcDbSymbolTable
 70
     0
  0
ENDTAB
  0
TABLE
  2
APPID
  5
9
330
0
100
AcDbSymbolTable
 70
     1
  0
APPID
  5
12
330
9
100
AcDbSymbolTableRecord
100
AcDbRegAppTableRecord
  2
ACAD
 70
     0
  0
ENDTAB
  0
TABLE
  2
DIMSTYLE
  5
A
330
0
100
AcDbSymbolTable
 70
     1
100
AcDbDimStyleTable
  0
DIMSTYLE
105
27
330
A
100
AcDbSymbolTableRecord
100
AcDbDimStyleTableRecord
  2
Standard
 70
     0
340
11
  0
ENDTAB
  0
TABLE
  2
BLOCK_RECORD
  5
1
330
0
100
AcDbSymbolTable
 70
     1
  0
BLOCK_RECORD
  5
1F
330
1
100
AcDbSymbolTableRecord
100
AcDbBlockTableRecord
  2
*Model_Space
340
22
  0
BLOCK_RECORD
  5
1B
330
1
100
AcDbSymbolTableRecord
100
AcDbBlockTableRecord
  2
*Paper_Space
340
1E
  0
BLOCK_RECORD
  5
23
330
1
100
AcDbSymbolTableRecord
100
AcDbBlockTableRecord
  2
*Paper_Space0
340
26
  0
ENDTAB
  0
ENDSEC
  0
SECTION
  2
BLOCKS
  0
BLOCK
  5
20
330
1F
100
AcDbEntity
  8
0
100
AcDbBlockBegin
  2
*Model_Space
 70
     0
 10
0.0
 20
0.0
 30
0.0
  3
*Model_Space
  1

  0
ENDBLK
  5
21
330
1F
100
AcDbEntity
  8
0
100
AcDbBlockEnd
  0
BLOCK
  5
1C
330
1B
100
AcDbEntity
 67
     1
  8
0
100
AcDbBlockBegin
  2
*Paper_Space
 70
     0
 10
0.0
 20
0.0
 30
0.0
  3
*Paper_Space
  1

  0
ENDBLK
  5
1D
330
1B
100
AcDbEntity
 67
     1
  8
0
100
AcDbBlockEnd
  0
BLOCK
  5
24
330
23
100
AcDbEntity
  8
0
100
AcDbBlockBegin
  2
*Paper_Space0
 70
     0
 10
0.0
 20
0.0
 30
0.0
  3
*Paper_Space0
  1

  0
ENDBLK
  5
25
330
23
100
AcDbEntity
  8
0
100
AcDbBlockEnd
  0
ENDSEC
  0
SECTION
  2
ENTITIES
  0
HATCH
  5
20000
  8
0
100
AcDbEntity
100
AcDbHatch
 10
0
 20
0
 30
0
210
0
220
0
230
1
  2
SOLID
 70
1
 71
0
 91
1
 92
2
 72
0
 73
1
 93
379
 10
5372.71830471454
 20
1005
 10
5922.5
 20
1005
 10
6022.5
 20
1010.5
 10
6022.5
 20
1004.5
 10
6064.5
 20
1004.5
 10
6064.5
 20
1001.5
 10
6022.5
 20
1001.5
 10
6022.5
 20
992.5
 10
6064.5
 20
992.5
 10
6064.5
 20
989.5
 10
6022.5
 20
989.5
 10
5922.5
 20
995
 10
5372.5
 20
995
 10
5372.06422128626
 20
995.019026509541
 10
5354.69940351957
 20
996.538251208321
 10
5354.26694134497
 20
996.595185933718
 10
5353.84108700779
 20
996.689595567334
 10
5337.00389044192
 20
1001.20110878996
 10
5336.5878849508
 20
1001.33227481748
 10
5336.18489435873
 20
1001.49919898623
 10
5320.3869086913
 20
1008.86592068637
 10
5320
 20
1009.06733260263
 10
5319.63211781824
 20
1009.30169940011
 10
5305.35335684959
 20
1019.29979546666
 10
5305.00730098291
 20
1019.56533347251
 10
5304.68570512541
 20
1019.86002178217
 10
5292.36002178217
 20
1032.18570512541
 10
5292.06533347251
 20
1032.50730098291
 10
5291.79979546666
 20
1032.85335684959
 10
5281.80169940011
 20
1047.13211781824
 10
5281.56733260263
 20
1047.5
 10
5281.36592068637
 20
1047.8869086913
 10
5273.99919898623
 20
1063.68489435873
 10
5273.83227481748
 20
1064.0878849508
 10
5273.70110878996
 20
1064.50389044192
 10
5269.18959556733
 20
1081.34108700779
 10
5269.09518593372
 20
1081.76694134497
 10
5269.03825120832
 20
1082.19940351957
 10
5267.51902650954
 20
1099.56422128626
 10
5267.5
 20
1100
 10
5267.5
 20
1581.06699746698
 10
5261.6983176079
 20
1613.96997334051
 10
5245.21513474475
 20
1642.51968352994
 10
5219.96143347029
 20
1663.7100549552
 10
5188.98318286315
 20
1674.98521608583
 10
5156.01681713685
 20
1674.98521608583
 10
5125.03856652971
 20
1663.7100549552
 10
5099.78486525525
 20
1642.51968352994
 10
5083.3016823921
 20
1613.96997334051
 10
5077.5
 20
1581.06699746698
 10
5077.5
 20
416.976334516608
 10
5077.48097349046
 20
416.54055580287
 10
5077.42403876506
 20
416.108093628274
 10
5071.39330084365
 20
381.906079295707
 10
5071.29889121004
 20
381.480224958529
 10
5071.16772518252
 20
381.064219467413
 10
5071.00080101377
 20
380.661228875338
 10
5070.79938909751
 20
380.274320184041
 10
5053.43457133082
 20
350.197573547954
 10
5053.20020453334
 20
349.829691366199
 10
5052.93466652749
 20
349.483635499522
 10
5052.63997821783
 20
349.162039642022
 10
5052.31838236033
 20
348.867351332359
 10
5025.71393804843
 20
326.54357192257
 10
5025.36788218176
 20
326.278033916719
 10
5025
 20
326.043667119242
 10
5024.6130913087
 20
325.842255202981
 10
5024.21010071663
 20
325.675331034235
 10
4991.57491848332
 20
313.797096111458
 10
4991.15891299221
 20
313.665930083942
 10
4990.73305865503
 20
313.571520450326
 10
4990.30059648043
 20
313.514585724929
 10
4989.86481776669
 20
313.495559215388
 10
4955.13518223331
 20
313.495559215388
 10
4954.69940351957
 20
313.514585724929
 10
4954.26694134497
 20
313.571520450326
 10
4953.84108700779
 20
313.665930083942
 10
4953.42508151668
 20
313.797096111458
 10
4920.78989928337
 20
325.675331034235
 10
4920.3869086913
 20
325.842255202981
 10
4920
 20
326.043667119242
 10
4919.63211781824
 20
326.278033916719
 10
4919.28606195157
 20
326.54357192257
 10
4892.68161763967
 20
348.867351332359
 10
4892.36002178217
 20
349.162039642022
 10
4892.06533347251
 20
349.483635499522
 10
4891.79979546666
 20
349.829691366199
 10
4891.56542866918
 20
350.197573547954
 10
4874.20061090249
 20
380.274320184041
 10
4873.99919898623
 20
380.661228875338
 10
4873.83227481748
 20
381.064219467413
 10
4873.70110878996
 20
381.480224958529
 10
4873.60669915635
 20
381.906079295707
 10
4867.57596123494
 20
416.108093628274
 10
4867.51902650954
 20
416.54055580287
 10
4867.5
 20
416.976334516608
 10
4867.5
 20
1581.06699746698
 10
4861.6983176079
 20
1613.96997334051
 10
4845.21513474475
 20
1642.51968352994
 10
4819.96143347029
 20
1663.7100549552
 10
4788.98318286315
 20
1674.98521608583
 10
4756.01681713685
 20
1674.98521608583
 10
4725.03856652971
 20
1663.7100549552
 10
4699.78486525525
 20
1642.51968352994
 10
4683.3016823921
 20
1613.96997334051
 10
4677.5
 20
1581.06699746698
 10
4677.5
 20
416.976334516608
 10
4677.48097349046
 20
416.54055580287
 10
4677.42403876506
 20
416.108093628274
 10
4671.39330084365
 20
381.906079295707
 10
4671.29889121004
 20
381.480224958529
 10
4671.16772518252
 20
381.064219467413
 10
4671.00080101377
 20
380.661228875338
 10
4670.79938909751
 20
380.274320184041
 10
4653.43457133082
 20
350.197573547954
 10
4653.20020453334
 20
349.829691366199
 10
4652.93466652749
 20
349.483635499522
 10
4652.63997821783
 20
349.162039642022
 10
4652.31838236033
 20
348.867351332359
 10
4625.71393804843
 20
326.54357192257
 10
4625.36788218176
 20
326.278033916719
 10
4625
 20
326.043667119242
 10
4624.6130913087
 20
325.842255202981
 10
4624.21010071663
 20
325.675331034235
 10
4591.57491848332
 20
313.797096111458
 10
4591.15891299221
 20
313.665930083942
 10
4590.73305865503
 20
313.571520450326
 10
4590.30059648043
 20
313.514585724929
 10
4589.86481776669
 20
313.495559215388
 10
4555.13518223331
 20
313.495559215388
 10
4554.69940351957
 20
313.514585724929
 10
4554.26694134497
 20
313.571520450326
 10
4553.84108700779
 20
313.665930083942
 10
4553.42508151668
 20
313.797096111458
 10
4520.78989928337
 20
325.675331034235
 10
4520.3869086913
 20
325.842255202981
 10
4520
 20
326.043667119242
 10
4519.63211781824
 20
326.278033916719
 10
4519.28606195157
 20
326.54357192257
 10
4492.68161763967
 20
348.867351332359
 10
4492.36002178217
 20
349.162039642022
 10
4492.06533347251
 20
349.483635499522
 10
4491.79979546666
 20
349.829691366199
 10
4491.56542866918
 20
350.197573547954
 10
4474.20061090249
 20
380.274320184041
 10
4473.99919898623
 20
380.661228875338
 10
4473.83227481748
 20
381.064219467413
 10
4473.70110878996
 20
381.480224958529
 10
4473.60669915635
 20
381.906079295707
 10
4467.57596123494
 20
416.108093628274
 10
4467.51902650954
 20
416.54055580287
 10
4467.5
 20
416.976334516608
 10
4467.5
 20
1581.06699746698
 10
4461.6983176079
 20
1613.96997334051
 10
4445.21513474475
 20
1642.51968352994
 10
4419.96143347029
 20
1663.7100549552
 10
4388.98318286315
 20
1674.98521608583
 10
4356.01681713685
 20
1674.98521608583
 10
4325.03856652971
 20
1663.7100549552
 10
4299.78486525525
 20
1642.51968352994
 10
4283.3016823921
 20
1613.96997334051
 10
4277.5
 20
1581.06699746698
 10
4277.5
 20
1100
 10
4277.48097349046
 20
1099.56422128626
 10
4275.96174879168
 20
1082.19940351957
 10
4275.90481406628
 20
1081.76694134497
 10
4275.81040443267
 20
1081.34108700779
 10
4271.29889121004
 20
1064.50389044192
 10
4271.16772518252
 20
1064.0878849508
 10
4271.00080101377
 20
1063.68489435873
 10
4263.63407931363
 20
1047.8869086913
 10
4263.43266739737
 20
1047.5
 10
4263.19830059989
 20
1047.13211781824
 10
4253.20020453334
 20
1032.85335684959
 10
4252.93466652749
 20
1032.50730098291
 10
4252.63997821783
 20
1032.18570512541
 10
4240.31429487459
 20
1019.86002178217
 10
4239.99269901709
 20
1019.56533347251
 10
4239.64664315041
 20
1019.29979546666
 10
4225.36788218176
 20
1009.30169940011
 10
4225
 20
1009.06733260263
 10
4224.6130913087
 20
1008.86592068637
 10
4208.81510564127
 20
1001.49919898623
 10
4208.4121150492
 20
1001.33227481748
 10
4207.99610955808
 20
1001.20110878996
 10
4191.15891299221
 20
996.689595567334
 10
4190.73305865503
 20
996.595185933718
 10
4190.30059648043
 20
996.538251208321
 10
4172.93577871374
 20
995.019026509541
 10
4172.5
 20
995
 10
3622.5
 20
995
 10
3522.5
 20
989.5
 10
3522.5
 20
995.5
 10
3480.5
 20
995.5
 10
3480.5
 20
998.5
 10
3522.5
 20
998.5
 10
3522.5
 20
1007.5
 10
3480.5
 20
1007.5
 10
3480.5
 20
1010.5
 10
3522.5
 20
1010.5
 10
3622.5
 20
1005
 10
4172.28169528546
 20
1005
 10
4188.99326033922
 20
1006.46207249198
 10
4204.98538130902
 20
1010.7471483911
 10
4219.99045040614
 20
1017.74412702223
 10
4233.552546199
 20
1027.24040873032
 10
4245.25959126968
 20
1038.947453801
 10
4254.75587297777
 20
1052.50954959386
 10
4261.7528516089
 20
1067.51461869098
 10
4266.03792750802
 20
1083.50673966078
 10
4267.5
 20
1100.21830471454
 10
4267.5
 20
1581.50444078461
 10
4267.51902650954
 20
1581.94021949835
 10
4267.57596123494
 20
1582.37268167295
 10
4273.60669915635
 20
1616.57469600551
 10
4273.70110878996
 20
1617.00055034269
 10
4273.83227481748
 20
1617.41655583381
 10
4273.99919898623
 20
1617.81954642588
 10
4274.20061090249
 20
1618.20645511718
 10
4291.56542866918
 20
1648.28320175327
 10
4291.79979546666
 20
1648.65108393502
 10
4292.06533347251
 20
1648.9971398017
 10
4292.36002178217
 20
1649.3187356592
 10
4292.68161763967
 20
1649.61342396886
 10
4319.28606195157
 20
1671.93720337865
 10
4319.63211781824
 20
1672.2027413845
 10
4320
 20
1672.43710818198
 10
4320.3869086913
 20
1672.63852009824
 10
4320.78989928337
 20
1672.80544426699
 10
4353.42508151668
 20
1684.68367918976
 10
4353.84108700779
 20
1684.81484521728
 10
4354.26694134497
 20
1684.90925485089
 10
4354.69940351957
 20
1684.96618957629
 10
4355.13518223331
 20
1684.98521608583
 10
4389.86481776669
 20
1684.98521608583
 10
4390.30059648043
 20
1684.96618957629
 10
4390.73305865503
 20
1684.90925485089
 10
4391.15891299221
 20
1684.81484521728
 10
4391.57491848332
 20
1684.68367918976
 10
4424.21010071663
 20
1672.80544426699
 10
4424.6130913087
 20
1672.63852009824
 10
4425
 20
1672.43710818198
 10
4425.36788218176
 20
1672.2027413845
 10
4425.71393804843
 20
1671.93720337865
 10
4452.31838236033
 20
1649.61342396886
 10
4452.63997821783
 20
1649.3187356592
 10
4452.93466652749
 20
1648.9971398017
 10
4453.20020453334
 20
1648.65108393502
 10
4453.43457133082
 20
1648.28320175327
 10
4470.79938909751
 20
1618.20645511718
 10
4471.00080101377
 20
1617.81954642588
 10
4471.16772518252
 20
1617.41655583381
 10
4471.29889121004
 20
1617.00055034269
 10
4471.39330084365
 20
1616.57469600551
 10
4477.42403876506
 20
1582.37268167295
 10
4477.48097349046
 20
1581.94021949835
 10
4477.5
 20
1581.50444078461
 10
4477.5
 20
417.413777834238
 10
4483.3016823921
 20
384.510801960711
 10
4499.78486525525
 20
355.961091771285
 10
4525.03856652971
 20
334.770720346023
 10
4556.01681713685
 20
323.495559215388
 10
4588.98318286315
 20
323.495559215388
 10
4619.96143347029
 20
334.770720346023
 10
4645.21513474475
 20
355.961091771285
 10
4661.6983176079
 20
384.510801960711
 10
4667.5
 20
417.413777834238
 10
4667.5
 20
1581.50444078461
 10
4667.51902650954
 20
1581.94021949835
 10
4667.57596123494
 20
1582.37268167295
 10
4673.60669915635
 20
1616.57469600551
 10
4673.70110878996
 20
1617.00055034269
 10
4673.83227481748
 20
1617.41655583381
 10
4673.99919898623
 20
1617.81954642588
 10
4674.20061090249
 20
1618.20645511718
 10
4691.56542866918
 20
1648.28320175327
 10
4691.79979546666
 20
1648.65108393502
 10
4692.06533347251
 20
1648.9971398017
 10
4692.36002178217
 20
1649.3187356592
 10
4692.68161763967
 20
1649.61342396886
 10
4719.28606195157
 20
1671.93720337865
 10
4719.63211781824
 20
1672.2027413845
 10
4720
 20
1672.43710818198
 10
4720.3869086913
 20
1672.63852009824
 10
4720.78989928337
 20
1672.80544426699
 10
4753.42508151668
 20
1684.68367918976
 10
4753.84108700779
 20
1684.81484521728
 10
4754.26694134497
 20
1684.90925485089
 10
4754.69940351957
 20
1684.96618957629
 10
4755.13518223331
 20
1684.98521608583
 10
4789.86481776669
 20
1684.98521608583
 10
4790.30059648043
 20
1684.96618957629
 10
4790.73305865503
 20
1684.90925485089
 10
4791.15891299221
 20
1684.81484521728
 10
4791.57491848332
 20
1684.68367918976
 10
4824.21010071663
 20
1672.80544426699
 10
4824.6130913087
 20
1672.63852009824
 10
4825
 20
1672.43710818198
 10
4825.36788218176
 20
1672.2027413845
 10
4825.71393804843
 20
1671.93720337865
 10
4852.31838236033
 20
1649.61342396886
 10
4852.63997821783
 20
1649.3187356592
 10
4852.93466652749
 20
1648.9971398017
 10
4853.20020453334
 20
1648.65108393502
 10
4853.43457133082
 20
1648.28320175327
 10
4870.79938909751
 20
1618.20645511718
 10
4871.00080101377
 20
1617.81954642588
 10
4871.16772518252
 20
1617.41655583381
 10
4871.29889121004
 20
1617.00055034269
 10
4871.39330084365
 20
1616.57469600551
 10
4877.42403876506
 20
1582.37268167295
 10
4877.48097349046
 20
1581.94021949835
 10
4877.5
 20
1581.50444078461
 10
4877.5
 20
417.413777834238
 10
4883.3016823921
 20
384.510801960711
 10
4899.78486525525
 20
355.961091771285
 10
4925.03856652971
 20
334.770720346024
 10
4956.01681713685
 20
323.495559215388
 10
4988.98318286315
 20
323.495559215388
 10
5019.96143347029
 20
334.770720346024
 10
5045.21513474475
 20
355.961091771285
 10
5061.6983176079
 20
384.510801960711
 10
5067.5
 20
417.413777834238
 10
5067.5
 20
1581.50444078461
 10
5067.51902650954
 20
1581.94021949835
 10
5067.57596123494
 20
1582.37268167295
 10
5073.60669915635
 20
1616.57469600551
 10
5073.70110878996
 20
1617.00055034269
 10
5073.83227481748
 20
1617.41655583381
 10
5073.99919898623
 20
1617.81954642588
 10
5074.20061090249
 20
1618.20645511718
 10
5091.56542866918
 20
1648.28320175327
 10
5091.79979546666
 20
1648.65108393502
 10
5092.06533347251
 20
1648.9971398017
 10
5092.36002178217
 20
1649.3187356592
 10
5092.68161763967
 20
1649.61342396886
 10
5119.28606195157
 20
1671.93720337865
 10
5119.63211781824
 20
1672.2027413845
 10
5120
 20
1672.43710818198
 10
5120.3869086913
 20
1672.63852009824
 10
5120.78989928337
 20
1672.80544426699
 10
5153.42508151668
 20
1684.68367918976
 10
5153.84108700779
 20
1684.81484521728
 10
5154.26694134497
 20
1684.90925485089
 10
5154.69940351957
 20
1684.96618957629
 10
5155.13518223331
 20
1684.98521608583
 10
5189.86481776669
 20
1684.98521608583
 10
5190.30059648043
 20
1684.96618957629
 10
5190.73305865503
 20
1684.90925485089
 10
5191.15891299221
 20
1684.81484521728
 10
5191.57491848332
 20
1684.68367918976
 10
5224.21010071663
 20
1672.80544426699
 10
5224.6130913087
 20
1672.63852009824
 10
5225
 20
1672.43710818198
 10
5225.36788218176
 20
1672.2027413845
 10
5225.71393804843
 20
1671.93720337865
 10
5252.31838236033
 20
1649.61342396886
 10
5252.63997821783
 20
1649.3187356592
 10
5252.93466652749
 20
1648.9971398017
 10
5253.20020453334
 20
1648.65108393502
 10
5253.43457133082
 20
1648.28320175327
 10
5270.79938909751
 20
1618.20645511718
 10
5271.00080101377
 20
1617.81954642588
 10
5271.16772518252
 20
1617.41655583381
 10
5271.29889121004
 20
1617.00055034269
 10
5271.39330084365
 20
1616.57469600551
 10
5277.42403876506
 20
1582.37268167295
 10
5277.48097349046
 20
1581.94021949835
 10
5277.5
 20
1581.50444078461
 10
5277.5
 20
1100.21830471454
 10
5278.96207249198
 20
1083.50673966078
 10
5283.2471483911
 20
1067.51461869098
 10
5290.24412702223
 20
1052.50954959386
 10
5299.74040873032
 20
1038.947453801
 10
5311.447453801
 20
1027.24040873032
 10
5325.00954959386
 20
1017.74412702223
 10
5340.01461869098
 20
1010.7471483911
 10
5356.00673966078
 20
1006.46207249198
 10
5372.71830471454
 20
1005
 97
0
 75
0
 76
1
 98
0
  0
HATCH
  5
20001
  8
0
100
AcDbEntity
100
AcDbHatch
 10
0
 20
0
 30
0
210
0
220
0
230
1
  2
SOLID
 70
1
 71
0
 91
1
 92
2
 72
0
 73
1
 93
18
 10
6600
 20
1005
 10
6850
 20
1075
 10
6970
 20
1075
 10
6970
 20
925
 10
6850
 20
925
 10
6600
 20
995
 10
6167.5
 20
995
 10
6067.5
 20
989.5
 10
6067.5
 20
995.5
 10
6025.5
 20
995.5
 10
6025.5
 20
998.5
 10
6067.5
 20
998.5
 10
6067.5
 20
1007.5
 10
6025.5
 20
1007.5
 10
6025.5
 20
1010.5
 10
6067.5
 20
1010.5
 10
6167.5
 20
1005
 10
6600
 20
1005
 97
0
 75
0
 76
1
 98
0
  0
HATCH
  5
20002
  8
0
100
AcDbEntity
100
AcDbHatch
 10
0
 20
0
 30
0
210
0
220
0
230
1
  2
SOLID
 70
1
 71
0
 91
1
 92
2
 72
0
 73
1
 93
379
 10
1627.28169528546
 20
1005
 10
1643.99326033922
 20
1006.46207249198
 10
1659.98538130902
 20
1010.7471483911
 10
1674.99045040614
 20
1017.74412702223
 10
1688.552546199
 20
1027.24040873032
 10
1700.25959126968
 20
1038.947453801
 10
1709.75587297777
 20
1052.50954959386
 10
1716.7528516089
 20
1067.51461869098
 10
1721.03792750802
 20
1083.50673966078
 10
1722.5
 20
1100.21830471454
 10
1722.5
 20
1581.50444078461
 10
1722.51902650954
 20
1581.94021949835
 10
1722.57596123494
 20
1582.37268167295
 10
1728.60669915635
 20
1616.57469600551
 10
1728.70110878996
 20
1617.00055034269
 10
1728.83227481748
 20
1617.41655583381
 10
1728.99919898623
 20
1617.81954642588
 10
1729.20061090249
 20
1618.20645511718
 10
1746.56542866918
 20
1648.28320175327
 10
1746.79979546666
 20
1648.65108393502
 10
1747.06533347251
 20
1648.9971398017
 10
1747.36002178217
 20
1649.3187356592
 10
1747.68161763967
 20
1649.61342396886
 10
1774.28606195157
 20
1671.93720337865
 10
1774.63211781824
 20
1672.2027413845
 10
1775
 20
1672.43710818198
 10
1775.3869086913
 20
1672.63852009824
 10
1775.78989928337
 20
1672.80544426699
 10
1808.42508151668
 20
1684.68367918976
 10
1808.84108700779
 20
1684.81484521728
 10
1809.26694134497
 20
1684.90925485089
 10
1809.69940351957
 20
1684.96618957629
 10
1810.13518223331
 20
1684.98521608583
 10
1844.86481776669
 20
1684.98521608583
 10
1845.30059648043
 20
1684.96618957629
 10
1845.73305865503
 20
1684.90925485089
 10
1846.15891299221
 20
1684.81484521728
 10
1846.57491848332
 20
1684.68367918976
 10
1879.21010071663
 20
1672.80544426699
 10
1879.6130913087
 20
1672.63852009824
 10
1880
 20
1672.43710818198
 10
1880.36788218176
 20
1672.2027413845
 10
1880.71393804843
 20
1671.93720337865
 10
1907.31838236033
 20
1649.61342396886
 10
1907.63997821783
 20
1649.3187356592
 10
1907.93466652749
 20
1648.9971398017
 10
1908.20020453334
 20
1648.65108393502
 10
1908.43457133082
 20
1648.28320175327
 10
1925.79938909751
 20
1618.20645511718
 10
1926.00080101377
 20
1617.81954642588
 10
1926.16772518252
 20
1617.41655583381
 10
1926.29889121004
 20
1617.00055034269
 10
1926.39330084365
 20
1616.57469600551
 10
1932.42403876506
 20
1582.37268167295
 10
1932.48097349046
 20
1581.94021949835
 10
1932.5
 20
1581.50444078461
 10
1932.5
 20
417.413777834238
 10
1938.3016823921
 20
384.510801960711
 10
1954.78486525525
 20
355.961091771285
 10
1980.03856652971
 20
334.770720346024
 10
2011.01681713685
 20
323.495559215388
 10
2043.98318286315
 20
323.495559215388
 10
2074.96143347029
 20
334.770720346024
 10
2100.21513474475
 20
355.961091771285
 10
2116.6983176079
 20
384.510801960711
 10
2122.5
 20
417.413777834238
 10
2122.5
 20
1581.50444078461
 10
2122.51902650954
 20
1581.94021949835
 10
2122.57596123494
 20
1582.37268167295
 10
2128.60669915635
 20
1616.57469600551
 10
2128.70110878996
 20
1617.00055034269
 10
2128.83227481748
 20
1617.41655583381
 10
2128.99919898623
 20
1617.81954642588
 10
2129.20061090249
 20
1618.20645511718
 10
2146.56542866918
 20
1648.28320175327
 10
2146.79979546666
 20
1648.65108393502
 10
2147.06533347251
 20
1648.9971398017
 10
2147.36002178217
 20
1649.3187356592
 10
2147.68161763967
 20
1649.61342396886
 10
2174.28606195157
 20
1671.93720337865
 10
2174.63211781824
 20
1672.2027413845
 10
2175
 20
1672.43710818198
 10
2175.3869086913
 20
1672.63852009824
 10
2175.78989928337
 20
1672.80544426699
 10
2208.42508151668
 20
1684.68367918976
 10
2208.84108700779
 20
1684.81484521728
 10
2209.26694134497
 20
1684.90925485089
 10
2209.69940351957
 20
1684.96618957629
 10
2210.13518223331
 20
1684.98521608583
 10
2244.86481776669
 20
1684.98521608583
 10
2245.30059648043
 20
1684.96618957629
 10
2245.73305865503
 20
1684.90925485089
 10
2246.15891299221
 20
1684.81484521728
 10
2246.57491848332
 20
1684.68367918976
 10
2279.21010071663
 20
1672.80544426699
 10
2279.6130913087
 20
1672.63852009824
 10
2280
 20
1672.43710818198
 10
2280.36788218176
 20
1672.2027413845
 10
2280.71393804843
 20
1671.93720337865
 10
2307.31838236033
 20
1649.61342396886
 10
2307.63997821783
 20
1649.3187356592
 10
2307.93466652749
 20
1648.9971398017
 10
2308.20020453334
 20
1648.65108393502
 10
2308.43457133082
 20
1648.28320175327
 10
2325.79938909751
 20
1618.20645511718
 10
2326.00080101377
 20
1617.81954642588
 10
2326.16772518252
 20
1617.41655583381
 10
2326.29889121004
 20
1617.00055034269
 10
2326.39330084365
 20
1616.57469600551
 10
2332.42403876506
 20
1582.37268167295
 10
2332.48097349046
 20
1581.94021949835
 10
2332.5
 20
1581.50444078461
 10
2332.5
 20
417.413777834238
 10
2338.3016823921
 20
384.510801960711
 10
2354.78486525525
 20
355.961091771285
 10
2380.03856652971
 20
334.770720346023
 10
2411.01681713685
 20
323.495559215388
 10
2443.98318286315
 20
323.495559215388
 10
2474.96143347029
 20
334.770720346023
 10
2500.21513474475
 20
355.961091771285
 10
2516.6983176079
 20
384.510801960711
 10
2522.5
 20
417.413777834238
 10
2522.5
 20
1581.50444078461
 10
2522.51902650954
 20
1581.94021949835
 10
2522.57596123494
 20
1582.37268167295
 10
2528.60669915635
 20
1616.57469600551
 10
2528.70110878996
 20
1617.00055034269
 10
2528.83227481748
 20
1617.41655583381
 10
2528.99919898623
 20
1617.81954642588
 10
2529.20061090249
 20
1618.20645511718
 10
2546.56542866918
 20
1648.28320175327
 10
2546.79979546666
 20
1648.65108393502
 10
2547.06533347251
 20
1648.9971398017
 10
2547.36002178217
 20
1649.3187356592
 10
2547.68161763967
 20
1649.61342396886
 10
2574.28606195157
 20
1671.93720337865
 10
2574.63211781824
 20
1672.2027413845
 10
2575
 20
1672.43710818198
 10
2575.3869086913
 20
1672.63852009824
 10
2575.78989928337
 20
1672.80544426699
 10
2608.42508151668
 20
1684.68367918976
 10
2608.84108700779
 20
1684.81484521728
 10
2609.26694134497
 20
1684.90925485089
 10
2609.69940351957
 20
1684.96618957629
 10
2610.13518223331
 20
1684.98521608583
 10
2644.86481776669
 20
1684.98521608583
 10
2645.30059648043
 20
1684.96618957629
 10
2645.73305865503
 20
1684.90925485089
 10
2646.15891299221
 20
1684.81484521728
 10
2646.57491848332
 20
1684.68367918976
 10
2679.21010071663
 20
1672.80544426699
 10
2679.6130913087
 20
1672.63852009824
 10
2680
 20
1672.43710818198
 10
2680.36788218176
 20
1672.2027413845
 10
2680.71393804843
 20
1671.93720337865
 10
2707.31838236033
 20
1649.61342396886
 10
2707.63997821783
 20
1649.3187356592
 10
2707.93466652749
 20
1648.9971398017
 10
2708.20020453334
 20
1648.65108393502
 10
2708.43457133082
 20
1648.28320175327
 10
2725.79938909751
 20
1618.20645511718
 10
2726.00080101377
 20
1617.81954642588
 10
2726.16772518252
 20
1617.41655583381
 10
2726.29889121004
 20
1617.00055034269
 10
2726.39330084365
 20
1616.57469600551
 10
2732.42403876506
 20
1582.37268167295
 10
2732.48097349046
 20
1581.94021949835
 10
2732.5
 20
1581.50444078461
 10
2732.5
 20
1100.21830471454
 10
2733.96207249198
 20
1083.50673966078
 10
2738.2471483911
 20
1067.51461869098
 10
2745.24412702223
 20
1052.50954959386
 10
2754.74040873032
 20
1038.947453801
 10
2766.447453801
 20
1027.24040873032
 10
2780.00954959386
 20
1017.74412702223
 10
2795.01461869098
 20
1010.7471483911
 10
2811.00673966078
 20
1006.46207249198
 10
2827.71830471454
 20
1005
 10
3377.5
 20
1005
 10
3477.5
 20
1010.5
 10
3477.5
 20
1004.5
 10
3519.5
 20
1004.5
 10
3519.5
 20
1001.5
 10
3477.5
 20
1001.5
 10
3477.5
 20
992.5
 10
3519.5
 20
992.5
 10
3519.5
 20
989.5
 10
3477.5
 20
989.5
 10
3377.5
 20
995
 10
2827.5
 20
995
 10
2827.06422128626
 20
995.019026509541
 10
2809.69940351957
 20
996.538251208321
 10
2809.26694134497
 20
996.595185933718
 10
2808.84108700779
 20
996.689595567334
 10
2792.00389044192
 20
1001.20110878996
 10
2791.5878849508
 20
1001.33227481748
 10
2791.18489435873
 20
1001.49919898623
 10
2775.3869086913
 20
1008.86592068637
 10
2775
 20
1009.06733260263
 10
2774.63211781824
 20
1009.30169940011
 10
2760.35335684959
 20
1019.29979546666
 10
2760.00730098291
 20
1019.56533347251
 10
2759.68570512541
 20
1019.86002178217
 10
2747.36002178217
 20
1032.18570512541
 10
2747.06533347251
 20
1032.50730098291
 10
2746.79979546666
 20
1032.85335684959
 10
2736.80169940011
 20
1047.13211781824
 10
2736.56733260263
 20
1047.5
 10
2736.36592068637
 20
1047.8869086913
 10
2728.99919898623
 20
1063.68489435873
 10
2728.83227481748
 20
1064.0878849508
 10
2728.70110878996
 20
1064.50389044192
 10
2724.18959556733
 20
1081.34108700779
 10
2724.09518593372
 20
1081.76694134497
 10
2724.03825120832
 20
1082.19940351957
 10
2722.51902650954
 20
1099.56422128626
 10
2722.5
 20
1100
 10
2722.5
 20
1581.06699746698
 10
2716.6983176079
 20
1613.96997334051
 10
2700.21513474475
 20
1642.51968352994
 10
2674.96143347029
 20
1663.7100549552
 10
2643.98318286315
 20
1674.98521608583
 10
2611.01681713685
 20
1674.98521608583
 10
2580.03856652971
 20
1663.7100549552
 10
2554.78486525525
 20
1642.51968352994
 10
2538.3016823921
 20
1613.96997334051
 10
2532.5
 20
1581.06699746698
 10
2532.5
 20
416.976334516608
 10
2532.48097349046
 20
416.54055580287
 10
2532.42403876506
 20
416.108093628274
 10
2526.39330084365
 20
381.906079295707
 10
2526.29889121004
 20
381.480224958529
 10
2526.16772518252
 20
381.064219467413
 10
2526.00080101377
 20
380.661228875338
 10
2525.79938909751
 20
380.274320184041
 10
2508.43457133082
 20
350.197573547954
 10
2508.20020453334
 20
349.829691366199
 10
2507.93466652749
 20
349.483635499522
 10
2507.63997821783
 20
349.162039642022
 10
2507.31838236033
 20
348.867351332359
 10
2480.71393804843
 20
326.54357192257
 10
2480.36788218176
 20
326.278033916719
 10
2480
 20
326.043667119242
 10
2479.6130913087
 20
325.842255202981
 10
2479.21010071663
 20
325.675331034235
 10
2446.57491848332
 20
313.797096111458
 10
2446.15891299221
 20
313.665930083942
 10
2445.73305865503
 20
313.571520450326
 10
2445.30059648043
 20
313.514585724929
 10
2444.86481776669
 20
313.495559215388
 10
2410.13518223331
 20
313.495559215388
 10
2409.69940351957
 20
313.514585724929
 10
2409.26694134497
 20
313.571520450326
 10
2408.84108700779
 20
313.665930083942
 10
2408.42508151668
 20
313.797096111458
 10
2375.78989928337
 20
325.675331034235
 10
2375.3869086913
 20
325.842255202981
 10
2375
 20
326.043667119242
 10
2374.63211781824
 20
326.278033916719
 10
2374.28606195157
 20
326.54357192257
 10
2347.68161763967
 20
348.867351332359
 10
2347.36002178217
 20
349.162039642022
 10
2347.06533347251
 20
349.483635499522
 10
2346.79979546666
 20
349.829691366199
 10
2346.56542866918
 20
350.197573547954
 10
2329.20061090249
 20
380.274320184041
 10
2328.99919898623
 20
380.661228875338
 10
2328.83227481748
 20
381.064219467413
 10
2328.70110878996
 20
381.480224958529
 10
2328.60669915635
 20
381.906079295707
 10
2322.57596123494
 20
416.108093628274
 10
2322.51902650954
 20
416.54055580287
 10
2322.5
 20
416.976334516608
 10
2322.5
 20
1581.06699746698
 10
2316.6983176079
 20
1613.96997334051
 10
2300.21513474475
 20
1642.51968352994
 10
2274.96143347029
 20
1663.7100549552
 10
2243.98318286315
 20
1674.98521608583
 10
2211.01681713685
 20
1674.98521608583
 10
2180.03856652971
 20
1663.7100549552
 10
2154.78486525525
 20
1642.51968352994
 10
2138.3016823921
 20
1613.96997334051
 10
2132.5
 20
1581.06699746698
 10
2132.5
 20
416.976334516608
 10
2132.48097349046
 20
416.54055580287
 10
2132.42403876506
 20
416.108093628274
 10
2126.39330084365
 20
381.906079295707
 10
2126.29889121004
 20
381.480224958529
 10
2126.16772518252
 20
381.064219467413
 10
2126.00080101377
 20
380.661228875338
 10
2125.79938909751
 20
380.274320184041
 10
2108.43457133082
 20
350.197573547954
 10
2108.20020453334
 20
349.829691366199
 10
2107.93466652749
 20
349.483635499522
 10
2107.63997821783
 20
349.162039642022
 10
2107.31838236033
 20
348.867351332359
 10
2080.71393804843
 20
326.54357192257
 10
2080.36788218176
 20
326.278033916719
 10
2080
 20
326.043667119242
 10
2079.6130913087
 20
325.842255202981
 10
2079.21010071663
 20
325.675331034235
 10
2046.57491848332
 20
313.797096111458
 10
2046.15891299221
 20
313.665930083942
 10
2045.73305865503
 20
313.571520450326
 10
2045.30059648043
 20
313.514585724929
 10
2044.86481776669
 20
313.495559215388
 10
2010.13518223331
 20
313.495559215388
 10
2009.69940351957
 20
313.514585724929
 10
2009.26694134497
 20
313.571520450326
 10
2008.84108700779
 20
313.665930083942
 10
2008.42508151668
 20
313.797096111458
 10
1975.78989928337
 20
325.675331034235
 10
1975.3869086913
 20
325.842255202981
 10
1975
 20
326.043667119242
 10
1974.63211781824
 20
326.278033916719
 10
1974.28606195157
 20
326.54357192257
 10
1947.68161763967
 20
348.867351332359
 10
1947.36002178217
 20
349.162039642022
 10
1947.06533347251
 20
349.483635499522
 10
1946.79979546666
 20
349.829691366199
 10
1946.56542866918
 20
350.197573547954
 10
1929.20061090249
 20
380.274320184041
 10
1928.99919898623
 20
380.661228875338
 10
1928.83227481748
 20
381.064219467413
 10
1928.70110878996
 20
381.480224958529
 10
1928.60669915635
 20
381.906079295707
 10
1922.57596123494
 20
416.108093628274
 10
1922.51902650954
 20
416.54055580287
 10
1922.5
 20
416.976334516608
 10
1922.5
 20
1581.06699746698
 10
1916.6983176079
 20
1613.96997334051
 10
1900.21513474475
 20
1642.51968352994
 10
1874.96143347029
 20
1663.7100549552
 10
1843.98318286315
 20
1674.98521608583
 10
1811.01681713685
 20
1674.98521608583
 10
1780.03856652971
 20
1663.7100549552
 10
1754.78486525525
 20
1642.51968352994
 10
1738.3016823921
 20
1613.96997334051
 10
1732.5
 20
1581.06699746698
 10
1732.5
 20
1100
 10
1732.48097349046
 20
1099.56422128626
 10
1730.96174879168
 20
1082.19940351957
 10
1730.90481406628
 20
1081.76694134497
 10
1730.81040443267
 20
1081.34108700779
 10
1726.29889121004
 20
1064.50389044192
 10
1726.16772518252
 20
1064.0878849508
 10
1726.00080101377
 20
1063.68489435873
 10
1718.63407931363
 20
1047.8869086913
 10
1718.43266739737
 20
1047.5
 10
1718.19830059989
 20
1047.13211781824
 10
1708.20020453334
 20
1032.85335684959
 10
1707.93466652749
 20
1032.50730098291
 10
1707.63997821783
 20
1032.18570512541
 10
1695.31429487459
 20
1019.86002178217
 10
1694.99269901709
 20
1019.56533347251
 10
1694.64664315041
 20
1019.29979546666
 10
1680.36788218176
 20
1009.30169940011
 10
1680
 20
1009.06733260263
 10
1679.6130913087
 20
1008.86592068637
 10
1663.81510564127
 20
1001.49919898623
 10
1663.4121150492
 20
1001.33227481748
 10
1662.99610955808
 20
1001.20110878996
 10
1646.15891299221
 20
996.689595567334
 10
1645.73305865503
 20
996.595185933718
 10
1645.30059648043
 20
996.538251208321
 10
1627.93577871374
 20
995.019026509541
 10
1627.5
 20
995
 10
1077.5
 20
995
 10
977.5
 20
989.5
 10
977.5
 20
995.5
 10
935.5
 20
995.5
 10
935.5
 20
998.5
 10
977.5
 20
998.5
 10
977.5
 20
1007.5
 10
935.5
 20
1007.5
 10
935.5
 20
1010.5
 10
977.5
 20
1010.5
 10
1077.5
 20
1005
 10
1627.28169528546
 20
1005
 97
0
 75
0
 76
1
 98
0
  0
HATCH
  5
20003
  8
0
100
AcDbEntity
100
AcDbHatch
 10
0
 20
0
 30
0
210
0
220
0
230
1
  2
SOLID
 70
1
 71
0
 91
1
 92
2
 72
0
 73
1
 93
18
 10
400
 20
995
 10
150
 20
925
 10
30
 20
925
 10
30
 20
1075
 10
150
 20
1075
 10
400
 20
1005
 10
832.5
 20
1005
 10
932.5
 20
1010.5
 10
932.5
 20
1004.5
 10
974.5
 20
1004.5
 10
974.5
 20
1001.5
 10
932.5
 20
1001.5
 10
932.5
 20
992.5
 10
974.5
 20
992.5
 10
974.5
 20
989.5
 10
932.5
 20
989.5
 10
832.5
 20
995
 10
400
 20
995
 97
0
 75
0
 76
1
 98
0
  0
HATCH
  5
20004
  8
0
100
AcDbEntity
100
AcDbHatch
 10
0
 20
0
 30
0
210
0
220
0
230
1
  2
SOLID
 70
1
 71
0
 91
5
 92
2
 72
0
 73
1
 93
600
 10
5573
 20
1192.25
 10
5568.5
 20
1192.25
 10
5568.5
 20
1182.25
 10
5568.5
 20
1157.25
 10
5405.5
 20
1157.25
 10
5405.5
 20
1009.5
 10
5372.91477895763
 20
1009.5
 10
5356.79114134551
 20
1010.91063550586
 10
5341.55958841218
 20
1014.99191781382
 10
5327.26814422833
 20
1021.65612768284
 10
5314.35104709369
 20
1030.70077646831
 10
5303.20077646831
 20
1041.85104709369
 10
5294.15612768284
 20
1054.76814422833
 10
5287.49191781382
 20
1069.05958841218
 10
5283.41063550586
 20
1084.29114134551
 10
5282
 20
1100.41477895763
 10
5282
 20
1581.50444078461
 10
5281.96384963187
 20
1582.33242034072
 10
5281.85567365362
 20
1583.15409847245
 10
5275.82493573221
 20
1617.35611280502
 10
5275.64555742834
 20
1618.16523604565
 10
5275.39634197606
 20
1618.95564647877
 10
5275.07918605544
 20
1619.72132860372
 10
5274.69650341454
 20
1620.45645511718
 10
5257.33168564785
 20
1650.53320175327
 10
5256.88638873264
 20
1651.2321778986
 10
5256.38186652153
 20
1651.88968404529
 10
5255.82195873317
 20
1652.50071617454
 10
5255.21092660392
 20
1653.0606239629
 10
5228.60648229202
 20
1675.38440337269
 10
5227.94897614534
 20
1675.8889255838
 10
5227.25
 20
1676.33422249901
 10
5226.51487348654
 20
1676.7169051399
 10
5225.74919136159
 20
1677.03406106052
 10
5193.11400912829
 20
1688.9122959833
 10
5192.32359869517
 20
1689.16151143558
 10
5191.51447545453
 20
1689.34088973945
 10
5190.6927973228
 20
1689.4490657177
 10
5189.86481776669
 20
1689.48521608583
 10
5155.13518223331
 20
1689.48521608583
 10
5154.3072026772
 20
1689.4490657177
 10
5153.48552454547
 20
1689.34088973945
 10
5152.67640130483
 20
1689.16151143558
 10
5151.88599087171
 20
1688.9122959833
 10
5119.25080863841
 20
1677.03406106052
 10
5118.48512651346
 20
1676.7169051399
 10
5117.75
 20
1676.33422249901
 10
5117.05102385466
 20
1675.8889255838
 10
5116.39351770798
 20
1675.38440337269
 10
5089.78907339608
 20
1653.0606239629
 10
5089.17804126683
 20
1652.50071617454
 10
5088.61813347847
 20
1651.88968404529
 10
5088.11361126736
 20
1651.2321778986
 10
5087.66831435215
 20
1650.53320175327
 10
5070.30349658546
 20
1620.45645511718
 10
5069.92081394456
 20
1619.72132860372
 10
5069.60365802394
 20
1618.95564647877
 10
5069.35444257166
 20
1618.16523604565
 10
5069.17506426779
 20
1617.35611280502
 10
5063.14432634638
 20
1583.15409847245
 10
5063.03615036813
 20
1582.33242034072
 10
5063
 20
1581.50444078461
 10
5063
 20
417.807476820105
 10
5057.40446758427
 20
386.073635559713
 10
5041.71475613431
 20
358.898258172283
 10
5017.67672359354
 20
338.727953933097
 10
4988.18971144996
 20
327.995559215388
 10
4956.81028855004
 20
327.995559215388
 10
4927.32327640646
 20
338.727953933097
 10
4903.28524386569
 20
358.898258172283
 10
4887.59553241573
 20
386.073635559713
 10
4882
 20
417.807476820104
 10
4882
 20
1581.50444078461
 10
4881.96384963187
 20
1582.33242034072
 10
4881.85567365362
 20
1583.15409847245
 10
4875.82493573221
 20
1617.35611280502
 10
4875.64555742834
 20
1618.16523604565
 10
4875.39634197606
 20
1618.95564647877
 10
4875.07918605544
 20
1619.72132860372
 10
4874.69650341454
 20
1620.45645511718
 10
4857.33168564785
 20
1650.53320175327
 10
4856.88638873264
 20
1651.2321778986
 10
4856.38186652153
 20
1651.88968404529
 10
4855.82195873317
 20
1652.50071617454
 10
4855.21092660392
 20
1653.0606239629
 10
4828.60648229202
 20
1675.38440337269
 10
4827.94897614534
 20
1675.8889255838
 10
4827.25
 20
1676.33422249901
 10
4826.51487348654
 20
1676.7169051399
 10
4825.74919136159
 20
1677.03406106052
 10
4793.11400912829
 20
1688.9122959833
 10
4792.32359869517
 20
1689.16151143558
 10
4791.51447545453
 20
1689.34088973945
 10
4790.6927973228
 20
1689.4490657177
 10
4789.86481776669
 20
1689.48521608583
 10
4755.13518223331
 20
1689.48521608583
 10
4754.3072026772
 20
1689.4490657177
 10
4753.48552454547
 20
1689.34088973945
 10
4752.67640130483
 20
1689.16151143558
 10
4751.88599087171
 20
1688.9122959833
 10
4719.25080863841
 20
1677.03406106052
 10
4718.48512651346
 20
1676.7169051399
 10
4717.75
 20
1676.33422249901
 10
4717.05102385466
 20
1675.8889255838
 10
4716.39351770798
 20
1675.38440337269
 10
4689.78907339608
 20
1653.0606239629
 10
4689.17804126683
 20
1652.50071617454
 10
4688.61813347847
 20
1651.88968404529
 10
4688.11361126736
 20
1651.2321778986
 10
4687.66831435215
 20
1650.53320175327
 10
4670.30349658546
 20
1620.45645511718
 10
4669.92081394456
 20
1619.72132860372
 10
4669.60365802394
 20
1618.95564647877
 10
4669.35444257166
 20
1618.16523604565
 10
4669.17506426779
 20
1617.35611280502
 10
4663.14432634638
 20
1583.15409847245
 10
4663.03615036813
 20
1582.33242034072
 10
4663
 20
1581.50444078461
 10
4663
 20
417.807476820105
 10
4657.40446758427
 20
386.073635559713
 10
4641.71475613431
 20
358.898258172283
 10
4617.67672359354
 20
338.727953933097
 10
4588.18971144996
 20
327.995559215388
 10
4556.81028855004
 20
327.995559215388
 10
4527.32327640646
 20
338.727953933097
 10
4503.28524386569
 20
358.898258172283
 10
4487.59553241573
 20
386.073635559713
 10
4482
 20
417.807476820105
 10
4482
 20
1581.50444078461
 10
4481.96384963187
 20
1582.33242034072
 10
4481.85567365362
 20
1583.15409847245
 10
4475.82493573221
 20
1617.35611280502
 10
4475.64555742834
 20
1618.16523604565
 10
4475.39634197606
 20
1618.95564647877
 10
4475.07918605544
 20
1619.72132860372
 10
4474.69650341454
 20
1620.45645511718
 10
4457.33168564785
 20
1650.53320175327
 10
4456.88638873264
 20
1651.2321778986
 10
4456.38186652153
 20
1651.88968404529
 10
4455.82195873317
 20
1652.50071617454
 10
4455.21092660392
 20
1653.0606239629
 10
4428.60648229202
 20
1675.38440337269
 10
4427.94897614534
 20
1675.8889255838
 10
4427.25
 20
1676.33422249901
 10
4426.51487348654
 20
1676.7169051399
 10
4425.74919136159
 20
1677.03406106052
 10
4393.11400912829
 20
1688.9122959833
 10
4392.32359869517
 20
1689.16151143558
 10
4391.51447545453
 20
1689.34088973945
 10
4390.6927973228
 20
1689.4490657177
 10
4389.86481776669
 20
1689.48521608583
 10
4355.13518223331
 20
1689.48521608583
 10
4354.3072026772
 20
1689.4490657177
 10
4353.48552454547
 20
1689.34088973945
 10
4352.67640130483
 20
1689.16151143558
 10
4351.88599087171
 20
1688.9122959833
 10
4319.25080863841
 20
1677.03406106052
 10
4318.48512651346
 20
1676.7169051399
 10
4317.75
 20
1676.33422249901
 10
4317.05102385466
 20
1675.8889255838
 10
4316.39351770798
 20
1675.38440337269
 10
4289.78907339608
 20
1653.0606239629
 10
4289.17804126683
 20
1652.50071617454
 10
4288.61813347847
 20
1651.88968404529
 10
4288.11361126736
 20
1651.2321778986
 10
4287.66831435215
 20
1650.53320175327
 10
4270.30349658546
 20
1620.45645511718
 10
4269.92081394456
 20
1619.72132860372
 10
4269.60365802394
 20
1618.95564647877
 10
4269.35444257166
 20
1618.16523604565
 10
4269.17506426779
 20
1617.35611280502
 10
4263.14432634638
 20
1583.15409847245
 10
4263.03615036813
 20
1582.33242034072
 10
4263
 20
1581.50444078461
 10
4263
 20
1100.41477895763
 10
4261.58936449414
 20
1084.29114134551
 10
4257.50808218618
 20
1069.05958841218
 10
4250.84387231716
 20
1054.76814422833
 10
4241.79922353169
 20
1041.85104709368
 10
4230.64895290631
 20
1030.70077646831
 10
4217.73185577167
 20
1021.65612768284
 10
4203.44041158782
 20
1014.99191781382
 10
4188.20885865449
 20
1010.91063550586
 10
4172.08522104237
 20
1009.5
 10
3622.5
 20
1009.5
 10
3522.5
 20
1017.5
 10
3477.5
 20
1017.5
 10
3377.5
 20
1009.5
 10
2827.91477895763
 20
1009.5
 10
2811.79114134551
 20
1010.91063550586
 10
2796.55958841218
 20
1014.99191781382
 10
2782.26814422833
 20
1021.65612768284
 10
2769.35104709369
 20
1030.70077646831
 10
2758.20077646831
 20
1041.85104709368
 10
2749.15612768284
 20
1054.76814422833
 10
2742.49191781382
 20
1069.05958841218
 10
2738.41063550586
 20
1084.29114134551
 10
2737
 20
1100.41477895763
 10
2737
 20
1581.50444078461
 10
2736.96384963187
 20
1582.33242034072
 10
2736.85567365362
 20
1583.15409847245
 10
2730.82493573221
 20
1617.35611280502
 10
2730.64555742834
 20
1618.16523604565
 10
2730.39634197606
 20
1618.95564647877
 10
2730.07918605544
 20
1619.72132860372
 10
2729.69650341454
 20
1620.45645511718
 10
2712.33168564785
 20
1650.53320175327
 10
2711.88638873264
 20
1651.2321778986
 10
2711.38186652153
 20
1651.88968404529
 10
2710.82195873317
 20
1652.50071617454
 10
2710.21092660392
 20
1653.0606239629
 10
2683.60648229202
 20
1675.38440337269
 10
2682.94897614534
 20
1675.8889255838
 10
2682.25
 20
1676.33422249901
 10
2681.51487348654
 20
1676.7169051399
 10
2680.74919136159
 20
1677.03406106052
 10
2648.11400912829
 20
1688.9122959833
 10
2647.32359869517
 20
1689.16151143558
 10
2646.51447545453
 20
1689.34088973945
 10
2645.6927973228
 20
1689.4490657177
 10
2644.86481776669
 20
1689.48521608583
 10
2610.13518223331
 20
1689.48521608583
 10
2609.3072026772
 20
1689.4490657177
 10
2608.48552454547
 20
1689.34088973945
 10
2607.67640130483
 20
1689.16151143558
 10
2606.88599087171
 20
1688.9122959833
 10
2574.25080863841
 20
1677.03406106052
 10
2573.48512651346
 20
1676.7169051399
 10
2572.75
 20
1676.33422249901
 10
2572.05102385466
 20
1675.8889255838
 10
2571.39351770798
 20
1675.38440337269
 10
2544.78907339608
 20
1653.0606239629
 10
2544.17804126683
 20
1652.50071617454
 10
2543.61813347847
 20
1651.88968404529
 10
2543.11361126736
 20
1651.2321778986
 10
2542.66831435215
 20
1650.53320175327
 10
2525.30349658546
 20
1620.45645511718
 10
2524.92081394456
 20
1619.72132860372
 10
2524.60365802394
 20
1618.95564647877
 10
2524.35444257166
 20
1618.16523604565
 10
2524.17506426779
 20
1617.35611280502
 10
2518.14432634638
 20
1583.15409847245
 10
2518.03615036813
 20
1582.33242034072
 10
2518
 20
1581.50444078461
 10
2518
 20
417.807476820105
 10
2512.40446758427
 20
386.073635559713
 10
2496.71475613431
 20
358.898258172283
 10
2472.67672359354
 20
338.727953933097
 10
2443.18971144996
 20
327.995559215388
 10
2411.81028855004
 20
327.995559215388
 10
2382.32327640646
 20
338.727953933097
 10
2358.28524386569
 20
358.898258172283
 10
2342.59553241573
 20
386.073635559713
 10
2337
 20
417.807476820105
 10
2337
 20
1581.50444078461
 10
2336.96384963187
 20
1582.33242034072
 10
2336.85567365362
 20
1583.15409847245
 10
2330.82493573221
 20
1617.35611280502
 10
2330.64555742834
 20
1618.16523604565
 10
2330.39634197606
 20
1618.95564647877
 10
2330.07918605544
 20
1619.72132860372
 10
2329.69650341454
 20
1620.45645511718
 10
2312.33168564785
 20
1650.53320175327
 10
2311.88638873264
 20
1651.2321778986
 10
2311.38186652153
 20
1651.88968404529
 10
2310.82195873317
 20
1652.50071617454
 10
2310.21092660392
 20
1653.0606239629
 10
2283.60648229202
 20
1675.38440337269
 10
2282.94897614534
 20
1675.8889255838
 10
2282.25
 20
1676.33422249901
 10
2281.51487348654
 20
1676.7169051399
 10
2280.74919136159
 20
1677.03406106052
 10
2248.11400912829
 20
1688.9122959833
 10
2247.32359869517
 20
1689.16151143558
 10
2246.51447545453
 20
1689.34088973945
 10
2245.6927973228
 20
1689.4490657177
 10
2244.86481776669
 20
1689.48521608583
 10
2210.13518223331
 20
1689.48521608583
 10
2209.3072026772
 20
1689.4490657177
 10
2208.48552454547
 20
1689.34088973945
 10
2207.67640130483
 20
1689.16151143558
 10
2206.88599087171
 20
1688.9122959833
 10
2174.25080863841
 20
1677.03406106052
 10
2173.48512651346
 20
1676.7169051399
 10
2172.75
 20
1676.33422249901
 10
2172.05102385466
 20
1675.8889255838
 10
2171.39351770798
 20
1675.38440337269
 10
2144.78907339608
 20
1653.0606239629
 10
2144.17804126683
 20
1652.50071617454
 10
2143.61813347847
 20
1651.88968404529
 10
2143.11361126736
 20
1651.2321778986
 10
2142.66831435215
 20
1650.53320175327
 10
2125.30349658546
 20
1620.45645511718
 10
2124.92081394456
 20
1619.72132860372
 10
2124.60365802394
 20
1618.95564647877
 10
2124.35444257166
 20
1618.16523604565
 10
2124.17506426779
 20
1617.35611280502
 10
2118.14432634638
 20
1583.15409847245
 10
2118.03615036813
 20
1582.33242034072
 10
2118
 20
1581.50444078461
 10
2118
 20
417.807476820104
 10
2112.40446758427
 20
386.073635559713
 10
2096.71475613431
 20
358.898258172283
 10
2072.67672359354
 20
338.727953933097
 10
2043.18971144996
 20
327.995559215388
 10
2011.81028855004
 20
327.995559215388
 10
1982.32327640646
 20
338.727953933097
 10
1958.28524386569
 20
358.898258172283
 10
1942.59553241573
 20
386.073635559713
 10
1937
 20
417.807476820105
 10
1937
 20
1581.50444078461
 10
1936.96384963187
 20
1582.33242034072
 10
1936.85567365362
 20
1583.15409847245
 10
1930.82493573221
 20
1617.35611280502
 10
1930.64555742834
 20
1618.16523604565
 10
1930.39634197606
 20
1618.95564647877
 10
1930.07918605544
 20
1619.72132860372
 10
1929.69650341454
 20
1620.45645511718
 10
1912.33168564785
 20
1650.53320175327
 10
1911.88638873264
 20
1651.2321778986
 10
1911.38186652153
 20
1651.88968404529
 10
1910.82195873317
 20
1652.50071617454
 10
1910.21092660392
 20
1653.0606239629
 10
1883.60648229202
 20
1675.38440337269
 10
1882.94897614533
 20
1675.8889255838
 10
1882.25
 20
1676.33422249901
 10
1881.51487348654
 20
1676.7169051399
 10
1880.74919136159
 20
1677.03406106052
 10
1848.11400912829
 20
1688.9122959833
 10
1847.32359869517
 20
1689.16151143558
 10
1846.51447545453
 20
1689.34088973945
 10
1845.6927973228
 20
1689.4490657177
 10
1844.86481776669
 20
1689.48521608583
 10
1810.13518223331
 20
1689.48521608583
 10
1809.3072026772
 20
1689.4490657177
 10
1808.48552454547
 20
1689.34088973945
 10
1807.67640130483
 20
1689.16151143558
 10
1806.88599087171
 20
1688.9122959833
 10
1774.25080863841
 20
1677.03406106052
 10
1773.48512651346
 20
1676.7169051399
 10
1772.75
 20
1676.33422249901
 10
1772.05102385467
 20
1675.8889255838
 10
1771.39351770798
 20
1675.38440337269
 10
1744.78907339608
 20
1653.0606239629
 10
1744.17804126683
 20
1652.50071617454
 10
1743.61813347847
 20
1651.88968404529
 10
1743.11361126736
 20
1651.2321778986
 10
1742.66831435215
 20
1650.53320175327
 10
1725.30349658546
 20
1620.45645511718
 10
1724.92081394456
 20
1619.72132860372
 10
1724.60365802394
 20
1618.95564647877
 10
1724.35444257166
 20
1618.16523604565
 10
1724.17506426779
 20
1617.35611280502
 10
1718.14432634638
 20
1583.15409847245
 10
1718.03615036813
 20
1582.33242034072
 10
1718
 20
1581.50444078461
 10
1718
 20
1100.41477895763
 10
1716.58936449414
 20
1084.29114134551
 10
1712.50808218618
 20
1069.05958841218
 10
1705.84387231716
 20
1054.76814422833
 10
1696.79922353169
 20
1041.85104709369
 10
1685.64895290631
 20
1030.70077646831
 10
1672.73185577167
 20
1021.65612768284
 10
1658.44041158782
 20
1014.99191781382
 10
1643.20885865449
 20
1010.91063550586
 10
1627.08522104237
 20
1009.5
 10
1594.5
 20
1009.5
 10
1594.5
 20
1157.25
 10
1431.5
 20
1157.25
 10
1431.5
 20
1182.25
 10
1431.5
 20
1192.25
 10
1427
 20
1192.25
 10
1427
 20
1182.25
 10
1417
 20
1182.25
 10
1417
 20
1192.23333797739
 10
1415.77720746131
 20
1375.70130400028
 10
1410.93475377804
 20
1385.99204190074
 10
1404.41977931766
 20
1396.25799896443
 10
1396.66951178242
 20
1405.62646307466
 10
1387.80617752111
 20
1413.94968795598
 10
1377.96955660975
 20
1421.09641137995
 10
1367.31477843621
 20
1426.95392524894
 10
1356.00987521715
 20
1431.42985307011
 10
1344.23313202956
 20
1434.45360678794
 10
1332.15834320858
 20
1435.97900735456
 10
1066.44614315289
 20
1437.25243117447
 10
1065.90357419056
 20
1437.2845731904
 10
1065.36769968183
 20
1437.37541755715
 10
1064.84485182403
 20
1437.52389080613
 10
1064.34120888416
 20
1437.72823849316
 10
1052.35055388826
 20
1443.37061244256
 10
1051.80031637119
 20
1443.67310807738
 10
1040.61138824343
 20
1450.7738177861
 10
1040.10340226958
 20
1451.14289119973
 10
1029.89265709047
 20
1459.58995423388
 10
1029.4349339021
 20
1460.01978491811
 10
1020.36340122272
 20
1469.67998604762
 10
1019.96315938796
 20
1470.1637953158
 10
1012.17390269773
 20
1480.88478739814
 10
1011.83745426939
 20
1481.41494528909
 10
1005.4533147994
 20
1493.0276518747
 10
1005.18596577018
 20
1493.59579748178
 10
1000.30762521357
 20
1505.91707925071
 10
1000.11359183737
 20
1506.51425257831
 10
996.817984538897
 20
1519.34979555669
 10
996.700326837968
 20
1519.9665788247
 10
995.039426493428
 20
1533.11395883218
 10
995
 20
1533.740625
 10
995
 20
1600
 10
925
 20
1850
 10
925
 20
1970
 10
1075
 20
1970
 10
1075
 20
1850
 10
1005
 20
1600
 10
1005
 20
1534.05519833627
 10
1006.58204735768
 20
1521.53200399189
 10
1009.72119224115
 20
1509.30584188641
 10
1014.36792846036
 20
1497.56952589978
 10
1020.44897420931
 20
1486.50814474604
 10
1027.86842776388
 20
1476.29614301375
 10
1036.50927990937
 20
1467.09457007056
 10
1046.23525924565
 20
1459.04854021856
 10
1056.89298126855
 20
1452.28494415496
 10
1067.59911419843
 20
1447.24702040825
 10
1332.50881067394
 20
1445.97744258102
 10
1333.11151465267
 20
1445.93807350657
 10
1345.79855719675
 20
1444.33532730766
 10
1346.41534046475
 20
1444.21766960673
 10
1358.80146452525
 20
1441.03745347389
 10
1359.39863785285
 20
1440.84342009769
 10
1371.28850685421
 20
1436.13588793912
 10
1371.85665246129
 20
1435.8685389099
 10
1383.0627560667
 20
1429.70793131987
 10
1383.59291395765
 20
1429.37148289152
 10
1393.93852521906
 20
1421.85495633191
 10
1394.42233448724
 20
1421.45471449714
 10
1403.74429693487
 20
1412.70080908193
 10
1404.1741276191
 20
1412.24308589357
 10
1412.3254283365
 20
1402.38985594049
 10
1412.69450175013
 20
1401.88186996664
 10
1419.54658985562
 20
1391.0847067981
 10
1419.84908549044
 20
1390.53446928103
 10
1425.29389946136
 20
1378.9636506101
 10
1425.4974858784
 20
1378.46222081011
 10
1425.64568622781
 20
1377.94172496003
 10
1425.73676431716
 20
1377.4082607577
 10
1425.76965315106
 20
1376.86807782745
 10
1426.99988895203
 20
1192.28332367518
 10
1422
 20
1192.25
 10
1431.49978900886
 20
1192.31331498283
 10
1430.26955320789
 20
1376.89806913511
 10
1430.20706442348
 20
1377.92441670258
 10
1430.03401605372
 20
1378.937998687
 10
1429.75243538984
 20
1379.92694080217
 10
1429.36562119746
 20
1380.87965742215
 10
1423.92080722653
 20
1392.45047609308
 10
1423.34606552037
 20
1393.49592737551
 10
1416.49397741489
 20
1404.29309054405
 10
1415.79273792899
 20
1405.25826389436
 10
1407.64143721159
 20
1415.11149384743
 10
1406.82475891155
 20
1415.98116790533
 10
1397.50279646392
 20
1424.73507332053
 10
1396.58355885437
 20
1425.49553280659
 10
1386.23794759297
 20
1433.01205936621
 10
1385.23064760016
 20
1433.65131138007
 10
1374.02454399475
 20
1439.81191897009
 10
1372.94506734129
 20
1440.31988212562
 10
1361.05519833993
 20
1445.02741428419
 10
1359.92056901749
 20
1445.39607769897
 10
1347.534444957
 20
1448.57629383181
 10
1346.36255674779
 20
1448.79984346357
 10
1333.67551420371
 20
1450.40258966249
 10
1332.53037664412
 20
1450.47739090394
 10
1068.61522216924
 20
1451.74220239574
 10
1059.06515909877
 20
1456.23612096002
 10
1048.88552257024
 20
1462.69631474302
 10
1039.59583249252
 20
1470.38141473109
 10
1031.34259282753
 20
1479.17022230658
 10
1024.25596209503
 20
1488.92413272384
 10
1018.44770069503
 20
1499.4893209889
 10
1014.00940837948
 20
1510.69916777146
 10
1011.01107966952
 20
1522.37688709133
 10
1009.5
 20
1534.33831433891
 10
1009.5
 20
1600
 10
1145
 20
1850
 10
1145
 20
2000
 10
5855
 20
2000
 10
5855
 20
1850
 10
5990.5
 20
1600
 10
5990.5
 20
1534.33831433891
 10
5988.98892033049
 20
1522.37688709133
 10
5985.99059162052
 20
1510.69916777146
 10
5981.55229930497
 20
1499.48932098889
 10
5975.74403790497
 20
1488.92413272385
 10
5968.65740717247
 20
1479.17022230658
 10
5960.40416750748
 20
1470.38141473109
 10
5951.11447742976
 20
1462.69631474302
 10
5940.93484090123
 20
1456.23612096002
 10
5931.38477783076
 20
1451.74220239574
 10
5667.46962335588
 20
1450.47739090394
 10
5666.32448579629
 20
1450.40258966249
 10
5653.63744325221
 20
1448.79984346357
 10
5652.465555043
 20
1448.57629383181
 10
5640.07943098251
 20
1445.39607769897
 10
5638.94480166007
 20
1445.02741428419
 10
5627.05493265872
 20
1440.31988212562
 10
5625.97545600525
 20
1439.81191897009
 10
5614.76935239985
 20
1433.65131138007
 10
5613.76205240703
 20
1433.01205936621
 10
5603.41644114563
 20
1425.49553280659
 10
5602.49720353609
 20
1424.73507332054
 10
5593.17524108846
 20
1415.98116790533
 10
5592.35856278841
 20
1415.11149384743
 10
5584.20726207102
 20
1405.25826389436
 10
5583.50602258512
 20
1404.29309054405
 10
5576.65393447963
 20
1393.49592737551
 10
5576.07919277347
 20
1392.45047609308
 10
5570.63437880255
 20
1380.87965742215
 10
5570.24756461016
 20
1379.92694080217
 10
5569.96598394629
 20
1378.937998687
 10
5569.79293557652
 20
1377.92441670258
 10
5569.73044679211
 20
1376.89806913512
 10
5568.50021099113
 20
1192.31331498283
 10
5573.00011104797
 20
1192.28332367518
 10
5574.23034684894
 20
1376.86807782746
 10
5574.26323568284
 20
1377.4082607577
 10
5574.35431377219
 20
1377.94172496003
 10
5574.5025141216
 20
1378.46222081012
 10
5574.70610053865
 20
1378.96365061011
 10
5580.15091450957
 20
1390.53446928104
 10
5580.45341014439
 20
1391.08470679811
 10
5587.30549824988
 20
1401.88186996665
 10
5587.67457166351
 20
1402.38985594049
 10
5595.8258723809
 20
1412.24308589357
 10
5596.25570306514
 20
1412.70080908193
 10
5605.57766551277
 20
1421.45471449714
 10
5606.06147478095
 20
1421.85495633191
 10
5616.40708604235
 20
1429.37148289152
 10
5616.9372439333
 20
1429.70793131987
 10
5628.14334753871
 20
1435.8685389099
 10
5628.7114931458
 20
1436.13588793912
 10
5640.60136214715
 20
1440.84342009769
 10
5641.19853547475
 20
1441.03745347389
 10
5653.58465953525
 20
1444.21766960673
 10
5654.20144280325
 20
1444.33532730766
 10
5666.88848534733
 20
1445.93807350657
 10
5667.49118932606
 20
1445.97744258102
 10
5932.40088580157
 20
1447.24702040825
 10
5943.10701873145
 20
1452.28494415496
 10
5953.76474075435
 20
1459.04854021856
 10
5963.49072009062
 20
1467.09457007056
 10
5972.13157223612
 20
1476.29614301375
 10
5979.55102579069
 20
1486.50814474604
 10
5985.63207153964
 20
1497.56952589978
 10
5990.27880775884
 20
1509.30584188641
 10
5993.41795264232
 20
1521.53200399189
 10
5995
 20
1534.05519833627
 10
5995
 20
1600
 10
5925
 20
1850
 10
5925
 20
1970
 10
6075
 20
1970
 10
6075
 20
1850
 10
6005
 20
1600
 10
6005
 20
1533.740625
 10
6004.96057350657
 20
1533.11395883218
 10
6003.29967316203
 20
1519.9665788247
 10
6003.1820154611
 20
1519.34979555669
 10
5999.88640816263
 20
1506.51425257831
 10
5999.69237478643
 20
1505.91707925071
 10
5994.81403422982
 20
1493.59579748178
 10
5994.5466852006
 20
1493.0276518747
 10
5988.16254573061
 20
1481.41494528909
 10
5987.82609730227
 20
1480.88478739814
 10
5980.03684061204
 20
1470.16379531581
 10
5979.63659877727
 20
1469.67998604762
 10
5970.5650660979
 20
1460.01978491811
 10
5970.10734290953
 20
1459.58995423388
 10
5959.89659773042
 20
1451.14289119973
 10
5959.38861175657
 20
1450.7738177861
 10
5948.19968362881
 20
1443.67310807738
 10
5947.64944611174
 20
1443.37061244256
 10
5935.65879111584
 20
1437.72823849316
 10
5935.15514817597
 20
1437.52389080613
 10
5934.63230031817
 20
1437.37541755715
 10
5934.09642580944
 20
1437.2845731904
 10
5933.55385684711
 20
1437.25243117447
 10
5667.84165679142
 20
1435.97900735456
 10
5655.76686797044
 20
1434.45360678794
 10
5643.99012478285
 20
1431.42985307011
 10
5632.68522156379
 20
1426.95392524894
 10
5622.03044339026
 20
1421.09641137995
 10
5612.19382247889
 20
1413.94968795598
 10
5603.33048821759
 20
1405.62646307466
 10
5595.58022068234
 20
1396.25799896442
 10
5589.06524622197
 20
1385.99204190074
 10
5584.22279253869
 20
1375.70130400028
 10
5583
 20
1192.23333797742
 10
5583
 20
1182.25
 10
5573
 20
1182.25
 10
5573
 20
1192.25
 97
0
 92
2
 72
0
 73
1
 93
17
 10
1647
 20
1194.26705922172
 10
1647
 20
1204.26705922172
 10
1662
 20
1204.26705922172
 10
1662
 20
1214.26705922172
 10
1657
 20
1214.26705922172
 10
1647
 20
1214.26705922172
 10
1647
 20
1229.26705922172
 10
1637
 20
1229.26705922172
 10
1637
 20
1224.26705922172
 10
1637
 20
1214.26705922172
 10
1622
 20
1214.26705922172
 10
1622
 20
1204.26705922172
 10
1627
 20
1204.26705922172
 10
1637
 20
1204.26705922172
 10
1637
 20
1189.26705922172
 10
1647
 20
1189.26705922172
 10
1647
 20
1194.26705922172
 97
0
 92
2
 72
0
 73
1
 93
17
 10
1613
 20
1185.94655114603
 10
1613
 20
1190.94655114603
 10
1619
 20
1190.94655114603
 10
1619
 20
1192.94655114603
 10
1618
 20
1192.94655114603
 10
1613
 20
1192.94655114603
 10
1613
 20
1198.94655114603
 10
1611
 20
1198.94655114603
 10
1611
 20
1197.94655114603
 10
1611
 20
1192.94655114603
 10
1605
 20
1192.94655114603
 10
1605
 20
1190.94655114603
 10
1606
 20
1190.94655114603
 10
1611
 20
1190.94655114603
 10
1611
 20
1184.94655114603
 10
1613
 20
1184.94655114603
 10
1613
 20
1185.94655114603
 97
0
 92
2
 72
0
 73
1
 93
17
 10
5363
 20
1194.26705922172
 10
5363
 20
1204.26705922172
 10
5378
 20
1204.26705922172
 10
5378
 20
1214.26705922172
 10
5373
 20
1214.26705922172
 10
5363
 20
1214.26705922172
 10
5363
 20
1229.26705922172
 10
5353
 20
1229.26705922172
 10
5353
 20
1224.26705922172
 10
5353
 20
1214.26705922172
 10
5338
 20
1214.26705922172
 10
5338
 20
1204.26705922172
 10
5343
 20
1204.26705922172
 10
5353
 20
1204.26705922172
 10
5353
 20
1189.26705922172
 10
5363
 20
1189.26705922172
 10
5363
 20
1194.26705922172
 97
0
 92
2
 72
0
 73
1
 93
17
 10
5389
 20
1185.94655114603
 10
5389
 20
1190.94655114603
 10
5395
 20
1190.94655114603
 10
5395
 20
1192.94655114603
 10
5394
 20
1192.94655114603
 10
5389
 20
1192.94655114603
 10
5389
 20
1198.94655114603
 10
5387
 20
1198.94655114603
 10
5387
 20
1197.94655114603
 10
5387
 20
1192.94655114603
 10
5381
 20
1192.94655114603
 10
5381
 20
1190.94655114603
 10
5382
 20
1190.94655114603
 10
5387
 20
1190.94655114603
 10
5387
 20
1184.94655114603
 10
5389
 20
1184.94655114603
 10
5389
 20
1185.94655114603
 97
0
 75
0
 76
1
 98
0
  0
HATCH
  5
20005
  8
0
100
AcDbEntity
100
AcDbHatch
 10
0
 20
0
 30
0
210
0
220
0
230
1
  2
SOLID
 70
1
 71
0
 91
28
 92
2
 72
0
 73
1
 93
50
 10
6167.5
 20
1009.5
 10
6067.5
 20
1017.5
 10
6022.5
 20
1017.5
 10
5922.5
 20
1009.5
 10
5750.5
 20
1009.5
 10
5750.5
 20
1157.25
 10
5587.5
 20
1157.25
 10
5587.5
 20
1182.25
 10
5587.5
 20
1192.21834215696
 10
5588.71609360264
 20
1374.68119886348
 10
5593.01642302703
 20
1383.81986407053
 10
5599.2279952068
 20
1393.60773563984
 10
5606.61733287811
 20
1402.53991049151
 10
5615.06790177172
 20
1410.47552289233
 10
5624.44643136806
 20
1417.28942349423
 10
5634.60501665291
 20
1422.87415301427
 10
5645.3834506679
 20
1427.14163693178
 10
5656.61175106988
 20
1430.02457447611
 10
5668.13551154006
 20
1431.48036397367
 10
5933.57542281728
 20
1432.75248285155
 10
5934.60630384572
 20
1432.81355268182
 10
5935.6244654123
 20
1432.98615697865
 10
5936.61787634213
 20
1433.2682561517
 10
5937.57479792788
 20
1433.65651675706
 10
5949.56545292378
 20
1439.29889070647
 10
5950.61090420622
 20
1439.87363241263
 10
5961.79983233398
 20
1446.97434212134
 10
5962.76500568429
 20
1447.67558160724
 10
5972.9757508634
 20
1456.12264464139
 10
5973.84542492129
 20
1456.93932294144
 10
5982.91695760067
 20
1466.59952407095
 10
5983.67741708673
 20
1467.51876168049
 10
5991.46667377695
 20
1478.23975376282
 10
5992.10592579081
 20
1479.24705375563
 10
5998.49006526079
 20
1490.85976034124
 10
5998.99802841632
 20
1491.9392369947
 10
6003.87636897292
 20
1504.26051876363
 10
6004.24503238771
 20
1505.39514808607
 10
6007.54063968618
 20
1518.23069106445
 10
6007.76418931795
 20
1519.40257927366
 10
6009.42508966249
 20
1532.54995928114
 10
6009.5
 20
1533.740625
 10
6009.5
 20
1600
 10
6145
 20
1850
 10
6145
 20
2000
 10
7000
 20
2000
 10
7000
 20
1145
 10
6850
 20
1145
 10
6600
 20
1009.5
 10
6167.5
 20
1009.5
 97
0
 92
2
 72
0
 73
1
 93
17
 10
5803
 20
1194.26705922172
 10
5803
 20
1204.26705922172
 10
5818
 20
1204.26705922172
 10
5818
 20
1214.26705922172
 10
5813
 20
1214.26705922172
 10
5803
 20
1214.26705922172
 10
5803
 20
1229.26705922172
 10
5793
 20
1229.26705922172
 10
5793
 20
1224.26705922172
 10
5793
 20
1214.26705922172
 10
5778
 20
1214.26705922172
 10
5778
 20
1204.26705922172
 10
5783
 20
1204.26705922172
 10
5793
 20
1204.26705922172
 10
5793
 20
1189.26705922172
 10
5803
 20
1189.26705922172
 10
5803
 20
1194.26705922172
 97
0
 92
2
 72
0
 73
1
 93
17
 10
5769
 20
1185.94655114603
 10
5769
 20
1190.94655114603
 10
5775
 20
1190.94655114603
 10
5775
 20
1192.94655114603
 10
5774
 20
1192.94655114603
 10
5769
 20
1192.94655114603
 10
5769
 20
1198.94655114603
 10
5767
 20
1198.94655114603
 10
5767
 20
1197.94655114603
 10
5767
 20
1192.94655114603
 10
5761
 20
1192.94655114603
 10
5761
 20
1190.94655114603
 10
5762
 20
1190.94655114603
 10
5767
 20
1190.94655114603
 10
5767
 20
1184.94655114603
 10
5769
 20
1184.94655114603
 10
5769
 20
1185.94655114603
 97
0
 92
2
 72
0
 73
1
 93
17
 10
6448
 20
1390
 10
6440
 20
1390
 10
6440
 20
1400
 10
6436
 20
1400
 10
6436
 20
1398
 10
6436
 20
1390
 10
6426
 20
1390
 10
6426
 20
1386
 10
6428
 20
1386
 10
6436
 20
1386
 10
6436
 20
1376
 10
6440
 20
1376
 10
6440
 20
1378
 10
6440
 20
1386
 10
6450
 20
1386
 10
6450
 20
1390
 10
6448
 20
1390
 97
0
 92
2
 72
0
 73
1
 93
17
 10
6448
 20
1440
 10
6440
 20
1440
 10
6440
 20
1450
 10
6436
 20
1450
 10
6436
 20
1448
 10
6436
 20
1440
 10
6426
 20
1440
 10
6426
 20
1436
 10
6428
 20
1436
 10
6436
 20
1436
 10
6436
 20
1426
 10
6440
 20
1426
 10
6440
 20
1428
 10
6440
 20
1436
 10
6450
 20
1436
 10
6450
 20
1440
 10
6448
 20
1440
 97
0
 92
2
 72
0
 73
1
 93
17
 10
6448
 20
1490
 10
6440
 20
1490
 10
6440
 20
1500
 10
6436
 20
1500
 10
6436
 20
1498
 10
6436
 20
1490
 10
6426
 20
1490
 10
6426
 20
1486
 10
6428
 20
1486
 10
6436
 20
1486
 10
6436
 20
1476
 10
6440
 20
1476
 10
6440
 20
1478
 10
6440
 20
1486
 10
6450
 20
1486
 10
6450
 20
1490
 10
6448
 20
1490
 97
0
 92
2
 72
0
 73
1
 93
17
 10
6448
 20
1540
 10
6440
 20
1540
 10
6440
 20
1550
 10
6436
 20
1550
 10
6436
 20
1548
 10
6436
 20
1540
 10
6426
 20
1540
 10
6426
 20
1536
 10
6428
 20
1536
 10
6436
 20
1536
 10
6436
 20
1526
 10
6440
 20
1526
 10
6440
 20
1528
 10
6440
 20
1536
 10
6450
 20
1536
 10
6450
 20
1540
 10
6448
 20
1540
 97
0
 92
2
 72
0
 73
1
 93
17
 10
6448
 20
1590
 10
6440
 20
1590
 10
6440
 20
1600
 10
6436
 20
1600
 10
6436
 20
1598
 10
6436
 20
1590
 10
6426
 20
1590
 10
6426
 20
1586
 10
6428
 20
1586
 10
6436
 20
1586
 10
6436
 20
1576
 10
6440
 20
1576
 10
6440
 20
1578
 10
6440
 20
1586
 10
6450
 20
1586
 10
6450
 20
1590
 10
6448
 20
1590
 97
0
 92
2
 72
0
 73
1
 93
17
 10
6498
 20
1390
 10
6490
 20
1390
 10
6490
 20
1400
 10
6486
 20
1400
 10
6486
 20
1398
 10
6486
 20
1390
 10
6476
 20
1390
 10
6476
 20
1386
 10
6478
 20
1386
 10
6486
 20
1386
 10
6486
 20
1376
 10
6490
 20
1376
 10
6490
 20
1378
 10
6490
 20
1386
 10
6500
 20
1386
 10
6500
 20
1390
 10
6498
 20
1390
 97
0
 92
2
 72
0
 73
1
 93
17
 10
6498
 20
1440
 10
6490
 20
1440
 10
6490
 20
1450
 10
6486
 20
1450
 10
6486
 20
1448
 10
6486
 20
1440
 10
6476
 20
1440
 10
6476
 20
1436
 10
6478
 20
1436
 10
6486
 20
1436
 10
6486
 20
1426
 10
6490
 20
1426
 10
6490
 20
1428
 10
6490
 20
1436
 10
6500
 20
1436
 10
6500
 20
1440
 10
6498
 20
1440
 97
0
 92
2
 72
0
 73
1
 93
17
 10
6498
 20
1490
 10
6490
 20
1490
 10
6490
 20
1500
 10
6486
 20
1500
 10
6486
 20
1498
 10
6486
 20
1490
 10
6476
 20
1490
 10
6476
 20
1486
 10
6478
 20
1486
 10
6486
 20
1486
 10
6486
 20
1476
 10
6490
 20
1476
 10
6490
 20
1478
 10
6490
 20
1486
 10
6500
 20
1486
 10
6500
 20
1490
 10
6498
 20
1490
 97
0
 92
2
 72
0
 73
1
 93
17
 10
6498
 20
1540
 10
6490
 20
1540
 10
6490
 20
1550
 10
6486
 20
1550
 10
6486
 20
1548
 10
6486
 20
1540
 10
6476
 20
1540
 10
6476
 20
1536
 10
6478
 20
1536
 10
6486
 20
1536
 10
6486
 20
1526
 10
6490
 20
1526
 10
6490
 20
1528
 10
6490
 20
1536
 10
6500
 20
1536
 10
6500
 20
1540
 10
6498
 20
1540
 97
0
 92
2
 72
0
 73
1
 93
17
 10
6498
 20
1590
 10
6490
 20
1590
 10
6490
 20
1600
 10
6486
 20
1600
 10
6486
 20
1598
 10
6486
 20
1590
 10
6476
 20
1590
 10
6476
 20
1586
 10
6478
 20
1586
 10
6486
 20
1586
 10
6486
 20
1576
 10
6490
 20
1576
 10
6490
 20
1578
 10
6490
 20
1586
 10
6500
 20
1586
 10
6500
 20
1590
 10
6498
 20
1590
 97
0
 92
2
 72
0
 73
1
 93
17
 10
6548
 20
1390
 10
6540
 20
1390
 10
6540
 20
1400
 10
6536
 20
1400
 10
6536
 20
1398
 10
6536
 20
1390
 10
6526
 20
1390
 10
6526
 20
1386
 10
6528
 20
1386
 10
6536
 20
1386
 10
6536
 20
1376
 10
6540
 20
1376
 10
6540
 20
1378
 10
6540
 20
1386
 10
6550
 20
1386
 10
6550
 20
1390
 10
6548
 20
1390
 97
0
 92
2
 72
0
 73
1
 93
17
 10
6548
 20
1440
 10
6540
 20
1440
 10
6540
 20
1450
 10
6536
 20
1450
 10
6536
 20
1448
 10
6536
 20
1440
 10
6526
 20
1440
 10
6526
 20
1436
 10
6528
 20
1436
 10
6536
 20
1436
 10
6536
 20
1426
 10
6540
 20
1426
 10
6540
 20
1428
 10
6540
 20
1436
 10
6550
 20
1436
 10
6550
 20
1440
 10
6548
 20
1440
 97
0
 92
2
 72
0
 73
1
 93
17
 10
6548
 20
1490
 10
6540
 20
1490
 10
6540
 20
1500
 10
6536
 20
1500
 10
6536
 20
1498
 10
6536
 20
1490
 10
6526
 20
1490
 10
6526
 20
1486
 10
6528
 20
1486
 10
6536
 20
1486
 10
6536
 20
1476
 10
6540
 20
1476
 10
6540
 20
1478
 10
6540
 20
1486
 10
6550
 20
1486
 10
6550
 20
1490
 10
6548
 20
1490
 97
0
 92
2
 72
0
 73
1
 93
17
 10
6548
 20
1540
 10
6540
 20
1540
 10
6540
 20
1550
 10
6536
 20
1550
 10
6536
 20
1548
 10
6536
 20
1540
 10
6526
 20
1540
 10
6526
 20
1536
 10
6528
 20
1536
 10
6536
 20
1536
 10
6536
 20
1526
 10
6540
 20
1526
 10
6540
 20
1528
 10
6540
 20
1536
 10
6550
 20
1536
 10
6550
 20
1540
 10
6548
 20
1540
 97
0
 92
2
 72
0
 73
1
 93
17
 10
6548
 20
1590
 10
6540
 20
1590
 10
6540
 20
1600
 10
6536
 20
1600
 10
6536
 20
1598
 10
6536
 20
1590
 10
6526
 20
1590
 10
6526
 20
1586
 10
6528
 20
1586
 10
6536
 20
1586
 10
6536
 20
1576
 10
6540
 20
1576
 10
6540
 20
1578
 10
6540
 20
1586
 10
6550
 20
1586
 10
6550
 20
1590
 10
6548
 20
1590
 97
0
 92
2
 72
0
 73
1
 93
17
 10
6598
 20
1390
 10
6590
 20
1390
 10
6590
 20
1400
 10
6586
 20
1400
 10
6586
 20
1398
 10
6586
 20
1390
 10
6576
 20
1390
 10
6576
 20
1386
 10
6578
 20
1386
 10
6586
 20
1386
 10
6586
 20
1376
 10
6590
 20
1376
 10
6590
 20
1378
 10
6590
 20
1386
 10
6600
 20
1386
 10
6600
 20
1390
 10
6598
 20
1390
 97
0
 92
2
 72
0
 73
1
 93
17
 10
6598
 20
1440
 10
6590
 20
1440
 10
6590
 20
1450
 10
6586
 20
1450
 10
6586
 20
1448
 10
6586
 20
1440
 10
6576
 20
1440
 10
6576
 20
1436
 10
6578
 20
1436
 10
6586
 20
1436
 10
6586
 20
1426
 10
6590
 20
1426
 10
6590
 20
1428
 10
6590
 20
1436
 10
6600
 20
1436
 10
6600
 20
1440
 10
6598
 20
1440
 97
0
 92
2
 72
0
 73
1
 93
17
 10
6598
 20
1490
 10
6590
 20
1490
 10
6590
 20
1500
 10
6586
 20
1500
 10
6586
 20
1498
 10
6586
 20
1490
 10
6576
 20
1490
 10
6576
 20
1486
 10
6578
 20
1486
 10
6586
 20
1486
 10
6586
 20
1476
 10
6590
 20
1476
 10
6590
 20
1478
 10
6590
 20
1486
 10
6600
 20
1486
 10
6600
 20
1490
 10
6598
 20
1490
 97
0
 92
2
 72
0
 73
1
 93
17
 10
6598
 20
1540
 10
6590
 20
1540
 10
6590
 20
1550
 10
6586
 20
1550
 10
6586
 20
1548
 10
6586
 20
1540
 10
6576
 20
1540
 10
6576
 20
1536
 10
6578
 20
1536
 10
6586
 20
1536
 10
6586
 20
1526
 10
6590
 20
1526
 10
6590
 20
1528
 10
6590
 20
1536
 10
6600
 20
1536
 10
6600
 20
1540
 10
6598
 20
1540
 97
0
 92
2
 72
0
 73
1
 93
17
 10
6598
 20
1590
 10
6590
 20
1590
 10
6590
 20
1600
 10
6586
 20
1600
 10
6586
 20
1598
 10
6586
 20
1590
 10
6576
 20
1590
 10
6576
 20
1586
 10
6578
 20
1586
 10
6586
 20
1586
 10
6586
 20
1576
 10
6590
 20
1576
 10
6590
 20
1578
 10
6590
 20
1586
 10
6600
 20
1586
 10
6600
 20
1590
 10
6598
 20
1590
 97
0
 92
2
 72
0
 73
1
 93
17
 10
6648
 20
1390
 10
6640
 20
1390
 10
6640
 20
1400
 10
6636
 20
1400
 10
6636
 20
1398
 10
6636
 20
1390
 10
6626
 20
1390
 10
6626
 20
1386
 10
6628
 20
1386
 10
6636
 20
1386
 10
6636
 20
1376
 10
6640
 20
1376
 10
6640
 20
1378
 10
6640
 20
1386
 10
6650
 20
1386
 10
6650
 20
1390
 10
6648
 20
1390
 97
0
 92
2
 72
0
 73
1
 93
17
 10
6648
 20
1440
 10
6640
 20
1440
 10
6640
 20
1450
 10
6636
 20
1450
 10
6636
 20
1448
 10
6636
 20
1440
 10
6626
 20
1440
 10
6626
 20
1436
 10
6628
 20
1436
 10
6636
 20
1436
 10
6636
 20
1426
 10
6640
 20
1426
 10
6640
 20
1428
 10
6640
 20
1436
 10
6650
 20
1436
 10
6650
 20
1440
 10
6648
 20
1440
 97
0
 92
2
 72
0
 73
1
 93
17
 10
6648
 20
1490
 10
6640
 20
1490
 10
6640
 20
1500
 10
6636
 20
1500
 10
6636
 20
1498
 10
6636
 20
1490
 10
6626
 20
1490
 10
6626
 20
1486
 10
6628
 20
1486
 10
6636
 20
1486
 10
6636
 20
1476
 10
6640
 20
1476
 10
6640
 20
1478
 10
6640
 20
1486
 10
6650
 20
1486
 10
6650
 20
1490
 10
6648
 20
1490
 97
0
 92
2
 72
0
 73
1
 93
17
 10
6648
 20
1540
 10
6640
 20
1540
 10
6640
 20
1550
 10
6636
 20
1550
 10
6636
 20
1548
 10
6636
 20
1540
 10
6626
 20
1540
 10
6626
 20
1536
 10
6628
 20
1536
 10
6636
 20
1536
 10
6636
 20
1526
 10
6640
 20
1526
 10
6640
 20
1528
 10
6640
 20
1536
 10
6650
 20
1536
 10
6650
 20
1540
 10
6648
 20
1540
 97
0
 92
2
 72
0
 73
1
 93
17
 10
6648
 20
1590
 10
6640
 20
1590
 10
6640
 20
1600
 10
6636
 20
1600
 10
6636
 20
1598
 10
6636
 20
1590
 10
6626
 20
1590
 10
6626
 20
1586
 10
6628
 20
1586
 10
6636
 20
1586
 10
6636
 20
1576
 10
6640
 20
1576
 10
6640
 20
1578
 10
6640
 20
1586
 10
6650
 20
1586
 10
6650
 20
1590
 10
6648
 20
1590
 97
0
 75
0
 76
1
 98
0
  0
HATCH
  5
20006
  8
0
100
AcDbEntity
100
AcDbHatch
 10
0
 20
0
 30
0
210
0
220
0
230
1
  2
SOLID
 70
1
 71
0
 91
28
 92
2
 72
0
 73
1
 93
50
 10
1412.5
 20
1192.21834215703
 10
1412.5
 20
1182.25
 10
1412.5
 20
1157.25
 10
1249.5
 20
1157.25
 10
1249.5
 20
1009.5
 10
1077.5
 20
1009.5
 10
977.5
 20
1017.5
 10
932.5
 20
1017.5
 10
832.5
 20
1009.5
 10
400
 20
1009.5
 10
150
 20
1145
 10
0
 20
1145
 10
0
 20
2000
 10
855
 20
2000
 10
855
 20
1850
 10
990.5
 20
1600
 10
990.5
 20
1533.740625
 10
990.574910337513
 20
1532.54995928114
 10
992.235810682052
 20
1519.40257927366
 10
992.459360313818
 20
1518.23069106445
 10
995.754967612291
 20
1505.39514808607
 10
996.123631027074
 20
1504.26051876363
 10
1001.00197158368
 20
1491.9392369947
 10
1001.5099347392
 20
1490.85976034124
 10
1007.89407420919
 20
1479.24705375563
 10
1008.53332622305
 20
1478.23975376282
 10
1016.32258291327
 20
1467.51876168049
 10
1017.08304239933
 20
1466.59952407094
 10
1026.15457507871
 20
1456.93932294143
 10
1027.0242491366
 20
1456.12264464139
 10
1037.23499431571
 20
1447.67558160724
 10
1038.20016766602
 20
1446.97434212134
 10
1049.38909579378
 20
1439.87363241262
 10
1050.43454707621
 20
1439.29889070647
 10
1062.42520207211
 20
1433.65651675706
 10
1063.38212365787
 20
1433.2682561517
 10
1064.3755345877
 20
1432.98615697865
 10
1065.39369615428
 20
1432.81355268182
 10
1066.42457718271
 20
1432.75248285155
 10
1331.86448845994
 20
1431.48036397367
 10
1343.38824893012
 20
1430.02457447611
 10
1354.6165493321
 20
1427.14163693178
 10
1365.39498334709
 20
1422.87415301427
 10
1375.55356863195
 20
1417.28942349422
 10
1384.93209822828
 20
1410.47552289233
 10
1393.38266712189
 20
1402.53991049151
 10
1400.77200479321
 20
1393.60773563983
 10
1406.98357697298
 20
1383.81986407052
 10
1411.28390639737
 20
1374.68119886348
 10
1412.5
 20
1192.21834215703
 97
0
 92
2
 72
0
 73
1
 93
17
 10
1207
 20
1194.26705922172
 10
1207
 20
1204.26705922172
 10
1222
 20
1204.26705922172
 10
1222
 20
1214.26705922172
 10
1217
 20
1214.26705922172
 10
1207
 20
1214.26705922172
 10
1207
 20
1229.26705922172
 10
1197
 20
1229.26705922172
 10
1197
 20
1224.26705922172
 10
1197
 20
1214.26705922172
 10
1182
 20
1214.26705922172
 10
1182
 20
1204.26705922172
 10
1187
 20
1204.26705922172
 10
1197
 20
1204.26705922172
 10
1197
 20
1189.26705922172
 10
1207
 20
1189.26705922172
 10
1207
 20
1194.26705922172
 97
0
 92
2
 72
0
 73
1
 93
17
 10
1233
 20
1185.94655114603
 10
1233
 20
1190.94655114603
 10
1239
 20
1190.94655114603
 10
1239
 20
1192.94655114603
 10
1238
 20
1192.94655114603
 10
1233
 20
1192.94655114603
 10
1233
 20
1198.94655114603
 10
1231
 20
1198.94655114603
 10
1231
 20
1197.94655114603
 10
1231
 20
1192.94655114603
 10
1225
 20
1192.94655114603
 10
1225
 20
1190.94655114603
 10
1226
 20
1190.94655114603
 10
1231
 20
1190.94655114603
 10
1231
 20
1184.94655114603
 10
1233
 20
1184.94655114603
 10
1233
 20
1185.94655114603
 97
0
 92
2
 72
0
 73
1
 93
17
 10
372
 20
1390
 10
364
 20
1390
 10
364
 20
1400
 10
360
 20
1400
 10
360
 20
1398
 10
360
 20
1390
 10
350
 20
1390
 10
350
 20
1386
 10
352
 20
1386
 10
360
 20
1386
 10
360
 20
1376
 10
364
 20
1376
 10
364
 20
1378
 10
364
 20
1386
 10
374
 20
1386
 10
374
 20
1390
 10
372
 20
1390
 97
0
 92
2
 72
0
 73
1
 93
17
 10
372
 20
1440
 10
364
 20
1440
 10
364
 20
1450
 10
360
 20
1450
 10
360
 20
1448
 10
360
 20
1440
 10
350
 20
1440
 10
350
 20
1436
 10
352
 20
1436
 10
360
 20
1436
 10
360
 20
1426
 10
364
 20
1426
 10
364
 20
1428
 10
364
 20
1436
 10
374
 20
1436
 10
374
 20
1440
 10
372
 20
1440
 97
0
 92
2
 72
0
 73
1
 93
17
 10
372
 20
1490
 10
364
 20
1490
 10
364
 20
1500
 10
360
 20
1500
 10
360
 20
1498
 10
360
 20
1490
 10
350
 20
1490
 10
350
 20
1486
 10
352
 20
1486
 10
360
 20
1486
 10
360
 20
1476
 10
364
 20
1476
 10
364
 20
1478
 10
364
 20
1486
 10
374
 20
1486
 10
374
 20
1490
 10
372
 20
1490
 97
0
 92
2
 72
0
 73
1
 93
17
 10
372
 20
1540
 10
364
 20
1540
 10
364
 20
1550
 10
360
 20
1550
 10
360
 20
1548
 10
360
 20
1540
 10
350
 20
1540
 10
350
 20
1536
 10
352
 20
1536
 10
360
 20
1536
 10
360
 20
1526
 10
364
 20
1526
 10
364
 20
1528
 10
364
 20
1536
 10
374
 20
1536
 10
374
 20
1540
 10
372
 20
1540
 97
0
 92
2
 72
0
 73
1
 93
17
 10
372
 20
1590
 10
364
 20
1590
 10
364
 20
1600
 10
360
 20
1600
 10
360
 20
1598
 10
360
 20
1590
 10
350
 20
1590
 10
350
 20
1586
 10
352
 20
1586
 10
360
 20
1586
 10
360
 20
1576
 10
364
 20
1576
 10
364
 20
1578
 10
364
 20
1586
 10
374
 20
1586
 10
374
 20
1590
 10
372
 20
1590
 97
0
 92
2
 72
0
 73
1
 93
17
 10
422
 20
1390
 10
414
 20
1390
 10
414
 20
1400
 10
410
 20
1400
 10
410
 20
1398
 10
410
 20
1390
 10
400
 20
1390
 10
400
 20
1386
 10
402
 20
1386
 10
410
 20
1386
 10
410
 20
1376
 10
414
 20
1376
 10
414
 20
1378
 10
414
 20
1386
 10
424
 20
1386
 10
424
 20
1390
 10
422
 20
1390
 97
0
 92
2
 72
0
 73
1
 93
17
 10
422
 20
1440
 10
414
 20
1440
 10
414
 20
1450
 10
410
 20
1450
 10
410
 20
1448
 10
410
 20
1440
 10
400
 20
1440
 10
400
 20
1436
 10
402
 20
1436
 10
410
 20
1436
 10
410
 20
1426
 10
414
 20
1426
 10
414
 20
1428
 10
414
 20
1436
 10
424
 20
1436
 10
424
 20
1440
 10
422
 20
1440
 97
0
 92
2
 72
0
 73
1
 93
17
 10
422
 20
1490
 10
414
 20
1490
 10
414
 20
1500
 10
410
 20
1500
 10
410
 20
1498
 10
410
 20
1490
 10
400
 20
1490
 10
400
 20
1486
 10
402
 20
1486
 10
410
 20
1486
 10
410
 20
1476
 10
414
 20
1476
 10
414
 20
1478
 10
414
 20
1486
 10
424
 20
1486
 10
424
 20
1490
 10
422
 20
1490
 97
0
 92
2
 72
0
 73
1
 93
17
 10
422
 20
1540
 10
414
 20
1540
 10
414
 20
1550
 10
410
 20
1550
 10
410
 20
1548
 10
410
 20
1540
 10
400
 20
1540
 10
400
 20
1536
 10
402
 20
1536
 10
410
 20
1536
 10
410
 20
1526
 10
414
 20
1526
 10
414
 20
1528
 10
414
 20
1536
 10
424
 20
1536
 10
424
 20
1540
 10
422
 20
1540
 97
0
 92
2
 72
0
 73
1
 93
17
 10
422
 20
1590
 10
414
 20
1590
 10
414
 20
1600
 10
410
 20
1600
 10
410
 20
1598
 10
410
 20
1590
 10
400
 20
1590
 10
400
 20
1586
 10
402
 20
1586
 10
410
 20
1586
 10
410
 20
1576
 10
414
 20
1576
 10
414
 20
1578
 10
414
 20
1586
 10
424
 20
1586
 10
424
 20
1590
 10
422
 20
1590
 97
0
 92
2
 72
0
 73
1
 93
17
 10
472
 20
1390
 10
464
 20
1390
 10
464
 20
1400
 10
460
 20
1400
 10
460
 20
1398
 10
460
 20
1390
 10
450
 20
1390
 10
450
 20
1386
 10
452
 20
1386
 10
460
 20
1386
 10
460
 20
1376
 10
464
 20
1376
 10
464
 20
1378
 10
464
 20
1386
 10
474
 20
1386
 10
474
 20
1390
 10
472
 20
1390
 97
0
 92
2
 72
0
 73
1
 93
17
 10
472
 20
1440
 10
464
 20
1440
 10
464
 20
1450
 10
460
 20
1450
 10
460
 20
1448
 10
460
 20
1440
 10
450
 20
1440
 10
450
 20
1436
 10
452
 20
1436
 10
460
 20
1436
 10
460
 20
1426
 10
464
 20
1426
 10
464
 20
1428
 10
464
 20
1436
 10
474
 20
1436
 10
474
 20
1440
 10
472
 20
1440
 97
0
 92
2
 72
0
 73
1
 93
17
 10
472
 20
1490
 10
464
 20
1490
 10
464
 20
1500
 10
460
 20
1500
 10
460
 20
1498
 10
460
 20
1490
 10
450
 20
1490
 10
450
 20
1486
 10
452
 20
1486
 10
460
 20
1486
 10
460
 20
1476
 10
464
 20
1476
 10
464
 20
1478
 10
464
 20
1486
 10
474
 20
1486
 10
474
 20
1490
 10
472
 20
1490
 97
0
 92
2
 72
0
 73
1
 93
17
 10
472
 20
1540
 10
464
 20
1540
 10
464
 20
1550
 10
460
 20
1550
 10
460
 20
1548
 10
460
 20
1540
 10
450
 20
1540
 10
450
 20
1536
 10
452
 20
1536
 10
460
 20
1536
 10
460
 20
1526
 10
464
 20
1526
 10
464
 20
1528
 10
464
 20
1536
 10
474
 20
1536
 10
474
 20
1540
 10
472
 20
1540
 97
0
 92
2
 72
0
 73
1
 93
17
 10
472
 20
1590
 10
464
 20
1590
 10
464
 20
1600
 10
460
 20
1600
 10
460
 20
1598
 10
460
 20
1590
 10
450
 20
1590
 10
450
 20
1586
 10
452
 20
1586
 10
460
 20
1586
 10
460
 20
1576
 10
464
 20
1576
 10
464
 20
1578
 10
464
 20
1586
 10
474
 20
1586
 10
474
 20
1590
 10
472
 20
1590
 97
0
 92
2
 72
0
 73
1
 93
17
 10
522
 20
1390
 10
514
 20
1390
 10
514
 20
1400
 10
510
 20
1400
 10
510
 20
1398
 10
510
 20
1390
 10
500
 20
1390
 10
500
 20
1386
 10
502
 20
1386
 10
510
 20
1386
 10
510
 20
1376
 10
514
 20
1376
 10
514
 20
1378
 10
514
 20
1386
 10
524
 20
1386
 10
524
 20
1390
 10
522
 20
1390
 97
0
 92
2
 72
0
 73
1
 93
17
 10
522
 20
1440
 10
514
 20
1440
 10
514
 20
1450
 10
510
 20
1450
 10
510
 20
1448
 10
510
 20
1440
 10
500
 20
1440
 10
500
 20
1436
 10
502
 20
1436
 10
510
 20
1436
 10
510
 20
1426
 10
514
 20
1426
 10
514
 20
1428
 10
514
 20
1436
 10
524
 20
1436
 10
524
 20
1440
 10
522
 20
1440
 97
0
 92
2
 72
0
 73
1
 93
17
 10
522
 20
1490
 10
514
 20
1490
 10
514
 20
1500
 10
510
 20
1500
 10
510
 20
1498
 10
510
 20
1490
 10
500
 20
1490
 10
500
 20
1486
 10
502
 20
1486
 10
510
 20
1486
 10
510
 20
1476
 10
514
 20
1476
 10
514
 20
1478
 10
514
 20
1486
 10
524
 20
1486
 10
524
 20
1490
 10
522
 20
1490
 97
0
 92
2
 72
0
 73
1
 93
17
 10
522
 20
1540
 10
514
 20
1540
 10
514
 20
1550
 10
510
 20
1550
 10
510
 20
1548
 10
510
 20
1540
 10
500
 20
1540
 10
500
 20
1536
 10
502
 20
1536
 10
510
 20
1536
 10
510
 20
1526
 10
514
 20
1526
 10
514
 20
1528
 10
514
 20
1536
 10
524
 20
1536
 10
524
 20
1540
 10
522
 20
1540
 97
0
 92
2
 72
0
 73
1
 93
17
 10
522
 20
1590
 10
514
 20
1590
 10
514
 20
1600
 10
510
 20
1600
 10
510
 20
1598
 10
510
 20
1590
 10
500
 20
1590
 10
500
 20
1586
 10
502
 20
1586
 10
510
 20
1586
 10
510
 20
1576
 10
514
 20
1576
 10
514
 20
1578
 10
514
 20
1586
 10
524
 20
1586
 10
524
 20
1590
 10
522
 20
1590
 97
0
 92
2
 72
0
 73
1
 93
17
 10
572
 20
1390
 10
564
 20
1390
 10
564
 20
1400
 10
560
 20
1400
 10
560
 20
1398
 10
560
 20
1390
 10
550
 20
1390
 10
550
 20
1386
 10
552
 20
1386
 10
560
 20
1386
 10
560
 20
1376
 10
564
 20
1376
 10
564
 20
1378
 10
564
 20
1386
 10
574
 20
1386
 10
574
 20
1390
 10
572
 20
1390
 97
0
 92
2
 72
0
 73
1
 93
17
 10
572
 20
1440
 10
564
 20
1440
 10
564
 20
1450
 10
560
 20
1450
 10
560
 20
1448
 10
560
 20
1440
 10
550
 20
1440
 10
550
 20
1436
 10
552
 20
1436
 10
560
 20
1436
 10
560
 20
1426
 10
564
 20
1426
 10
564
 20
1428
 10
564
 20
1436
 10
574
 20
1436
 10
574
 20
1440
 10
572
 20
1440
 97
0
 92
2
 72
0
 73
1
 93
17
 10
572
 20
1490
 10
564
 20
1490
 10
564
 20
1500
 10
560
 20
1500
 10
560
 20
1498
 10
560
 20
1490
 10
550
 20
1490
 10
550
 20
1486
 10
552
 20
1486
 10
560
 20
1486
 10
560
 20
1476
 10
564
 20
1476
 10
564
 20
1478
 10
564
 20
1486
 10
574
 20
1486
 10
574
 20
1490
 10
572
 20
1490
 97
0
 92
2
 72
0
 73
1
 93
17
 10
572
 20
1540
 10
564
 20
1540
 10
564
 20
1550
 10
560
 20
1550
 10
560
 20
1548
 10
560
 20
1540
 10
550
 20
1540
 10
550
 20
1536
 10
552
 20
1536
 10
560
 20
1536
 10
560
 20
1526
 10
564
 20
1526
 10
564
 20
1528
 10
564
 20
1536
 10
574
 20
1536
 10
574
 20
1540
 10
572
 20
1540
 97
0
 92
2
 72
0
 73
1
 93
17
 10
572
 20
1590
 10
564
 20
1590
 10
564
 20
1600
 10
560
 20
1600
 10
560
 20
1598
 10
560
 20
1590
 10
550
 20
1590
 10
550
 20
1586
 10
552
 20
1586
 10
560
 20
1586
 10
560
 20
1576
 10
564
 20
1576
 10
564
 20
1578
 10
564
 20
1586
 10
574
 20
1586
 10
574
 20
1590
 10
572
 20
1590
 97
0
 75
0
 76
1
 98
0
  0
HATCH
  5
20007
  8
0
100
AcDbEntity
100
AcDbHatch
 10
0
 20
0
 30
0
210
0
220
0
230
1
  2
SOLID
 70
1
 71
0
 91
1
 92
2
 72
0
 73
1
 93
15
 10
3911.11111111111
 20
188.888888888889
 10
3911.11111111111
 20
166.666666666667
 10
3933.33333333333
 20
166.666666666667
 10
3955.55555555556
 20
166.666666666667
 10
3977.77777777778
 20
166.666666666667
 10
4000
 20
166.666666666667
 10
4000
 20
144.444444444444
 10
3977.77777777778
 20
144.444444444444
 10
3955.55555555556
 20
144.444444444444
 10
3933.33333333333
 20
144.444444444444
 10
3911.11111111111
 20
144.444444444444
 10
3888.88888888889
 20
144.444444444444
 10
3888.88888888889
 20
166.666666666667
 10
3888.88888888889
 20
188.888888888889
 10
3911.11111111111
 20
188.888888888889
 97
0
 75
0
 76
1
 98
0
  0
HATCH
  5
20008
  8
0
100
AcDbEntity
100
AcDbHatch
 10
0
 20
0
 30
0
210
0
220
0
230
1
  2
SOLID
 70
1
 71
0
 91
1
 92
2
 72
0
 73
1
 93
11
 10
3266.66666666667
 20
166.666666666667
 10
3266.66666666667
 20
144.444444444444
 10
3244.44444444444
 20
144.444444444444
 10
3222.22222222222
 20
144.444444444444
 10
3200
 20
144.444444444444
 10
3177.77777777778
 20
144.444444444444
 10
3177.77777777778
 20
166.666666666667
 10
3200
 20
166.666666666667
 10
3222.22222222222
 20
166.666666666667
 10
3244.44444444444
 20
166.666666666667
 10
3266.66666666667
 20
166.666666666667
 97
0
 75
0
 76
1
 98
0
  0
HATCH
  5
20009
  8
0
100
AcDbEntity
100
AcDbHatch
 10
0
 20
0
 30
0
210
0
220
0
230
1
  2
SOLID
 70
1
 71
0
 91
1
 92
2
 72
0
 73
1
 93
7
 10
3266.66666666667
 20
166.666666666667
 10
3266.66666666667
 20
188.888888888889
 10
3266.66666666667
 20
211.111111111111
 10
3288.88888888889
 20
211.111111111111
 10
3288.88888888889
 20
188.888888888889
 10
3288.88888888889
 20
166.666666666667
 10
3266.66666666667
 20
166.666666666667
 97
0
 75
0
 76
1
 98
0
  0
HATCH
  5
2000A
  8
0
100
AcDbEntity
100
AcDbHatch
 10
0
 20
0
 30
0
210
0
220
0
230
1
  2
SOLID
 70
1
 71
0
 91
1
 92
2
 72
0
 73
1
 93
7
 10
3911.11111111111
 20
188.888888888889
 10
3911.11111111111
 20
211.111111111111
 10
3933.33333333333
 20
211.111111111111
 10
3955.55555555556
 20
211.111111111111
 10
3955.55555555556
 20
188.888888888889
 10
3933.33333333333
 20
188.888888888889
 10
3911.11111111111
 20
188.888888888889
 97
0
 75
0
 76
1
 98
0
  0
HATCH
  5
2000B
  8
0
100
AcDbEntity
100
AcDbHatch
 10
0
 20
0
 30
0
210
0
220
0
230
1
  2
SOLID
 70
1
 71
0
 91
1
 92
2
 72
0
 73
1
 93
19
 10
3000
 20
144.444444444444
 10
3000
 20
166.666666666667
 10
3000
 20
188.888888888889
 10
3000
 20
211.111111111111
 10
3000
 20
233.333333333333
 10
3000
 20
255.555555555556
 10
3000
 20
277.777777777778
 10
3000
 20
300
 10
3022.22222222222
 20
300
 10
3022.22222222222
 20
277.777777777778
 10
3044.44444444444
 20
277.777777777778
 10
3044.44444444444
 20
255.555555555556
 10
3022.22222222222
 20
255.555555555556
 10
3022.22222222222
 20
233.333333333333
 10
3022.22222222222
 20
211.111111111111
 10
3022.22222222222
 20
188.888888888889
 10
3022.22222222222
 20
166.666666666667
 10
3022.22222222222
 20
144.444444444444
 10
3000
 20
144.444444444444
 97
0
 75
0
 76
1
 98
0
  0
HATCH
  5
2000C
  8
0
100
AcDbEntity
100
AcDbHatch
 10
0
 20
0
 30
0
210
0
220
0
230
1
  2
SOLID
 70
1
 71
0
 91
1
 92
2
 72
0
 73
1
 93
19
 10
3066.66666666667
 20
255.555555555556
 10
3066.66666666667
 20
277.777777777778
 10
3088.88888888889
 20
277.777777777778
 10
3088.88888888889
 20
300
 10
3111.11111111111
 20
300
 10
3111.11111111111
 20
277.777777777778
 10
3111.11111111111
 20
255.555555555556
 10
3111.11111111111
 20
233.333333333333
 10
3111.11111111111
 20
211.111111111111
 10
3111.11111111111
 20
188.888888888889
 10
3111.11111111111
 20
166.666666666667
 10
3111.11111111111
 20
144.444444444444
 10
3088.88888888889
 20
144.444444444444
 10
3088.88888888889
 20
166.666666666667
 10
3088.88888888889
 20
188.888888888889
 10
3088.88888888889
 20
211.111111111111
 10
3088.88888888889
 20
233.333333333333
 10
3088.88888888889
 20
255.555555555556
 10
3066.66666666667
 20
255.555555555556
 97
0
 75
0
 76
1
 98
0
  0
HATCH
  5
2000D
  8
0
100
AcDbEntity
100
AcDbHatch
 10
0
 20
0
 30
0
210
0
220
0
230
1
  2
SOLID
 70
1
 71
0
 91
1
 92
2
 72
0
 73
1
 93
9
 10
3266.66666666667
 20
211.111111111111
 10
3244.44444444444
 20
211.111111111111
 10
3222.22222222222
 20
211.111111111111
 10
3200
 20
211.111111111111
 10
3200
 20
233.333333333333
 10
3222.22222222222
 20
233.333333333333
 10
3244.44444444444
 20
233.333333333333
 10
3266.66666666667
 20
233.333333333333
 10
3266.66666666667
 20
211.111111111111
 97
0
 75
0
 76
1
 98
0
  0
HATCH
  5
2000E
  8
0
100
AcDbEntity
100
AcDbHatch
 10
0
 20
0
 30
0
210
0
220
0
230
1
  2
SOLID
 70
1
 71
0
 91
1
 92
2
 72
0
 73
1
 93
39
 10
3711.11111111111
 20
144.444444444444
 10
3711.11111111111
 20
166.666666666667
 10
3711.11111111111
 20
188.888888888889
 10
3711.11111111111
 20
211.111111111111
 10
3711.11111111111
 20
233.333333333333
 10
3711.11111111111
 20
255.555555555556
 10
3711.11111111111
 20
277.777777777778
 10
3711.11111111111
 20
300
 10
3733.33333333333
 20
300
 10
3755.55555555556
 20
300
 10
3777.77777777778
 20
300
 10
3800
 20
300
 10
3822.22222222222
 20
300
 10
3822.22222222222
 20
277.777777777778
 10
3800
 20
277.777777777778
 10
3777.77777777778
 20
277.777777777778
 10
3755.55555555556
 20
277.777777777778
 10
3733.33333333333
 20
277.777777777778
 10
3733.33333333333
 20
255.555555555556
 10
3733.33333333333
 20
233.333333333333
 10
3755.55555555556
 20
233.333333333333
 10
3777.77777777778
 20
233.333333333333
 10
3800
 20
233.333333333333
 10
3800
 20
211.111111111111
 10
3777.77777777778
 20
211.111111111111
 10
3755.55555555556
 20
211.111111111111
 10
3733.33333333333
 20
211.111111111111
 10
3733.33333333333
 20
188.888888888889
 10
3733.33333333333
 20
166.666666666667
 10
3755.55555555556
 20
166.666666666667
 10
3777.77777777778
 20
166.666666666667
 10
3800
 20
166.666666666667
 10
3822.22222222222
 20
166.666666666667
 10
3822.22222222222
 20
144.444444444444
 10
3800
 20
144.444444444444
 10
3777.77777777778
 20
144.444444444444
 10
3755.55555555556
 20
144.444444444444
 10
3733.33333333333
 20
144.444444444444
 10
3711.11111111111
 20
144.444444444444
 97
0
 75
0
 76
1
 98
0
  0
HATCH
  5
2000F
  8
0
100
AcDbEntity
100
AcDbHatch
 10
0
 20
0
 30
0
210
0
220
0
230
1
  2
SOLID
 70
1
 71
0
 91
1
 92
2
 72
0
 73
1
 93
5
 10
3955.55555555556
 20
211.111111111111
 10
3955.55555555556
 20
233.333333333333
 10
3977.77777777778
 20
233.333333333333
 10
3977.77777777778
 20
211.111111111111
 10
3955.55555555556
 20
211.111111111111
 97
0
 75
0
 76
1
 98
0
  0
HATCH
  5
20010
  8
0
100
AcDbEntity
100
AcDbHatch
 10
0
 20
0
 30
0
210
0
220
0
230
1
  2
SOLID
 70
1
 71
0
 91
1
 92
2
 72
0
 73
1
 93
7
 10
3066.66666666667
 20
255.555555555556
 10
3066.66666666667
 20
233.333333333333
 10
3066.66666666667
 20
211.111111111111
 10
3044.44444444444
 20
211.111111111111
 10
3044.44444444444
 20
233.333333333333
 10
3044.44444444444
 20
255.555555555556
 10
3066.66666666667
 20
255.555555555556
 97
0
 75
0
 76
1
 98
0
  0
HATCH
  5
20011
  8
0
100
AcDbEntity
100
AcDbHatch
 10
0
 20
0
 30
0
210
0
220
0
230
1
  2
SOLID
 70
1
 71
0
 91
1
 92
2
 72
0
 73
1
 93
29
 10
3355.55555555556
 20
188.888888888889
 10
3355.55555555556
 20
211.111111111111
 10
3355.55555555556
 20
233.333333333333
 10
3377.77777777778
 20
233.333333333333
 10
3377.77777777778
 20
211.111111111111
 10
3400
 20
211.111111111111
 10
3422.22222222222
 20
211.111111111111
 10
3422.22222222222
 20
233.333333333333
 10
3422.22222222222
 20
255.555555555556
 10
3422.22222222222
 20
277.777777777778
 10
3400
 20
277.777777777778
 10
3400
 20
300
 10
3422.22222222222
 20
300
 10
3444.44444444444
 20
300
 10
3444.44444444444
 20
277.777777777778
 10
3444.44444444444
 20
255.555555555556
 10
3444.44444444444
 20
233.333333333333
 10
3444.44444444444
 20
211.111111111111
 10
3466.66666666667
 20
211.111111111111
 10
3466.66666666667
 20
188.888888888889
 10
3444.44444444444
 20
188.888888888889
 10
3444.44444444444
 20
166.666666666667
 10
3444.44444444444
 20
144.444444444444
 10
3422.22222222222
 20
144.444444444444
 10
3422.22222222222
 20
166.666666666667
 10
3422.22222222222
 20
188.888888888889
 10
3400
 20
188.888888888889
 10
3377.77777777778
 20
188.888888888889
 10
3355.55555555556
 20
188.888888888889
 97
0
 75
0
 76
1
 98
0
  0
HATCH
  5
20012
  8
0
100
AcDbEntity
100
AcDbHatch
 10
0
 20
0
 30
0
210
0
220
0
230
1
  2
SOLID
 70
1
 71
0
 91
1
 92
2
 72
0
 73
1
 93
7
 10
3266.66666666667
 20
233.333333333333
 10
3266.66666666667
 20
255.555555555556
 10
3266.66666666667
 20
277.777777777778
 10
3288.88888888889
 20
277.777777777778
 10
3288.88888888889
 20
255.555555555556
 10
3288.88888888889
 20
233.333333333333
 10
3266.66666666667
 20
233.333333333333
 97
0
 75
0
 76
1
 98
0
  0
HATCH
  5
20013
  8
0
100
AcDbEntity
100
AcDbHatch
 10
0
 20
0
 30
0
210
0
220
0
230
1
  2
SOLID
 70
1
 71
0
 91
1
 92
2
 72
0
 73
1
 93
7
 10
3400
 20
277.777777777778
 10
3400
 20
255.555555555556
 10
3400
 20
233.333333333333
 10
3377.77777777778
 20
233.333333333333
 10
3377.77777777778
 20
255.555555555556
 10
3377.77777777778
 20
277.777777777778
 10
3400
 20
277.777777777778
 97
0
 75
0
 76
1
 98
0
  0
HATCH
  5
20014
  8
0
100
AcDbEntity
100
AcDbHatch
 10
0
 20
0
 30
0
210
0
220
0
230
1
  2
SOLID
 70
1
 71
0
 91
1
 92
2
 72
0
 73
1
 93
11
 10
3266.66666666667
 20
277.777777777778
 10
3244.44444444444
 20
277.777777777778
 10
3222.22222222222
 20
277.777777777778
 10
3200
 20
277.777777777778
 10
3177.77777777778
 20
277.777777777778
 10
3177.77777777778
 20
300
 10
3200
 20
300
 10
3222.22222222222
 20
300
 10
3244.44444444444
 20
300
 10
3266.66666666667
 20
300
 10
3266.66666666667
 20
277.777777777778
 97
0
 75
0
 76
1
 98
0
  0
HATCH
  5
20015
  8
0
100
AcDbEntity
100
AcDbHatch
 10
0
 20
0
 30
0
210
0
220
0
230
1
  2
SOLID
 70
1
 71
0
 91
1
 92
2
 72
0
 73
1
 93
7
 10
3977.77777777778
 20
277.777777777778
 10
4000
 20
277.777777777778
 10
4000
 20
255.555555555556
 10
4000
 20
233.333333333333
 10
3977.77777777778
 20
233.333333333333
 10
3977.77777777778
 20
255.555555555556
 10
3977.77777777778
 20
277.777777777778
 97
0
 75
0
 76
1
 98
0
  0
HATCH
  5
20016
  8
0
100
AcDbEntity
100
AcDbHatch
 10
0
 20
0
 30
0
210
0
220
0
230
1
  2
SOLID
 70
1
 71
0
 91
1
 92
2
 72
0
 73
1
 93
5
 10
3911.11111111111
 20
277.777777777778
 10
3911.11111111111
 20
255.555555555556
 10
3888.88888888889
 20
255.555555555556
 10
3888.88888888889
 20
277.777777777778
 10
3911.11111111111
 20
277.777777777778
 97
0
 75
0
 76
1
 98
0
  0
HATCH
  5
20017
  8
0
100
AcDbEntity
100
AcDbHatch
 10
0
 20
0
 30
0
210
0
220
0
230
1
  2
SOLID
 70
1
 71
0
 91
1
 92
2
 72
0
 73
1
 93
9
 10
3977.77777777778
 20
277.777777777778
 10
3955.55555555556
 20
277.777777777778
 10
3933.33333333333
 20
277.777777777778
 10
3911.11111111111
 20
277.777777777778
 10
3911.11111111111
 20
300
 10
3933.33333333333
 20
300
 10
3955.55555555556
 20
300
 10
3977.77777777778
 20
300
 10
3977.77777777778
 20
277.777777777778
 97
0
 75
0
 76
1
 98
0
  0
HATCH
  5
20018
  8
0
100
AcDbEntity
100
AcDbHatch
 10
0
 20
0
 30
0
210
0
220
0
230
1
  2
SOLID
 70
1
 71
0
 91
57
 92
2
 72
0
 73
1
 93
377
 10
0
 20
0
 10
0
 20
855
 10
150
 20
855
 10
400
 20
990.5
 10
832.5
 20
990.5
 10
932.5
 20
982.5
 10
977.5
 20
982.5
 10
1077.5
 20
990.5
 10
1627.5
 20
990.5
 10
1628.3279795561
 20
990.536150368128
 10
1645.6927973228
 20
992.055375066908
 10
1646.51447545453
 20
992.163551045163
 10
1647.32359869517
 20
992.342929349033
 10
1664.16079526104
 20
996.854442571663
 10
1664.95120569416
 20
997.103658023943
 10
1665.7168878191
 20
997.420813944561
 10
1681.51487348654
 20
1004.78753564471
 10
1682.25
 20
1005.1702182856
 10
1682.94897614533
 20
1005.61551520081
 10
1697.22773711399
 20
1015.61361126736
 10
1697.88524326068
 20
1016.11813347847
 10
1698.49627538993
 20
1016.67804126683
 10
1710.82195873317
 20
1029.00372461007
 10
1711.38186652153
 20
1029.61475673932
 10
1711.88638873264
 20
1030.27226288601
 10
1721.88448479919
 20
1044.55102385467
 10
1722.3297817144
 20
1045.25
 10
1722.71246435529
 20
1045.98512651346
 10
1730.07918605544
 20
1061.7831121809
 10
1730.39634197606
 20
1062.54879430584
 10
1730.64555742834
 20
1063.33920473896
 10
1735.15707065097
 20
1080.17640130483
 10
1735.33644895484
 20
1080.98552454547
 10
1735.44462493309
 20
1081.8072026772
 10
1736.96384963187
 20
1099.1720204439
 10
1737
 20
1100
 10
1737
 20
1580.67329848112
 10
1742.59553241573
 20
1612.40713974151
 10
1758.28524386569
 20
1639.58251712894
 10
1782.32327640646
 20
1659.75282136812
 10
1811.81028855004
 20
1670.48521608583
 10
1843.18971144996
 20
1670.48521608583
 10
1872.67672359354
 20
1659.75282136812
 10
1896.71475613431
 20
1639.58251712894
 10
1912.40446758427
 20
1612.40713974151
 10
1918
 20
1580.67329848112
 10
1918
 20
416.976334516608
 10
1918.03615036813
 20
416.148354960506
 10
1918.14432634638
 20
415.326676828772
 10
1924.17506426779
 20
381.124662496206
 10
1924.35444257166
 20
380.315539255567
 10
1924.60365802394
 20
379.525128822448
 10
1924.92081394456
 20
378.759446697505
 10
1925.30349658546
 20
378.024320184041
 10
1942.66831435215
 20
347.947573547954
 10
1943.11361126736
 20
347.248597402619
 10
1943.61813347847
 20
346.591091255932
 10
1944.17804126683
 20
345.980059126682
 10
1944.78907339608
 20
345.420151338324
 10
1971.39351770798
 20
323.096371928534
 10
1972.05102385467
 20
322.591849717419
 10
1972.75
 20
322.146552802212
 10
1973.48512651346
 20
321.763870161316
 10
1974.25080863841
 20
321.446714240698
 10
2006.88599087171
 20
309.568479317921
 10
2007.67640130483
 20
309.319263865641
 10
2008.48552454547
 20
309.139885561772
 10
2009.3072026772
 20
309.031709583516
 10
2010.13518223331
 20
308.995559215388
 10
2044.86481776669
 20
308.995559215388
 10
2045.6927973228
 20
309.031709583516
 10
2046.51447545453
 20
309.139885561772
 10
2047.32359869517
 20
309.319263865641
 10
2048.11400912829
 20
309.568479317921
 10
2080.74919136159
 20
321.446714240698
 10
2081.51487348654
 20
321.763870161316
 10
2082.25
 20
322.146552802212
 10
2082.94897614534
 20
322.591849717419
 10
2083.60648229202
 20
323.096371928534
 10
2110.21092660392
 20
345.420151338324
 10
2110.82195873317
 20
345.980059126682
 10
2111.38186652153
 20
346.591091255932
 10
2111.88638873264
 20
347.248597402619
 10
2112.33168564785
 20
347.947573547954
 10
2129.69650341454
 20
378.024320184041
 10
2130.07918605544
 20
378.759446697505
 10
2130.39634197606
 20
379.525128822448
 10
2130.64555742834
 20
380.315539255567
 10
2130.82493573221
 20
381.124662496206
 10
2136.85567365362
 20
415.326676828772
 10
2136.96384963187
 20
416.148354960506
 10
2137
 20
416.976334516608
 10
2137
 20
1580.67329848112
 10
2142.59553241573
 20
1612.40713974151
 10
2158.28524386569
 20
1639.58251712894
 10
2182.32327640646
 20
1659.75282136812
 10
2211.81028855004
 20
1670.48521608583
 10
2243.18971144996
 20
1670.48521608583
 10
2272.67672359354
 20
1659.75282136812
 10
2296.71475613431
 20
1639.58251712894
 10
2312.40446758427
 20
1612.40713974151
 10
2318
 20
1580.67329848112
 10
2318
 20
416.976334516608
 10
2318.03615036813
 20
416.148354960506
 10
2318.14432634638
 20
415.326676828772
 10
2324.17506426779
 20
381.124662496206
 10
2324.35444257166
 20
380.315539255568
 10
2324.60365802394
 20
379.525128822448
 10
2324.92081394456
 20
378.759446697505
 10
2325.30349658546
 20
378.024320184041
 10
2342.66831435215
 20
347.947573547954
 10
2343.11361126736
 20
347.248597402619
 10
2343.61813347847
 20
346.591091255932
 10
2344.17804126683
 20
345.980059126682
 10
2344.78907339608
 20
345.420151338324
 10
2371.39351770798
 20
323.096371928534
 10
2372.05102385466
 20
322.591849717419
 10
2372.75
 20
322.146552802212
 10
2373.48512651346
 20
321.763870161316
 10
2374.25080863841
 20
321.446714240698
 10
2406.88599087171
 20
309.568479317921
 10
2407.67640130483
 20
309.319263865641
 10
2408.48552454547
 20
309.139885561772
 10
2409.3072026772
 20
309.031709583516
 10
2410.13518223331
 20
308.995559215388
 10
2444.86481776669
 20
308.995559215388
 10
2445.6927973228
 20
309.031709583516
 10
2446.51447545453
 20
309.139885561772
 10
2447.32359869517
 20
309.319263865641
 10
2448.11400912829
 20
309.568479317921
 10
2480.74919136159
 20
321.446714240698
 10
2481.51487348654
 20
321.763870161316
 10
2482.25
 20
322.146552802212
 10
2482.94897614534
 20
322.591849717419
 10
2483.60648229202
 20
323.096371928534
 10
2510.21092660392
 20
345.420151338324
 10
2510.82195873317
 20
345.980059126682
 10
2511.38186652153
 20
346.591091255932
 10
2511.88638873264
 20
347.248597402619
 10
2512.33168564785
 20
347.947573547954
 10
2529.69650341454
 20
378.024320184041
 10
2530.07918605544
 20
378.759446697505
 10
2530.39634197606
 20
379.525128822448
 10
2530.64555742834
 20
380.315539255568
 10
2530.82493573221
 20
381.124662496206
 10
2536.85567365362
 20
415.326676828772
 10
2536.96384963187
 20
416.148354960506
 10
2537
 20
416.976334516608
 10
2537
 20
1580.67329848112
 10
2542.59553241573
 20
1612.40713974151
 10
2558.28524386569
 20
1639.58251712894
 10
2582.32327640646
 20
1659.75282136812
 10
2611.81028855004
 20
1670.48521608583
 10
2643.18971144996
 20
1670.48521608583
 10
2672.67672359354
 20
1659.75282136812
 10
2696.71475613431
 20
1639.58251712894
 10
2712.40446758427
 20
1612.40713974151
 10
2718
 20
1580.67329848112
 10
2718
 20
1100
 10
2718.03615036813
 20
1099.1720204439
 10
2719.55537506691
 20
1081.8072026772
 10
2719.66355104516
 20
1080.98552454547
 10
2719.84292934903
 20
1080.17640130483
 10
2724.35444257166
 20
1063.33920473896
 10
2724.60365802394
 20
1062.54879430584
 10
2724.92081394456
 20
1061.7831121809
 10
2732.28753564471
 20
1045.98512651346
 10
2732.6702182856
 20
1045.25
 10
2733.11551520081
 20
1044.55102385467
 10
2743.11361126736
 20
1030.27226288601
 10
2743.61813347847
 20
1029.61475673932
 10
2744.17804126683
 20
1029.00372461007
 10
2756.50372461007
 20
1016.67804126683
 10
2757.11475673932
 20
1016.11813347847
 10
2757.77226288601
 20
1015.61361126736
 10
2772.05102385466
 20
1005.61551520081
 10
2772.75
 20
1005.1702182856
 10
2773.48512651346
 20
1004.78753564471
 10
2789.2831121809
 20
997.420813944561
 10
2790.04879430584
 20
997.103658023943
 10
2790.83920473896
 20
996.854442571663
 10
2807.67640130483
 20
992.342929349033
 10
2808.48552454547
 20
992.163551045163
 10
2809.3072026772
 20
992.055375066908
 10
2826.6720204439
 20
990.536150368128
 10
2827.5
 20
990.5
 10
3377.5
 20
990.5
 10
3477.5
 20
982.5
 10
3522.5
 20
982.5
 10
3622.5
 20
990.5
 10
4172.5
 20
990.5
 10
4173.3279795561
 20
990.536150368128
 10
4190.6927973228
 20
992.055375066908
 10
4191.51447545453
 20
992.163551045163
 10
4192.32359869517
 20
992.342929349033
 10
4209.16079526104
 20
996.854442571663
 10
4209.95120569416
 20
997.103658023943
 10
4210.7168878191
 20
997.420813944561
 10
4226.51487348654
 20
1004.78753564471
 10
4227.25
 20
1005.1702182856
 10
4227.94897614534
 20
1005.61551520081
 10
4242.22773711399
 20
1015.61361126736
 10
4242.88524326068
 20
1016.11813347847
 10
4243.49627538993
 20
1016.67804126683
 10
4255.82195873317
 20
1029.00372461007
 10
4256.38186652153
 20
1029.61475673932
 10
4256.88638873264
 20
1030.27226288601
 10
4266.88448479919
 20
1044.55102385467
 10
4267.3297817144
 20
1045.25
 10
4267.71246435529
 20
1045.98512651346
 10
4275.07918605544
 20
1061.7831121809
 10
4275.39634197606
 20
1062.54879430584
 10
4275.64555742834
 20
1063.33920473896
 10
4280.15707065097
 20
1080.17640130483
 10
4280.33644895484
 20
1080.98552454547
 10
4280.44462493309
 20
1081.8072026772
 10
4281.96384963187
 20
1099.1720204439
 10
4282
 20
1100
 10
4282
 20
1580.67329848112
 10
4287.59553241573
 20
1612.40713974151
 10
4303.28524386569
 20
1639.58251712894
 10
4327.32327640646
 20
1659.75282136812
 10
4356.81028855004
 20
1670.48521608583
 10
4388.18971144996
 20
1670.48521608583
 10
4417.67672359354
 20
1659.75282136812
 10
4441.71475613431
 20
1639.58251712894
 10
4457.40446758427
 20
1612.40713974151
 10
4463
 20
1580.67329848112
 10
4463
 20
416.976334516608
 10
4463.03615036813
 20
416.148354960506
 10
4463.14432634638
 20
415.326676828772
 10
4469.17506426779
 20
381.124662496206
 10
4469.35444257166
 20
380.315539255568
 10
4469.60365802394
 20
379.525128822448
 10
4469.92081394456
 20
378.759446697505
 10
4470.30349658546
 20
378.024320184041
 10
4487.66831435215
 20
347.947573547954
 10
4488.11361126736
 20
347.248597402619
 10
4488.61813347847
 20
346.591091255932
 10
4489.17804126683
 20
345.980059126682
 10
4489.78907339608
 20
345.420151338324
 10
4516.39351770798
 20
323.096371928534
 10
4517.05102385466
 20
322.591849717419
 10
4517.75
 20
322.146552802212
 10
4518.48512651346
 20
321.763870161316
 10
4519.25080863841
 20
321.446714240698
 10
4551.88599087171
 20
309.568479317921
 10
4552.67640130483
 20
309.319263865641
 10
4553.48552454547
 20
309.139885561772
 10
4554.3072026772
 20
309.031709583516
 10
4555.13518223331
 20
308.995559215388
 10
4589.86481776669
 20
308.995559215388
 10
4590.6927973228
 20
309.031709583516
 10
4591.51447545453
 20
309.139885561772
 10
4592.32359869517
 20
309.319263865641
 10
4593.11400912829
 20
309.568479317921
 10
4625.74919136159
 20
321.446714240698
 10
4626.51487348654
 20
321.763870161316
 10
4627.25
 20
322.146552802212
 10
4627.94897614534
 20
322.591849717419
 10
4628.60648229202
 20
323.096371928534
 10
4655.21092660392
 20
345.420151338324
 10
4655.82195873317
 20
345.980059126682
 10
4656.38186652153
 20
346.591091255932
 10
4656.88638873264
 20
347.248597402619
 10
4657.33168564785
 20
347.947573547954
 10
4674.69650341454
 20
378.024320184041
 10
4675.07918605544
 20
378.759446697505
 10
4675.39634197606
 20
379.525128822448
 10
4675.64555742834
 20
380.315539255568
 10
4675.82493573221
 20
381.124662496206
 10
4681.85567365362
 20
415.326676828772
 10
4681.96384963187
 20
416.148354960506
 10
4682
 20
416.976334516608
 10
4682
 20
1580.67329848112
 10
4687.59553241573
 20
1612.40713974151
 10
4703.28524386569
 20
1639.58251712894
 10
4727.32327640646
 20
1659.75282136812
 10
4756.81028855004
 20
1670.48521608583
 10
4788.18971144996
 20
1670.48521608583
 10
4817.67672359354
 20
1659.75282136812
 10
4841.71475613431
 20
1639.58251712894
 10
4857.40446758427
 20
1612.40713974151
 10
4863
 20
1580.67329848112
 10
4863
 20
416.976334516608
 10
4863.03615036813
 20
416.148354960506
 10
4863.14432634638
 20
415.326676828772
 10
4869.17506426779
 20
381.124662496206
 10
4869.35444257166
 20
380.315539255567
 10
4869.60365802394
 20
379.525128822448
 10
4869.92081394456
 20
378.759446697505
 10
4870.30349658546
 20
378.024320184041
 10
4887.66831435215
 20
347.947573547954
 10
4888.11361126736
 20
347.248597402619
 10
4888.61813347847
 20
346.591091255932
 10
4889.17804126683
 20
345.980059126682
 10
4889.78907339608
 20
345.420151338324
 10
4916.39351770798
 20
323.096371928534
 10
4917.05102385466
 20
322.591849717419
 10
4917.75
 20
322.146552802212
 10
4918.48512651346
 20
321.763870161316
 10
4919.25080863841
 20
321.446714240698
 10
4951.88599087171
 20
309.568479317921
 10
4952.67640130483
 20
309.319263865641
 10
4953.48552454547
 20
309.139885561772
 10
4954.3072026772
 20
309.031709583516
 10
4955.13518223331
 20
308.995559215388
 10
4989.86481776669
 20
308.995559215388
 10
4990.6927973228
 20
309.031709583516
 10
4991.51447545453
 20
309.139885561772
 10
4992.32359869517
 20
309.319263865641
 10
4993.11400912829
 20
309.568479317921
 10
5025.74919136159
 20
321.446714240698
 10
5026.51487348654
 20
321.763870161316
 10
5027.25
 20
322.146552802212
 10
5027.94897614534
 20
322.591849717419
 10
5028.60648229202
 20
323.096371928534
 10
5055.21092660392
 20
345.420151338324
 10
5055.82195873317
 20
345.980059126682
 10
5056.38186652153
 20
346.591091255932
 10
5056.88638873264
 20
347.248597402619
 10
5057.33168564785
 20
347.947573547954
 10
5074.69650341454
 20
378.024320184041
 10
5075.07918605544
 20
378.759446697505
 10
5075.39634197606
 20
379.525128822448
 10
5075.64555742834
 20
380.315539255567
 10
5075.82493573221
 20
381.124662496206
 10
5081.85567365362
 20
415.326676828772
 10
5081.96384963187
 20
416.148354960506
 10
5082
 20
416.976334516608
 10
5082
 20
1580.67329848112
 10
5087.59553241573
 20
1612.40713974151
 10
5103.28524386569
 20
1639.58251712894
 10
5127.32327640646
 20
1659.75282136812
 10
5156.81028855004
 20
1670.48521608583
 10
5188.18971144996
 20
1670.48521608583
 10
5217.67672359354
 20
1659.75282136812
 10
5241.71475613431
 20
1639.58251712894
 10
5257.40446758427
 20
1612.40713974151
 10
5263
 20
1580.67329848112
 10
5263
 20
1100
 10
5263.03615036813
 20
1099.1720204439
 10
5264.55537506691
 20
1081.8072026772
 10
5264.66355104516
 20
1080.98552454547
 10
5264.84292934903
 20
1080.17640130483
 10
5269.35444257166
 20
1063.33920473896
 10
5269.60365802394
 20
1062.54879430584
 10
5269.92081394456
 20
1061.7831121809
 10
5277.28753564471
 20
1045.98512651346
 10
5277.6702182856
 20
1045.25
 10
5278.11551520081
 20
1044.55102385467
 10
5288.11361126736
 20
1030.27226288601
 10
5288.61813347847
 20
1029.61475673932
 10
5289.17804126683
 20
1029.00372461007
 10
5301.50372461007
 20
1016.67804126683
 10
5302.11475673932
 20
1016.11813347847
 10
5302.77226288601
 20
1015.61361126736
 10
5317.05102385466
 20
1005.61551520081
 10
5317.75
 20
1005.1702182856
 10
5318.48512651346
 20
1004.78753564471
 10
5334.2831121809
 20
997.420813944561
 10
5335.04879430584
 20
997.103658023943
 10
5335.83920473896
 20
996.854442571663
 10
5352.67640130483
 20
992.342929349033
 10
5353.48552454547
 20
992.163551045163
 10
5354.3072026772
 20
992.055375066908
 10
5371.6720204439
 20
990.536150368128
 10
5372.5
 20
990.5
 10
5922.5
 20
990.5
 10
6022.5
 20
982.5
 10
6067.5
 20
982.5
 10
6167.5
 20
990.5
 10
6600
 20
990.5
 10
6850
 20
855
 10
7000
 20
855
 10
7000
 20
0
 10
0
 20
0
 97
0
 92
2
 72
0
 73
1
 93
11
 10
167.5
 20
175
 10
167.5
 20
165
 10
157.5
 20
165
 10
157.5
 20
175
 10
153
 20
175
 10
153
 20
165
 10
153
 20
140
 10
172
 20
140
 10
172
 20
165
 10
172
 20
175
 10
167.5
 20
175
 97
0
 92
2
 72
0
 73
1
 93
17
 10
1427
 20
813.215881556565
 10
1427
 20
823.215881556565
 10
1442
 20
823.215881556565
 10
1442
 20
833.215881556565
 10
1437
 20
833.215881556565
 10
1427
 20
833.215881556565
 10
1427
 20
848.215881556565
 10
1417
 20
848.215881556565
 10
1417
 20
843.215881556565
 10
1417
 20
833.215881556565
 10
1402
 20
833.215881556565
 10
1402
 20
823.215881556565
 10
1407
 20
823.215881556565
 10
1417
 20
823.215881556565
 10
1417
 20
808.215881556565
 10
1427
 20
808.215881556565
 10
1427
 20
813.215881556565
 97
0
 92
2
 72
0
 73
1
 93
17
 10
1423
 20
856.856897707942
 10
1423
 20
861.856897707942
 10
1429
 20
861.856897707942
 10
1429
 20
863.856897707942
 10
1428
 20
863.856897707942
 10
1423
 20
863.856897707942
 10
1423
 20
869.856897707942
 10
1421
 20
869.856897707942
 10
1421
 20
868.856897707942
 10
1421
 20
863.856897707942
 10
1415
 20
863.856897707942
 10
1415
 20
861.856897707942
 10
1416
 20
861.856897707942
 10
1421
 20
861.856897707942
 10
1421
 20
855.856897707942
 10
1423
 20
855.856897707942
 10
1423
 20
856.856897707942
 97
0
 92
2
 72
0
 73
1
 93
17
 10
5583
 20
813.215881556565
 10
5583
 20
823.215881556565
 10
5598
 20
823.215881556565
 10
5598
 20
833.215881556565
 10
5593
 20
833.215881556565
 10
5583
 20
833.215881556565
 10
5583
 20
848.215881556565
 10
5573
 20
848.215881556565
 10
5573
 20
843.215881556565
 10
5573
 20
833.215881556565
 10
5558
 20
833.215881556565
 10
5558
 20
823.215881556565
 10
5563
 20
823.215881556565
 10
5573
 20
823.215881556565
 10
5573
 20
808.215881556565
 10
5583
 20
808.215881556565
 10
5583
 20
813.215881556565
 97
0
 92
2
 72
0
 73
1
 93
17
 10
5579
 20
856.856897707942
 10
5579
 20
861.856897707942
 10
5585
 20
861.856897707942
 10
5585
 20
863.856897707942
 10
5584
 20
863.856897707942
 10
5579
 20
863.856897707942
 10
5579
 20
869.856897707942
 10
5577
 20
869.856897707942
 10
5577
 20
868.856897707942
 10
5577
 20
863.856897707942
 10
5571
 20
863.856897707942
 10
5571
 20
861.856897707942
 10
5572
 20
861.856897707942
 10
5577
 20
861.856897707942
 10
5577
 20
855.856897707942
 10
5579
 20
855.856897707942
 10
5579
 20
856.856897707942
 97
0
 92
2
 72
0
 73
1
 93
17
 10
372
 20
414
 10
364
 20
414
 10
364
 20
424
 10
360
 20
424
 10
360
 20
422
 10
360
 20
414
 10
350
 20
414
 10
350
 20
410
 10
352
 20
410
 10
360
 20
410
 10
360
 20
400
 10
364
 20
400
 10
364
 20
402
 10
364
 20
410
 10
374
 20
410
 10
374
 20
414
 10
372
 20
414
 97
0
 92
2
 72
0
 73
1
 93
17
 10
372
 20
464
 10
364
 20
464
 10
364
 20
474
 10
360
 20
474
 10
360
 20
472
 10
360
 20
464
 10
350
 20
464
 10
350
 20
460
 10
352
 20
460
 10
360
 20
460
 10
360
 20
450
 10
364
 20
450
 10
364
 20
452
 10
364
 20
460
 10
374
 20
460
 10
374
 20
464
 10
372
 20
464
 97
0
 92
2
 72
0
 73
1
 93
17
 10
372
 20
514
 10
364
 20
514
 10
364
 20
524
 10
360
 20
524
 10
360
 20
522
 10
360
 20
514
 10
350
 20
514
 10
350
 20
510
 10
352
 20
510
 10
360
 20
510
 10
360
 20
500
 10
364
 20
500
 10
364
 20
502
 10
364
 20
510
 10
374
 20
510
 10
374
 20
514
 10
372
 20
514
 97
0
 92
2
 72
0
 73
1
 93
17
 10
372
 20
564
 10
364
 20
564
 10
364
 20
574
 10
360
 20
574
 10
360
 20
572
 10
360
 20
564
 10
350
 20
564
 10
350
 20
560
 10
352
 20
560
 10
360
 20
560
 10
360
 20
550
 10
364
 20
550
 10
364
 20
552
 10
364
 20
560
 10
374
 20
560
 10
374
 20
564
 10
372
 20
564
 97
0
 92
2
 72
0
 73
1
 93
17
 10
372
 20
614
 10
364
 20
614
 10
364
 20
624
 10
360
 20
624
 10
360
 20
622
 10
360
 20
614
 10
350
 20
614
 10
350
 20
610
 10
352
 20
610
 10
360
 20
610
 10
360
 20
600
 10
364
 20
600
 10
364
 20
602
 10
364
 20
610
 10
374
 20
610
 10
374
 20
614
 10
372
 20
614
 97
0
 92
2
 72
0
 73
1
 93
17
 10
422
 20
414
 10
414
 20
414
 10
414
 20
424
 10
410
 20
424
 10
410
 20
422
 10
410
 20
414
 10
400
 20
414
 10
400
 20
410
 10
402
 20
410
 10
410
 20
410
 10
410
 20
400
 10
414
 20
400
 10
414
 20
402
 10
414
 20
410
 10
424
 20
410
 10
424
 20
414
 10
422
 20
414
 97
0
 92
2
 72
0
 73
1
 93
17
 10
422
 20
464
 10
414
 20
464
 10
414
 20
474
 10
410
 20
474
 10
410
 20
472
 10
410
 20
464
 10
400
 20
464
 10
400
 20
460
 10
402
 20
460
 10
410
 20
460
 10
410
 20
450
 10
414
 20
450
 10
414
 20
452
 10
414
 20
460
 10
424
 20
460
 10
424
 20
464
 10
422
 20
464
 97
0
 92
2
 72
0
 73
1
 93
17
 10
422
 20
514
 10
414
 20
514
 10
414
 20
524
 10
410
 20
524
 10
410
 20
522
 10
410
 20
514
 10
400
 20
514
 10
400
 20
510
 10
402
 20
510
 10
410
 20
510
 10
410
 20
500
 10
414
 20
500
 10
414
 20
502
 10
414
 20
510
 10
424
 20
510
 10
424
 20
514
 10
422
 20
514
 97
0
 92
2
 72
0
 73
1
 93
17
 10
422
 20
564
 10
414
 20
564
 10
414
 20
574
 10
410
 20
574
 10
410
 20
572
 10
410
 20
564
 10
400
 20
564
 10
400
 20
560
 10
402
 20
560
 10
410
 20
560
 10
410
 20
550
 10
414
 20
550
 10
414
 20
552
 10
414
 20
560
 10
424
 20
560
 10
424
 20
564
 10
422
 20
564
 97
0
 92
2
 72
0
 73
1
 93
17
 10
422
 20
614
 10
414
 20
614
 10
414
 20
624
 10
410
 20
624
 10
410
 20
622
 10
410
 20
614
 10
400
 20
614
 10
400
 20
610
 10
402
 20
610
 10
410
 20
610
 10
410
 20
600
 10
414
 20
600
 10
414
 20
602
 10
414
 20
610
 10
424
 20
610
 10
424
 20
614
 10
422
 20
614
 97
0
 92
2
 72
0
 73
1
 93
17
 10
472
 20
414
 10
464
 20
414
 10
464
 20
424
 10
460
 20
424
 10
460
 20
422
 10
460
 20
414
 10
450
 20
414
 10
450
 20
410
 10
452
 20
410
 10
460
 20
410
 10
460
 20
400
 10
464
 20
400
 10
464
 20
402
 10
464
 20
410
 10
474
 20
410
 10
474
 20
414
 10
472
 20
414
 97
0
 92
2
 72
0
 73
1
 93
17
 10
472
 20
464
 10
464
 20
464
 10
464
 20
474
 10
460
 20
474
 10
460
 20
472
 10
460
 20
464
 10
450
 20
464
 10
450
 20
460
 10
452
 20
460
 10
460
 20
460
 10
460
 20
450
 10
464
 20
450
 10
464
 20
452
 10
464
 20
460
 10
474
 20
460
 10
474
 20
464
 10
472
 20
464
 97
0
 92
2
 72
0
 73
1
 93
17
 10
472
 20
514
 10
464
 20
514
 10
464
 20
524
 10
460
 20
524
 10
460
 20
522
 10
460
 20
514
 10
450
 20
514
 10
450
 20
510
 10
452
 20
510
 10
460
 20
510
 10
460
 20
500
 10
464
 20
500
 10
464
 20
502
 10
464
 20
510
 10
474
 20
510
 10
474
 20
514
 10
472
 20
514
 97
0
 92
2
 72
0
 73
1
 93
17
 10
472
 20
564
 10
464
 20
564
 10
464
 20
574
 10
460
 20
574
 10
460
 20
572
 10
460
 20
564
 10
450
 20
564
 10
450
 20
560
 10
452
 20
560
 10
460
 20
560
 10
460
 20
550
 10
464
 20
550
 10
464
 20
552
 10
464
 20
560
 10
474
 20
560
 10
474
 20
564
 10
472
 20
564
 97
0
 92
2
 72
0
 73
1
 93
17
 10
472
 20
614
 10
464
 20
614
 10
464
 20
624
 10
460
 20
624
 10
460
 20
622
 10
460
 20
614
 10
450
 20
614
 10
450
 20
610
 10
452
 20
610
 10
460
 20
610
 10
460
 20
600
 10
464
 20
600
 10
464
 20
602
 10
464
 20
610
 10
474
 20
610
 10
474
 20
614
 10
472
 20
614
 97
0
 92
2
 72
0
 73
1
 93
17
 10
522
 20
414
 10
514
 20
414
 10
514
 20
424
 10
510
 20
424
 10
510
 20
422
 10
510
 20
414
 10
500
 20
414
 10
500
 20
410
 10
502
 20
410
 10
510
 20
410
 10
510
 20
400
 10
514
 20
400
 10
514
 20
402
 10
514
 20
410
 10
524
 20
410
 10
524
 20
414
 10
522
 20
414
 97
0
 92
2
 72
0
 73
1
 93
17
 10
522
 20
464
 10
514
 20
464
 10
514
 20
474
 10
510
 20
474
 10
510
 20
472
 10
510
 20
464
 10
500
 20
464
 10
500
 20
460
 10
502
 20
460
 10
510
 20
460
 10
510
 20
450
 10
514
 20
450
 10
514
 20
452
 10
514
 20
460
 10
524
 20
460
 10
524
 20
464
 10
522
 20
464
 97
0
 92
2
 72
0
 73
1
 93
17
 10
522
 20
514
 10
514
 20
514
 10
514
 20
524
 10
510
 20
524
 10
510
 20
522
 10
510
 20
514
 10
500
 20
514
 10
500
 20
510
 10
502
 20
510
 10
510
 20
510
 10
510
 20
500
 10
514
 20
500
 10
514
 20
502
 10
514
 20
510
 10
524
 20
510
 10
524
 20
514
 10
522
 20
514
 97
0
 92
2
 72
0
 73
1
 93
17
 10
522
 20
564
 10
514
 20
564
 10
514
 20
574
 10
510
 20
574
 10
510
 20
572
 10
510
 20
564
 10
500
 20
564
 10
500
 20
560
 10
502
 20
560
 10
510
 20
560
 10
510
 20
550
 10
514
 20
550
 10
514
 20
552
 10
514
 20
560
 10
524
 20
560
 10
524
 20
564
 10
522
 20
564
 97
0
 92
2
 72
0
 73
1
 93
17
 10
522
 20
614
 10
514
 20
614
 10
514
 20
624
 10
510
 20
624
 10
510
 20
622
 10
510
 20
614
 10
500
 20
614
 10
500
 20
610
 10
502
 20
610
 10
510
 20
610
 10
510
 20
600
 10
514
 20
600
 10
514
 20
602
 10
514
 20
610
 10
524
 20
610
 10
524
 20
614
 10
522
 20
614
 97
0
 92
2
 72
0
 73
1
 93
17
 10
572
 20
414
 10
564
 20
414
 10
564
 20
424
 10
560
 20
424
 10
560
 20
422
 10
560
 20
414
 10
550
 20
414
 10
550
 20
410
 10
552
 20
410
 10
560
 20
410
 10
560
 20
400
 10
564
 20
400
 10
564
 20
402
 10
564
 20
410
 10
574
 20
410
 10
574
 20
414
 10
572
 20
414
 97
0
 92
2
 72
0
 73
1
 93
17
 10
572
 20
464
 10
564
 20
464
 10
564
 20
474
 10
560
 20
474
 10
560
 20
472
 10
560
 20
464
 10
550
 20
464
 10
550
 20
460
 10
552
 20
460
 10
560
 20
460
 10
560
 20
450
 10
564
 20
450
 10
564
 20
452
 10
564
 20
460
 10
574
 20
460
 10
574
 20
464
 10
572
 20
464
 97
0
 92
2
 72
0
 73
1
 93
17
 10
572
 20
514
 10
564
 20
514
 10
564
 20
524
 10
560
 20
524
 10
560
 20
522
 10
560
 20
514
 10
550
 20
514
 10
550
 20
510
 10
552
 20
510
 10
560
 20
510
 10
560
 20
500
 10
564
 20
500
 10
564
 20
502
 10
564
 20
510
 10
574
 20
510
 10
574
 20
514
 10
572
 20
514
 97
0
 92
2
 72
0
 73
1
 93
17
 10
572
 20
564
 10
564
 20
564
 10
564
 20
574
 10
560
 20
574
 10
560
 20
572
 10
560
 20
564
 10
550
 20
564
 10
550
 20
560
 10
552
 20
560
 10
560
 20
560
 10
560
 20
550
 10
564
 20
550
 10
564
 20
552
 10
564
 20
560
 10
574
 20
560
 10
574
 20
564
 10
572
 20
564
 97
0
 92
2
 72
0
 73
1
 93
17
 10
572
 20
614
 10
564
 20
614
 10
564
 20
624
 10
560
 20
624
 10
560
 20
622
 10
560
 20
614
 10
550
 20
614
 10
550
 20
610
 10
552
 20
610
 10
560
 20
610
 10
560
 20
600
 10
564
 20
600
 10
564
 20
602
 10
564
 20
610
 10
574
 20
610
 10
574
 20
614
 10
572
 20
614
 97
0
 92
2
 72
0
 73
1
 93
17
 10
6448
 20
414
 10
6440
 20
414
 10
6440
 20
424
 10
6436
 20
424
 10
6436
 20
422
 10
6436
 20
414
 10
6426
 20
414
 10
6426
 20
410
 10
6428
 20
410
 10
6436
 20
410
 10
6436
 20
400
 10
6440
 20
400
 10
6440
 20
402
 10
6440
 20
410
 10
6450
 20
410
 10
6450
 20
414
 10
6448
 20
414
 97
0
 92
2
 72
0
 73
1
 93
17
 10
6448
 20
464
 10
6440
 20
464
 10
6440
 20
474
 10
6436
 20
474
 10
6436
 20
472
 10
6436
 20
464
 10
6426
 20
464
 10
6426
 20
460
 10
6428
 20
460
 10
6436
 20
460
 10
6436
 20
450
 10
6440
 20
450
 10
6440
 20
452
 10
6440
 20
460
 10
6450
 20
460
 10
6450
 20
464
 10
6448
 20
464
 97
0
 92
2
 72
0
 73
1
 93
17
 10
6448
 20
514
 10
6440
 20
514
 10
6440
 20
524
 10
6436
 20
524
 10
6436
 20
522
 10
6436
 20
514
 10
6426
 20
514
 10
6426
 20
510
 10
6428
 20
510
 10
6436
 20
510
 10
6436
 20
500
 10
6440
 20
500
 10
6440
 20
502
 10
6440
 20
510
 10
6450
 20
510
 10
6450
 20
514
 10
6448
 20
514
 97
0
 92
2
 72
0
 73
1
 93
17
 10
6448
 20
564
 10
6440
 20
564
 10
6440
 20
574
 10
6436
 20
574
 10
6436
 20
572
 10
6436
 20
564
 10
6426
 20
564
 10
6426
 20
560
 10
6428
 20
560
 10
6436
 20
560
 10
6436
 20
550
 10
6440
 20
550
 10
6440
 20
552
 10
6440
 20
560
 10
6450
 20
560
 10
6450
 20
564
 10
6448
 20
564
 97
0
 92
2
 72
0
 73
1
 93
17
 10
6448
 20
614
 10
6440
 20
614
 10
6440
 20
624
 10
6436
 20
624
 10
6436
 20
622
 10
6436
 20
614
 10
6426
 20
614
 10
6426
 20
610
 10
6428
 20
610
 10
6436
 20
610
 10
6436
 20
600
 10
6440
 20
600
 10
6440
 20
602
 10
6440
 20
610
 10
6450
 20
610
 10
6450
 20
614
 10
6448
 20
614
 97
0
 92
2
 72
0
 73
1
 93
17
 10
6498
 20
414
 10
6490
 20
414
 10
6490
 20
424
 10
6486
 20
424
 10
6486
 20
422
 10
6486
 20
414
 10
6476
 20
414
 10
6476
 20
410
 10
6478
 20
410
 10
6486
 20
410
 10
6486
 20
400
 10
6490
 20
400
 10
6490
 20
402
 10
6490
 20
410
 10
6500
 20
410
 10
6500
 20
414
 10
6498
 20
414
 97
0
 92
2
 72
0
 73
1
 93
17
 10
6498
 20
464
 10
6490
 20
464
 10
6490
 20
474
 10
6486
 20
474
 10
6486
 20
472
 10
6486
 20
464
 10
6476
 20
464
 10
6476
 20
460
 10
6478
 20
460
 10
6486
 20
460
 10
6486
 20
450
 10
6490
 20
450
 10
6490
 20
452
 10
6490
 20
460
 10
6500
 20
460
 10
6500
 20
464
 10
6498
 20
464
 97
0
 92
2
 72
0
 73
1
 93
17
 10
6498
 20
514
 10
6490
 20
514
 10
6490
 20
524
 10
6486
 20
524
 10
6486
 20
522
 10
6486
 20
514
 10
6476
 20
514
 10
6476
 20
510
 10
6478
 20
510
 10
6486
 20
510
 10
6486
 20
500
 10
6490
 20
500
 10
6490
 20
502
 10
6490
 20
510
 10
6500
 20
510
 10
6500
 20
514
 10
6498
 20
514
 97
0
 92
2
 72
0
 73
1
 93
17
 10
6498
 20
564
 10
6490
 20
564
 10
6490
 20
574
 10
6486
 20
574
 10
6486
 20
572
 10
6486
 20
564
 10
6476
 20
564
 10
6476
 20
560
 10
6478
 20
560
 10
6486
 20
560
 10
6486
 20
550
 10
6490
 20
550
 10
6490
 20
552
 10
6490
 20
560
 10
6500
 20
560
 10
6500
 20
564
 10
6498
 20
564
 97
0
 92
2
 72
0
 73
1
 93
17
 10
6498
 20
614
 10
6490
 20
614
 10
6490
 20
624
 10
6486
 20
624
 10
6486
 20
622
 10
6486
 20
614
 10
6476
 20
614
 10
6476
 20
610
 10
6478
 20
610
 10
6486
 20
610
 10
6486
 20
600
 10
6490
 20
600
 10
6490
 20
602
 10
6490
 20
610
 10
6500
 20
610
 10
6500
 20
614
 10
6498
 20
614
 97
0
 92
2
 72
0
 73
1
 93
17
 10
6548
 20
414
 10
6540
 20
414
 10
6540
 20
424
 10
6536
 20
424
 10
6536
 20
422
 10
6536
 20
414
 10
6526
 20
414
 10
6526
 20
410
 10
6528
 20
410
 10
6536
 20
410
 10
6536
 20
400
 10
6540
 20
400
 10
6540
 20
402
 10
6540
 20
410
 10
6550
 20
410
 10
6550
 20
414
 10
6548
 20
414
 97
0
 92
2
 72
0
 73
1
 93
17
 10
6548
 20
464
 10
6540
 20
464
 10
6540
 20
474
 10
6536
 20
474
 10
6536
 20
472
 10
6536
 20
464
 10
6526
 20
464
 10
6526
 20
460
 10
6528
 20
460
 10
6536
 20
460
 10
6536
 20
450
 10
6540
 20
450
 10
6540
 20
452
 10
6540
 20
460
 10
6550
 20
460
 10
6550
 20
464
 10
6548
 20
464
 97
0
 92
2
 72
0
 73
1
 93
17
 10
6548
 20
514
 10
6540
 20
514
 10
6540
 20
524
 10
6536
 20
524
 10
6536
 20
522
 10
6536
 20
514
 10
6526
 20
514
 10
6526
 20
510
 10
6528
 20
510
 10
6536
 20
510
 10
6536
 20
500
 10
6540
 20
500
 10
6540
 20
502
 10
6540
 20
510
 10
6550
 20
510
 10
6550
 20
514
 10
6548
 20
514
 97
0
 92
2
 72
0
 73
1
 93
17
 10
6548
 20
564
 10
6540
 20
564
 10
6540
 20
574
 10
6536
 20
574
 10
6536
 20
572
 10
6536
 20
564
 10
6526
 20
564
 10
6526
 20
560
 10
6528
 20
560
 10
6536
 20
560
 10
6536
 20
550
 10
6540
 20
550
 10
6540
 20
552
 10
6540
 20
560
 10
6550
 20
560
 10
6550
 20
564
 10
6548
 20
564
 97
0
 92
2
 72
0
 73
1
 93
17
 10
6548
 20
614
 10
6540
 20
614
 10
6540
 20
624
 10
6536
 20
624
 10
6536
 20
622
 10
6536
 20
614
 10
6526
 20
614
 10
6526
 20
610
 10
6528
 20
610
 10
6536
 20
610
 10
6536
 20
600
 10
6540
 20
600
 10
6540
 20
602
 10
6540
 20
610
 10
6550
 20
610
 10
6550
 20
614
 10
6548
 20
614
 97
0
 92
2
 72
0
 73
1
 93
17
 10
6598
 20
414
 10
6590
 20
414
 10
6590
 20
424
 10
6586
 20
424
 10
6586
 20
422
 10
6586
 20
414
 10
6576
 20
414
 10
6576
 20
410
 10
6578
 20
410
 10
6586
 20
410
 10
6586
 20
400
 10
6590
 20
400
 10
6590
 20
402
 10
6590
 20
410
 10
6600
 20
410
 10
6600
 20
414
 10
6598
 20
414
 97
0
 92
2
 72
0
 73
1
 93
17
 10
6598
 20
464
 10
6590
 20
464
 10
6590
 20
474
 10
6586
 20
474
 10
6586
 20
472
 10
6586
 20
464
 10
6576
 20
464
 10
6576
 20
460
 10
6578
 20
460
 10
6586
 20
460
 10
6586
 20
450
 10
6590
 20
450
 10
6590
 20
452
 10
6590
 20
460
 10
6600
 20
460
 10
6600
 20
464
 10
6598
 20
464
 97
0
 92
2
 72
0
 73
1
 93
17
 10
6598
 20
514
 10
6590
 20
514
 10
6590
 20
524
 10
6586
 20
524
 10
6586
 20
522
 10
6586
 20
514
 10
6576
 20
514
 10
6576
 20
510
 10
6578
 20
510
 10
6586
 20
510
 10
6586
 20
500
 10
6590
 20
500
 10
6590
 20
502
 10
6590
 20
510
 10
6600
 20
510
 10
6600
 20
514
 10
6598
 20
514
 97
0
 92
2
 72
0
 73
1
 93
17
 10
6598
 20
564
 10
6590
 20
564
 10
6590
 20
574
 10
6586
 20
574
 10
6586
 20
572
 10
6586
 20
564
 10
6576
 20
564
 10
6576
 20
560
 10
6578
 20
560
 10
6586
 20
560
 10
6586
 20
550
 10
6590
 20
550
 10
6590
 20
552
 10
6590
 20
560
 10
6600
 20
560
 10
6600
 20
564
 10
6598
 20
564
 97
0
 92
2
 72
0
 73
1
 93
17
 10
6598
 20
614
 10
6590
 20
614
 10
6590
 20
624
 10
6586
 20
624
 10
6586
 20
622
 10
6586
 20
614
 10
6576
 20
614
 10
6576
 20
610
 10
6578
 20
610
 10
6586
 20
610
 10
6586
 20
600
 10
6590
 20
600
 10
6590
 20
602
 10
6590
 20
610
 10
6600
 20
610
 10
6600
 20
614
 10
6598
 20
614
 97
0
 92
2
 72
0
 73
1
 93
17
 10
6648
 20
414
 10
6640
 20
414
 10
6640
 20
424
 10
6636
 20
424
 10
6636
 20
422
 10
6636
 20
414
 10
6626
 20
414
 10
6626
 20
410
 10
6628
 20
410
 10
6636
 20
410
 10
6636
 20
400
 10
6640
 20
400
 10
6640
 20
402
 10
6640
 20
410
 10
6650
 20
410
 10
6650
 20
414
 10
6648
 20
414
 97
0
 92
2
 72
0
 73
1
 93
17
 10
6648
 20
464
 10
6640
 20
464
 10
6640
 20
474
 10
6636
 20
474
 10
6636
 20
472
 10
6636
 20
464
 10
6626
 20
464
 10
6626
 20
460
 10
6628
 20
460
 10
6636
 20
460
 10
6636
 20
450
 10
6640
 20
450
 10
6640
 20
452
 10
6640
 20
460
 10
6650
 20
460
 10
6650
 20
464
 10
6648
 20
464
 97
0
 92
2
 72
0
 73
1
 93
17
 10
6648
 20
514
 10
6640
 20
514
 10
6640
 20
524
 10
6636
 20
524
 10
6636
 20
522
 10
6636
 20
514
 10
6626
 20
514
 10
6626
 20
510
 10
6628
 20
510
 10
6636
 20
510
 10
6636
 20
500
 10
6640
 20
500
 10
6640
 20
502
 10
6640
 20
510
 10
6650
 20
510
 10
6650
 20
514
 10
6648
 20
514
 97
0
 92
2
 72
0
 73
1
 93
17
 10
6648
 20
564
 10
6640
 20
564
 10
6640
 20
574
 10
6636
 20
574
 10
6636
 20
572
 10
6636
 20
564
 10
6626
 20
564
 10
6626
 20
560
 10
6628
 20
560
 10
6636
 20
560
 10
6636
 20
550
 10
6640
 20
550
 10
6640
 20
552
 10
6640
 20
560
 10
6650
 20
560
 10
6650
 20
564
 10
6648
 20
564
 97
0
 92
2
 72
0
 73
1
 93
17
 10
6648
 20
614
 10
6640
 20
614
 10
6640
 20
624
 10
6636
 20
624
 10
6636
 20
622
 10
6636
 20
614
 10
6626
 20
614
 10
6626
 20
610
 10
6628
 20
610
 10
6636
 20
610
 10
6636
 20
600
 10
6640
 20
600
 10
6640
 20
602
 10
6640
 20
610
 10
6650
 20
610
 10
6650
 20
614
 10
6648
 20
614
 97
0
 92
2
 72
0
 73
1
 93
5
 10
2900
 20
80
 10
4100
 20
80
 10
4100
 20
320
 10
2900
 20
320
 10
2900
 20
80
 97
0
 75
0
 76
1
 98
0
  0
ENDSEC
  0
SECTION
  2
OBJECTS
  0
DICTIONARY
  5
C
330
0
100
AcDbDictionary
281
     1
  3
ACAD_GROUP
350
D
  3
ACAD_LAYOUT
350
1A
  3
ACAD_MLEADERSTYLE
350
43
  3
ACAD_MLINESTYLE
350
17
  3
ACAD_PLOTSETTINGS
350
19
  3
ACAD_PLOTSTYLENAME
350
E
  3
ACAD_TABLESTYLE
350
42
  3
ACAD_VISUALSTYLE
350
2A
  0
DICTIONARY
  5
D
102
{ACAD_REACTORS
330
C
102
}
330
C
100
AcDbDictionary
281
     1
  0
DICTIONARY
  5
1A
102
{ACAD_REACTORS
330
C
102
}
330
C
100
AcDbDictionary
281
     1
  3
Layout1
350
1E
  3
Layout2
350
26
  3
Model
350
22
  0
DICTIONARY
  5
43
102
{ACAD_REACTORS
330
C
102
}
330
C
100
AcDbDictionary
281
     1
  0
DICTIONARY
  5
17
102
{ACAD_REACTORS
330
C
102
}
330
C
100
AcDbDictionary
281
     1
  3
Standard
350
18
  0
DICTIONARY
  5
19
102
{ACAD_REACTORS
330
C
102
}
330
C
100
AcDbDictionary
281
     1
  0
ACDBDICTIONARYWDFLT
  5
E
102
{ACAD_REACTORS
330
C
102
}
330
C
100
AcDbDictionary
281
     1
  3
Normal
350
F
100
AcDbDictionaryWithDefault
340
F
  0
DICTIONARY
  5
42
102
{ACAD_REACTORS
330
C
102
}
330
C
100
AcDbDictionary
281
     1
  0
DICTIONARY
  5
2A
102
{ACAD_REACTORS
330
C
102
}
330
C
100
AcDbDictionary
281
     1
  3
2dWireframe
350
2F
  3
3D Hidden
350
31
  3
3dWireframe
350
30
  3
Basic
350
32
  3
Brighten
350
36
  3
ColorChange
350
3A
  3
Conceptual
350
34
  3
Dim
350
35
  3
Facepattern
350
39
  3
Flat
350
2B
  3
FlatWithEdges
350
2C
  3
Gouraud
350
2D
  3
GouraudWithEdges
350
2E
  3
Linepattern
350
38
  3
Realistic
350
33
  3
Thicken
350
37
  0
LAYOUT
  5
1E
102
{ACAD_REACTORS
330
1A
102
}
330
1A
100
AcDbPlotSettings
  1

  2
none_device
  4

  6

 40
0.0
 41
0.0
 42
0.0
 43
0.0
 44
0.0
 45
0.0
 46
0.0
 47
0.0
 48
0.0
 49
0.0
140
0.0
141
0.0
142
1.0
143
1.0
 70
   688
 72
     0
 73
     0
 74
     5
  7

 75
    16
 76
     0
 77
     2
 78
   300
147
1.0
148
0.0
149
0.0
100
AcDbLayout
  1
Layout1
 70
     1
 71
     1
 10
0.0
 20
0.0
 11
12.0
 21
9.0
 12
0.0
 22
0.0
 32
0.0
 14
1.000000000000000E+20
 24
1.000000000000000E+20
 34
1.000000000000000E+20
 15
-1.000000000000000E+20
 25
-1.000000000000000E+20
 35
-1.000000000000000E+20
146
0.0
 13
0.0
 23
0.0
 33
0.0
 16
1.0
 26
0.0
 36
0.0
 17
0.0
 27
1.0
 37
0.0
 76
     0
330
1B
  0
LAYOUT
  5
26
102
{ACAD_REACTORS
330
1A
102
}
330
1A
100
AcDbPlotSettings
  1

  2
none_device
  4

  6

 40
0.0
 41
0.0
 42
0.0
 43
0.0
 44
0.0
 45
0.0
 46
0.0
 47
0.0
 48
0.0
 49
0.0
140
0.0
141
0.0
142
1.0
143
1.0
 70
   688
 72
     0
 73
     0
 74
     5
  7

 75
    16
 76
     0
 77
     2
 78
   300
147
1.0
148
0.0
149
0.0
100
AcDbLayout
  1
Layout2
 70
     1
 71
     2
 10
0.0
 20
0.0
 11
0.0
 21
0.0
 12
0.0
 22
0.0
 32
0.0
 14
0.0
 24
0.0
 34
0.0
 15
0.0
 25
0.0
 35
0.0
146
0.0
 13
0.0
 23
0.0
 33
0.0
 16
1.0
 26
0.0
 36
0.0
 17
0.0
 27
1.0
 37
0.0
 76
     0
330
23
  0
LAYOUT
  5
22
102
{ACAD_REACTORS
330
1A
102
}
330
1A
100
AcDbPlotSettings
  1

  2
none_device
  4

  6

 40
0.0
 41
0.0
 42
0.0
 43
0.0
 44
0.0
 45
0.0
 46
0.0
 47
0.0
 48
0.0
 49
0.0
140
0.0
141
0.0
142
1.0
143
1.0
 70
  1712
 72
     0
 73
     0
 74
     0
  7

 75
     0
 76
     0
 77
     2
 78
   300
147
1.0
148
0.0
149
0.0
100
AcDbLayout
  1
Model
 70
     1
 71
     0
 10
0.0
 20
0.0
 11
12.0
 21
9.0
 12
0.0
 22
0.0
 32
0.0
 14
30.0
 24
49.75
 34
0.0
 15
130.5
 25
163.1318914119703
 35
0.0
146
0.0
 13
0.0
 23
0.0
 33
0.0
 16
1.0
 26
0.0
 36
0.0
 17
0.0
 27
1.0
 37
0.0
 76
     0
330
1F
331
29
  0
MLINESTYLE
  5
18
102
{ACAD_REACTORS
330
17
102
}
330
17
100
AcDbMlineStyle
  2
Standard
 70
     0
  3

 62
   256
 51
90.0
 52
90.0
 71
     2
 49
0.5
 62
   256
  6
BYLAYER
 49
-0.5
 62
   256
  6
BYLAYER
  0
ACDBPLACEHOLDER
  5
F
102
{ACAD_REACTORS
330
E
102
}
330
E
  0
VISUALSTYLE
  5
2F
102
{ACAD_REACTORS
330
2A
102
}
330
2A
100
AcDbVisualStyle
  2
2dWireframe
 70
     4
 71
     0
 72
     2
 73
     0
 90
        0
 40
-0.6
 41
-30.0
 62
     5
 63
     7
421
 16777215
 74
     1
 91
        4
 64
     7
 65
   257
 75
     1
175
     1
 42
1.0
 92
        0
 66
   257
 43
1.0
 76
     1
 77
     6
 78
     2
 67
     7
 79
     5
170
     0
171
     0
290
     0
174
     0
 93
        1
 44
0.0
173
     0
291
     0
 45
0.0
1001
ACAD
1000
AcDbSavedByObjectVersion
1070
     0
  0
VISUALSTYLE
  5
31
102
{ACAD_REACTORS
330
2A
102
}
330
2A
100
AcDbVisualStyle
  2
3D Hidden
 70
     6
 71
     1
 72
     2
 73
     2
 90
        0
 40
-0.6
 41
-30.0
 62
     5
 63
     7
421
 16777215
 74
     2
 91
        2
 64
     7
 65
   257
 75
     2
175
     1
 42
40.0
 92
        0
 66
   257
 43
1.0
 76
     1
 77
     6
 78
     2
 67
     7
 79
     3
170
     0
171
     0
290
     0
174
     0
 93
        1
 44
0.0
173
     0
291
     0
 45
0.0
1001
ACAD
1000
AcDbSavedByObjectVersion
1070
     0
  0
VISUALSTYLE
  5
30
102
{ACAD_REACTORS
330
2A
102
}
330
2A
100
AcDbVisualStyle
  2
3dWireframe
 70
     5
 71
     0
 72
     2
 73
     0
 90
        0
 40
-0.6
 41
-30.0
 62
     5
 63
     7
421
 16777215
 74
     1
 91
        4
 64
     7
 65
   257
 75
     1
175
     1
 42
1.0
 92
        0
 66
   257
 43
1.0
 76
     1
 77
     6
 78
     2
 67
     7
 79
     5
170
     0
171
     0
290
     0
174
     0
 93
        1
 44
0.0
173
     0
291
     0
 45
0.0
1001
ACAD
1000
AcDbSavedByObjectVersion
1070
     0
  0
VISUALSTYLE
  5
32
102
{ACAD_REACTORS
330
2A
102
}
330
2A
100
AcDbVisualStyle
  2
Basic
 70
     7
 71
     1
 72
     0
 73
     1
 90
        0
 40
-0.6
 41
-30.0
 62
     5
 63
     7
421
 16777215
 74
     0
 91
        4
 64
     7
 65
   257
 75
     1
175
     1
 42
1.0
 92
        8
 66
     7
 43
1.0
 76
     1
 77
     6
 78
     2
 67
     7
 79
     5
170
     0
171
     0
290
     0
174
     0
 93
        1
 44
0.0
173
     0
291
     1
 45
0.0
1001
ACAD
1000
AcDbSavedByObjectVersion
1070
     0
  0
VISUALSTYLE
  5
36
102
{ACAD_REACTORS
330
2A
102
}
330
2A
100
AcDbVisualStyle
  2
Brighten
 70
    12
 71
     2
 72
     2
 73
     0
 90
        0
 40
-0.6
 41
-30.0
 62
     5
 63
     7
421
 16777215
 74
     1
 91
        4
 64
     7
 65
   257
 75
     1
175
     1
 42
1.0
 92
        8
 66
     7
 43
1.0
 76
     1
 77
     6
 78
     2
 67
     7
 79
     5
170
     0
171
     0
290
     0
174
     0
 93
        1
 44
50.0
173
     0
291
     1
 45
0.0
1001
ACAD
1000
AcDbSavedByObjectVersion
1070
     0
  0
VISUALSTYLE
  5
3A
102
{ACAD_REACTORS
330
2A
102
}
330
2A
100
AcDbVisualStyle
  2
ColorChange
 70
    16
 71
     2
 72
     2
 73
     3
 90
        0
 40
-0.6
 41
-30.0
 62
     5
 63
     8
421
  8421504
 74
     1
 91
        4
 64
     7
 65
   257
 75
     1
175
     1
 42
1.0
 92
        8
 66
     8
424
  8421504
 43
1.0
 76
     1
 77
     6
 78
     2
 67
     7
 79
     5
170
     0
171
     0
290
     0
174
     0
 93
        1
 44
0.0
173
     0
291
     1
 45
0.0
1001
ACAD
1000
AcDbSavedByObjectVersion
1070
     0
  0
VISUALSTYLE
  5
34
102
{ACAD_REACTORS
330
2A
102
}
330
2A
100
AcDbVisualStyle
  2
Conceptual
 70
     9
 71
     3
 72
     2
 73
     0
 90
        0
 40
-0.6
 41
-30.0
 62
     5
 63
     7
421
 16777215
 74
     2
 91
        2
 64
     7
 65
   257
 75
     1
175
     1
 42
40.0
 92
        8
 66
     7
 43
1.0
 76
     1
 77
     6
 78
     2
 67
     7
 79
     3
170
     0
171
     0
290
     0
174
     0
 93
        1
 44
0.0
173
     0
291
     0
 45
0.0
1001
ACAD
1000
AcDbSavedByObjectVersion
1070
     0
  0
VISUALSTYLE
  5
35
102
{ACAD_REACTORS
330
2A
102
}
330
2A
100
AcDbVisualStyle
  2
Dim
 70
    11
 71
     2
 72
     2
 73
     0
 90
        0
 40
-0.6
 41
-30.0
 62
     5
 63
     7
421
 16777215
 74
     1
 91
        4
 64
     7
 65
   257
 75
     1
175
     1
 42
1.0
 92
        8
 66
     7
 43
1.0
 76
     1
 77
     6
 78
     2
 67
     7
 79
     5
170
     0
171
     0
290
     0
174
     0
 93
        1
 44
-50.0
173
     0
291
     1
 45
0.0
1001
ACAD
1000
AcDbSavedByObjectVersion
1070
     0
  0
VISUALSTYLE
  5
39
102
{ACAD_REACTORS
330
2A
102
}
330
2A
100
AcDbVisualStyle
  2
Facepattern
 70
    15
 71
     2
 72
     2
 73
     0
 90
        0
 40
-0.6
 41
-30.0
 62
     5
 63
     7
421
 16777215
 74
     1
 91
        4
 64
     7
 65
   257
 75
     1
175
     1
 42
1.0
 92
        8
 66
     7
 43
1.0
 76
     1
 77
     6
 78
     2
 67
     7
 79
     5
170
     0
171
     0
290
     0
174
     0
 93
        1
 44
0.0
173
     0
291
     1
 45
0.0
1001
ACAD
1000
AcDbSavedByObjectVersion
1070
     0
  0
VISUALSTYLE
  5
2B
102
{ACAD_REACTORS
330
2A
102
}
330
2A
100
AcDbVisualStyle
  2
Flat
 70
     0
 71
     2
 72
     1
 73
     1
 90
        2
 40
-0.6
 41
30.0
 62
     5
 63
     7
421
 16777215
 74
     0
 91
        4
 64
     7
 65
   257
 75
     1
175
     1
 42
1.0
 92
        8
 66
     7
 43
1.0
 76
     1
 77
     6
 78
     2
 67
     7
 79
     5
170
     0
171
     0
290
     0
174
     0
 93
       13
 44
0.0
173
     0
291
     1
 45
0.0
1001
ACAD
1000
AcDbSavedByObjectVersion
1070
     0
  0
VISUALSTYLE
  5
2C
102
{ACAD_REACTORS
330
2A
102
}
330
2A
100
AcDbVisualStyle
  2
FlatWithEdges
 70
     1
 71
     2
 72
     1
 73
     1
 90
        2
 40
-0.6
 41
30.0
 62
     5
 63
     7
421
 16777215
 74
     1
 91
        4
 64
     7
 65
   257
 75
     1
175
     1
 42
1.0
 92
        0
 66
   257
 43
1.0
 76
     1
 77
     6
 78
     2
 67
     7
 79
     5
170
     0
171
     0
290
     0
174
     0
 93
       13
 44
0.0
173
     0
291
     1
 45
0.0
1001
ACAD
1000
AcDbSavedByObjectVersion
1070
     0
  0
VISUALSTYLE
  5
2D
102
{ACAD_REACTORS
330
2A
102
}
330
2A
100
AcDbVisualStyle
  2
Gouraud
 70
     2
 71
     2
 72
     2
 73
     1
 90
        2
 40
-0.6
 41
30.0
 62
     5
 63
     7
421
 16777215
 74
     0
 91
        4
 64
     7
 65
   257
 75
     1
175
     1
 42
1.0
 92
        0
 66
     7
 43
1.0
 76
     1
 77
     6
 78
     2
 67
     7
 79
     5
170
     0
171
     0
290
     0
174
     0
 93
       13
 44
0.0
173
     0
291
     1
 45
0.0
1001
ACAD
1000
AcDbSavedByObjectVersion
1070
     0
  0
VISUALSTYLE
  5
2E
102
{ACAD_REACTORS
330
2A
102
}
330
2A
100
AcDbVisualStyle
  2
GouraudWithEdges
 70
     3
 71
     2
 72
     2
 73
     1
 90
        2
 40
-0.6
 41
30.0
 62
     5
 63
     7
421
 16777215
 74
     1
 91
        4
 64
     7
 65
   257
 75
     1
175
     1
 42
1.0
 92
        0
 66
   257
 43
1.0
 76
     1
 77
     6
 78
     2
 67
     7
 79
     5
170
     0
171
     0
290
     0
174
     0
 93
       13
 44
0.0
173
     0
291
     1
 45
0.0
1001
ACAD
1000
AcDbSavedByObjectVersion
1070
     0
  0
VISUALSTYLE
  5
38
102
{ACAD_REACTORS
330
2A
102
}
330
2A
100
AcDbVisualStyle
  2
Linepattern
 70
    14
 71
     2
 72
     2
 73
     0
 90
        0
 40
-0.6
 41
-30.0
 62
     5
 63
     7
421
 16777215
 74
     1
 91
        4
 64
     7
 65
   257
 75
     7
175
     7
 42
1.0
 92
        8
 66
     7
 43
1.0
 76
     1
 77
     6
 78
     2
 67
     7
 79
     5
170
     0
171
     0
290
     0
174
     0
 93
        1
 44
0.0
173
     0
291
     1
 45
0.0
1001
ACAD
1000
AcDbSavedByObjectVersion
1070
     0
  0
VISUALSTYLE
  5
33
102
{ACAD_REACTORS
330
2A
102
}
330
2A
100
AcDbVisualStyle
  2
Realistic
 70
     8
 71
     2
 72
     2
 73
     0
 90
        0
 40
-0.6
 41
-30.0
 62
     5
 63
     7
421
 16777215
 74
     1
 91
        0
 64
     7
 65
   257
 75
     1
175
     1
 42
1.0
 92
        8
 66
     8
424
  7895160
 43
1.0
 76
     1
 77
     6
 78
     2
 67
     7
 79
     5
170
     0
171
     0
290
     0
174
     0
 93
       13
 44
0.0
173
     0
291
     0
 45
0.0
1001
ACAD
1000
AcDbSavedByObjectVersion
1070
     0
  0
VISUALSTYLE
  5
37
102
{ACAD_REACTORS
330
2A
102
}
330
2A
100
AcDbVisualStyle
  2
Thicken
 70
    13
 71
     2
 72
     2
 73
     0
 90
        0
 40
-0.6
 41
-30.0
 62
     5
 63
     7
421
 16777215
 74
     1
 91
        4
 64
     7
 65
   257
 75
     1
175
     1
 42
1.0
 92
       12
 66
     7
 43
1.0
 76
     1
 77
     6
 78
     2
 67
     7
 79
     5
170
     0
171
     0
290
     0
174
     0
 93
        1
 44
0.0
173
     0
291
     1
 45
0.0
1001
ACAD
1000
AcDbSavedByObjectVersion
1070
     0
  0
ENDSEC
  0
EOF
