  0
SECTION
  2
HEADER
  9
$ACADVER
  1
AC1018
  9
$ACADMAINTVER
 70
     0
  9
$DWGCODEPAGE
  3
ANSI_1252
  9
$INSBASE
 10
0.0
 20
0.0
 30
0.0
  9
$EXTMIN
 10
-15
 20
-10
 30
0.0
  9
$EXTMAX
 10
25
 20
15
 30
0.0
  9
$LIMMIN
 10
0.0
 20
0.0
  9
$LIMMAX
 10
12.0
 20
9.0
  9
$ORTHOMODE
 70
     0
  9
$REGENMODE
 70
     1
  9
$FILLMODE
 70
     1
  9
$QTEXTMODE
 70
     0
  9
$MIRRTEXT
 70
     1
  9
$LTSCALE
 40
1.0
  9
$ATTMODE
 70
     1
  9
$TEXTSIZE
 40
0.2
  9
$TRACEWID
 40
0.05
  9
$TEXTSTYLE
  7
Standard
  9
$CLAYER
  8
0
  9
$CELTYPE
  6
ByLayer
  9
$CECOLOR
 62
   256
  9
$CELTSCALE
 40
1.0
  9
$DISPSILH
 70
     0
  9
$DIMSCALE
 40
1.0
  9
$DIMASZ
 40
0.18
  9
$DIMEXO
 40
0.0625
  9
$DIMDLI
 40
0.38
  9
$DIMRND
 40
0.0
  9
$DIMDLE
 40
0.0
  9
$DIMEXE
 40
0.18
  9
$DIMTP
 40
0.0
  9
$DIMTM
 40
0.0
  9
$DIMTXT
 40
0.18
  9
$DIMCEN
 40
0.09
  9
$DIMTSZ
 40
0.0
  9
$DIMTOL
 70
     0
  9
$DIMLIM
 70
     0
  9
$DIMTIH
 70
     1
  9
$DIMTOH
 70
     1
  9
$DIMSE1
 70
     0
  9
$DIMSE2
 70
     0
  9
$DIMTAD
 70
     0
  9
$DIMZIN
 70
     0
  9
$DIMBLK
  1

  9
$DIMASO
 70
     1
  9
$DIMSHO
 70
     1
  9
$DIMPOST
  1

  9
$DIMAPOST
  1

  9
$DIMALT
 70
     0
  9
$DIMALTD
 70
     2
  9
$DIMALTF
 40
25.4
  9
$DIMLFAC
 40
1.0
  9
$DIMTOFL
 70
     0
  9
$DIMTVP
 40
0.0
  9
$DIMTIX
 70
     0
  9
$DIMSOXD
 70
     0
  9
$DIMSAH
 70
     0
  9
$DIMBLK1
  1

  9
$DIMBLK2
  1

  9
$DIMSTYLE
  2
Standard
  9
$DIMCLRD
 70
     0
  9
$DIMCLRE
 70
     0
  9
$DIMCLRT
 70
     0
  9
$DIMTFAC
 40
1.0
  9
$DIMGAP
 40
0.09
  9
$DIMJUST
 70
     0
  9
$DIMSD1
 70
     0
  9
$DIMSD2
 70
     0
  9
$DIMTOLJ
 70
     1
  9
$DIMTZIN
 70
     0
  9
$DIMALTZ
 70
     0
  9
$DIMALTTZ
 70
     0
  9
$DIMUPT
 70
     0
  9
$DIMDEC
 70
     4
  9
$DIMTDEC
 70
     4
  9
$DIMALTU
 70
     2
  9
$DIMALTTD
 70
     2
  9
$DIMTXSTY
  7
Standard
  9
$DIMAUNIT
 70
     0
  9
$DIMADEC
 70
     0
  9
$DIMALTRND
 40
0.0
  9
$DIMAZIN
 70
     0
  9
$DIMDSEP
 70
    46
  9
$DIMATFIT
 70
     3
  9
$DIMFRAC
 70
     0
  9
$DIMLDRBLK
  1

  9
$DIMLUNIT
 70
     2
  9
$DIMLWD
 70
    -2
  9
$DIMLWE
 70
    -2
  9
$DIMTMOVE
 70
     0
  9
$LUNITS
 70
     2
  9
$LUPREC
 70
     4
  9
$SKETCHINC
 40
0.1
  9
$FILLETRAD
 40
0.5
  9
$AUNITS
 70
     0
  9
$AUPREC
 70
     0
  9
$MENU
  1
.
  9
$ELEVATION
 40
0.0
  9
$PELEVATION
 40
0.0
  9
$THICKNESS
 40
0.0
  9
$LIMCHECK
 70
     0
  9
$CHAMFERA
 40
0.5
  9
$CHAMFERB
 40
0.5
  9
$CHAMFERC
 40
1.0
  9
$CHAMFERD
 40
0.0
  9
$SKPOLY
 70
     0
  9
$TDCREATE
 40
2455343.56230316
  9
$TDUCREATE
 40
2455343.728969826
  9
$TDUPDATE
 40
2455343.562303171
  9
$TDUUPDATE
 40
2455343.728969838
  9
$TDINDWG
 40
0.0000000116
  9
$TDUSRTIMER
 40
0.0000000116
  9
$USRTIMER
 70
     1
  9
$ANGBASE
 50
0.0
  9
$ANGDIR
 70
     0
  9
$PDMODE
 70
     0
  9
$PDSIZE
 40
0.0
  9
$PLINEWID
 40
0.0
  9
$SPLFRAME
 70
     0
  9
$SPLINETYPE
 70
     6
  9
$SPLINESEGS
 70
     8
  9
$HANDSEED
  5
0002000B
  9
$SURFTAB1
 70
     6
  9
$SURFTAB2
 70
     6
  9
$SURFTYPE
 70
     6
  9
$SURFU
 70
     6
  9
$SURFV
 70
     6
  9
$UCSBASE
  2

  9
$UCSNAME
  2

  9
$UCSORG
 10
0.0
 20
0.0
 30
0.0
  9
$UCSXDIR
 10
1.0
 20
0.0
 30
0.0
  9
$UCSYDIR
 10
0.0
 20
1.0
 30
0.0
  9
$UCSORTHOREF
  2

  9
$UCSORTHOVIEW
 70
     0
  9
$UCSORGTOP
 10
0.0
 20
0.0
 30
0.0
  9
$UCSORGBOTTOM
 10
0.0
 20
0.0
 30
0.0
  9
$UCSORGLEFT
 10
0.0
 20
0.0
 30
0.0
  9
$UCSORGRIGHT
 10
0.0
 20
0.0
 30
0.0
  9
$UCSORGFRONT
 10
0.0
 20
0.0
 30
0.0
  9
$UCSORGBACK
 10
0.0
 20
0.0
 30
0.0
  9
$PUCSBASE
  2

  9
$PUCSNAME
  2

  9
$PUCSORG
 10
0.0
 20
0.0
 30
0.0
  9
$PUCSXDIR
 10
1.0
 20
0.0
 30
0.0
  9
$PUCSYDIR
 10
0.0
 20
1.0
 30
0.0
  9
$PUCSORTHOREF
  2

  9
$PUCSORTHOVIEW
 70
     0
  9
$PUCSORGTOP
 10
0.0
 20
0.0
 30
0.0
  9
$PUCSORGBOTTOM
 10
0.0
 20
0.0
 30
0.0
  9
$PUCSORGLEFT
 10
0.0
 20
0.0
 30
0.0
  9
$PUCSORGRIGHT
 10
0.0
 20
0.0
 30
0.0
  9
$PUCSORGFRONT
 10
0.0
 20
0.0
 30
0.0
  9
$PUCSORGBACK
 10
0.0
 20
0.0
 30
0.0
  9
$USERI1
 70
     0
  9
$USERI2
 70
     0
  9
$USERI3
 70
     0
  9
$USERI4
 70
     0
  9
$USERI5
 70
     0
  9
$USERR1
 40
0.0
  9
$USERR2
 40
0.0
  9
$USERR3
 40
0.0
  9
$USERR4
 40
0.0
  9
$USERR5
 40
0.0
  9
$WORLDVIEW
 70
     1
  9
$SHADEDGE
 70
     3
  9
$SHADEDIF
 70
    70
  9
$TILEMODE
 70
     1
  9
$MAXACTVP
 70
    64
  9
$PINSBASE
 10
0.0
 20
0.0
 30
0.0
  9
$PLIMCHECK
 70
     0
  9
$PEXTMIN
 10
1.000000000000000E+20
 20
1.000000000000000E+20
 30
1.000000000000000E+20
  9
$PEXTMAX
 10
-1.000000000000000E+20
 20
-1.000000000000000E+20
 30
-1.000000000000000E+20
  9
$PLIMMIN
 10
0.0
 20
0.0
  9
$PLIMMAX
 10
12.0
 20
9.0
  9
$UNITMODE
 70
     0
  9
$VISRETAIN
 70
     1
  9
$PLINEGEN
 70
     0
  9
$PSLTSCALE
 70
     1
  9
$TREEDEPTH
 70
  3020
  9
$CMLSTYLE
  2
Standard
  9
$CMLJUST
 70
     0
  9
$CMLSCALE
 40
1.0
  9
$PROXYGRAPHICS
 70
     1
  9
$MEASUREMENT
 70
     0
  9
$CELWEIGHT
370
    -1
  9
$ENDCAPS
280
     0
  9
$JOINSTYLE
280
     0
  9
$LWDISPLAY
290
     0
  9
$INSUNITS
 70
     1
  9
$HYPERLINKBASE
  1

  9
$STYLESHEET
  1

  9
$XEDIT
290
     1
  9
$CEPSNTYPE
380
     0
  9
$PSTYLEMODE
290
     1
  9
$FINGERPRINTGUID
  2
{E7F7769E-AACA-40AB-9EF3-61BBAFBCBA26}
  9
$VERSIONGUID
  2
{FAEB1C32-E019-11D5-929B-00C0DF256EC4}
  9
$EXTNAMES
290
     1
  9
$PSVPSCALE
 40
0.0
  9
$OLESTARTUP
290
     0
  9
$SORTENTS
280
   127
  9
$INDEXCTL
280
     0
  9
$HIDETEXT
280
     1
  9
$XCLIPFRAME
290
     0
  9
$HALOGAP
280
     0
  9
$OBSCOLOR
 70
   257
  9
$OBSLTYPE
280
     0
  9
$INTERSECTIONDISPLAY
280
     0
  9
$INTERSECTIONCOLOR
 70
   257
  9
$DIMASSOC
280
     2
  9
$PROJECTNAME
  1

  0
ENDSEC
  0
SECTION
  2
CLASSES
  0
CLASS
  1
ACDBDICTIONARYWDFLT
  2
AcDbDictionaryWithDefault
  3
ObjectDBX Classes
 90
        0
 91
        4
280
     0
281
     0
  0
CLASS
  1
VISUALSTYLE
  2
AcDbVisualStyle
  3
ObjectDBX Classes
 90
     4095
 91
        4
280
     0
281
     0
  0
ENDSEC
  0
SECTION
  2
TABLES
  0
TABLE
  2
VPORT
  5
8
330
0
100
AcDbSymbolTable
 70
     1
  0
VPORT
  5
29
330
8
100
AcDbSymbolTableRecord
100
AcDbViewportTableRecord
  2
*Active
 70
     0
 10
0.0
 20
0.0
 11
1.0
 21
1.0
 12
80.25
 22
106.4409457059851
 13
0.0
 23
0.0
 14
0.5
 24
0.5
 15
0.5
 25
0.5
 16
0.0
 26
0.0
 36
1.0
 17
0.0
 27
0.0
 37
0.0
 40
113.3818914119703
 41
0.8863849310366128
 42
50.0
 43
0.0
 44
0.0
 50
0.0
 51
0.0
 71
     0
 72
  1000
 73
     1
 74
     3
 75
     0
 76
     0
 77
     0
 78
     0
281
     0
 65
     1
110
0.0
120
0.0
130
0.0
111
1.0
121
0.0
131
0.0
112
0.0
122
1.0
132
0.0
 79
     0
146
0.0
  0
ENDTAB
  0
TABLE
  2
LTYPE
  5
5
330
0
100
AcDbSymbolTable
 70
     1
  0
LTYPE
  5
14
330
5
100
AcDbSymbolTableRecord
100
AcDbLinetypeTableRecord
  2
ByBlock
 70
     0
  3

 72
    65
 73
     0
 40
0.0
  0
LTYPE
  5
15
330
5
100
AcDbSymbolTableRecord
100
AcDbLinetypeTableRecord
  2
ByLayer
 70
     0
  3

 72
    65
 73
     0
 40
0.0
  0
LTYPE
  5
16
330
5
100
AcDbSymbolTableRecord
100
AcDbLinetypeTableRecord
  2
Continuous
 70
     0
  3
Solid line
 72
    65
 73
     0
 40
0.0
  0
ENDTAB
  0
TABLE
  2
LAYER
  5
2
330
0
100
AcDbSymbolTable
 70
     1
  0
LAYER
  5
10
330
2
100
AcDbSymbolTableRecord
100
AcDbLayerTableRecord
  2
0
 70
     0
 62
     7
  6
Continuous
370
    -3
390
F
  0
ENDTAB
  0
TABLE
  2
STYLE
  5
3
330
0
100
AcDbSymbolTable
 70
     1
  0
STYLE
  5
11
330
3
100
AcDbSymbolTableRecord
100
AcDbTextStyleTableRecord
  2
Standard
 70
     0
 40
0.0
 41
1.0
 50
0.0
 71
     0
 42
0.2
  3
txt
  4

  0
ENDTAB
  0
TABLE
  2
VIEW
  5
6
330
0
100
AcDbSymbolTable
 70
     0
  0
ENDTAB
  0
TABLE
  2
UCS
  5
7
330
0
100
AcDbSymbolTable
 70
     0
  0
ENDTAB
  0
TABLE
  2
APPID
  5
9
330
0
100
AcDbSymbolTable
 70
     1
  0
APPID
  5
12
330
9
100
AcDbSymbolTableRecord
100
AcDbRegAppTableRecord
  2
ACAD
 70
     0
  0
ENDTAB
  0
TABLE
  2
DIMSTYLE
  5
A
330
0
100
AcDbSymbolTable
 70
     1
100
AcDbDimStyleTable
  0
DIMSTYLE
105
27
330
A
100
AcDbSymbolTableRecord
100
AcDbDimStyleTableRecord
  2
Standard
 70
     0
340
11
  0
ENDTAB
  0
TABLE
  2
BLOCK_RECORD
  5
1
330
0
100
AcDbSymbolTable
 70
     1
  0
BLOCK_RECORD
  5
1F
330
1
100
AcDbSymbolTableRecord
100
AcDbBlockTableRecord
  2
*Model_Space
340
22
  0
BLOCK_RECORD
  5
1B
330
1
100
AcDbSymbolTableRecord
100
AcDbBlockTableRecord
  2
*Paper_Space
340
1E
  0
BLOCK_RECORD
  5
23
330
1
100
AcDbSymbolTableRecord
100
AcDbBlockTableRecord
  2
*Paper_Space0
340
26
  0
ENDTAB
  0
ENDSEC
  0
SECTION
  2
BLOCKS
  0
BLOCK
  5
20
330
1F
100
AcDbEntity
  8
0
100
AcDbBlockBegin
  2
*Model_Space
 70
     0
 10
0.0
 20
0.0
 30
0.0
  3
*Model_Space
  1

  0
ENDBLK
  5
21
330
1F
100
AcDbEntity
  8
0
100
AcDbBlockEnd
  0
BLOCK
  5
1C
330
1B
100
AcDbEntity
 67
     1
  8
0
100
AcDbBlockBegin
  2
*Paper_Space
 70
     0
 10
0.0
 20
0.0
 30
0.0
  3
*Paper_Space
  1

  0
ENDBLK
  5
1D
330
1B
100
AcDbEntity
 67
     1
  8
0
100
AcDbBlockEnd
  0
BLOCK
  5
24
330
23
100
AcDbEntity
  8
0
100
AcDbBlockBegin
  2
*Paper_Space0
 70
     0
 10
0.0
 20
0.0
 30
0.0
  3
*Paper_Space0
  1

  0
ENDBLK
  5
25
330
23
100
AcDbEntity
  8
0
100
AcDbBlockEnd
  0
ENDSEC
  0
SECTION
  2
ENTITIES
  0
HATCH
  5
20000
  8
0
100
AcDbEntity
100
AcDbHatch
 10
0
 20
0
 30
0
210
0
220
0
230
1
  2
SOLID
 70
1
 71
0
 91
1
 92
2
 72
0
 73
1
 93
66
 10
-6.26375814179926
 20
5.88405132195444
 10
-6.14892789025571
 20
5.8579361823891
 10
-6.03721030905914
 20
5.82069146147914
 10
-5.92968129958752
 20
5.77267584624696
 10
-5.82737642498339
 20
5.71435175331525
 10
-5.73128093711473
 20
5.64628087558213
 10
-5.64232028806086
 20
5.56911877281149
 10
-5.56135121750298
 20
5.48360855823413
 10
-5.48915350185279
 20
5.39057374196104
 10
-5.42642244457927
 20
5.29091030013096
 10
-5.37376218005624
 20
5.18557804617027
 10
-5.33167985541811
 20
5.0755913872651
 10
-5.30058074645566
 20
4.96200955506551
 10
-5.28076435458871
 20
4.84592640470574
 10
-5.27242152250369
 20
4.72845988038126
 10
-5.27563259623422
 20
4.61074124893505
 10
-5.29036665138493
 20
4.49390420513947
 10
-5.31648179095026
 20
4.37907395359592
 10
-5.35372651186022
 20
4.26735637239935
 10
-5.4017421270924
 20
4.15982736292772
 10
-5.46006622002411
 20
4.0575224883236
 10
-5.52813709775724
 20
3.96142700045494
 10
-5.60529920052787
 20
3.87246635140106
 10
-5.69080941510524
 20
3.79149728084319
 10
-5.78384423137832
 20
3.719299565193
 10
-5.88350767320841
 20
3.65656850791947
 10
-5.98883992716909
 20
3.60390824339645
 10
-6.09882658607427
 20
3.56182591875831
 10
-6.21240841827385
 20
3.53072680979587
 10
-6.32849156863362
 20
3.51091041792892
 10
-6.4459580929581
 20
3.5025675858439
 10
-6.56367672440432
 20
3.50577865957443
 10
-6.68051376819989
 20
3.52051271472514
 10
-6.79534401974345
 20
3.54662785429047
 10
-6.90706160094002
 20
3.58387257520043
 10
-7.01459061041164
 20
3.63188819043261
 10
-7.11689548501577
 20
3.69021228336432
 10
-7.21299097288442
 20
3.75828316109745
 10
-7.3019516219383
 20
3.83544526386808
 10
-7.38292069249617
 20
3.92095547844545
 10
-7.45511840814637
 20
4.01399029471853
 10
-7.51784946541989
 20
4.11365373654862
 10
-7.57050972994291
 20
4.2189859905093
 10
-7.61259205458105
 20
4.32897264941448
 10
-7.6436911635435
 20
4.44255448161406
 10
-7.66350755541044
 20
4.55863763197383
 10
-7.67185038749547
 20
4.67610415629831
 10
-7.66863931376494
 20
4.79382278774453
 10
-7.65390525861423
 20
4.9106598315401
 10
-7.6277901190489
 20
5.02549008308365
 10
-7.59054539813894
 20
5.13720766428022
 10
-7.54252978290676
 20
5.24473667375185
 10
-7.48420568997504
 20
5.34704154835597
 10
-7.41613481224192
 20
5.44313703622463
 10
-7.33897270947129
 20
5.53209768527851
 10
-7.25346249489392
 20
5.61306675583638
 10
-7.16042767862084
 20
5.68526447148657
 10
-7.06076423679075
 20
5.7479955287601
 10
-6.95543198283007
 20
5.80065579328312
 10
-6.8454453239249
 20
5.84273811792126
 10
-6.73186349172531
 20
5.8738372268837
 10
-6.61578034136554
 20
5.89365361875065
 10
-6.49831381704106
 20
5.90199645083568
 10
-6.38059518559485
 20
5.89878537710515
 10
-6.26375814179927
 20
5.88405132195444
 10
-6.26375814179926
 20
5.88405132195444
 97
0
 75
0
 76
1
 98
0
  0
HATCH
  5
20001
  8
0
100
AcDbEntity
100
AcDbHatch
 10
0
 20
0
 30
0
210
0
220
0
230
1
  2
SOLID
 70
1
 71
0
 91
1
 92
2
 72
0
 73
1
 93
66
 10
9.02472343118192
 20
6.07133860101757
 10
9.06604694857015
 20
5.93774071288604
 10
9.09407659897856
 20
5.80073572209913
 10
9.10854244155116
 20
5.66164306161265
 10
9.10930516231615
 20
5.52180226978289
 10
9.0963574158556
 20
5.38256008987991
 10
9.0698238960459
 20
5.2452575002137
 10
9.0299601351875
 20
5.11121679977997
 10
8.97715004308923
 20
4.981728873798
 10
8.91190220980691
 20
4.8580407617803
 10
8.83484500764316
 20
4.74134364786039
 10
8.74672053957857
 20
4.63276138903846
 10
8.64837749241432
 20
4.53333969182407
 10
8.54076296345439
 20
4.44403604151081
 10
8.42491333944075
 20
4.36571048106955
 10
8.30194431558249
 20
4.29911732846443
 10
8.17304015080108
 20
4.24489791215858
 10
8.03944226266955
 20
4.20357439477035
 10
7.90243727188263
 20
4.17554474436194
 10
7.76334461139616
 20
4.16107890178933
 10
7.6235038195664
 20
4.16031618102435
 10
7.48426163966342
 20
4.17326392748489
 10
7.34695904999721
 20
4.1997974472946
 10
7.21291834956348
 20
4.23966120815299
 10
7.08343042358151
 20
4.29247130025127
 10
6.9597423115638
 20
4.35771913353358
 10
6.8430451976439
 20
4.43477633569733
 10
6.73446293882197
 20
4.52290080376193
 10
6.63504124160758
 20
4.62124385092618
 10
6.54573759129432
 20
4.72885837988611
 10
6.46741203085305
 20
4.84470800389975
 10
6.40081887824794
 20
4.96767702775801
 10
6.34659946194208
 20
5.09658119253942
 10
6.30527594455386
 20
5.23017908067095
 10
6.27724629414544
 20
5.36718407145786
 10
6.26278045157284
 20
5.50627673194434
 10
6.26201773080785
 20
5.6461175237741
 10
6.2749654772684
 20
5.78535970367708
 10
6.3014989970781
 20
5.92266229334329
 10
6.3413627579365
 20
6.05670299377702
 10
6.39417285003478
 20
6.18619091975899
 10
6.45942068331709
 20
6.30987903177669
 10
6.53647788548084
 20
6.4265761456966
 10
6.62460235354544
 20
6.53515840451853
 10
6.72294540070968
 20
6.63458010173292
 10
6.83055992966961
 20
6.72388375204618
 10
6.94640955368326
 20
6.80220931248744
 10
7.06937857754151
 20
6.86880246509256
 10
7.19828274232292
 20
6.92302188139841
 10
7.33188063045445
 20
6.96434539878664
 10
7.46888562124137
 20
6.99237504919505
 10
7.60797828172784
 20
7.00684089176766
 10
7.7478190735576
 20
7.00760361253264
 10
7.88706125346058
 20
6.9946558660721
 10
8.02436384312679
 20
6.96812234626239
 10
8.15840454356052
 20
6.928258585404
 10
8.28789246954249
 20
6.87544849330572
 10
8.41158058156019
 20
6.81020066002341
 10
8.5282776954801
 20
6.73314345785966
 10
8.63685995430203
 20
6.64501898979507
 10
8.73628165151642
 20
6.54667594263082
 10
8.82558530182968
 20
6.43906141367089
 10
8.90391086227094
 20
6.32321178965725
 10
8.97050401487606
 20
6.20024276579899
 10
9.02472343118192
 20
6.07133860101758
 10
9.02472343118192
 20
6.07133860101757
 97
0
 75
0
 76
1
 98
0
  0
HATCH
  5
20002
  8
0
100
AcDbEntity
100
AcDbHatch
 10
0
 20
0
 30
0
210
0
220
0
230
1
  2
SOLID
 70
1
 71
0
 91
1
 92
2
 72
0
 73
1
 93
66
 10
-1.98914445218705
 20
9.18816277833396
 10
-1.8839853886806
 20
9.12035991136312
 10
-1.78597853793446
 20
9.0425761430445
 10
-1.69606775949731
 20
8.95556057358797
 10
-1.61511894331573
 20
8.86015121049492
 10
-1.54391167074066
 20
8.75726689808802
 10
-1.48313170673288
 20
8.64789846853803
 10
-1.43336439557146
 20
8.53309919960838
 10
-1.39508902366849
 20
8.41397467101452
 10
-1.36867420377883
 20
8.29167211708691
 10
-1.35437432505783
 20
8.16736937827724
 10
-1.35232710315469
 20
8.04226355791104
 10
-1.36255225393544
 20
7.91755949342824
 10
-1.38495130360845
 20
7.79445815313998
 10
-1.41930853708079
 20
7.67414507024728
 10
-1.46529307541255
 20
7.5577789255082
 10
-1.52246206236189
 20
7.44648038850881
 10
-1.59026492933274
 20
7.34132132500236
 10
-1.66804869765136
 20
7.24331447425622
 10
-1.75506426710789
 20
7.15340369581907
 10
-1.85047363020093
 20
7.07245487963748
 10
-1.95335794260783
 20
7.00124760706242
 10
-2.06272637215782
 20
6.94046764305463
 10
-2.17752564108748
 20
6.89070033189322
 10
-2.29665016968134
 20
6.85242495999024
 10
-2.41895272360895
 20
6.82601014010059
 10
-2.54325546241862
 20
6.81171026137959
 10
-2.66836128278482
 20
6.80966303947644
 10
-2.79306534726762
 20
6.8198881902572
 10
-2.91616668755588
 20
6.84228723993021
 10
-3.03647977044858
 20
6.87664447340255
 10
-3.15284591518765
 20
6.92262901173431
 10
-3.26414445218705
 20
6.97979799868365
 10
-3.3693035156935
 20
7.0476008656545
 10
-3.46731036643964
 20
7.12538463397311
 10
-3.55722114487679
 20
7.21240020342964
 10
-3.63816996105838
 20
7.30780956652269
 10
-3.70937723363344
 20
7.41069387892959
 10
-3.77015719764123
 20
7.52006230847958
 10
-3.81992450880264
 20
7.63486157740923
 10
-3.85819988070561
 20
7.75398610600309
 10
-3.88461470059527
 20
7.8762886599307
 10
-3.89891457931627
 20
8.00059139874037
 10
-3.90096180121942
 20
8.12569721910657
 10
-3.89073665043866
 20
8.25040128358937
 10
-3.86833760076565
 20
8.37350262387763
 10
-3.83398036729331
 20
8.49381570677033
 10
-3.78799582896155
 20
8.61018185150941
 10
-3.73082684201221
 20
8.7214803885088
 10
-3.66302397504136
 20
8.82663945201525
 10
-3.58524020672275
 20
8.92464630276139
 10
-3.49822463726622
 20
9.01455708119854
 10
-3.40281527417318
 20
9.09550589738013
 10
-3.29993096176628
 20
9.16671316995519
 10
-3.19056253221628
 20
9.22749313396298
 10
-3.07576326328663
 20
9.27726044512439
 10
-2.95663873469277
 20
9.31553581702737
 10
-2.83433618076516
 20
9.34195063691703
 10
-2.71003344195549
 20
9.35625051563802
 10
-2.5849276215893
 20
9.35829773754117
 10
-2.4602235571065
 20
9.34807258676041
 10
-2.33712221681824
 20
9.32567353708741
 10
-2.21680913392553
 20
9.29131630361507
 10
-2.10044298918646
 20
9.24533176528331
 10
-1.98914445218706
 20
9.18816277833397
 10
-1.98914445218705
 20
9.18816277833396
 97
0
 75
0
 76
1
 98
0
  0
HATCH
  5
20003
  8
0
100
AcDbEntity
100
AcDbHatch
 10
0
 20
0
 30
0
210
0
220
0
230
1
  2
SOLID
 70
1
 71
0
 91
1
 92
2
 72
0
 73
1
 93
66
 10
3.81531294758515
 20
9.42727191973321
 10
3.89538885903909
 20
9.32172799672169
 10
3.96473406957966
 20
9.20884348469755
 10
4.0226807469214
 20
9.08970552322056
 10
4.06867083288463
 20
8.96546147598715
 10
4.10226141780079
 20
8.8373078810909
 10
4.12312900597466
 20
8.70647892770653
 10
4.13107263112473
 20
8.57423457017353
 10
4.12601579179838
 20
8.44184839394704
 10
4.10800718812268
 20
8.31059535027379
 10
4.07722025279553
 20
8.18173947771454
 10
4.03395148083398
 20
8.05652172876184
 10
3.97861757416513
 20
7.93614801878909
 10
3.91175142855879
 20
7.82177761242627
 10
3.83399700154992
 20
7.7145119592079
 10
3.74610311077549
 20
7.61538408601184
 10
3.64891622245136
 20
7.52534864844576
 10
3.54337229943983
 20
7.44527273699182
 10
3.4304877874157
 20
7.37592752645125
 10
3.3113498259387
 20
7.31798084910951
 10
3.1871057787053
 20
7.27199076314628
 10
3.05895218380905
 20
7.23840017823011
 10
2.92812323042468
 20
7.21753259005625
 10
2.79587887289168
 20
7.20958896490618
 10
2.66349269666519
 20
7.21464580423252
 10
2.53223965299193
 20
7.23265440790822
 10
2.40338378043269
 20
7.26344134323538
 10
2.27816603147999
 20
7.30671011519693
 10
2.15779232150723
 20
7.36204402186578
 10
2.04342191514442
 20
7.42891016747211
 10
1.93615626192605
 20
7.50666459448099
 10
1.83702838872998
 20
7.59455848525542
 10
1.74699295116391
 20
7.69174537357955
 10
1.66691703970996
 20
7.79728929659107
 10
1.59757182916939
 20
7.91017380861521
 10
1.53962515182765
 20
8.02931177009221
 10
1.49363506586442
 20
8.15355581732561
 10
1.46004448094826
 20
8.28170941222186
 10
1.4391768927744
 20
8.41253836560623
 10
1.43123326762432
 20
8.54478272313924
 10
1.43629010695067
 20
8.67716889936572
 10
1.45429871062637
 20
8.80842194303898
 10
1.48508564595352
 20
8.93727781559822
 10
1.52835441791508
 20
9.06249556455092
 10
1.58368832458393
 20
9.18286927452368
 10
1.65055447019026
 20
9.29723968088649
 10
1.72830889719913
 20
9.40450533410486
 10
1.81620278797356
 20
9.50363320730092
 10
1.9133896762977
 20
9.593668644867
 10
2.01893359930922
 20
9.67374455632094
 10
2.13181811133335
 20
9.74308976686151
 10
2.25095607281035
 20
9.80103644420325
 10
2.37520012004375
 20
9.84702653016649
 10
2.50335371494
 20
9.88061711508265
 10
2.63418266832437
 20
9.90148470325651
 10
2.76642702585737
 20
9.90942832840658
 10
2.89881320208386
 20
9.90437148908024
 10
3.03006624575711
 20
9.88636288540454
 10
3.15892211831636
 20
9.85557595007739
 10
3.28413986726906
 20
9.81230717811583
 10
3.40451357724181
 20
9.75697327144698
 10
3.51888398360463
 20
9.69010712584065
 10
3.626149636823
 20
9.61235269883178
 10
3.72527751001906
 20
9.52445880805735
 10
3.81531294758514
 20
9.42727191973322
 10
3.81531294758515
 20
9.42727191973321
 97
0
 75
0
 76
1
 98
0
  0
HATCH
  5
20004
  8
0
100
AcDbEntity
100
AcDbHatch
 10
0
 20
0
 30
0
210
0
220
0
230
1
  2
SOLID
 70
1
 71
0
 91
1
 92
2
 72
0
 73
1
 93
66
 10
-2.75550379547816
 20
-5.55514943647412
 10
-2.69047820168044
 20
-5.4849589060178
 10
-2.61888584881662
 20
-5.42147998490294
 10
-2.54141621038113
 20
-5.36532400984097
 10
-2.45881536134132
 20
-5.31703179356973
 10
-2.37187879302766
 20
-5.27706841653112
 10
-2.28144375211738
 20
-5.24581874789222
 10
-2.18838117749126
 20
-5.22358373904483
 10
-2.09358731261613
 20
-5.21057752527905
 10
-1.99797507423033
 20
-5.20692536354335
 10
-1.90246526045649
 20
-5.21266242615174
 10
-1.80797768301223
 20
-5.22773346205508
 10
-1.71542230892049
 20
-5.25199332893898
 10
-1.6256904970297
 20
-5.28520839102353
 10
-1.53964641374076
 20
-5.32705876910368
 10
-1.45811871061222
 20
-5.37714142116076
 10
-1.38189254399278
 20
-5.43497402387749
 10
-1.31170201353647
 20
-5.49999961767521
 10
-1.2482230924216
 20
-5.57159197053904
 10
-1.19206711735964
 20
-5.64906160897453
 10
-1.14377490108839
 20
-5.73166245801434
 10
-1.10381152404978
 20
-5.818599026328
 10
-1.07256185541088
 20
-5.90903406723828
 10
-1.05032684656349
 20
-6.0020966418644
 10
-1.03732063279771
 20
-6.09689050673953
 10
-1.03366847106201
 20
-6.19250274512532
 10
-1.0394055336704
 20
-6.28801255889916
 10
-1.05447656957374
 20
-6.38250013634343
 10
-1.07873643645764
 20
-6.47505551043516
 10
-1.11195149854219
 20
-6.56478732232596
 10
-1.15380187662234
 20
-6.6508314056149
 10
-1.20388452867942
 20
-6.73235910874344
 10
-1.26171713139616
 20
-6.80858527536287
 10
-1.32674272519388
 20
-6.87877580581919
 10
-1.3983350780577
 20
-6.94225472693406
 10
-1.47580471649319
 20
-6.99841070199602
 10
-1.558405565533
 20
-7.04670291826726
 10
-1.64534213384666
 20
-7.08666629530588
 10
-1.73577717475694
 20
-7.11791596394478
 10
-1.82883974938306
 20
-7.14015097279217
 10
-1.92363361425819
 20
-7.15315718655795
 10
-2.01924585264399
 20
-7.15680934829364
 10
-2.11475566641782
 20
-7.15107228568526
 10
-2.20924324386209
 20
-7.13600124978191
 10
-2.30179861795382
 20
-7.11174138289802
 10
-2.39153042984462
 20
-7.07852632081346
 10
-2.47757451313356
 20
-7.03667594273332
 10
-2.5591022162621
 20
-6.98659329067624
 10
-2.63532838288153
 20
-6.9287606879595
 10
-2.70551891333785
 20
-6.86373509416178
 10
-2.76899783445272
 20
-6.79214274129796
 10
-2.82515380951468
 20
-6.71467310286247
 10
-2.87344602578592
 20
-6.63207225382266
 10
-2.91340940282454
 20
-6.545135685509
 10
-2.94465907146344
 20
-6.45470064459872
 10
-2.96689408031083
 20
-6.3616380699726
 10
-2.97990029407661
 20
-6.26684420509747
 10
-2.98355245581231
 20
-6.17123196671168
 10
-2.97781539320392
 20
-6.07572215293784
 10
-2.96274435730058
 20
-5.98123457549358
 10
-2.93848449041668
 20
-5.88867920140184
 10
-2.90526942833213
 20
-5.79894738951104
 10
-2.86341905025198
 20
-5.7129033062221
 10
-2.81333639819491
 20
-5.63137560309356
 10
-2.75550379547817
 20
-5.55514943647413
 10
-2.75550379547816
 20
-5.55514943647412
 97
0
 75
0
 76
1
 98
0
  0
HATCH
  5
20005
  8
0
100
AcDbEntity
100
AcDbHatch
 10
0
 20
0
 30
0
210
0
220
0
230
1
  2
SOLID
 70
1
 71
0
 91
1
 92
2
 72
0
 73
1
 93
66
 10
-6.18811896062463
 20
-3.20517009207365
 10
-6.09646134191925
 20
-3.15808974988008
 10
-6.00063039919295
 20
-3.12022013007745
 10
-5.90154903681073
 20
-3.09192593780611
 10
-5.80017146245569
 20
-3.07347966160481
 10
-5.6974739975875
 20
-3.06505894919713
 10
-5.59444567493298
 20
-3.06674489664678
 10
-5.49207871356032
 20
-3.07852126735819
 10
-5.39135896326699
 20
-3.10027464844379
 10
-5.29325641030734
 20
-3.13179554295212
 10
-5.19871583589468
 20
-3.17278038743799
 10
-5.10864771744175
 20
-3.2228344754444
 10
-5.02391946016548
 20
-3.28147575874151
 10
-4.94534704350062
 20
-3.34813948971458
 10
-4.87368716277171
 20
-3.42218366019224
 10
-4.80962994180344
 20
-3.50289518433612
 10
-4.75379228665097
 20
-3.58949676604731
 10
-4.7067119444574
 20
-3.68115438475269
 10
-4.66884232465477
 20
-3.77698532747899
 10
-4.64054813238343
 20
-3.87606668986122
 10
-4.62210185618213
 20
-3.97744426421625
 10
-4.61368114377445
 20
-4.08014172908444
 10
-4.6153670912241
 20
-4.18317005173896
 10
-4.62714346193551
 20
-4.28553701311163
 10
-4.64889684302111
 20
-4.38625676340496
 10
-4.68041773752944
 20
-4.4843593163646
 10
-4.72140258201531
 20
-4.57889989077726
 10
-4.77145667002172
 20
-4.6689680092302
 10
-4.83009795331884
 20
-4.75369626650647
 10
-4.8967616842919
 20
-4.83226868317132
 10
-4.97080585476956
 20
-4.90392856390024
 10
-5.05151737891344
 20
-4.96798578486851
 10
-5.13811896062463
 20
-5.02382344002097
 10
-5.22977657933002
 20
-5.07090378221455
 10
-5.32560752205631
 20
-5.10877340201717
 10
-5.42468888443854
 20
-5.13706759428851
 10
-5.52606645879358
 20
-5.15551387048981
 10
-5.62876392366177
 20
-5.1639345828975
 10
-5.73179224631628
 20
-5.16224863544784
 10
-5.83415920768895
 20
-5.15047226473643
 10
-5.93487895798228
 20
-5.12871888365083
 10
-6.03298151094193
 20
-5.0971979891425
 10
-6.12752208535458
 20
-5.05621314465663
 10
-6.21759020380752
 20
-5.00615905665022
 10
-6.30231846108379
 20
-4.94751777335311
 10
-6.38089087774865
 20
-4.88085404238004
 10
-6.45255075847756
 20
-4.80680987190238
 10
-6.51660797944583
 20
-4.72609834775851
 10
-6.57244563459829
 20
-4.63949676604731
 10
-6.61952597679187
 20
-4.54783914734193
 10
-6.65739559659449
 20
-4.45200820461563
 10
-6.68568978886583
 20
-4.35292684223341
 10
-6.70413606506713
 20
-4.25154926787837
 10
-6.71255677747482
 20
-4.14885180301018
 10
-6.71087083002517
 20
-4.04582348035567
 10
-6.69909445931376
 20
-3.943456518983
 10
-6.67734107822816
 20
-3.84273676868967
 10
-6.64582018371983
 20
-3.74463421573002
 10
-6.60483533923396
 20
-3.65009364131737
 10
-6.55478125122754
 20
-3.56002552286443
 10
-6.49613996793043
 20
-3.47529726558816
 10
-6.42947623695737
 20
-3.3967248489233
 10
-6.35543206647971
 20
-3.32506496819439
 10
-6.27472054233583
 20
-3.26100774722612
 10
-6.18811896062464
 20
-3.20517009207365
 10
-6.18811896062463
 20
-3.20517009207365
 97
0
 75
0
 76
1
 98
0
  0
HATCH
  5
20006
  8
0
100
AcDbEntity
100
AcDbHatch
 10
0
 20
0
 30
0
210
0
220
0
230
1
  2
SOLID
 70
1
 71
0
 91
1
 92
2
 72
0
 73
1
 93
66
 10
3.62459346906221
 20
-3.2328188876086
 10
3.62856606955765
 20
-3.15195474683672
 10
3.64044561272955
 20
-3.0718693719453
 10
3.66011769208314
 20
-2.99333402887367
 10
3.6873928547404
 20
-2.9171050559074
 10
3.72200842597482
 20
-2.84391657972716
 10
3.76363103891261
 20
-2.77447344536743
 10
3.81185984503795
 20
-2.7094444281736
 10
3.86623037458331
 20
-2.6494557931297
 10
3.9262190096272
 20
-2.59508526358435
 10
3.99124802682104
 20
-2.546856457459
 10
4.06069116118076
 20
-2.50523384452121
 10
4.13387963736101
 20
-2.47061827328679
 10
4.21010861032728
 20
-2.44334311062953
 10
4.2886439533989
 20
-2.42367103127594
 10
4.36872932829032
 20
-2.41179148810404
 10
4.44959346906221
 20
-2.4078188876086
 10
4.5304576098341
 20
-2.41179148810404
 10
4.61054298472552
 20
-2.42367103127594
 10
4.68907832779714
 20
-2.44334311062953
 10
4.76530730076341
 20
-2.47061827328679
 10
4.83849577694366
 20
-2.50523384452121
 10
4.90793891130338
 20
-2.546856457459
 10
4.97296792849722
 20
-2.59508526358434
 10
5.03295656354111
 20
-2.6494557931297
 10
5.08732709308647
 20
-2.70944442817359
 10
5.13555589921181
 20
-2.77447344536743
 10
5.1771785121496
 20
-2.84391657972715
 10
5.21179408338402
 20
-2.9171050559074
 10
5.23906924604128
 20
-2.99333402887367
 10
5.25874132539488
 20
-3.0718693719453
 10
5.27062086856677
 20
-3.15195474683672
 10
5.27459346906221
 20
-3.2328188876086
 10
5.27062086856677
 20
-3.31368302838049
 10
5.25874132539488
 20
-3.39376840327191
 10
5.23906924604128
 20
-3.47230374634353
 10
5.21179408338402
 20
-3.5485327193098
 10
5.1771785121496
 20
-3.62172119549005
 10
5.13555589921181
 20
-3.69116432984978
 10
5.08732709308647
 20
-3.75619334704361
 10
5.03295656354111
 20
-3.8161819820875
 10
4.97296792849722
 20
-3.87055251163286
 10
4.90793891130338
 20
-3.9187813177582
 10
4.83849577694366
 20
-3.960403930696
 10
4.76530730076341
 20
-3.99501950193041
 10
4.68907832779714
 20
-4.02229466458768
 10
4.61054298472552
 20
-4.04196674394127
 10
4.5304576098341
 20
-4.05384628711317
 10
4.44959346906221
 20
-4.0578188876086
 10
4.36872932829033
 20
-4.05384628711317
 10
4.28864395339891
 20
-4.04196674394127
 10
4.21010861032728
 20
-4.02229466458768
 10
4.13387963736101
 20
-3.99501950193042
 10
4.06069116118077
 20
-3.960403930696
 10
3.99124802682104
 20
-3.91878131775821
 10
3.92621900962721
 20
-3.87055251163286
 10
3.86623037458331
 20
-3.81618198208751
 10
3.81185984503796
 20
-3.75619334704361
 10
3.76363103891261
 20
-3.69116432984978
 10
3.72200842597482
 20
-3.62172119549006
 10
3.6873928547404
 20
-3.54853271930981
 10
3.66011769208314
 20
-3.47230374634354
 10
3.64044561272955
 20
-3.39376840327192
 10
3.62856606955765
 20
-3.3136830283805
 10
3.62459346906221
 20
-3.23281888760861
 10
3.62459346906221
 20
-3.2328188876086
 97
0
 75
0
 76
1
 98
0
  0
HATCH
  5
20007
  8
0
100
AcDbEntity
100
AcDbHatch
 10
0
 20
0
 30
0
210
0
220
0
230
1
  2
SOLID
 70
1
 71
0
 91
1
 92
2
 72
0
 73
1
 93
66
 10
1.00837860754237
 20
-5.39852096877782
 10
1.04262244941975
 20
-5.31710781207377
 10
1.08468128264403
 20
-5.23944316542645
 10
1.13415005765957
 20
-5.16627498183889
 10
1.19055236312057
 20
-5.09830791091683
 10
1.25334501399282
 20
-5.03619651270783
 10
1.32192328272246
 20
-4.98053895393019
 10
1.39562672309293
 20
-4.93187124730045
 10
1.47374553068305
 20
-4.89066208943794
 10
1.55552737867167
 20
-4.85730834706008
 10
1.64018466315613
 20
-4.83213123493899
 10
1.72690208820847
 20
-4.81537322242759
 10
1.81484451762088
 20
-4.80719569834725
 10
1.90316501772389
 20
-4.80767741672514
 10
1.99101301382061
 20
-4.81681373834994
 10
2.07754248168603
 20
-4.83451667544999
 10
2.16192009524278
 20
-4.8606157390636
 10
2.24333325194683
 20
-4.89485958094099
 10
2.32099789859415
 20
-4.93691841416527
 10
2.39416608218172
 20
-4.9863871891808
 10
2.46213315310378
 20
-5.04278949464181
 10
2.52424455131278
 20
-5.10558214551406
 10
2.57990211009042
 20
-5.1741604142437
 10
2.62856981672015
 20
-5.24786385461416
 10
2.66977897458267
 20
-5.32598266220429
 10
2.70313271696053
 20
-5.4077645101929
 10
2.72830982908162
 20
-5.49242179467737
 10
2.74506784159301
 20
-5.57913921972971
 10
2.75324536567336
 20
-5.66708164914212
 10
2.75276364729547
 20
-5.75540214924513
 10
2.74362732567067
 20
-5.84325014534185
 10
2.72592438857062
 20
-5.92977961320727
 10
2.699825324957
 20
-6.01415722676402
 10
2.66558148307962
 20
-6.09557038346807
 10
2.62352264985534
 20
-6.17323503011539
 10
2.5740538748398
 20
-6.24640321370295
 10
2.5176515693788
 20
-6.31437028462502
 10
2.45485891850655
 20
-6.37648168283402
 10
2.38628064977691
 20
-6.43213924161166
 10
2.31257720940644
 20
-6.48080694824139
 10
2.23445840181631
 20
-6.52201610610391
 10
2.1526765538277
 20
-6.55536984848176
 10
2.06801926934324
 20
-6.58054696060286
 10
1.9813018442909
 20
-6.59730497311425
 10
1.89335941487849
 20
-6.60548249719459
 10
1.80503891477548
 20
-6.60500077881671
 10
1.71719091867876
 20
-6.59586445719191
 10
1.63066145081334
 20
-6.57816152009186
 10
1.54628383725658
 20
-6.55206245647824
 10
1.46487068055254
 20
-6.51781861460086
 10
1.38720603390522
 20
-6.47575978137658
 10
1.31403785031765
 20
-6.42629100636104
 10
1.24607077939559
 20
-6.36988870090004
 10
1.18395938118659
 20
-6.30709605002779
 10
1.12830182240895
 20
-6.23851778129815
 10
1.07963411577921
 20
-6.16481434092768
 10
1.0384249579167
 20
-6.08669553333756
 10
1.00507121553884
 20
-6.00491368534894
 10
0.979894103417749
 20
-5.92025640086448
 10
0.963136090906357
 20
-5.83353897581214
 10
0.954958566826012
 20
-5.74559654639973
 10
0.955440285203896
 20
-5.65727604629672
 10
0.964576606828698
 20
-5.5694280502
 10
0.982279543928748
 20
-5.48289858233458
 10
1.00837860754236
 20
-5.39852096877783
 10
1.00837860754237
 20
-5.39852096877782
 97
0
 75
0
 76
1
 98
0
  0
HATCH
  5
20008
  8
0
100
AcDbEntity
100
AcDbHatch
 10
0
 20
0
 30
0
210
0
220
0
230
1
  2
SOLID
 70
1
 71
0
 91
1
 92
2
 72
0
 73
1
 93
66
 10
11.5
 20
0
 10
11.4927770900083
 20
-0.147025710494341
 10
11.4711779206048
 20
-0.292635483024192
 10
11.4354105035983
 20
-0.435427015881693
 10
11.3858192987669
 20
-0.574025148547634
 10
11.3228818965225
 20
-0.707095105238996
 10
11.2472044184538
 20
-0.833355349529403
 10
11.1595156800441
 20
-0.951589926245467
 10
11.0606601717798
 20
-1.06066017177982
 10
10.9515899262455
 20
-1.1595156800441
 10
10.8333553495294
 20
-1.24720441845382
 10
10.707095105239
 20
-1.32288189652253
 10
10.5740251485476
 20
-1.38581929876693
 10
10.4354270158817
 20
-1.43541050359831
 10
10.2926354830242
 20
-1.47117792060485
 10
10.1470257104943
 20
-1.4927770900083
 10
10
 20
-1.5
 10
9.85297428950566
 20
-1.4927770900083
 10
9.70736451697581
 20
-1.47117792060485
 10
9.56457298411831
 20
-1.43541050359831
 10
9.42597485145237
 20
-1.38581929876693
 10
9.29290489476101
 20
-1.32288189652253
 10
9.1666446504706
 20
-1.24720441845382
 10
9.04841007375453
 20
-1.15951568004411
 10
8.93933982822018
 20
-1.06066017177982
 10
8.8404843199559
 20
-0.95158992624547
 10
8.75279558154618
 20
-0.833355349529405
 10
8.67711810347747
 20
-0.707095105238999
 10
8.61418070123307
 20
-0.574025148547637
 10
8.56458949640169
 20
-0.435427015881696
 10
8.52882207939516
 20
-0.292635483024194
 10
8.5072229099917
 20
-0.147025710494343
 10
8.5
 20
-1.51596464942229e-015
 10
8.5072229099917
 20
0.14702571049434
 10
8.52882207939515
 20
0.292635483024191
 10
8.56458949640169
 20
0.435427015881693
 10
8.61418070123307
 20
0.574025148547634
 10
8.67711810347747
 20
0.707095105238996
 10
8.75279558154618
 20
0.833355349529403
 10
8.84048431995589
 20
0.951589926245468
 10
8.93933982822018
 20
1.06066017177982
 10
9.04841007375453
 20
1.1595156800441
 10
9.1666446504706
 20
1.24720441845382
 10
9.292904894761
 20
1.32288189652253
 10
9.42597485145236
 20
1.38581929876693
 10
9.5645729841183
 20
1.43541050359831
 10
9.7073645169758
 20
1.47117792060485
 10
9.85297428950565
 20
1.49277709000829
 10
10
 20
1.5
 10
10.1470257104943
 20
1.4927770900083
 10
10.2926354830242
 20
1.47117792060485
 10
10.4354270158817
 20
1.43541050359831
 10
10.5740251485476
 20
1.38581929876693
 10
10.707095105239
 20
1.32288189652254
 10
10.8333553495294
 20
1.24720441845382
 10
10.9515899262455
 20
1.15951568004411
 10
11.0606601717798
 20
1.06066017177983
 10
11.1595156800441
 20
0.951589926245475
 10
11.2472044184538
 20
0.833355349529411
 10
11.3228818965225
 20
0.707095105239005
 10
11.3858192987669
 20
0.574025148547644
 10
11.4354105035983
 20
0.435427015881704
 10
11.4711779206048
 20
0.292635483024204
 10
11.4927770900083
 20
0.147025710494353
 10
11.5
 20
1.23578027056959e-014
 10
11.5
 20
0
 97
0
 75
0
 76
1
 98
0
  0
HATCH
  5
20009
  8
0
100
AcDbEntity
100
AcDbHatch
 10
0
 20
0
 30
0
210
0
220
0
230
1
  2
SOLID
 70
1
 71
0
 91
1
 92
2
 72
0
 73
1
 93
66
 10
-7.6953541998753
 20
1.10790872213873
 10
-7.58581947131695
 20
1.12172189884253
 10
-7.47545825433612
 20
1.1247322804649
 10
-7.36533338778192
 20
1.11691087538519
 10
-7.25650543431964
 20
1.09833300800993
 10
-7.15002246663252
 20
1.06917759335763
 10
-7.04690997390892
 20
1.02972541400938
 10
-6.94816098582078
 20
0.980356416019045
 10
-6.85472650910507
 20
0.921546049825117
 10
-6.76750636884906
 20
0.853860691403059
 10
-6.68734054268278
 20
0.777952187755055
 10
-6.61500107133531
 20
0.694551579267045
 10
-6.5511846234605
 20
0.604462059390179
 10
-6.49650578633702
 20
0.508551239448812
 10
-6.45149114705685
 20
0.407742793069167
 10
-6.41657422120377
 20
0.303007560697382
 10
-6.39209127786127
 20
0.195354199875299
 10
-6.37827810115748
 20
0.0858194713169491
 10
-6.3752677195351
 20
-0.0245417456638783
 10
-6.38308912461481
 20
-0.13466661221808
 10
-6.40166699199007
 20
-0.243494565680363
 10
-6.43082240664237
 20
-0.349977533367474
 10
-6.47027458599062
 20
-0.453090026091076
 10
-6.51964358398095
 20
-0.551839014179219
 10
-6.57845395017488
 20
-0.645273490894924
 10
-6.64613930859694
 20
-0.73249363115094
 10
-6.72204781224495
 20
-0.812659457317223
 10
-6.80544842073296
 20
-0.884998928664692
 10
-6.89553794060982
 20
-0.948815376539495
 10
-6.99144876055119
 20
-1.00349421366298
 10
-7.09225720693083
 20
-1.04850885294315
 10
-7.19699243930262
 20
-1.08342577879623
 10
-7.3046458001247
 20
-1.10790872213873
 10
-7.41418052868305
 20
-1.12172189884252
 10
-7.52454174566388
 20
-1.1247322804649
 10
-7.63466661221808
 20
-1.11691087538519
 10
-7.74349456568036
 20
-1.09833300800992
 10
-7.84997753336748
 20
-1.06917759335763
 10
-7.95309002609108
 20
-1.02972541400938
 10
-8.05183901417922
 20
-0.980356416019043
 10
-8.14527349089493
 20
-0.921546049825115
 10
-8.23249363115094
 20
-0.853860691403057
 10
-8.31265945731722
 20
-0.777952187755053
 10
-8.38499892866469
 20
-0.694551579267043
 10
-8.4488153765395
 20
-0.604462059390177
 10
-8.50349421366298
 20
-0.508551239448811
 10
-8.54850885294315
 20
-0.407742793069166
 10
-8.58342577879623
 20
-0.303007560697381
 10
-8.60790872213873
 20
-0.195354199875299
 10
-8.62172189884252
 20
-0.085819471316949
 10
-8.6247322804649
 20
0.0245417456638783
 10
-8.61691087538519
 20
0.134666612218079
 10
-8.59833300800993
 20
0.243494565680362
 10
-8.56917759335763
 20
0.349977533367473
 10
-8.52972541400938
 20
0.453090026091075
 10
-8.48035641601905
 20
0.551839014179217
 10
-8.42154604982512
 20
0.645273490894923
 10
-8.35386069140306
 20
0.732493631150939
 10
-8.27795218775506
 20
0.812659457317221
 10
-8.19455157926705
 20
0.884998928664691
 10
-8.10446205939018
 20
0.948815376539493
 10
-8.00855123944882
 20
1.00349421366298
 10
-7.90774279306917
 20
1.04850885294315
 10
-7.80300756069739
 20
1.08342577879623
 10
-7.69535419987531
 20
1.10790872213873
 10
-7.6953541998753
 20
1.10790872213873
 97
0
 75
0
 76
1
 98
0
  0
HATCH
  5
2000A
  8
0
100
AcDbEntity
100
AcDbHatch
 10
0
 20
0
 30
0
210
0
220
0
230
1
  2
SOLID
 70
1
 71
0
 91
31
 92
2
 72
0
 73
1
 93
5
 10
-15
 20
-10
 10
-15
 20
15
 10
25
 20
15
 10
25
 20
-10
 10
-15
 20
-10
 97
0
 92
2
 72
0
 73
1
 93
66
 10
12
 20
0
 10
12
 20
1.64770702742612e-014
 10
11.9903694533444
 20
0.196034280659137
 10
11.9615705608065
 20
0.390180644032271
 10
11.9138806714644
 20
0.580569354508939
 10
11.8477590650226
 20
0.765366864730192
 10
11.7638425286967
 20
0.942793473652007
 10
11.6629392246051
 20
1.11114046603921
 10
11.5460209067255
 20
1.2687865683273
 10
11.4142135623731
 20
1.4142135623731
 10
11.2687865683273
 20
1.54602090672548
 10
11.1111404660392
 20
1.6629392246051
 10
10.942793473652
 20
1.76384252869671
 10
10.7653668647302
 20
1.84775906502258
 10
10.5805693545089
 20
1.91388067146442
 10
10.3901806440322
 20
1.96157056080646
 10
10.1960342806591
 20
1.99036945334439
 10
9.99999999999999
 20
2
 10
9.80396571934087
 20
1.99036945334439
 10
9.60981935596774
 20
1.96157056080646
 10
9.41943064549107
 20
1.91388067146442
 10
9.23463313526982
 20
1.84775906502257
 10
9.057206526348
 20
1.76384252869671
 10
8.88885953396079
 20
1.66293922460509
 10
8.73121343167271
 20
1.54602090672547
 10
8.5857864376269
 20
1.41421356237309
 10
8.45397909327453
 20
1.26878656832729
 10
8.33706077539491
 20
1.1111404660392
 10
8.23615747130329
 20
0.942793473651995
 10
8.15224093497743
 20
0.765366864730178
 10
8.08611932853558
 20
0.580569354508923
 10
8.03842943919354
 20
0.390180644032255
 10
8.00963054665561
 20
0.196034280659119
 10
8
 20
-2.02128619922972e-015
 10
8.00963054665561
 20
-0.196034280659123
 10
8.03842943919354
 20
-0.390180644032259
 10
8.08611932853558
 20
-0.580569354508927
 10
8.15224093497743
 20
-0.765366864730182
 10
8.23615747130329
 20
-0.942793473651998
 10
8.33706077539491
 20
-1.11114046603921
 10
8.45397909327453
 20
-1.26878656832729
 10
8.58578643762691
 20
-1.4142135623731
 10
8.73121343167271
 20
-1.54602090672548
 10
8.8888595339608
 20
-1.66293922460509
 10
9.05720652634801
 20
-1.76384252869671
 10
9.23463313526982
 20
-1.84775906502258
 10
9.41943064549108
 20
-1.91388067146442
 10
9.60981935596775
 20
-1.96157056080646
 10
9.80396571934088
 20
-1.99036945334439
 10
10
 20
-2
 10
10.1960342806591
 20
-1.99036945334439
 10
10.3901806440323
 20
-1.96157056080646
 10
10.5805693545089
 20
-1.91388067146442
 10
10.7653668647302
 20
-1.84775906502257
 10
10.942793473652
 20
-1.76384252869671
 10
11.1111404660392
 20
-1.66293922460509
 10
11.2687865683273
 20
-1.54602090672547
 10
11.4142135623731
 20
-1.41421356237309
 10
11.5460209067255
 20
-1.26878656832729
 10
11.6629392246051
 20
-1.1111404660392
 10
11.7638425286967
 20
-0.942793473651994
 10
11.8477590650226
 20
-0.765366864730179
 10
11.9138806714644
 20
-0.580569354508924
 10
11.9615705608065
 20
-0.390180644032256
 10
11.9903694533444
 20
-0.196034280659121
 10
12
 20
0
 97
0
 92
2
 72
0
 73
1
 93
66
 10
12.5
 20
2
 10
12.5
 20
2
 10
12.4975923633361
 20
2.04900857016478
 10
12.4903926402016
 20
2.09754516100807
 10
12.4784701678661
 20
2.14514233862723
 10
12.4619397662556
 20
2.19134171618255
 10
12.4409606321742
 20
2.235698368413
 10
12.4157348061513
 20
2.2777851165098
 10
12.3865052266814
 20
2.31719664208183
 10
12.3535533905933
 20
2.35355339059328
 10
12.3171966420818
 20
2.38650522668137
 10
12.2777851165098
 20
2.41573480615127
 10
12.235698368413
 20
2.44096063217418
 10
12.1913417161825
 20
2.46193976625564
 10
12.1451423386272
 20
2.4784701678661
 10
12.0975451610081
 20
2.49039264020162
 10
12.0490085701648
 20
2.4975923633361
 10
12
 20
2.5
 10
11.9509914298352
 20
2.4975923633361
 10
11.9024548389919
 20
2.49039264020162
 10
11.8548576613728
 20
2.4784701678661
 10
11.8086582838175
 20
2.46193976625564
 10
11.764301631587
 20
2.44096063217418
 10
11.7222148834902
 20
2.41573480615127
 10
11.6828033579182
 20
2.38650522668137
 10
11.6464466094067
 20
2.35355339059327
 10
11.6134947733186
 20
2.31719664208182
 10
11.5842651938487
 20
2.2777851165098
 10
11.5590393678258
 20
2.235698368413
 10
11.5380602337444
 20
2.19134171618254
 10
11.5215298321339
 20
2.14514233862723
 10
11.5096073597984
 20
2.09754516100806
 10
11.5024076366639
 20
2.04900857016478
 10
11.5
 20
2
 10
11.5024076366639
 20
1.95099142983522
 10
11.5096073597984
 20
1.90245483899194
 10
11.5215298321339
 20
1.85485766137277
 10
11.5380602337444
 20
1.80865828381745
 10
11.5590393678258
 20
1.764301631587
 10
11.5842651938487
 20
1.7222148834902
 10
11.6134947733186
 20
1.68280335791818
 10
11.6464466094067
 20
1.64644660940673
 10
11.6828033579182
 20
1.61349477331863
 10
11.7222148834902
 20
1.58426519384873
 10
11.764301631587
 20
1.55903936782582
 10
11.8086582838175
 20
1.53806023374436
 10
11.8548576613728
 20
1.5215298321339
 10
11.9024548389919
 20
1.50960735979838
 10
11.9509914298352
 20
1.5024076366639
 10
12
 20
1.5
 10
12.0490085701648
 20
1.5024076366639
 10
12.0975451610081
 20
1.50960735979838
 10
12.1451423386272
 20
1.5215298321339
 10
12.1913417161825
 20
1.53806023374436
 10
12.235698368413
 20
1.55903936782582
 10
12.2777851165098
 20
1.58426519384873
 10
12.3171966420818
 20
1.61349477331863
 10
12.3535533905933
 20
1.64644660940673
 10
12.3865052266814
 20
1.68280335791818
 10
12.4157348061513
 20
1.7222148834902
 10
12.4409606321742
 20
1.764301631587
 10
12.4619397662556
 20
1.80865828381746
 10
12.4784701678661
 20
1.85485766137277
 10
12.4903926402016
 20
1.90245483899194
 10
12.4975923633361
 20
1.95099142983522
 10
12.5
 20
2
 97
0
 92
2
 72
0
 73
1
 93
66
 10
8.5
 20
2
 10
8.5
 20
2
 10
8.4975923633361
 20
2.04900857016478
 10
8.49039264020161
 20
2.09754516100807
 10
8.4784701678661
 20
2.14514233862723
 10
8.46193976625564
 20
2.19134171618255
 10
8.44096063217418
 20
2.235698368413
 10
8.41573480615127
 20
2.2777851165098
 10
8.38650522668137
 20
2.31719664208183
 10
8.35355339059327
 20
2.35355339059328
 10
8.31719664208182
 20
2.38650522668137
 10
8.2777851165098
 20
2.41573480615127
 10
8.235698368413
 20
2.44096063217418
 10
8.19134171618254
 20
2.46193976625564
 10
8.14514233862723
 20
2.4784701678661
 10
8.09754516100806
 20
2.49039264020162
 10
8.04900857016478
 20
2.4975923633361
 10
8
 20
2.5
 10
7.95099142983522
 20
2.4975923633361
 10
7.90245483899193
 20
2.49039264020162
 10
7.85485766137277
 20
2.4784701678661
 10
7.80865828381745
 20
2.46193976625564
 10
7.764301631587
 20
2.44096063217418
 10
7.7222148834902
 20
2.41573480615127
 10
7.68280335791818
 20
2.38650522668137
 10
7.64644660940673
 20
2.35355339059327
 10
7.61349477331863
 20
2.31719664208182
 10
7.58426519384873
 20
2.2777851165098
 10
7.55903936782582
 20
2.235698368413
 10
7.53806023374436
 20
2.19134171618254
 10
7.5215298321339
 20
2.14514233862723
 10
7.50960735979838
 20
2.09754516100806
 10
7.5024076366639
 20
2.04900857016478
 10
7.5
 20
2
 10
7.5024076366639
 20
1.95099142983522
 10
7.50960735979838
 20
1.90245483899194
 10
7.5215298321339
 20
1.85485766137277
 10
7.53806023374436
 20
1.80865828381745
 10
7.55903936782582
 20
1.764301631587
 10
7.58426519384873
 20
1.7222148834902
 10
7.61349477331863
 20
1.68280335791818
 10
7.64644660940673
 20
1.64644660940673
 10
7.68280335791818
 20
1.61349477331863
 10
7.7222148834902
 20
1.58426519384873
 10
7.764301631587
 20
1.55903936782582
 10
7.80865828381746
 20
1.53806023374436
 10
7.85485766137277
 20
1.5215298321339
 10
7.90245483899194
 20
1.50960735979838
 10
7.95099142983522
 20
1.5024076366639
 10
8
 20
1.5
 10
8.04900857016478
 20
1.5024076366639
 10
8.09754516100806
 20
1.50960735979838
 10
8.14514233862723
 20
1.5215298321339
 10
8.19134171618255
 20
1.53806023374436
 10
8.235698368413
 20
1.55903936782582
 10
8.2777851165098
 20
1.58426519384873
 10
8.31719664208182
 20
1.61349477331863
 10
8.35355339059327
 20
1.64644660940673
 10
8.38650522668137
 20
1.68280335791818
 10
8.41573480615127
 20
1.7222148834902
 10
8.44096063217418
 20
1.764301631587
 10
8.46193976625564
 20
1.80865828381746
 10
8.4784701678661
 20
1.85485766137277
 10
8.49039264020162
 20
1.90245483899194
 10
8.4975923633361
 20
1.95099142983522
 10
8.5
 20
2
 97
0
 92
2
 72
0
 73
1
 93
66
 10
9.47107742605523
 20
6.23379816909727
 10
9.47107742605522
 20
6.23379816909728
 10
9.39878487098074
 20
6.40567038880582
 10
9.30999400084059
 20
6.5696290872835
 10
9.20555992025224
 20
6.72409525263502
 10
9.08648838650123
 20
6.86758129124826
 10
8.9539261235487
 20
6.99870535413392
 10
8.8091497784528
 20
7.11620464488672
 10
8.65355362655959
 20
7.21894758110505
 10
8.48863614386932
 20
7.30594469214813
 10
8.31598557589336
 20
7.37635814827917
 10
8.13726464198172
 20
7.42950982942369
 10
7.95419452242677
 20
7.46488785583663
 10
7.76853828255613
 20
7.48215151778403
 10
7.58208389344978
 20
7.48113455676404
 10
7.39662701280115
 20
7.46184676666724
 10
7.21395369175193
 20
7.42447389945602
 10
7.03582317424323
 20
7.36937587627172
 10
6.86395095453468
 20
7.29708332119724
 10
6.69999225605701
 20
7.20829245105709
 10
6.54552609070548
 20
7.10385837046874
 10
6.40204005209224
 20
6.98478683671773
 10
6.27091598920658
 20
6.8522245737652
 10
6.15341669845378
 20
6.7074482286693
 10
6.05067376223545
 20
6.55185207677609
 10
5.96367665119237
 20
6.38693459408582
 10
5.89326319506133
 20
6.21428402610986
 10
5.8401115139168
 20
6.03556309219822
 10
5.80473348750387
 20
5.85249297264327
 10
5.78746982555647
 20
5.66683673277263
 10
5.78848678657645
 20
5.48038234366628
 10
5.80777457667326
 20
5.29492546301765
 10
5.84514744388447
 20
5.11225214196843
 10
5.90024546706878
 20
4.93412162445972
 10
5.97253802214325
 20
4.76224940475118
 10
6.0613288922834
 20
4.5982907062735
 10
6.16576297287176
 20
4.44382454092198
 10
6.28483450662277
 20
4.30033850230874
 10
6.41739676957529
 20
4.16921443942307
 10
6.5621731146712
 20
4.05171514867028
 10
6.7177692665644
 20
3.94897221245194
 10
6.88268674925468
 20
3.86197510140886
 10
7.05533731723064
 20
3.79156164527783
 10
7.23405825114228
 20
3.7384099641333
 10
7.41712837069723
 20
3.70303193772036
 10
7.60278461056787
 20
3.68576827577297
 10
7.78923899967422
 20
3.68678523679295
 10
7.97469588032285
 20
3.70607302688975
 10
8.15736920137206
 20
3.74344589410097
 10
8.33549971888077
 20
3.79854391728527
 10
8.50737193858932
 20
3.87083647235975
 10
8.67133063706699
 20
3.9596273424999
 10
8.82579680241852
 20
4.06406142308825
 10
8.96928284103176
 20
4.18313295683926
 10
9.10040690391742
 20
4.31569521979179
 10
9.21790619467022
 20
4.46047156488769
 10
9.32064913088855
 20
4.6160677167809
 10
9.40764624193164
 20
4.78098519947117
 10
9.47805969806267
 20
4.95363576744713
 10
9.5312113792072
 20
5.13235670135877
 10
9.56658940562014
 20
5.31542682091372
 10
9.58385306756753
 20
5.50108306078436
 10
9.58283610654755
 20
5.68753744989071
 10
9.56354831645075
 20
5.87299433053934
 10
9.52617544923953
 20
6.05566765158856
 10
9.47107742605523
 20
6.23379816909727
 97
0
 92
2
 72
0
 73
1
 93
66
 10
9.26759314860976
 20
8.18167371667018
 10
9.26759314860976
 20
8.18167371667019
 10
9.24952000984114
 20
8.22464177159732
 10
9.2273222923061
 20
8.26563144621674
 10
9.20121377215902
 20
8.30424798755462
 10
9.17144588872126
 20
8.34011949720793
 10
9.13830532298313
 20
8.37290051292935
 10
9.10211123670916
 20
8.40227533561755
 10
9.06321219873585
 20
8.42796106967213
 10
9.02198282806329
 20
8.4497103474329
 10
8.9788201860693
 20
8.46731371146566
 10
8.93413995259139
 20
8.48060163175179
 10
8.88837242270265
 20
8.48944613835502
 10
8.84195836273499
 20
8.49376205384187
 10
8.7953447654584
 20
8.49350781358688
 10
8.74898054529625
 20
8.48868586606268
 10
8.70331221503394
 20
8.47934264925987
 10
8.65877958565676
 20
8.4655681434638
 10
8.61581153072963
 20
8.44749500469518
 10
8.57482185611021
 20
8.42529728716014
 10
8.53620531477233
 20
8.39918876701305
 10
8.50033380511902
 20
8.3694208835753
 10
8.4675527893976
 20
8.33628031783717
 10
8.4381779667094
 20
8.30008623156319
 10
8.41249223265482
 20
8.26118719358989
 10
8.39074295489405
 20
8.21995782291732
 10
8.37313959086129
 20
8.17679518092333
 10
8.35985167057516
 20
8.13211494744542
 10
8.35100716397192
 20
8.08634741755669
 10
8.34669124848507
 20
8.03993335758903
 10
8.34694548874007
 20
7.99331976031244
 10
8.35176743626427
 20
7.94695554015028
 10
8.36111065306707
 20
7.90128720988798
 10
8.37488515886315
 20
7.8567545805108
 10
8.39295829763177
 20
7.81378652558366
 10
8.41515601516681
 20
7.77279685096424
 10
8.44126453531389
 20
7.73418030962636
 10
8.47103241875165
 20
7.69830879997305
 10
8.50417298448978
 20
7.66552778425164
 10
8.54036707076376
 20
7.63615296156344
 10
8.57926610873706
 20
7.61046722750885
 10
8.62049547940962
 20
7.58871794974808
 10
8.66365812140362
 20
7.57111458571532
 10
8.70833835488153
 20
7.55782666542919
 10
8.75410588477026
 20
7.54898215882596
 10
8.80051994473792
 20
7.54466624333911
 10
8.84713354201451
 20
7.5449204835941
 10
8.89349776217667
 20
7.54974243111831
 10
8.93916609243897
 20
7.55908564792111
 10
8.98369872181615
 20
7.57286015371719
 10
9.02666677674329
 20
7.5909332924858
 10
9.0676564513627
 20
7.61313101002084
 10
9.10627299270059
 20
7.63923953016793
 10
9.1421445023539
 20
7.66900741360568
 10
9.17492551807531
 20
7.70214797934382
 10
9.20430034076351
 20
7.73834206561779
 10
9.2299860748181
 20
7.77724110359109
 10
9.25173535257887
 20
7.81847047426366
 10
9.26933871661162
 20
7.86163311625765
 10
9.28262663689776
 20
7.90631334973556
 10
9.29147114350099
 20
7.9520808796243
 10
9.29578705898784
 20
7.99849493959196
 10
9.29553281873284
 20
8.04510853686855
 10
9.29071087120864
 20
8.0914727570307
 10
9.28136765440584
 20
8.13714108729301
 10
9.26759314860976
 20
8.18167371667018
 97
0
 92
2
 72
0
 73
1
 93
66
 10
5.69676118962331
 20
6.88199717203264
 10
5.69676118962331
 20
6.88199717203265
 10
5.67868805085469
 20
6.92496522695978
 10
5.65649033331965
 20
6.9659549015792
 10
5.63038181317256
 20
7.00457144291708
 10
5.60061392973481
 20
7.04044295257039
 10
5.56747336399668
 20
7.07322396829181
 10
5.5312792777227
 20
7.10259879098001
 10
5.4923802397494
 20
7.12828452503459
 10
5.45115086907683
 20
7.15003380279536
 10
5.40798822708284
 20
7.16763716682812
 10
5.36330799360494
 20
7.18092508711425
 10
5.3175404637162
 20
7.18976959371748
 10
5.27112640374854
 20
7.19408550920433
 10
5.22451280647195
 20
7.19383126894934
 10
5.17814858630979
 20
7.18900932142514
 10
5.13248025604749
 20
7.17966610462233
 10
5.08794762667031
 20
7.16589159882626
 10
5.04497957174318
 20
7.14781846005764
 10
5.00398989712376
 20
7.1256207425226
 10
4.96537335578588
 20
7.09951222237551
 10
4.92950184613257
 20
7.06974433893776
 10
4.89672083041115
 20
7.03660377319963
 10
4.86734600772295
 20
7.00040968692565
 10
4.84166027366837
 20
6.96151064895235
 10
4.8199109959076
 20
6.92028127827978
 10
4.80230763187484
 20
6.87711863628579
 10
4.78901971158871
 20
6.83243840280788
 10
4.78017520498547
 20
6.78667087291914
 10
4.77585928949862
 20
6.74025681295148
 10
4.77611352975362
 20
6.6936432156749
 10
4.78093547727782
 20
6.64727899551274
 10
4.79027869408062
 20
6.60161066525044
 10
4.8040531998767
 20
6.55707803587326
 10
4.82212633864532
 20
6.51410998094612
 10
4.84432405618036
 20
6.4731203063267
 10
4.87043257632744
 20
6.43450376498882
 10
4.9002004597652
 20
6.39863225533551
 10
4.93334102550333
 20
6.36585123961409
 10
4.9695351117773
 20
6.3364764169259
 10
5.00843414975061
 20
6.31079068287131
 10
5.04966352042317
 20
6.28904140511054
 10
5.09282616241716
 20
6.27143804107778
 10
5.13750639589507
 20
6.25815012079165
 10
5.18327392578381
 20
6.24930561418842
 10
5.22968798575147
 20
6.24498969870157
 10
5.27630158302806
 20
6.24524393895656
 10
5.32266580319022
 20
6.25006588648076
 10
5.36833413345252
 20
6.25940910328357
 10
5.4128667628297
 20
6.27318360907964
 10
5.45583481775683
 20
6.29125674784826
 10
5.49682449237625
 20
6.3134544653833
 10
5.53544103371413
 20
6.33956298553039
 10
5.57131254336744
 20
6.36933086896814
 10
5.60409355908886
 20
6.40247143470627
 10
5.63346838177706
 20
6.43866552098025
 10
5.65915411583164
 20
6.47756455895355
 10
5.68090339359241
 20
6.51879392962612
 10
5.69850675762517
 20
6.56195657162011
 10
5.7117946779113
 20
6.60663680509802
 10
5.72063918451454
 20
6.65240433498676
 10
5.72495510000139
 20
6.69881839495442
 10
5.72470085974639
 20
6.745431992231
 10
5.71987891222219
 20
6.79179621239316
 10
5.71053569541939
 20
6.83746454265547
 10
5.69676118962331
 20
6.88199717203264
 97
0
 92
2
 72
0
 73
1
 93
66
 10
4.16003294698869
 20
9.71652634409215
 10
4.16003294698868
 20
9.71652634409216
 10
4.03998569690058
 20
9.84610886185767
 10
3.90781519930582
 20
9.96330071622358
 10
3.76479432834799
 20
10.0669732855687
 10
3.61230045319758
 20
10.1561281463772
 10
3.4518021732339
 20
10.2299066886023
 10
3.2848451746303
 20
10.2875983845511
 10
3.11303734455131
 20
10.3286476316539
 10
2.9380332863203
 20
10.3526591032215
 10
2.76151838468499
 20
10.3594015556567
 10
2.58519257464098
 20
10.3488100554566
 10
2.4107539701285
 20
10.3209866045581
 10
2.23988251026683
 20
10.2761991580032
 10
2.07422378062229
 20
10.2148790433855
 10
1.91537316531962
 20
10.1376168069299
 10
1.76486048262078
 20
10.0451565262091
 10
1.62413525193875
 20
9.93838864427054
 10
1.49455273417324
 20
9.81834139418244
 10
1.37736087980734
 20
9.68617089658768
 10
1.27368831046217
 20
9.54315002562986
 10
1.18453344965373
 20
9.39065615047944
 10
1.11075490742859
 20
9.23015787051576
 10
1.05306321147986
 20
9.06320087191217
 10
1.01201396437698
 20
8.89139304183317
 10
0.988002492809385
 20
8.71638898360217
 10
0.981260040374258
 20
8.53987408196685
 10
0.991851540574352
 20
8.36354827192284
 10
1.01967499147284
 20
8.18910966741036
 10
1.06446243802772
 20
8.01823820754869
 10
1.12578255264536
 20
7.85257947790415
 10
1.20304478910101
 20
7.69372886260148
 10
1.29550506982177
 20
7.54321617990264
 10
1.40227295176037
 20
7.40249094922061
 10
1.52232020184847
 20
7.2729084314551
 10
1.65449069944322
 20
7.15571657708919
 10
1.79751157040105
 20
7.05204400774403
 10
1.95000544555147
 20
6.96288914693558
 10
2.11050372551514
 20
6.88911060471045
 10
2.27746072411874
 20
6.83141890876171
 10
2.44926855419774
 20
6.79036966165884
 10
2.62427261242875
 20
6.76635819009124
 10
2.80078751406406
 20
6.75961573765611
 10
2.97711332410807
 20
6.77020723785621
 10
3.15155192862055
 20
6.79803068875469
 10
3.32242338848222
 20
6.84281813530957
 10
3.48808211812676
 20
6.90413824992722
 10
3.64693273342943
 20
6.98140048638287
 10
3.79744541612827
 20
7.07386076710363
 10
3.9381706468103
 20
7.18062864904222
 10
4.06775316457581
 20
7.30067589913032
 10
4.18494501894172
 20
7.43284639672508
 10
4.28861758828688
 20
7.5758672676829
 10
4.37777244909533
 20
7.72836114283332
 10
4.45155099132046
 20
7.888859422797
 10
4.5092426872692
 20
8.0558164214006
 10
4.55029193437207
 20
8.22762425147959
 10
4.57430340593967
 20
8.4026283097106
 10
4.5810458583748
 20
8.57914321134591
 10
4.5704543581747
 20
8.75546902138992
 10
4.54263090727622
 20
8.92990762590241
 10
4.49784346072134
 20
9.10077908576407
 10
4.43652334610369
 20
9.26643781540862
 10
4.35926110964804
 20
9.42528843071128
 10
4.26680082892728
 20
9.57580111341012
 10
4.16003294698869
 20
9.71652634409215
 97
0
 92
2
 72
0
 73
1
 93
66
 10
3.34773524895646
 20
11.3846607660653
 10
3.34773524895645
 20
11.3846607660653
 10
3.31772343643443
 20
11.4170563955066
 10
3.28468081203574
 20
11.4463543590981
 10
3.24892559429628
 20
11.4722725014344
 10
3.21080212550868
 20
11.4945612166365
 10
3.17067755551776
 20
11.5130058521928
 10
3.12893830586686
 20
11.52742877618
 10
3.08598634834711
 20
11.5376910879557
 10
3.04223533378936
 20
11.5436939558476
 10
2.99810660838053
 20
11.5453795689564
 10
2.95402515586953
 20
11.5427316939064
 10
2.91041550474141
 20
11.5357758311817
 10
2.86769763977599
 20
11.524578969543
 10
2.82628295736486
 20
11.5092489408886
 10
2.78657030353919
 20
11.4899333817747
 10
2.74894213286448
 20
11.4668183115945
 10
2.71376082519397
 20
11.4401263411099
 10
2.6813651957526
 20
11.4101145285878
 10
2.65206723216112
 20
11.3770719041891
 10
2.62614908982483
 20
11.3413166864497
 10
2.60386037462272
 20
11.3031932176621
 10
2.58541573906643
 20
11.2630686476712
 10
2.57099281507925
 20
11.2213293980203
 10
2.56073050330353
 20
11.1783774405005
 10
2.55472763541163
 20
11.1346264259428
 10
2.55304202230285
 20
11.0904977005339
 10
2.55568989735287
 20
11.0464162480229
 10
2.56264576007749
 20
11.0028065968948
 10
2.57384262171621
 20
10.9600887319294
 10
2.58917265037063
 20
10.9186740495183
 10
2.60848820948454
 20
10.8789613956926
 10
2.63160327966473
 20
10.8413332250179
 10
2.65829525014938
 20
10.8061519173474
 10
2.6883070626714
 20
10.773756287906
 10
2.72134968707009
 20
10.7444583243145
 10
2.75710490480955
 20
10.7185401819782
 10
2.79522837359715
 20
10.6962514667761
 10
2.83535294358807
 20
10.6778068312198
 10
2.87709219323897
 20
10.6633839072326
 10
2.92004415075872
 20
10.6531215954569
 10
2.96379516531647
 20
10.647118727565
 10
3.0079238907253
 20
10.6454331144562
 10
3.0520053432363
 20
10.6480809895063
 10
3.09561499436442
 20
10.6550368522309
 10
3.13833285932984
 20
10.6662337138696
 10
3.17974754174098
 20
10.681563742524
 10
3.21946019556664
 20
10.7008793016379
 10
3.25708836624135
 20
10.7239943718181
 10
3.29226967391186
 20
10.7506863423028
 10
3.32466530335324
 20
10.7806981548248
 10
3.35396326694471
 20
10.8137407792235
 10
3.37988140928101
 20
10.8494959969629
 10
3.40217012448312
 20
10.8876194657505
 10
3.4206147600394
 20
10.9277440357415
 10
3.43503768402659
 20
10.9694832853924
 10
3.4452999958023
 20
11.0124352429121
 10
3.4513028636942
 20
11.0561862574699
 10
3.45298847680298
 20
11.1003149828787
 10
3.45034060175296
 20
11.1443964353897
 10
3.44338473902834
 20
11.1880060865178
 10
3.43218787738962
 20
11.2307239514832
 10
3.41685784873521
 20
11.2721386338944
 10
3.3975422896213
 20
11.31185128772
 10
3.37442721944111
 20
11.3494794583947
 10
3.34773524895646
 20
11.3846607660653
 97
0
 92
2
 72
0
 73
1
 93
66
 10
0.589975253728136
 20
9.07062537119371
 10
0.589975253728134
 20
9.07062537119372
 10
0.559963441206108
 20
9.10302100063509
 10
0.52692081680742
 20
9.13231896422657
 10
0.491165599067963
 20
9.15823710656286
 10
0.453042130280358
 20
9.18052582176497
 10
0.412917560289439
 20
9.19897045732125
 10
0.37117831063854
 20
9.21339338130844
 10
0.328226353118792
 20
9.22365569308416
 10
0.28447533856104
 20
9.22965856097606
 10
0.240346613152211
 20
9.23134417408484
 10
0.19626516064121
 20
9.22869629903481
 10
0.152655509513088
 20
9.22174043631019
 10
0.109937644547671
 20
9.21054357467147
 10
0.068522962136536
 20
9.19521354601706
 10
0.0288103083108702
 20
9.17589798690315
 10
-0.00881786236384041
 20
9.15278291672296
 10
-0.0439991700343474
 20
9.12609094623831
 10
-0.0763947994757257
 20
9.09607913371629
 10
-0.105692763067202
 20
9.0630365093176
 10
-0.131610905403493
 20
9.02728129157814
 10
-0.153899620605604
 20
8.98915782279053
 10
-0.172344256161888
 20
8.94903325279962
 10
-0.186767180149072
 20
8.90729400314872
 10
-0.197029491924789
 20
8.86434204562897
 10
-0.20303235981669
 20
8.82059103107122
 10
-0.204717972925471
 20
8.77646230566239
 10
-0.202070097875448
 20
8.73238085315139
 10
-0.195114235150826
 20
8.68877120202326
 10
-0.183917373512106
 20
8.64605333705785
 10
-0.168587344857695
 20
8.60463865464671
 10
-0.149271785743782
 20
8.56492600082105
 10
-0.126156715563593
 20
8.52729783014633
 10
-0.0994647450789441
 20
8.49211652247583
 10
-0.0694529325569193
 20
8.45972089303445
 10
-0.0364103081582305
 20
8.43042292944297
 10
-0.00065509041877343
 20
8.40450478710668
 10
0.0374683783688314
 20
8.38221607190457
 10
0.0775929483597504
 20
8.36377143634829
 10
0.11933219801065
 20
8.3493485123611
 10
0.162284155530398
 20
8.33908620058538
 10
0.206035170088151
 20
8.33308333269349
 10
0.250163895496978
 20
8.3313977195847
 10
0.294245348007981
 20
8.33404559463473
 10
0.337854999136102
 20
8.34100145735935
 10
0.38057286410152
 20
8.35219831899807
 10
0.421987546512655
 20
8.36752834765248
 10
0.461700200338321
 20
8.38684390676639
 10
0.499328371013032
 20
8.40995897694658
 10
0.534509678683539
 20
8.43665094743123
 10
0.566905308124917
 20
8.46666275995326
 10
0.596203271716393
 20
8.49970538435194
 10
0.622121414052685
 20
8.5354606020914
 10
0.644410129254796
 20
8.57358407087901
 10
0.662854764811079
 20
8.61370864086993
 10
0.677277688798264
 20
8.65544789052082
 10
0.687540000573982
 20
8.69839984804057
 10
0.693542868465881
 20
8.74215086259833
 10
0.695228481574663
 20
8.78627958800715
 10
0.69258060652464
 20
8.83036104051816
 10
0.685624743800018
 20
8.87397069164628
 10
0.674427882161298
 20
8.91668855661169
 10
0.659097853506887
 20
8.95810323902283
 10
0.639782294392974
 20
8.99781589284849
 10
0.616667224212784
 20
9.03544406352321
 10
0.589975253728136
 20
9.07062537119371
 97
0
 92
2
 72
0
 73
1
 93
66
 10
-1.77664445218705
 20
9.55622357494235
 10
-1.77664445218706
 20
9.55622357494236
 10
-1.92504250151959
 20
9.63244889087481
 10
-2.08019736117169
 20
9.69376160865049
 10
-2.24061480502863
 20
9.73957125328028
 10
-2.40474992541298
 20
9.76943665284428
 10
-2.57102201139004
 20
9.78307018721863
 10
-2.73782977187831
 20
9.78034055801443
 10
-2.90356675695786
 20
9.7612740530531
 10
-3.06663682886135
 20
9.72605429320022
 10
-3.22546953365316
 20
9.67502046399626
 10
-3.37853522555936
 20
9.60866404911437
 10
-3.52435979829268
 20
9.52762409710399
 10
-3.66153888150188
 20
9.4326810670039
 10
-3.78875136562594
 20
9.32474931209512
 10
-3.90477212490132
 20
9.20486827417892
 10
-4.0084838159928
 20
9.07419247318407
 10
-4.0988876386206
 20
8.9339803885088
 10
-4.17511295455305
 20
8.78558233917627
 10
-4.23642567232873
 20
8.63042747952418
 10
-4.28223531695852
 20
8.47001003566724
 10
-4.31210071652253
 20
8.30587491528289
 10
-4.32573425089687
 20
8.13960282930582
 10
-4.32300462169268
 20
7.97279506881756
 10
-4.30393811673135
 20
7.807058083738
 10
-4.26871835687847
 20
7.64398801183452
 10
-4.21768452767451
 20
7.48515530704271
 10
-4.15132811279262
 20
7.3320896151365
 10
-4.07028816078224
 20
7.18626504240318
 10
-3.97534513068215
 20
7.04908595919398
 10
-3.86741337577337
 20
6.92187347506992
 10
-3.74753233785717
 20
6.80585271579454
 10
-3.61685653686231
 20
6.70214102470306
 10
-3.47664445218705
 20
6.61173720207526
 10
-3.32824640285452
 20
6.53551188614281
 10
-3.17309154320243
 20
6.47419916836713
 10
-3.01267409934548
 20
6.42838952373734
 10
-2.84853897896114
 20
6.39852412417333
 10
-2.68226689298407
 20
6.38489058979898
 10
-2.51545913249581
 20
6.38762021900318
 10
-2.34972214741625
 20
6.40668672396451
 10
-2.18665207551276
 20
6.44190648381739
 10
-2.02781937072095
 20
6.49294031302135
 10
-1.87475367881475
 20
6.55929672790324
 10
-1.72892910608142
 20
6.64033667991362
 10
-1.59175002287222
 20
6.73527971001371
 10
-1.46453753874817
 20
6.84321146492249
 10
-1.34851677947279
 20
6.96309250283869
 10
-1.24480508838131
 20
7.09376830383354
 10
-1.15440126575351
 20
7.23398038850881
 10
-1.07817594982105
 20
7.38237843784134
 10
-1.01686323204537
 20
7.53753329749343
 10
-0.971053587415585
 20
7.69795074135037
 10
-0.941188187851574
 20
7.86208586173472
 10
-0.927554653477231
 20
8.02835794771179
 10
-0.930284282681427
 20
8.19516570820005
 10
-0.949350787642758
 20
8.36090269327961
 10
-0.984570547495637
 20
8.52397276518309
 10
-1.0356043766996
 20
8.6828054699749
 10
-1.10196079158148
 20
8.83587116188111
 10
-1.18300074359187
 20
8.98169573461443
 10
-1.27794377369195
 20
9.11887481782363
 10
-1.38587552860073
 20
9.24608730194769
 10
-1.50575656651694
 20
9.36210806122307
 10
-1.63643236751179
 20
9.46581975231455
 10
-1.77664445218705
 20
9.55622357494235
 97
0
 92
2
 72
0
 73
1
 93
66
 10
-3.0363876386206
 20
10.7742843715507
 10
-3.0363876386206
 20
10.7742843715507
 10
-3.07348715095373
 20
10.7933407005339
 10
-3.11227586586676
 20
10.8086688799778
 10
-3.15238022683099
 20
10.8201212911352
 10
-3.19341400692708
 20
10.8275876410262
 10
-3.23498202842135
 20
10.8309960246198
 10
-3.27668396854341
 20
10.8303136173188
 10
-3.3181182148133
 20
10.8255469910784
 10
-3.35888573278917
 20
10.8167420511152
 10
-3.39859390898712
 20
10.8039835938142
 10
-3.43686033196368
 20
10.7873944900937
 10
-3.47331647514701
 20
10.7671345020911
 10
-3.50761124594931
 20
10.7433987445661
 10
-3.53941436698032
 20
10.7164158058389
 10
-3.56841955679916
 20
10.6864455463599
 10
-3.59434747957204
 20
10.6537765961112
 10
-3.61694843522898
 20
10.6187235749424
 10
-3.6360047642121
 20
10.5816240626092
 10
-3.65133294365602
 20
10.5428353476962
 10
-3.66278535481347
 20
10.502730986732
 10
-3.67025170470447
 20
10.4616972066359
 10
-3.67366008829805
 20
10.4201291851416
 10
-3.672977680997
 20
10.3784272450195
 10
-3.66821105475667
 20
10.3369929987497
 10
-3.65940611479345
 20
10.2962254807738
 10
-3.64664765749246
 20
10.2565173045758
 10
-3.63005855377199
 20
10.2182508815993
 10
-3.60979856576939
 20
10.1817947384159
 10
-3.58606280824437
 20
10.1474999676136
 10
-3.55907986951718
 20
10.1156968465826
 10
-3.52910961003813
 20
10.0866916567638
 10
-3.49644065978941
 20
10.0607637339909
 10
-3.4613876386206
 20
10.038162778334
 10
-3.42428812628747
 20
10.0191064493509
 10
-3.38549941137444
 20
10.0037782699069
 10
-3.34539505041021
 20
9.99232585874949
 10
-3.30436127031412
 20
9.98485950885848
 10
-3.26279324881985
 20
9.9814511252649
 10
-3.22109130869779
 20
9.98213353256595
 10
-3.1796570624279
 20
9.98690015880628
 10
-3.13888954445203
 20
9.9957050987695
 10
-3.09918136825407
 20
10.0084635560705
 10
-3.06091494527752
 20
10.025052659791
 10
-3.02445880209419
 20
10.0453126477936
 10
-2.99016403129189
 20
10.0690484053186
 10
-2.95836091026088
 20
10.0960313440458
 10
-2.92935572044203
 20
10.1260016035248
 10
-2.90342779766916
 20
10.1586705537735
 10
-2.88082684201221
 20
10.1937235749424
 10
-2.8617705130291
 20
10.2308230872755
 10
-2.84644233358518
 20
10.2696118021885
 10
-2.83498992242773
 20
10.3097161631527
 10
-2.82752357253673
 20
10.3507499432488
 10
-2.82411518894314
 20
10.3923179647431
 10
-2.82479759624419
 20
10.4340199048652
 10
-2.82956422248452
 20
10.4754541511351
 10
-2.83836916244774
 20
10.5162216691109
 10
-2.85112761974873
 20
10.5559298453089
 10
-2.86771672346921
 20
10.5941962682854
 10
-2.8879767114718
 20
10.6306524114688
 10
-2.91171246899682
 20
10.6649471822711
 10
-2.93869540772402
 20
10.6967503033021
 10
-2.96866566720307
 20
10.7257554931209
 10
-3.00133461745178
 20
10.7516834158938
 10
-3.0363876386206
 20
10.7742843715507
 97
0
 92
2
 72
0
 73
1
 93
66
 10
-4.7363876386206
 20
7.82979799868365
 10
-4.7363876386206
 20
7.82979799868365
 10
-4.77348715095373
 20
7.84885432766676
 10
-4.81227586586676
 20
7.86418250711068
 10
-4.85238022683099
 20
7.87563491826813
 10
-4.89341400692708
 20
7.88310126815913
 10
-4.93498202842135
 20
7.88650965175272
 10
-4.97668396854341
 20
7.88582724445167
 10
-5.0181182148133
 20
7.88106061821133
 10
-5.05888573278917
 20
7.87225567824811
 10
-5.09859390898712
 20
7.85949722094712
 10
-5.13686033196367
 20
7.84290811722665
 10
-5.17331647514701
 20
7.82264812922406
 10
-5.20761124594931
 20
7.79891237169903
 10
-5.23941436698032
 20
7.77192943297184
 10
-5.26841955679916
 20
7.74195917349279
 10
-5.29434747957204
 20
7.70929022324408
 10
-5.31694843522899
 20
7.67423720207526
 10
-5.3360047642121
 20
7.63713768974213
 10
-5.35133294365602
 20
7.5983489748291
 10
-5.36278535481346
 20
7.55824461386487
 10
-5.37025170470447
 20
7.51721083376878
 10
-5.37366008829805
 20
7.47564281227451
 10
-5.37297768099701
 20
7.43394087215245
 10
-5.36821105475667
 20
7.39250662588256
 10
-5.35940611479345
 20
7.35173910790669
 10
-5.34664765749246
 20
7.31203093170874
 10
-5.33005855377199
 20
7.27376450873219
 10
-5.30979856576939
 20
7.23730836554885
 10
-5.28606280824437
 20
7.20301359474655
 10
-5.25907986951718
 20
7.17121047371554
 10
-5.22910961003813
 20
7.1422052838967
 10
-5.19644065978941
 20
7.11627736112382
 10
-5.1613876386206
 20
7.09367640546687
 10
-5.12428812628747
 20
7.07462007648376
 10
-5.08549941137444
 20
7.05929189703984
 10
-5.04539505041021
 20
7.04783948588239
 10
-5.00436127031412
 20
7.04037313599139
 10
-4.96279324881985
 20
7.03696475239781
 10
-4.92109130869779
 20
7.03764715969885
 10
-4.8796570624279
 20
7.04241378593919
 10
-4.83888954445203
 20
7.05121872590241
 10
-4.79918136825407
 20
7.0639771832034
 10
-4.76091494527752
 20
7.08056628692387
 10
-4.72445880209419
 20
7.10082627492647
 10
-4.69016403129189
 20
7.12456203245149
 10
-4.65836091026088
 20
7.15154497117868
 10
-4.62935572044203
 20
7.18151523065773
 10
-4.60342779766916
 20
7.21418418090644
 10
-4.58082684201221
 20
7.24923720207526
 10
-4.5617705130291
 20
7.28633671440839
 10
-4.54644233358518
 20
7.32512542932142
 10
-4.53498992242773
 20
7.36522979028565
 10
-4.52752357253673
 20
7.40626357038174
 10
-4.52411518894314
 20
7.44783159187601
 10
-4.52479759624419
 20
7.48953353199807
 10
-4.52956422248452
 20
7.53096777826796
 10
-4.53836916244774
 20
7.57173529624383
 10
-4.55112761974874
 20
7.61144347244178
 10
-4.56771672346921
 20
7.64970989541834
 10
-4.5879767114718
 20
7.68616603860167
 10
-4.61171246899682
 20
7.72046080940397
 10
-4.63869540772402
 20
7.75226393043498
 10
-4.66866566720307
 20
7.78126912025383
 10
-4.70133461745178
 20
7.8071970430267
 10
-4.7363876386206
 20
7.82979799868365
 97
0
 92
2
 72
0
 73
1
 93
66
 10
-6.19429887073249
 20
6.27797442315932
 10
-6.1942988707325
 20
6.27797442315932
 10
-6.35008159579327
 20
6.29761983002693
 10
-6.50703977105489
 20
6.30190126166764
 10
-6.66366180348753
 20
6.29077748555427
 10
-6.81843933730055
 20
6.26435562973168
 10
-6.96988178023333
 20
6.22289015111508
 10
-7.11653065877357
 20
6.1667803849309
 10
-7.25697366405448
 20
6.0965666989002
 10
-7.38985825316126
 20
6.01292528920217
 10
-7.5139046748587
 20
5.91666166833524
 10
-7.62791829429519
 20
5.80870290759141
 10
-7.73080109798937
 20
5.69008870885291
 10
-7.8215622683002
 20
5.5619613916947
 10
-7.89932772554248
 20
5.42555489222253
 10
-7.96334854585206
 20
5.2821828795937
 10
-8.013008173732
 20
5.13322610466494
 10
-8.04782835981911
 20
4.98011910260687
 10
-8.06747376668673
 20
4.82433637754611
 10
-8.07175519832743
 20
4.66737820228448
 10
-8.06063142221407
 20
4.51075616985184
 10
-8.03420956639147
 20
4.35597863603882
 10
-7.99274408777488
 20
4.20453619310604
 10
-7.93663432159069
 20
4.05788731456581
 10
-7.86642063556
 20
3.91744430928489
 10
-7.78277922586197
 20
3.78455972017811
 10
-7.68651560499504
 20
3.66051329848067
 10
-7.57855684425121
 20
3.54649967904418
 10
-7.45994264551271
 20
3.44361687535
 10
-7.3318153283545
 20
3.35285570503917
 10
-7.19540882888233
 20
3.27509024779688
 10
-7.0520368162535
 20
3.21106942748731
 10
-6.90308004132474
 20
3.16140979960737
 10
-6.74997303926667
 20
3.12658961352025
 10
-6.5941903142059
 20
3.10694420665264
 10
-6.43723213894428
 20
3.10266277501193
 10
-6.28061010651164
 20
3.1137865511253
 10
-6.12583257269861
 20
3.14020840694789
 10
-5.97439012976583
 20
3.18167388556449
 10
-5.8277412512256
 20
3.23778365174867
 10
-5.68729824594468
 20
3.30799733777937
 10
-5.5544136568379
 20
3.3916387474774
 10
-5.43036723514046
 20
3.48790236834433
 10
-5.31635361570397
 20
3.59586112908816
 10
-5.21347081200979
 20
3.71447532782666
 10
-5.12270964169896
 20
3.84260264498487
 10
-5.04494418445667
 20
3.97900914445704
 10
-4.9809233641471
 20
4.12238115708587
 10
-4.93126373626716
 20
4.27133793201463
 10
-4.89644355018005
 20
4.4244449340727
 10
-4.87679814331243
 20
4.58022765913347
 10
-4.87251671167172
 20
4.73718583439509
 10
-4.88364048778509
 20
4.89380786682773
 10
-4.91006234360769
 20
5.04858540064075
 10
-4.95152782222428
 20
5.20002784357353
 10
-5.00763758840846
 20
5.34667672211377
 10
-5.07785127443916
 20
5.48711972739468
 10
-5.16149268413719
 20
5.62000431650146
 10
-5.25775630500412
 20
5.74405073819891
 10
-5.36571506574795
 20
5.8580643576354
 10
-5.48432926448645
 20
5.96094716132957
 10
-5.61245658164466
 20
6.0517083316404
 10
-5.74886308111683
 20
6.12947378888269
 10
-5.89223509374566
 20
6.19349460919226
 10
-6.04119186867442
 20
6.24315423707221
 10
-6.19429887073249
 20
6.27797442315932
 97
0
 92
2
 72
0
 73
1
 93
66
 10
-7.70053200448525
 20
6.94973460863129
 10
-7.70053200448525
 20
6.94973460863129
 10
-7.73947768575045
 20
6.95464596034819
 10
-7.77871722956585
 20
6.95571631825837
 10
-7.81787273767401
 20
6.95293537423003
 10
-7.85656712112727
 20
6.94632991027438
 10
-7.89442773186046
 20
6.93596354062023
 10
-7.93108995149552
 20
6.92193609907419
 10
-7.96620070281575
 20
6.90438267756651
 10
-7.99942185009244
 20
6.883472325142
 10
-8.0304334555168
 20
6.85940641992527
 10
-8.05893686037593
 20
6.83241672973931
 10
-8.08465756129947
 20
6.80276318005469
 10
-8.10734785387718
 20
6.77073135076514
 10
-8.12678921818775
 20
6.73662972589709
 10
-8.14279442326514
 20
6.70078672273989
 10
-8.15520933023513
 20
6.6635475290077
 10
-8.16391437675691
 20
6.62527077849318
 10
-8.16882572847381
 20
6.58632509722799
 10
-8.16989608638399
 20
6.54708555341258
 10
-8.16711514235564
 20
6.50793004530442
 10
-8.1605096784
 20
6.46923566185117
 10
-8.15014330874585
 20
6.43137505111797
 10
-8.1361158671998
 20
6.39471283148291
 10
-8.11856244569213
 20
6.35960208016268
 10
-8.09765209326762
 20
6.32638093288599
 10
-8.07358618805089
 20
6.29536932746163
 10
-8.04659649786493
 20
6.26686592260251
 10
-8.0169429481803
 20
6.24114522167896
 10
-7.98491111889075
 20
6.21845492910125
 10
-7.95080949402271
 20
6.19901356479068
 10
-7.9149664908655
 20
6.18300835971329
 10
-7.87772729713331
 20
6.1705934527433
 10
-7.83945054661879
 20
6.16188840622152
 10
-7.8005048653536
 20
6.15697705450462
 10
-7.7612653215382
 20
6.15590669659444
 10
-7.72210981343004
 20
6.15868764062279
 10
-7.68341542997678
 20
6.16529310457843
 10
-7.64555481924359
 20
6.17565947423258
 10
-7.60889259960853
 20
6.18968691577863
 10
-7.5737818482883
 20
6.2072403372863
 10
-7.5405607010116
 20
6.22815068971081
 10
-7.50954909558724
 20
6.25221659492754
 10
-7.48104569072812
 20
6.2792062851135
 10
-7.45532498980458
 20
6.30885983479813
 10
-7.43263469722687
 20
6.34089166408768
 10
-7.4131933329163
 20
6.37499328895572
 10
-7.3971881278389
 20
6.41083629211293
 10
-7.38477322086892
 20
6.44807548584512
 10
-7.37606817434714
 20
6.48635223635964
 10
-7.37115682263024
 20
6.52529791762483
 10
-7.37008646472006
 20
6.56453746144023
 10
-7.3728674087484
 20
6.60369296954839
 10
-7.37947287270405
 20
6.64238735300165
 10
-7.3898392423582
 20
6.68024796373484
 10
-7.40386668390424
 20
6.7169101833699
 10
-7.42142010541192
 20
6.75202093469013
 10
-7.44233045783643
 20
6.78524208196683
 10
-7.46639636305316
 20
6.81625368739119
 10
-7.49338605323912
 20
6.84475709225031
 10
-7.52303960292374
 20
6.87047779317385
 10
-7.55507143221329
 20
6.89316808575156
 10
-7.58917305708133
 20
6.91260945006213
 10
-7.62501606023854
 20
6.92861465513953
 10
-7.66225525397073
 20
6.94102956210951
 10
-7.70053200448525
 20
6.94973460863129
 97
0
 92
2
 72
0
 73
1
 93
66
 10
-8.25620617301943
 20
3.79834979899223
 10
-8.25620617301943
 20
3.79834979899223
 10
-8.29515185428462
 20
3.80326115070913
 10
-8.33439139810003
 20
3.80433150861931
 10
-8.37354690620819
 20
3.80155056459096
 10
-8.41224128966144
 20
3.79494510063531
 10
-8.45010190039464
 20
3.78457873098117
 10
-8.4867641200297
 20
3.77055128943512
 10
-8.52187487134993
 20
3.75299786792745
 10
-8.55509601862662
 20
3.73208751550294
 10
-8.58610762405098
 20
3.70802161028621
 10
-8.6146110289101
 20
3.68103192010025
 10
-8.64033172983365
 20
3.65137837041562
 10
-8.66302202241136
 20
3.61934654112607
 10
-8.68246338672193
 20
3.58524491625803
 10
-8.69846859179932
 20
3.54940191310082
 10
-8.71088349876931
 20
3.51216271936863
 10
-8.71958854529108
 20
3.47388596885411
 10
-8.72449989700799
 20
3.43494028758892
 10
-8.72557025491816
 20
3.39570074377352
 10
-8.72278931088982
 20
3.35654523566536
 10
-8.71618384693417
 20
3.3178508522121
 10
-8.70581747728003
 20
3.27999024147891
 10
-8.69179003573398
 20
3.24332802184385
 10
-8.67423661422631
 20
3.20821727052362
 10
-8.6533262618018
 20
3.17499612324692
 10
-8.62926035658506
 20
3.14398451782256
 10
-8.60227066639911
 20
3.11548111296344
 10
-8.57261711671448
 20
3.08976041203989
 10
-8.54058528742493
 20
3.06707011946219
 10
-8.50648366255689
 20
3.04762875515162
 10
-8.47064065939968
 20
3.03162355007422
 10
-8.43340146566749
 20
3.01920864310424
 10
-8.39512471515297
 20
3.01050359658246
 10
-8.35617903388778
 20
3.00559224486556
 10
-8.31693949007238
 20
3.00452188695538
 10
-8.27778398196421
 20
3.00730283098372
 10
-8.23908959851096
 20
3.01390829493937
 10
-8.20122898777776
 20
3.02427466459352
 10
-8.16456676814271
 20
3.03830210613956
 10
-8.12945601682248
 20
3.05585552764724
 10
-8.09623486954578
 20
3.07676588007175
 10
-8.06522326412142
 20
3.10083178528848
 10
-8.0367198592623
 20
3.12782147547443
 10
-8.01099915833875
 20
3.15747502515906
 10
-7.98830886576105
 20
3.18950685444861
 10
-7.96886750145047
 20
3.22360847931665
 10
-7.95286229637308
 20
3.25945148247386
 10
-7.9404473894031
 20
3.29669067620605
 10
-7.93174234288132
 20
3.33496742672057
 10
-7.92683099116441
 20
3.37391310798576
 10
-7.92576063325424
 20
3.41315265180117
 10
-7.92854157728258
 20
3.45230815990933
 10
-7.93514704123823
 20
3.49100254336258
 10
-7.94551341089238
 20
3.52886315409578
 10
-7.95954085243842
 20
3.56552537373084
 10
-7.9770942739461
 20
3.60063612505107
 10
-7.9980046263706
 20
3.63385727232776
 10
-8.02207053158734
 20
3.66486887775212
 10
-8.04906022177329
 20
3.69337228261124
 10
-8.07871377145792
 20
3.71909298353479
 10
-8.11074560074747
 20
3.7417832761125
 10
-8.14484722561551
 20
3.76122464042307
 10
-8.18069022877272
 20
3.77722984550046
 10
-8.21792942250491
 20
3.78964475247045
 10
-8.25620617301943
 20
3.79834979899223
 97
0
 92
2
 72
0
 73
1
 93
66
 10
-7.7604722665004
 20
1.47721162951831
 10
-7.76047226650041
 20
1.47721162951831
 10
-7.90401008092985
 20
1.44456770506164
 10
-8.04365705742556
 20
1.39801180392419
 10
-8.17806831926509
 20
1.33799228488397
 10
-8.30594941252024
 20
1.26508716871932
 10
-8.42606877235606
 20
1.17999857155292
 10
-8.53726958367341
 20
1.08354594308963
 10
-8.63848092187075
 20
0.976658174867918
 10
-8.72872806643349
 20
0.860364654526563
 10
-8.8071418880254
 20
0.735785352238956
 10
-8.87296721867917
 20
0.6041200347881
 10
-8.92557012447684
 20
0.466636711156631
 10
-8.9644440106799
 20
0.324659420907149
 10
-8.98921450051358
 20
0.179555482957439
 10
-8.99964304061986
 20
0.0327223275518374
 10
-8.9956291984567
 20
-0.114425961755932
 10
-8.97721162951831
 20
-0.260472266500399
 10
-8.94456770506164
 20
-0.404010080929842
 10
-8.8980118039242
 20
-0.543657057425555
 10
-8.83799228488397
 20
-0.678068319265081
 10
-8.76508716871933
 20
-0.805949412520237
 10
-8.67999857155293
 20
-0.926068772356058
 10
-8.58354594308963
 20
-1.0372695836734
 10
-8.47665817486792
 20
-1.13848092187074
 10
-8.36036465452657
 20
-1.22872806643349
 10
-8.23578535223896
 20
-1.30714188802539
 10
-8.1041200347881
 20
-1.37296721867917
 10
-7.96663671115664
 20
-1.42557012447684
 10
-7.82465942090715
 20
-1.4644440106799
 10
-7.67955548295744
 20
-1.48921450051358
 10
-7.53272232755184
 20
-1.49964304061986
 10
-7.38557403824407
 20
-1.4956291984567
 10
-7.2395277334996
 20
-1.47721162951831
 10
-7.09598991907016
 20
-1.44456770506164
 10
-6.95634294257445
 20
-1.3980118039242
 10
-6.82193168073492
 20
-1.33799228488397
 10
-6.69405058747976
 20
-1.26508716871933
 10
-6.57393122764394
 20
-1.17999857155292
 10
-6.46273041632659
 20
-1.08354594308963
 10
-6.36151907812926
 20
-0.976658174867921
 10
-6.27127193356651
 20
-0.860364654526566
 10
-6.19285811197461
 20
-0.735785352238958
 10
-6.12703278132083
 20
-0.604120034788102
 10
-6.07442987552316
 20
-0.466636711156632
 10
-6.0355559893201
 20
-0.32465942090715
 10
-6.01078549948642
 20
-0.17955548295744
 10
-6.00035695938014
 20
-0.0327223275518381
 10
-6.0043708015433
 20
0.114425961755932
 10
-6.02278837048169
 20
0.260472266500399
 10
-6.05543229493836
 20
0.404010080929842
 10
-6.1019881960758
 20
0.543657057425555
 10
-6.16200771511603
 20
0.678068319265082
 10
-6.23491283128067
 20
0.805949412520238
 10
-6.32000142844708
 20
0.926068772356059
 10
-6.41645405691037
 20
1.03726958367341
 10
-6.52334182513208
 20
1.13848092187074
 10
-6.63963534547343
 20
1.22872806643349
 10
-6.76421464776104
 20
1.30714188802539
 10
-6.8958799652119
 20
1.37296721867917
 10
-7.03336328884336
 20
1.42557012447684
 10
-7.17534057909285
 20
1.4644440106799
 10
-7.32044451704256
 20
1.48921450051358
 10
-7.46727767244816
 20
1.49964304061986
 10
-7.61442596175593
 20
1.4956291984567
 10
-7.7604722665004
 20
1.47721162951831
 97
0
 92
2
 72
0
 73
1
 93
66
 10
-9.30280196264381
 20
1.5860422703975
 10
-9.30280196264381
 20
1.58604227039749
 10
-9.33868641625117
 20
1.57788128928333
 10
-9.3735981603751
 20
1.56624231399897
 10
-9.40720097583498
 20
1.55123743423891
 10
-9.43917124914877
 20
1.53301115519775
 10
-9.46920108910772
 20
1.51173900590615
 10
-9.49700129193706
 20
1.48762584879032
 10
-9.52230412648639
 20
1.4609039067349
 10
-9.54486591262708
 20
1.43183052664956
 10
-9.56446936802506
 20
1.40068570107766
 10
-9.5809257006885
 20
1.36776937171494
 10
-9.59407642713792
 20
1.33339854080707
 10
-9.60379489868868
 20
1.2979042182447
 10
-9.6099875211471
 20
1.26162823375728
 10
-9.61259465617367
 20
1.22491994490588
 10
-9.61159119563288
 20
1.18813287257893
 10
-9.60698680339829
 20
1.15162129639282
 10
-9.59882582228412
 20
1.11573684278546
 10
-9.58718684699976
 20
1.08082509866153
 10
-9.5721819672397
 20
1.04722228320165
 10
-9.55395568819854
 20
1.01525200988786
 10
-9.53268353890694
 20
0.985222169928903
 10
-9.50857038179112
 20
0.957421967099566
 10
-9.48184843973569
 20
0.932119132550232
 10
-9.45277505965035
 20
0.909557346409545
 10
-9.42163023407845
 20
0.88995389101157
 10
-9.38871390471573
 20
0.873497558348125
 10
-9.35434307380787
 20
0.860346831898707
 10
-9.3188487512455
 20
0.850628360347942
 10
-9.28257276675807
 20
0.844435737889522
 10
-9.24586447790667
 20
0.841828602862952
 10
-9.20907740557973
 20
0.842832063403742
 10
-9.17256582939361
 20
0.847436455638339
 10
-9.13668137578625
 20
0.855597436752507
 10
-9.10176963166232
 20
0.867236412036868
 10
-9.06816681620244
 20
0.882241291796925
 10
-9.03619654288865
 20
0.900467570838086
 10
-9.00616670292969
 20
0.921739720129686
 10
-8.97836650010036
 20
0.945852877245509
 10
-8.95306366555102
 20
0.972574819300937
 10
-8.93050187941034
 20
1.00164819938628
 10
-8.91089842401236
 20
1.03279302495818
 10
-8.89444209134891
 20
1.06570935432089
 10
-8.8812913648995
 20
1.10008018522876
 10
-8.87157289334873
 20
1.13557450779113
 10
-8.86538027089031
 20
1.17185049227856
 10
-8.86277313586374
 20
1.20855878112996
 10
-8.86377659640453
 20
1.2453458534569
 10
-8.86838098863913
 20
1.28185742964302
 10
-8.8765419697533
 20
1.31774188325038
 10
-8.88818094503766
 20
1.35265362737431
 10
-8.90318582479772
 20
1.38625644283419
 10
-8.92141210383888
 20
1.41822671614798
 10
-8.94268425313048
 20
1.44825655610693
 10
-8.9667974102463
 20
1.47605675893627
 10
-8.99351935230173
 20
1.5013595934856
 10
-9.02259273238707
 20
1.52392137962629
 10
-9.05373755795897
 20
1.54352483502427
 10
-9.08665388732168
 20
1.55998116768771
 10
-9.12102471822955
 20
1.57313189413713
 10
-9.15651904079192
 20
1.58285036568789
 10
-9.19279502527935
 20
1.58904298814631
 10
-9.22950331413075
 20
1.59165012317288
 10
-9.26629038645769
 20
1.59064666263209
 10
-9.30280196264381
 20
1.5860422703975
 97
0
 92
2
 72
0
 73
1
 93
66
 10
-8.78185742964302
 20
-1.36838098863913
 10
-8.78185742964302
 20
-1.36838098863913
 10
-8.81774188325038
 20
-1.3765419697533
 10
-8.85265362737431
 20
-1.38818094503766
 10
-8.88625644283419
 20
-1.40318582479771
 10
-8.91822671614798
 20
-1.42141210383888
 10
-8.94825655610693
 20
-1.44268425313048
 10
-8.97605675893627
 20
-1.4667974102463
 10
-9.0013595934856
 20
-1.49351935230173
 10
-9.02392137962629
 20
-1.52259273238707
 10
-9.04352483502427
 20
-1.55373755795897
 10
-9.05998116768771
 20
-1.58665388732168
 10
-9.07313189413713
 20
-1.62102471822955
 10
-9.08285036568789
 20
-1.65651904079192
 10
-9.08904298814631
 20
-1.69279502527935
 10
-9.09165012317288
 20
-1.72950331413075
 10
-9.09064666263209
 20
-1.76629038645769
 10
-9.08604227039749
 20
-1.80280196264381
 10
-9.07788128928333
 20
-1.83868641625117
 10
-9.06624231399897
 20
-1.8735981603751
 10
-9.05123743423891
 20
-1.90720097583498
 10
-9.03301115519775
 20
-1.93917124914877
 10
-9.01173900590615
 20
-1.96920108910772
 10
-8.98762584879032
 20
-1.99700129193706
 10
-8.9609039067349
 20
-2.02230412648639
 10
-8.93183052664956
 20
-2.04486591262708
 10
-8.90068570107766
 20
-2.06446936802505
 10
-8.86776937171494
 20
-2.0809257006885
 10
-8.83339854080707
 20
-2.09407642713792
 10
-8.7979042182447
 20
-2.10379489868868
 10
-8.76162823375728
 20
-2.1099875211471
 10
-8.72491994490588
 20
-2.11259465617367
 10
-8.68813287257893
 20
-2.11159119563288
 10
-8.65162129639282
 20
-2.10698680339828
 10
-8.61573684278546
 20
-2.09882582228412
 10
-8.58082509866153
 20
-2.08718684699976
 10
-8.54722228320165
 20
-2.0721819672397
 10
-8.51525200988786
 20
-2.05395568819854
 10
-8.4852221699289
 20
-2.03268353890694
 10
-8.45742196709957
 20
-2.00857038179111
 10
-8.43211913255023
 20
-1.98184843973569
 10
-8.40955734640954
 20
-1.95277505965035
 10
-8.38995389101157
 20
-1.92163023407845
 10
-8.37349755834812
 20
-1.88871390471573
 10
-8.36034683189871
 20
-1.85434307380786
 10
-8.35062836034794
 20
-1.81884875124549
 10
-8.34443573788952
 20
-1.78257276675807
 10
-8.34182860286295
 20
-1.74586447790667
 10
-8.34283206340374
 20
-1.70907740557972
 10
-8.34743645563834
 20
-1.67256582939361
 10
-8.35559743675251
 20
-1.63668137578625
 10
-8.36723641203687
 20
-1.60176963166232
 10
-8.38224129179692
 20
-1.56816681620244
 10
-8.40046757083809
 20
-1.53619654288865
 10
-8.42173972012969
 20
-1.50616670292969
 10
-8.44585287724551
 20
-1.47836650010036
 10
-8.47257481930094
 20
-1.45306366555102
 10
-8.50164819938627
 20
-1.43050187941033
 10
-8.53279302495818
 20
-1.41089842401236
 10
-8.56570935432089
 20
-1.39444209134891
 10
-8.60008018522876
 20
-1.3812913648995
 10
-8.63557450779113
 20
-1.37157289334873
 10
-8.67185049227855
 20
-1.36538027089031
 10
-8.70855878112996
 20
-1.36277313586374
 10
-8.7453458534569
 20
-1.36377659640453
 10
-8.78185742964302
 20
-1.36838098863913
 97
0
 92
2
 72
0
 73
1
 93
66
 10
-6.36311896062463
 20
-2.9020612007491
 10
-6.36311896062464
 20
-2.9020612007491
 10
-6.47858773623956
 20
-2.97651140761906
 10
-6.58620310176474
 20
-3.06192103557675
 10
-6.68492866240161
 20
-3.1574675432153
 10
-6.77381363703237
 20
-3.26223076543511
 10
-6.85200201476185
 20
-3.3752017751368
 10
-6.9187407987704
 20
-3.49529259974072
 10
-6.97338725808489
 20
-3.62134669895759
 10
-7.01541511742933
 20
-3.75215010290379
 10
-7.04441962554346
 20
-3.88644310329489
 10
-7.06012145315868
 20
-4.02293238512512
 10
-7.06236938309154
 20
-4.1603034819978
 10
-7.05114176654797
 20
-4.29723343515539
 10
-7.0265467316129
 20
-4.43240353429544
 10
-6.98882114191778
 20
-4.56451201747174
 10
-6.93832831551428
 20
-4.69228660777347
 10
-6.87555452592285
 20
-4.81449676604731
 10
-6.80110431905289
 20
-4.92996554166224
 10
-6.7156946910952
 20
-5.03758090718741
 10
-6.62014818345665
 20
-5.13630646782428
 10
-6.51538496123684
 20
-5.22519144245504
 10
-6.40241395153515
 20
-5.30337982018452
 10
-6.28232312693123
 20
-5.37011860419307
 10
-6.15626902771436
 20
-5.42476506350757
 10
-6.02546562376816
 20
-5.46679292285201
 10
-5.89117262337706
 20
-5.49579743096614
 10
-5.75468334154683
 20
-5.51149925858136
 10
-5.61731224467415
 20
-5.51374718851422
 10
-5.48038229151656
 20
-5.50251957197065
 10
-5.34521219237651
 20
-5.47792453703558
 10
-5.21310370920021
 20
-5.44019894734046
 10
-5.08532911889848
 20
-5.38970612093696
 10
-4.96311896062463
 20
-5.32693233134552
 10
-4.84765018500971
 20
-5.25248212447557
 10
-4.74003481948454
 20
-5.16707249651788
 10
-4.64130925884766
 20
-5.07152598887933
 10
-4.5524242842169
 20
-4.96676276665952
 10
-4.47423590648742
 20
-4.85379175695782
 10
-4.40749712247887
 20
-4.73370093235391
 10
-4.35285066316438
 20
-4.60764683313704
 10
-4.31082280381994
 20
-4.47684342919084
 10
-4.2818182957058
 20
-4.34255042879973
 10
-4.26611646809059
 20
-4.20606114696951
 10
-4.26386853815772
 20
-4.06869005009682
 10
-4.2750961547013
 20
-3.93176009693924
 10
-4.29969118963637
 20
-3.79658999779919
 10
-4.33741677933149
 20
-3.66448151462288
 10
-4.38790960573499
 20
-3.53670692432116
 10
-4.45068339532642
 20
-3.41449676604731
 10
-4.52513360219637
 20
-3.29902799043239
 10
-4.61054323015407
 20
-3.19141262490721
 10
-4.70608973779261
 20
-3.09268706427034
 10
-4.81085296001243
 20
-3.00380208963958
 10
-4.92382396971412
 20
-2.9256137119101
 10
-5.04391479431803
 20
-2.85887492790155
 10
-5.16996889353491
 20
-2.80422846858705
 10
-5.3007722974811
 20
-2.76220060924262
 10
-5.43506529787221
 20
-2.73319610112848
 10
-5.57155457970243
 20
-2.71749427351327
 10
-5.70892567657512
 20
-2.7152463435804
 10
-5.84585562973271
 20
-2.72647396012398
 10
-5.98102572887276
 20
-2.75106899505904
 10
-6.11313421204906
 20
-2.78879458475416
 10
-6.24090880235079
 20
-2.83928741115766
 10
-6.36311896062463
 20
-2.9020612007491
 97
0
 92
2
 72
0
 73
1
 93
66
 10
-7.75055452592285
 20
-3.29895230942454
 10
-7.75055452592285
 20
-3.29895230942454
 10
-7.77942171982658
 20
-3.31756486114203
 10
-7.80632556120787
 20
-3.33891726813146
 10
-7.83100695136709
 20
-3.36280389504109
 10
-7.85322819502478
 20
-3.38899470059605
 10
-7.87277528945715
 20
-3.41723745302147
 10
-7.88945998545929
 20
-3.44726015917245
 10
-7.90312160028791
 20
-3.47877368397667
 10
-7.91362856512402
 20
-3.51147453496322
 10
-7.92087969215256
 20
-3.54504778506099
 10
-7.92480514905636
 20
-3.57917010551855
 10
-7.92536713153958
 20
-3.61351287973672
 10
-7.92256022740368
 20
-3.64774536802612
 10
-7.91641146866991
 20
-3.68153789281113
 10
-7.90698007124613
 20
-3.7145650136052
 10
-7.89435686464526
 20
-3.74650866118064
 10
-7.8786634172474
 20
-3.7770612007491
 10
-7.86005086552991
 20
-3.80592839465283
 10
-7.83869845854049
 20
-3.83283223603412
 10
-7.81481183163085
 20
-3.85751362619334
 10
-7.7886210260759
 20
-3.87973486985103
 10
-7.76037827365048
 20
-3.8992819642834
 10
-7.7303555674995
 20
-3.91596666028554
 10
-7.69884204269528
 20
-3.92962827511416
 10
-7.66614119170873
 20
-3.94013523995027
 10
-7.63256794161095
 20
-3.9473863669788
 10
-7.5984456211534
 20
-3.95131182388261
 10
-7.56410284693523
 20
-3.95187380636582
 10
-7.52987035864583
 20
-3.94906690222993
 10
-7.49607783386082
 20
-3.94291814349616
 10
-7.46305071306674
 20
-3.93348674607238
 10
-7.43110706549131
 20
-3.92086353947151
 10
-7.40055452592285
 20
-3.90517009207365
 10
-7.37168733201912
 20
-3.88655754035616
 10
-7.34478349063782
 20
-3.86520513336674
 10
-7.3201021004786
 20
-3.8413185064571
 10
-7.29788085682091
 20
-3.81512770090215
 10
-7.27833376238854
 20
-3.78688494847672
 10
-7.26164906638641
 20
-3.75686224232575
 10
-7.24798745155778
 20
-3.72534871752153
 10
-7.23748048672167
 20
-3.69264786653498
 10
-7.23022935969314
 20
-3.6590746164372
 10
-7.22630390278934
 20
-3.62495229597965
 10
-7.22574192030612
 20
-3.59060952176147
 10
-7.22854882444201
 20
-3.55637703347208
 10
-7.23469758317578
 20
-3.52258450868707
 10
-7.24412898059956
 20
-3.48955738789299
 10
-7.25675218720044
 20
-3.45761374031756
 10
-7.27244563459829
 20
-3.4270612007491
 10
-7.29105818631578
 20
-3.39819400684537
 10
-7.3124105933052
 20
-3.37129016546407
 10
-7.33629722021484
 20
-3.34660877530485
 10
-7.3624880257698
 20
-3.32438753164716
 10
-7.39073077819522
 20
-3.30484043721479
 10
-7.4207534843462
 20
-3.28815574121266
 10
-7.45226700915042
 20
-3.27449412638403
 10
-7.48496786013696
 20
-3.26398716154792
 10
-7.51854111023474
 20
-3.25673603451939
 10
-7.5526634306923
 20
-3.25281057761559
 10
-7.58700620491047
 20
-3.25224859513237
 10
-7.62123869319987
 20
-3.25505549926826
 10
-7.65503121798488
 20
-3.26120425800203
 10
-7.68805833877895
 20
-3.27063565542581
 10
-7.72000198635438
 20
-3.28325886202668
 10
-7.75055452592285
 20
-3.29895230942454
 97
0
 92
2
 72
0
 73
1
 93
66
 10
-6.35055452592285
 20
-5.72382344002097
 10
-6.35055452592285
 20
-5.72382344002097
 10
-6.37942171982658
 20
-5.74243599173846
 10
-6.40632556120787
 20
-5.76378839872788
 10
-6.43100695136709
 20
-5.78767502563752
 10
-6.45322819502478
 20
-5.81386583119247
 10
-6.47277528945715
 20
-5.8421085836179
 10
-6.48945998545929
 20
-5.87213128976888
 10
-6.50312160028791
 20
-5.9036448145731
 10
-6.51362856512402
 20
-5.93634566555964
 10
-6.52087969215256
 20
-5.96991891565742
 10
-6.52480514905636
 20
-6.00404123611498
 10
-6.52536713153957
 20
-6.03838401033315
 10
-6.52256022740368
 20
-6.07261649862254
 10
-6.51641146866991
 20
-6.10640902340756
 10
-6.50698007124613
 20
-6.13943614420163
 10
-6.49435686464526
 20
-6.17137979177706
 10
-6.4786634172474
 20
-6.20193233134553
 10
-6.46005086552991
 20
-6.23079952524926
 10
-6.43869845854049
 20
-6.25770336663055
 10
-6.41481183163085
 20
-6.28238475678977
 10
-6.3886210260759
 20
-6.30460600044746
 10
-6.36037827365048
 20
-6.32415309487983
 10
-6.3303555674995
 20
-6.34083779088197
 10
-6.29884204269528
 20
-6.35449940571059
 10
-6.26614119170873
 20
-6.3650063705467
 10
-6.23256794161095
 20
-6.37225749757523
 10
-6.1984456211534
 20
-6.37618295447904
 10
-6.16410284693523
 20
-6.37674493696225
 10
-6.12987035864583
 20
-6.37393803282636
 10
-6.09607783386082
 20
-6.36778927409259
 10
-6.06305071306674
 20
-6.35835787666881
 10
-6.03110706549131
 20
-6.34573467006794
 10
-6.00055452592285
 20
-6.33004122267008
 10
-5.97168733201912
 20
-6.31142867095259
 10
-5.94478349063782
 20
-6.29007626396317
 10
-5.92010210047861
 20
-6.26618963705353
 10
-5.89788085682092
 20
-6.23999883149858
 10
-5.87833376238854
 20
-6.21175607907315
 10
-5.86164906638641
 20
-6.18173337292217
 10
-5.84798745155778
 20
-6.15021984811796
 10
-5.83748048672167
 20
-6.11751899713141
 10
-5.83022935969314
 20
-6.08394574703363
 10
-5.82630390278934
 20
-6.04982342657607
 10
-5.82574192030612
 20
-6.0154806523579
 10
-5.82854882444201
 20
-5.98124816406851
 10
-5.83469758317578
 20
-5.94745563928349
 10
-5.84412898059956
 20
-5.91442851848942
 10
-5.85675218720044
 20
-5.88248487091399
 10
-5.87244563459829
 20
-5.85193233134552
 10
-5.89105818631578
 20
-5.82306513744179
 10
-5.91241059330521
 20
-5.7961612960605
 10
-5.93629722021484
 20
-5.77147990590128
 10
-5.9624880257698
 20
-5.74925866224359
 10
-5.99073077819522
 20
-5.72971156781122
 10
-6.0207534843462
 20
-5.71302687180908
 10
-6.05226700915042
 20
-5.69936525698046
 10
-6.08496786013697
 20
-5.68885829214435
 10
-6.11854111023474
 20
-5.68160716511582
 10
-6.1526634306923
 20
-5.67768170821201
 10
-6.18700620491047
 20
-5.6771197257288
 10
-6.22123869319987
 20
-5.67992662986469
 10
-6.25503121798488
 20
-5.68607538859846
 10
-6.28805833877895
 20
-5.69550678602224
 10
-6.32000198635439
 20
-5.70812999262311
 10
-6.35055452592285
 20
-5.72382344002097
 97
0
 92
2
 72
0
 73
1
 93
66
 10
-3.00446823949183
 20
-5.346243463326
 10
-3.00446823949184
 20
-5.346243463326
 10
-3.08157837644749
 20
-5.44787835215192
 10
-3.14835524585692
 20
-5.5565819563233
 10
-3.20415574996378
 20
-5.67130740070856
 10
-3.24844249940986
 20
-5.79094981656295
 10
-3.28078898858838
 20
-5.9143569820186
 10
-3.30088370312618
 20
-6.04034041861095
 10
-3.30853311993735
 20
-6.16768683697607
 10
-3.30366357095643
 20
-6.29516982149046
 10
-3.28632195260205
 20
-6.42156164132397
 10
-3.25667527413886
 20
-6.54564507415879
 10
-3.215009049287
 20
-6.66622512870584
 10
-3.16172454656884
 20
-6.78214055312405
 10
-3.09733492487386
 20
-6.89227501851046
 10
-3.0224602914579
 20
-6.99556786975778
 10
-2.93782172997142
 20
-7.09102434024288
 10
-2.84423435602966
 20
-7.17772513197317
 10
-2.74259946720375
 20
-7.25483526892882
 10
-2.63389586303236
 20
-7.32161213833826
 10
-2.5191704186471
 20
-7.37741264244512
 10
-2.39952800279271
 20
-7.42169939189119
 10
-2.27612083733706
 20
-7.45404588106972
 10
-2.15013740074471
 20
-7.47414059560751
 10
-2.0227909823796
 20
-7.48179001241869
 10
-1.8953079978652
 20
-7.47692046343777
 10
-1.7689161780317
 20
-7.45957884508339
 10
-1.64483274519687
 20
-7.4299321666202
 10
-1.52425269064983
 20
-7.38826594176834
 10
-1.40833726623161
 20
-7.33498143905019
 10
-1.2982028008452
 20
-7.2705918173552
 10
-1.19490994959788
 20
-7.19571718393924
 10
-1.09945347911278
 20
-7.11107862245276
 10
-1.01275268738249
 20
-7.017491248511
 10
-0.935642550426836
 20
-6.91585635968509
 10
-0.868865681017399
 20
-6.8071527555137
 10
-0.813065176910539
 20
-6.69242731112844
 10
-0.768778427464464
 20
-6.57278489527405
 10
-0.736431938285939
 20
-6.4493777298184
 10
-0.716337223748144
 20
-6.32339429322605
 10
-0.708687806936965
 20
-6.19604787486093
 10
-0.71355735591789
 20
-6.06856489034654
 10
-0.730898974272268
 20
-5.94217307051303
 10
-0.760545652735453
 20
-5.81808963767821
 10
-0.802211877587321
 20
-5.69750958313116
 10
-0.855496380305472
 20
-5.58159415871295
 10
-0.91988600200046
 20
-5.47145969332654
 10
-0.994760635416414
 20
-5.36816684207922
 10
-1.0793991969029
 20
-5.27271037159412
 10
-1.17298657084466
 20
-5.18600957986383
 10
-1.27462145967057
 20
-5.10889944290817
 10
-1.38332506384196
 20
-5.04212257349874
 10
-1.49805050822721
 20
-4.98632206939188
 10
-1.61769292408161
 20
-4.9420353199458
 10
-1.74110008953726
 20
-4.90968883076728
 10
-1.86708352612961
 20
-4.88959411622948
 10
-1.99442994449472
 20
-4.8819446994183
 10
-2.12191292900912
 20
-4.88681424839923
 10
-2.24830474884262
 20
-4.90415586675361
 10
-2.37238818167745
 20
-4.93380254521679
 10
-2.49296823622449
 20
-4.97546877006866
 10
-2.6088836606427
 20
-5.02875327278681
 10
-2.71901812602912
 20
-5.0931428944818
 10
-2.82231097727644
 20
-5.16801752789775
 10
-2.91776744776154
 20
-5.25265608938424
 10
-3.00446823949183
 20
-5.346243463326
 97
0
 92
2
 72
0
 73
1
 93
66
 10
-4.089056576098
 20
-6.13319526623254
 10
-4.089056576098
 20
-6.13319526623254
 10
-4.10833411033691
 20
-6.15860398843902
 10
-4.12502832768927
 20
-6.18577988948187
 10
-4.13897845371599
 20
-6.21446125057818
 10
-4.15005014107751
 20
-6.24437185454178
 10
-4.15813676337214
 20
-6.27522364590569
 10
-4.16316044200659
 20
-6.30671950505378
 10
-4.16507279620938
 20
-6.33855610964506
 10
-4.16385540896415
 20
-6.37042685577366
 10
-4.15952000437555
 20
-6.40202481073204
 10
-4.15210833475976
 20
-6.43304566894074
 10
-4.14169177854679
 20
-6.4631906825775
 10
-4.12837065286725
 20
-6.49216953868206
 10
-4.11227324744351
 20
-6.51970315502866
 10
-4.09355458908952
 20
-6.54552636784049
 10
-4.0723949487179
 20
-6.56939048546176
 10
-4.04899810523246
 20
-6.59106568339434
 10
-4.02358938302598
 20
-6.61034321763325
 10
-3.99641348198313
 20
-6.62703743498561
 10
-3.96773212088682
 20
-6.64098756101232
 10
-3.93782151692322
 20
-6.65205924837384
 10
-3.90696972555931
 20
-6.66014587066847
 10
-3.87547386641122
 20
-6.66516954930292
 10
-3.84363726181994
 20
-6.66708190350572
 10
-3.81176651569134
 20
-6.66586451626049
 10
-3.78016856073297
 20
-6.66152911167189
 10
-3.74914770252426
 20
-6.65411744205609
 10
-3.7190026888875
 20
-6.64370088584313
 10
-3.69002383278295
 20
-6.63037976016359
 10
-3.66249021643634
 20
-6.61428235473984
 10
-3.63666700362451
 20
-6.59556369638585
 10
-3.61280288600324
 20
-6.57440405601423
 10
-3.59112768807066
 20
-6.55100721252879
 10
-3.57185015383175
 20
-6.52559849032231
 10
-3.55515593647939
 20
-6.49842258927947
 10
-3.54120581045268
 20
-6.46974122818315
 10
-3.53013412309116
 20
-6.43983062421956
 10
-3.52204750079653
 20
-6.40897883285564
 10
-3.51702382216208
 20
-6.37748297370756
 10
-3.51511146795928
 20
-6.34564636911628
 10
-3.51632885520451
 20
-6.31377562298768
 10
-3.52066425979311
 20
-6.2821776680293
 10
-3.5280759294089
 20
-6.25115680982059
 10
-3.53849248562187
 20
-6.22101179618383
 10
-3.55181361130141
 20
-6.19203294007928
 10
-3.56791101672516
 20
-6.16449932373268
 10
-3.58662967507915
 20
-6.13867611092085
 10
-3.60778931545077
 20
-6.11481199329957
 10
-3.63118615893621
 20
-6.093136795367
 10
-3.65659488114268
 20
-6.07385926112809
 10
-3.68377078218553
 20
-6.05716504377573
 10
-3.71245214328185
 20
-6.04321491774901
 10
-3.74236274724544
 20
-6.03214323038749
 10
-3.77321453860936
 20
-6.02405660809286
 10
-3.80471039775744
 20
-6.01903292945841
 10
-3.83654700234872
 20
-6.01712057525562
 10
-3.86841774847732
 20
-6.01833796250085
 10
-3.9000157034357
 20
-6.02267336708945
 10
-3.9310365616444
 20
-6.03008503670524
 10
-3.96118157528117
 20
-6.04050159291821
 10
-3.99016043138572
 20
-6.05382271859775
 10
-4.01769404773232
 20
-6.06992012402149
 10
-4.04351726054415
 20
-6.08863878237548
 10
-4.06738137816543
 20
-6.1097984227471
 10
-4.089056576098
 20
-6.13319526623254
 97
0
 92
2
 72
0
 73
1
 93
66
 10
-2.09734102398866
 20
-7.80444305141754
 10
-2.09734102398866
 20
-7.80444305141755
 10
-2.11661855822757
 20
-7.82985177362403
 10
-2.13331277557993
 20
-7.85702767466687
 10
-2.14726290160665
 20
-7.88570903576319
 10
-2.15833458896816
 20
-7.91561963972678
 10
-2.16642121126279
 20
-7.9464714310907
 10
-2.17144488989724
 20
-7.97796729023878
 10
-2.17335724410004
 20
-8.00980389483006
 10
-2.17213985685481
 20
-8.04167464095866
 10
-2.16780445226621
 20
-8.07327259591704
 10
-2.16039278265042
 20
-8.10429345412574
 10
-2.14997622643745
 20
-8.13443846776251
 10
-2.13665510075791
 20
-8.16341732386706
 10
-2.12055769533416
 20
-8.19095094021366
 10
-2.10183903698018
 20
-8.21677415302549
 10
-2.08067939660855
 20
-8.24063827064677
 10
-2.05728255312311
 20
-8.26231346857934
 10
-2.03187383091664
 20
-8.28159100281825
 10
-2.00469792987379
 20
-8.29828522017061
 10
-1.97601656877748
 20
-8.31223534619733
 10
-1.94610596481388
 20
-8.32330703355884
 10
-1.91525417344997
 20
-8.33139365585347
 10
-1.88375831430188
 20
-8.33641733448792
 10
-1.8519217097106
 20
-8.33832968869072
 10
-1.820050963582
 20
-8.33711230144549
 10
-1.78845300862362
 20
-8.33277689685689
 10
-1.75743215041492
 20
-8.3253652272411
 10
-1.72728713677816
 20
-8.31494867102813
 10
-1.6983082806736
 20
-8.30162754534859
 10
-1.670774664327
 20
-8.28553013992484
 10
-1.64495145151517
 20
-8.26681148157086
 10
-1.62108733389389
 20
-8.24565184119924
 10
-1.59941213596132
 20
-8.2222549977138
 10
-1.58013460172241
 20
-8.19684627550732
 10
-1.56344038437005
 20
-8.16967037446447
 10
-1.54949025834333
 20
-8.14098901336816
 10
-1.53841857098182
 20
-8.11107840940456
 10
-1.53033194868718
 20
-8.08022661804065
 10
-1.52530827005274
 20
-8.04873075889256
 10
-1.52339591584994
 20
-8.01689415430128
 10
-1.52461330309517
 20
-7.98502340817268
 10
-1.52894870768377
 20
-7.9534254532143
 10
-1.53636037729956
 20
-7.9224045950056
 10
-1.54677693351253
 20
-7.89225958136884
 10
-1.56009805919207
 20
-7.86328072526428
 10
-1.57619546461581
 20
-7.83574710891768
 10
-1.5949141229698
 20
-7.80992389610585
 10
-1.61607376334142
 20
-7.78605977848458
 10
-1.63947060682686
 20
-7.764384580552
 10
-1.66487932903334
 20
-7.74510704631309
 10
-1.69205523007619
 20
-7.72841282896073
 10
-1.7207365911725
 20
-7.71446270293402
 10
-1.7506471951361
 20
-7.7033910155725
 10
-1.78149898650001
 20
-7.69530439327786
 10
-1.8129948456481
 20
-7.69028071464342
 10
-1.84483145023938
 20
-7.68836836044062
 10
-1.87670219636798
 20
-7.68958574768585
 10
-1.90830015132636
 20
-7.69392115227445
 10
-1.93932100953506
 20
-7.70133282189024
 10
-1.96946602317182
 20
-7.71174937810321
 10
-1.99844487927638
 20
-7.72507050378275
 10
-2.02597849562298
 20
-7.74116790920649
 10
-2.05180170843481
 20
-7.75988656756048
 10
-2.07566582605608
 20
-7.78104620793211
 10
-2.09734102398866
 20
-7.80444305141754
 97
0
 92
2
 72
0
 73
1
 93
66
 10
0.726470821306593
 20
-5.29591492578012
 10
0.72647082130659
 20
-5.29591492578013
 10
0.691672069821769
 20
-5.40841841052247
 10
0.668068153688369
 20
-5.52379103434303
 10
0.655886391521967
 20
-5.64092169580532
 10
0.655244100351455
 20
-5.75868236260933
 10
0.666147465791915
 20
-5.87593893515921
 10
0.688491482473771
 20
-5.99156216856234
 10
0.722060965301895
 20
-6.10443854787495
 10
0.766532621805706
 20
-6.21348101185977
 10
0.821478165622392
 20
-6.31763942197994
 10
0.886368441128708
 20
-6.41591067580723
 10
0.960578519498896
 20
-6.50734836744674
 10
1.04339371711089
 20
-6.59107190194307
 10
1.13401647834031
 20
-6.66627497589108
 10
1.23157405645706
 20
-6.73223334257846
 10
1.33512691865349
 20
-6.7883117868775
 10
1.44367779425888
 20
-6.83397024271401
 10
1.55618127900123
 20
-6.86876899419883
 10
1.67155390282179
 20
-6.89237291033224
 10
1.78868456428408
 20
-6.90455467249864
 10
1.90644523108809
 20
-6.90519696366915
 10
2.02370180363797
 20
-6.89429359822869
 10
2.13932503704109
 20
-6.87194958154684
 10
2.25220141635371
 20
-6.83838009871871
 10
2.36124388033852
 20
-6.7939084422149
 10
2.46540229045869
 20
-6.73896289839822
 10
2.56367354428598
 20
-6.6740726228919
 10
2.6551112359255
 20
-6.59986254452171
 10
2.73883477042183
 20
-6.51704734690971
 10
2.81403784436984
 20
-6.4264245856803
 10
2.87999621105722
 20
-6.32886700756355
 10
2.93607465535626
 20
-6.22531414536712
 10
2.98173311119277
 20
-6.11676326976172
 10
3.0165318626776
 20
-6.00425978501938
 10
3.040135778811
 20
-5.88888716119882
 10
3.0523175409774
 20
-5.77175649973653
 10
3.05295983214791
 20
-5.65399583293252
 10
3.04205646670745
 20
-5.53673926038264
 10
3.0197124500256
 20
-5.42111602697951
 10
2.98614296719747
 20
-5.3082396476669
 10
2.94167131069366
 20
-5.19919718368208
 10
2.88672576687698
 20
-5.09503877356191
 10
2.82183549137066
 20
-4.99676751973462
 10
2.74762541300047
 20
-4.9053298280951
 10
2.66481021538847
 20
-4.82160629359877
 10
2.57418745415906
 20
-4.74640321965077
 10
2.47662987604231
 20
-4.68044485296338
 10
2.37307701384588
 20
-4.62436640866434
 10
2.26452613824048
 20
-4.57870795282783
 10
2.15202265349814
 20
-4.54390920134301
 10
2.03665002967758
 20
-4.52030528520961
 10
1.91951936821529
 20
-4.50812352304321
 10
1.80175870141128
 20
-4.50748123187269
 10
1.6845021288614
 20
-4.51838459731315
 10
1.56887889545827
 20
-4.54072861399501
 10
1.45600251614566
 20
-4.57429809682313
 10
1.34696005216084
 20
-4.61876975332694
 10
1.24280164204067
 20
-4.67371529714363
 10
1.14453038821338
 20
-4.73860557264994
 10
1.05309269657387
 20
-4.81281565102013
 10
0.969369162077534
 20
-4.89563084863213
 10
0.894166088129528
 20
-4.98625360986154
 10
0.828207721442147
 20
-5.0838111879783
 10
0.772129277143104
 20
-5.18736405017472
 10
0.726470821306593
 20
-5.29591492578012
 97
0
 92
2
 72
0
 73
1
 93
66
 10
0.0341388630800183
 20
-6.32094002772551
 10
0.0341388630800175
 20
-6.32094002772551
 10
0.0254391752088121
 20
-6.3490658989111
 10
0.0195381961754622
 20
-6.37790905486624
 10
0.0164927556338619
 20
-6.40719172023181
 10
0.0163321828412335
 20
-6.43663188693281
 10
0.0190580242013487
 20
-6.46594603007028
 10
0.024644028371813
 20
-6.49485183842106
 10
0.0330363990788438
 20
-6.52307093324922
 10
0.0441543132047966
 20
-6.55033154924542
 10
0.0578906991589678
 20
-6.57637115177546
 10
0.0741132680355467
 20
-6.60093896523228
 10
0.0926657876280939
 20
-6.62379838814216
 10
0.113369587031094
 20
-6.64472927176625
 10
0.136025277338448
 20
-6.66353004025325
 10
0.160414671867635
 20
-6.68001963192509
 10
0.186302887416742
 20
-6.69403924299986
 10
0.213440606318091
 20
-6.70545385695898
 10
0.241566477503677
 20
-6.71415354483019
 10
0.270409633458816
 20
-6.72005452386354
 10
0.299692298824389
 20
-6.72309996440514
 10
0.329132465525392
 20
-6.72326053719777
 10
0.358446608662861
 20
-6.72053469583765
 10
0.387352417013643
 20
-6.71494869166719
 10
0.415571511841796
 20
-6.70655632096016
 10
0.442832127838001
 20
-6.6954384068342
 10
0.468871730368043
 20
-6.68170202088003
 10
0.493439543824866
 20
-6.66547945200345
 10
0.516298966734745
 20
-6.64692693241091
 10
0.537229850358828
 20
-6.62622313300791
 10
0.55603061884583
 20
-6.60356744270055
 10
0.572520210517675
 20
-6.57917804817137
 10
0.586539821592436
 20
-6.55328983262226
 10
0.597954435551563
 20
-6.52615211372091
 10
0.606654123422769
 20
-6.49802624253532
 10
0.612555102456119
 20
-6.46918308658018
 10
0.61560054299772
 20
-6.43990042121461
 10
0.615761115790348
 20
-6.41046025451361
 10
0.613035274430233
 20
-6.38114611137614
 10
0.607449270259769
 20
-6.35224030302536
 10
0.599056899552738
 20
-6.3240212081972
 10
0.587938985426785
 20
-6.296760592201
 10
0.574202599472614
 20
-6.27072098967096
 10
0.557980030596035
 20
-6.24615317621413
 10
0.539427511003488
 20
-6.22329375330425
 10
0.518723711600489
 20
-6.20236286968017
 10
0.496068021293135
 20
-6.18356210119317
 10
0.471678626763947
 20
-6.16707250952132
 10
0.44579041121484
 20
-6.15305289844656
 10
0.418652692313491
 20
-6.14163828448744
 10
0.390526821127905
 20
-6.13293859661623
 10
0.361683665172766
 20
-6.12703761758288
 10
0.332400999807192
 20
-6.12399217704128
 10
0.30296083310619
 20
-6.12383160424865
 10
0.27364668996872
 20
-6.12655744560877
 10
0.244740881617939
 20
-6.13214344977923
 10
0.216521786789785
 20
-6.14053582048626
 10
0.189261170793581
 20
-6.15165373461221
 10
0.163221568263538
 20
-6.16539012056639
 10
0.138653754806716
 20
-6.18161268944296
 10
0.115794331896837
 20
-6.20016520903551
 10
0.0948634482727535
 20
-6.22086900843851
 10
0.076062679785752
 20
-6.24352469874586
 10
0.0595730881139067
 20
-6.26791409327505
 10
0.0455534770391457
 20
-6.29380230882416
 10
0.0341388630800183
 20
-6.32094002772551
 97
0
 92
2
 72
0
 73
1
 93
66
 10
2.2894011529662
 20
-7.14178837170711
 10
2.2894011529662
 20
-7.14178837170712
 10
2.28070146509499
 20
-7.1699142428927
 10
2.27480048606164
 20
-7.19875739884784
 10
2.27175504552004
 20
-7.22804006421342
 10
2.27159447272741
 20
-7.25748023091442
 10
2.27432031408753
 20
-7.28679437405189
 10
2.27990631825799
 20
-7.31570018240267
 10
2.28829868896502
 20
-7.34391927723082
 10
2.29941660309098
 20
-7.37117989322703
 10
2.31315298904515
 20
-7.39721949575707
 10
2.32937555792173
 20
-7.42178730921389
 10
2.34792807751427
 20
-7.44464673212377
 10
2.36863187691727
 20
-7.46557761574785
 10
2.39128756722463
 20
-7.48437838423485
 10
2.41567696175381
 20
-7.5008679759067
 10
2.44156517730292
 20
-7.51488758698146
 10
2.46870289620427
 20
-7.52630220094059
 10
2.49682876738986
 20
-7.53500188881179
 10
2.525671923345
 20
-7.54090286784514
 10
2.55495458871057
 20
-7.54394830838674
 10
2.58439475541157
 20
-7.54410888117937
 10
2.61370889854904
 20
-7.54138303981926
 10
2.64261470689982
 20
-7.53579703564879
 10
2.67083380172798
 20
-7.52740466494176
 10
2.69809441772418
 20
-7.51628675081581
 10
2.72413402025422
 20
-7.50255036486164
 10
2.74870183371105
 20
-7.48632779598506
 10
2.77156125662092
 20
-7.46777527639251
 10
2.79249214024501
 20
-7.44707147698951
 10
2.81129290873201
 20
-7.42441578668216
 10
2.82778250040385
 20
-7.40002639215297
 10
2.84180211147862
 20
-7.37413817660386
 10
2.85321672543774
 20
-7.34700045770251
 10
2.86191641330895
 20
-7.31887458651693
 10
2.8678173923423
 20
-7.29003143056179
 10
2.8708628328839
 20
-7.26074876519622
 10
2.87102340567653
 20
-7.23130859849521
 10
2.86829756431641
 20
-7.20199445535774
 10
2.86271156014595
 20
-7.17308864700696
 10
2.85431918943892
 20
-7.14486955217881
 10
2.84320127531297
 20
-7.1176089361826
 10
2.82946488935879
 20
-7.09156933365256
 10
2.81324232048221
 20
-7.06700152019574
 10
2.79468980088967
 20
-7.04414209728586
 10
2.77398600148667
 20
-7.02321121366178
 10
2.75133031117931
 20
-7.00441044517478
 10
2.72694091665013
 20
-6.98792085350293
 10
2.70105270110102
 20
-6.97390124242817
 10
2.67391498219967
 20
-6.96248662846904
 10
2.64578911101409
 20
-6.95378694059784
 10
2.61694595505895
 20
-6.94788596156449
 10
2.58766328969337
 20
-6.94484052102289
 10
2.55822312299237
 20
-6.94467994823026
 10
2.5289089798549
 20
-6.94740578959037
 10
2.50000317150412
 20
-6.95299179376084
 10
2.47178407667596
 20
-6.96138416446787
 10
2.44452346067976
 20
-6.97250207859382
 10
2.41848385814972
 20
-6.98623846454799
 10
2.3939160446929
 20
-7.00246103342457
 10
2.37105662178302
 20
-7.02101355301712
 10
2.35012573815893
 20
-7.04171735242012
 10
2.33132496967193
 20
-7.06437304272747
 10
2.31483537800009
 20
-7.08876243725666
 10
2.30081576692533
 20
-7.11465065280576
 10
2.2894011529662
 20
-7.14178837170711
 97
0
 92
2
 72
0
 73
1
 93
66
 10
3.34959346906221
 20
-3.2328188876086
 10
3.34959346906221
 20
-3.23281888760861
 10
3.35489026972279
 20
-3.34063774197113
 10
3.37072966061866
 20
-3.44741824182635
 10
3.39695909975678
 20
-3.55213203258852
 10
3.4333259832998
 20
-3.65377066321021
 10
3.47948007827902
 20
-3.75135529811721
 10
3.53497689552941
 20
-3.84394614393017
 10
3.5992819703632
 20
-3.93065150018862
 10
3.67177600975701
 20
-4.01063634691381
 10
3.7517608564822
 20
-4.08313038630762
 10
3.83846621274065
 20
-4.14743546114141
 10
3.93105705855362
 20
-4.2029322783918
 10
4.02864169346062
 20
-4.24908637337102
 10
4.13028032408231
 20
-4.28545325691403
 10
4.23499411484447
 20
-4.31168269605216
 10
4.3417746146997
 20
-4.32752208694802
 10
4.44959346906221
 20
-4.3328188876086
 10
4.55741232342473
 20
-4.32752208694802
 10
4.66419282327995
 20
-4.31168269605216
 10
4.76890661404212
 20
-4.28545325691403
 10
4.87054524466381
 20
-4.24908637337102
 10
4.96812987957081
 20
-4.20293227839179
 10
5.06072072538377
 20
-4.1474354611414
 10
5.14742608164222
 20
-4.08313038630761
 10
5.22741092836741
 20
-4.01063634691381
 10
5.29990496776122
 20
-3.93065150018861
 10
5.36421004259501
 20
-3.84394614393017
 10
5.4197068598454
 20
-3.7513552981172
 10
5.46586095482463
 20
-3.6537706632102
 10
5.50222783836764
 20
-3.55213203258851
 10
5.52845727750576
 20
-3.44741824182634
 10
5.54429666840163
 20
-3.34063774197112
 10
5.54959346906221
 20
-3.2328188876086
 10
5.54429666840163
 20
-3.12500003324609
 10
5.52845727750576
 20
-3.01821953339086
 10
5.50222783836764
 20
-2.91350574262869
 10
5.46586095482463
 20
-2.811867112007
 10
5.4197068598454
 20
-2.7142824771
 10
5.36421004259501
 20
-2.62169163128704
 10
5.29990496776122
 20
-2.53498627502859
 10
5.22741092836741
 20
-2.4550014283034
 10
5.14742608164222
 20
-2.38250738890959
 10
5.06072072538377
 20
-2.3182023140758
 10
4.96812987957081
 20
-2.26270549682541
 10
4.87054524466381
 20
-2.21655140184619
 10
4.76890661404212
 20
-2.18018451830317
 10
4.66419282327995
 20
-2.15395507916505
 10
4.55741232342473
 20
-2.13811568826919
 10
4.44959346906221
 20
-2.1328188876086
 10
4.34177461469969
 20
-2.13811568826919
 10
4.23499411484447
 20
-2.15395507916505
 10
4.1302803240823
 20
-2.18018451830317
 10
4.02864169346061
 20
-2.21655140184619
 10
3.93105705855361
 20
-2.26270549682541
 10
3.83846621274065
 20
-2.3182023140758
 10
3.7517608564822
 20
-2.38250738890959
 10
3.67177600975701
 20
-2.4550014283034
 10
3.5992819703632
 20
-2.53498627502859
 10
3.53497689552941
 20
-2.62169163128704
 10
3.47948007827902
 20
-2.71428247710001
 10
3.43332598329979
 20
-2.811867112007
 10
3.39695909975678
 20
-2.9135057426287
 10
3.37072966061866
 20
-3.01821953339086
 10
3.35489026972279
 20
-3.12500003324609
 10
3.34959346906221
 20
-3.2328188876086
 97
0
 92
2
 72
0
 73
1
 93
66
 10
3.07459346906221
 20
-4.3328188876086
 10
3.07459346906221
 20
-4.33281888760861
 10
3.07591766922736
 20
-4.35977360119924
 10
3.07987751695132
 20
-4.38646872616304
 10
3.08643487673585
 20
-4.41264717385358
 10
3.09552659762161
 20
-4.43805683150901
 10
3.10706512136641
 20
-4.46245299023575
 10
3.12093932567901
 20
-4.485600701689
 10
3.13701559438746
 20
-4.50727704075361
 10
3.15513910423591
 20
-4.52727325243491
 10
3.17513531591721
 20
-4.54539676228336
 10
3.19681165498182
 20
-4.5614730309918
 10
3.21995936643506
 20
-4.5753472353044
 10
3.24435552516181
 20
-4.58688575904921
 10
3.26976518281723
 20
-4.59597747993496
 10
3.29594363050778
 20
-4.60253483971949
 10
3.32263875547158
 20
-4.60649468744346
 10
3.34959346906221
 20
-4.6078188876086
 10
3.37654818265284
 20
-4.60649468744346
 10
3.40324330761665
 20
-4.60253483971949
 10
3.42942175530719
 20
-4.59597747993496
 10
3.45483141296261
 20
-4.58688575904921
 10
3.47922757168936
 20
-4.5753472353044
 10
3.5023752831426
 20
-4.5614730309918
 10
3.52405162220721
 20
-4.54539676228336
 10
3.54404783388851
 20
-4.5272732524349
 10
3.56217134373696
 20
-4.50727704075361
 10
3.57824761244541
 20
-4.48560070168899
 10
3.59212181675801
 20
-4.46245299023575
 10
3.60366034050281
 20
-4.438056831509
 10
3.61275206138857
 20
-4.41264717385358
 10
3.6193094211731
 20
-4.38646872616304
 10
3.62326926889706
 20
-4.35977360119923
 10
3.62459346906221
 20
-4.3328188876086
 10
3.62326926889706
 20
-4.30586417401797
 10
3.6193094211731
 20
-4.27916904905417
 10
3.61275206138857
 20
-4.25299060136363
 10
3.60366034050281
 20
-4.2275809437082
 10
3.59212181675801
 20
-4.20318478498145
 10
3.57824761244541
 20
-4.18003707352821
 10
3.56217134373696
 20
-4.1583607344636
 10
3.54404783388851
 20
-4.1383645227823
 10
3.52405162220721
 20
-4.12024101293385
 10
3.5023752831426
 20
-4.1041647442254
 10
3.47922757168936
 20
-4.09029053991281
 10
3.45483141296261
 20
-4.078752016168
 10
3.42942175530719
 20
-4.06966029528225
 10
3.40324330761665
 20
-4.06310293549772
 10
3.37654818265284
 20
-4.05914308777375
 10
3.34959346906221
 20
-4.0578188876086
 10
3.32263875547158
 20
-4.05914308777375
 10
3.29594363050777
 20
-4.06310293549772
 10
3.26976518281723
 20
-4.06966029528225
 10
3.24435552516181
 20
-4.078752016168
 10
3.21995936643506
 20
-4.09029053991281
 10
3.19681165498182
 20
-4.1041647442254
 10
3.17513531591721
 20
-4.12024101293385
 10
3.15513910423591
 20
-4.1383645227823
 10
3.13701559438746
 20
-4.1583607344636
 10
3.12093932567901
 20
-4.18003707352821
 10
3.10706512136641
 20
-4.20318478498145
 10
3.09552659762161
 20
-4.2275809437082
 10
3.08643487673585
 20
-4.25299060136363
 10
3.07987751695132
 20
-4.27916904905417
 10
3.07591766922736
 20
-4.30586417401797
 10
3.07459346906221
 20
-4.3328188876086
 97
0
 92
2
 72
0
 73
1
 93
66
 10
5.27459346906221
 20
-4.3328188876086
 10
5.27459346906221
 20
-4.33281888760861
 10
5.27591766922736
 20
-4.35977360119924
 10
5.27987751695132
 20
-4.38646872616304
 10
5.28643487673585
 20
-4.41264717385358
 10
5.29552659762161
 20
-4.43805683150901
 10
5.30706512136641
 20
-4.46245299023575
 10
5.32093932567901
 20
-4.485600701689
 10
5.33701559438746
 20
-4.50727704075361
 10
5.35513910423591
 20
-4.52727325243491
 10
5.37513531591721
 20
-4.54539676228336
 10
5.39681165498182
 20
-4.5614730309918
 10
5.41995936643506
 20
-4.5753472353044
 10
5.44435552516181
 20
-4.58688575904921
 10
5.46976518281723
 20
-4.59597747993496
 10
5.49594363050778
 20
-4.60253483971949
 10
5.52263875547158
 20
-4.60649468744346
 10
5.54959346906221
 20
-4.6078188876086
 10
5.57654818265284
 20
-4.60649468744346
 10
5.60324330761665
 20
-4.60253483971949
 10
5.62942175530719
 20
-4.59597747993496
 10
5.65483141296261
 20
-4.58688575904921
 10
5.67922757168936
 20
-4.5753472353044
 10
5.7023752831426
 20
-4.5614730309918
 10
5.72405162220721
 20
-4.54539676228336
 10
5.74404783388851
 20
-4.5272732524349
 10
5.76217134373696
 20
-4.50727704075361
 10
5.77824761244541
 20
-4.48560070168899
 10
5.79212181675801
 20
-4.46245299023575
 10
5.80366034050281
 20
-4.438056831509
 10
5.81275206138857
 20
-4.41264717385358
 10
5.8193094211731
 20
-4.38646872616304
 10
5.82326926889706
 20
-4.35977360119923
 10
5.82459346906221
 20
-4.3328188876086
 10
5.82326926889706
 20
-4.30586417401797
 10
5.8193094211731
 20
-4.27916904905417
 10
5.81275206138857
 20
-4.25299060136363
 10
5.80366034050281
 20
-4.2275809437082
 10
5.79212181675801
 20
-4.20318478498145
 10
5.77824761244541
 20
-4.18003707352821
 10
5.76217134373696
 20
-4.1583607344636
 10
5.74404783388851
 20
-4.1383645227823
 10
5.72405162220721
 20
-4.12024101293385
 10
5.7023752831426
 20
-4.1041647442254
 10
5.67922757168936
 20
-4.09029053991281
 10
5.65483141296261
 20
-4.078752016168
 10
5.62942175530719
 20
-4.06966029528225
 10
5.60324330761665
 20
-4.06310293549772
 10
5.57654818265284
 20
-4.05914308777375
 10
5.54959346906221
 20
-4.0578188876086
 10
5.52263875547158
 20
-4.05914308777375
 10
5.49594363050777
 20
-4.06310293549772
 10
5.46976518281723
 20
-4.06966029528225
 10
5.44435552516181
 20
-4.078752016168
 10
5.41995936643506
 20
-4.09029053991281
 10
5.39681165498182
 20
-4.1041647442254
 10
5.37513531591721
 20
-4.12024101293385
 10
5.35513910423591
 20
-4.1383645227823
 10
5.33701559438746
 20
-4.1583607344636
 10
5.32093932567901
 20
-4.18003707352821
 10
5.30706512136641
 20
-4.20318478498145
 10
5.29552659762161
 20
-4.2275809437082
 10
5.28643487673585
 20
-4.25299060136363
 10
5.27987751695132
 20
-4.27916904905417
 10
5.27591766922736
 20
-4.30586417401797
 10
5.27459346906221
 20
-4.3328188876086
 97
0
 75
0
 76
1
 98
0
  0
ENDSEC
  0
SECTION
  2
OBJECTS
  0
DICTIONARY
  5
C
330
0
100
AcDbDictionary
281
     1
  3
ACAD_GROUP
350
D
  3
ACAD_LAYOUT
350
1A
  3
ACAD_MLEADERSTYLE
350
43
  3
ACAD_MLINESTYLE
350
17
  3
ACAD_PLOTSETTINGS
350
19
  3
ACAD_PLOTSTYLENAME
350
E
  3
ACAD_TABLESTYLE
350
42
  3
ACAD_VISUALSTYLE
350
2A
  0
DICTIONARY
  5
D
102
{ACAD_REACTORS
330
C
102
}
330
C
100
AcDbDictionary
281
     1
  0
DICTIONARY
  5
1A
102
{ACAD_REACTORS
330
C
102
}
330
C
100
AcDbDictionary
281
     1
  3
Layout1
350
1E
  3
Layout2
350
26
  3
Model
350
22
  0
DICTIONARY
  5
43
102
{ACAD_REACTORS
330
C
102
}
330
C
100
AcDbDictionary
281
     1
  0
DICTIONARY
  5
17
102
{ACAD_REACTORS
330
C
102
}
330
C
100
AcDbDictionary
281
     1
  3
Standard
350
18
  0
DICTIONARY
  5
19
102
{ACAD_REACTORS
330
C
102
}
330
C
100
AcDbDictionary
281
     1
  0
ACDBDICTIONARYWDFLT
  5
E
102
{ACAD_REACTORS
330
C
102
}
330
C
100
AcDbDictionary
281
     1
  3
Normal
350
F
100
AcDbDictionaryWithDefault
340
F
  0
DICTIONARY
  5
42
102
{ACAD_REACTORS
330
C
102
}
330
C
100
AcDbDictionary
281
     1
  0
DICTIONARY
  5
2A
102
{ACAD_REACTORS
330
C
102
}
330
C
100
AcDbDictionary
281
     1
  3
2dWireframe
350
2F
  3
3D Hidden
350
31
  3
3dWireframe
350
30
  3
Basic
350
32
  3
Brighten
350
36
  3
ColorChange
350
3A
  3
Conceptual
350
34
  3
Dim
350
35
  3
Facepattern
350
39
  3
Flat
350
2B
  3
FlatWithEdges
350
2C
  3
Gouraud
350
2D
  3
GouraudWithEdges
350
2E
  3
Linepattern
350
38
  3
Realistic
350
33
  3
Thicken
350
37
  0
LAYOUT
  5
1E
102
{ACAD_REACTORS
330
1A
102
}
330
1A
100
AcDbPlotSettings
  1

  2
none_device
  4

  6

 40
0.0
 41
0.0
 42
0.0
 43
0.0
 44
0.0
 45
0.0
 46
0.0
 47
0.0
 48
0.0
 49
0.0
140
0.0
141
0.0
142
1.0
143
1.0
 70
   688
 72
     0
 73
     0
 74
     5
  7

 75
    16
 76
     0
 77
     2
 78
   300
147
1.0
148
0.0
149
0.0
100
AcDbLayout
  1
Layout1
 70
     1
 71
     1
 10
0.0
 20
0.0
 11
12.0
 21
9.0
 12
0.0
 22
0.0
 32
0.0
 14
1.000000000000000E+20
 24
1.000000000000000E+20
 34
1.000000000000000E+20
 15
-1.000000000000000E+20
 25
-1.000000000000000E+20
 35
-1.000000000000000E+20
146
0.0
 13
0.0
 23
0.0
 33
0.0
 16
1.0
 26
0.0
 36
0.0
 17
0.0
 27
1.0
 37
0.0
 76
     0
330
1B
  0
LAYOUT
  5
26
102
{ACAD_REACTORS
330
1A
102
}
330
1A
100
AcDbPlotSettings
  1

  2
none_device
  4

  6

 40
0.0
 41
0.0
 42
0.0
 43
0.0
 44
0.0
 45
0.0
 46
0.0
 47
0.0
 48
0.0
 49
0.0
140
0.0
141
0.0
142
1.0
143
1.0
 70
   688
 72
     0
 73
     0
 74
     5
  7

 75
    16
 76
     0
 77
     2
 78
   300
147
1.0
148
0.0
149
0.0
100
AcDbLayout
  1
Layout2
 70
     1
 71
     2
 10
0.0
 20
0.0
 11
0.0
 21
0.0
 12
0.0
 22
0.0
 32
0.0
 14
0.0
 24
0.0
 34
0.0
 15
0.0
 25
0.0
 35
0.0
146
0.0
 13
0.0
 23
0.0
 33
0.0
 16
1.0
 26
0.0
 36
0.0
 17
0.0
 27
1.0
 37
0.0
 76
     0
330
23
  0
LAYOUT
  5
22
102
{ACAD_REACTORS
330
1A
102
}
330
1A
100
AcDbPlotSettings
  1

  2
none_device
  4

  6

 40
0.0
 41
0.0
 42
0.0
 43
0.0
 44
0.0
 45
0.0
 46
0.0
 47
0.0
 48
0.0
 49
0.0
140
0.0
141
0.0
142
1.0
143
1.0
 70
  1712
 72
     0
 73
     0
 74
     0
  7

 75
     0
 76
     0
 77
     2
 78
   300
147
1.0
148
0.0
149
0.0
100
AcDbLayout
  1
Model
 70
     1
 71
     0
 10
0.0
 20
0.0
 11
12.0
 21
9.0
 12
0.0
 22
0.0
 32
0.0
 14
30.0
 24
49.75
 34
0.0
 15
130.5
 25
163.1318914119703
 35
0.0
146
0.0
 13
0.0
 23
0.0
 33
0.0
 16
1.0
 26
0.0
 36
0.0
 17
0.0
 27
1.0
 37
0.0
 76
     0
330
1F
331
29
  0
MLINESTYLE
  5
18
102
{ACAD_REACTORS
330
17
102
}
330
17
100
AcDbMlineStyle
  2
Standard
 70
     0
  3

 62
   256
 51
90.0
 52
90.0
 71
     2
 49
0.5
 62
   256
  6
BYLAYER
 49
-0.5
 62
   256
  6
BYLAYER
  0
ACDBPLACEHOLDER
  5
F
102
{ACAD_REACTORS
330
E
102
}
330
E
  0
VISUALSTYLE
  5
2F
102
{ACAD_REACTORS
330
2A
102
}
330
2A
100
AcDbVisualStyle
  2
2dWireframe
 70
     4
 71
     0
 72
     2
 73
     0
 90
        0
 40
-0.6
 41
-30.0
 62
     5
 63
     7
421
 16777215
 74
     1
 91
        4
 64
     7
 65
   257
 75
     1
175
     1
 42
1.0
 92
        0
 66
   257
 43
1.0
 76
     1
 77
     6
 78
     2
 67
     7
 79
     5
170
     0
171
     0
290
     0
174
     0
 93
        1
 44
0.0
173
     0
291
     0
 45
0.0
1001
ACAD
1000
AcDbSavedByObjectVersion
1070
     0
  0
VISUALSTYLE
  5
31
102
{ACAD_REACTORS
330
2A
102
}
330
2A
100
AcDbVisualStyle
  2
3D Hidden
 70
     6
 71
     1
 72
     2
 73
     2
 90
        0
 40
-0.6
 41
-30.0
 62
     5
 63
     7
421
 16777215
 74
     2
 91
        2
 64
     7
 65
   257
 75
     2
175
     1
 42
40.0
 92
        0
 66
   257
 43
1.0
 76
     1
 77
     6
 78
     2
 67
     7
 79
     3
170
     0
171
     0
290
     0
174
     0
 93
        1
 44
0.0
173
     0
291
     0
 45
0.0
1001
ACAD
1000
AcDbSavedByObjectVersion
1070
     0
  0
VISUALSTYLE
  5
30
102
{ACAD_REACTORS
330
2A
102
}
330
2A
100
AcDbVisualStyle
  2
3dWireframe
 70
     5
 71
     0
 72
     2
 73
     0
 90
        0
 40
-0.6
 41
-30.0
 62
     5
 63
     7
421
 16777215
 74
     1
 91
        4
 64
     7
 65
   257
 75
     1
175
     1
 42
1.0
 92
        0
 66
   257
 43
1.0
 76
     1
 77
     6
 78
     2
 67
     7
 79
     5
170
     0
171
     0
290
     0
174
     0
 93
        1
 44
0.0
173
     0
291
     0
 45
0.0
1001
ACAD
1000
AcDbSavedByObjectVersion
1070
     0
  0
VISUALSTYLE
  5
32
102
{ACAD_REACTORS
330
2A
102
}
330
2A
100
AcDbVisualStyle
  2
Basic
 70
     7
 71
     1
 72
     0
 73
     1
 90
        0
 40
-0.6
 41
-30.0
 62
     5
 63
     7
421
 16777215
 74
     0
 91
        4
 64
     7
 65
   257
 75
     1
175
     1
 42
1.0
 92
        8
 66
     7
 43
1.0
 76
     1
 77
     6
 78
     2
 67
     7
 79
     5
170
     0
171
     0
290
     0
174
     0
 93
        1
 44
0.0
173
     0
291
     1
 45
0.0
1001
ACAD
1000
AcDbSavedByObjectVersion
1070
     0
  0
VISUALSTYLE
  5
36
102
{ACAD_REACTORS
330
2A
102
}
330
2A
100
AcDbVisualStyle
  2
Brighten
 70
    12
 71
     2
 72
     2
 73
     0
 90
        0
 40
-0.6
 41
-30.0
 62
     5
 63
     7
421
 16777215
 74
     1
 91
        4
 64
     7
 65
   257
 75
     1
175
     1
 42
1.0
 92
        8
 66
     7
 43
1.0
 76
     1
 77
     6
 78
     2
 67
     7
 79
     5
170
     0
171
     0
290
     0
174
     0
 93
        1
 44
50.0
173
     0
291
     1
 45
0.0
1001
ACAD
1000
AcDbSavedByObjectVersion
1070
     0
  0
VISUALSTYLE
  5
3A
102
{ACAD_REACTORS
330
2A
102
}
330
2A
100
AcDbVisualStyle
  2
ColorChange
 70
    16
 71
     2
 72
     2
 73
     3
 90
        0
 40
-0.6
 41
-30.0
 62
     5
 63
     8
421
  8421504
 74
     1
 91
        4
 64
     7
 65
   257
 75
     1
175
     1
 42
1.0
 92
        8
 66
     8
424
  8421504
 43
1.0
 76
     1
 77
     6
 78
     2
 67
     7
 79
     5
170
     0
171
     0
290
     0
174
     0
 93
        1
 44
0.0
173
     0
291
     1
 45
0.0
1001
ACAD
1000
AcDbSavedByObjectVersion
1070
     0
  0
VISUALSTYLE
  5
34
102
{ACAD_REACTORS
330
2A
102
}
330
2A
100
AcDbVisualStyle
  2
Conceptual
 70
     9
 71
     3
 72
     2
 73
     0
 90
        0
 40
-0.6
 41
-30.0
 62
     5
 63
     7
421
 16777215
 74
     2
 91
        2
 64
     7
 65
   257
 75
     1
175
     1
 42
40.0
 92
        8
 66
     7
 43
1.0
 76
     1
 77
     6
 78
     2
 67
     7
 79
     3
170
     0
171
     0
290
     0
174
     0
 93
        1
 44
0.0
173
     0
291
     0
 45
0.0
1001
ACAD
1000
AcDbSavedByObjectVersion
1070
     0
  0
VISUALSTYLE
  5
35
102
{ACAD_REACTORS
330
2A
102
}
330
2A
100
AcDbVisualStyle
  2
Dim
 70
    11
 71
     2
 72
     2
 73
     0
 90
        0
 40
-0.6
 41
-30.0
 62
     5
 63
     7
421
 16777215
 74
     1
 91
        4
 64
     7
 65
   257
 75
     1
175
     1
 42
1.0
 92
        8
 66
     7
 43
1.0
 76
     1
 77
     6
 78
     2
 67
     7
 79
     5
170
     0
171
     0
290
     0
174
     0
 93
        1
 44
-50.0
173
     0
291
     1
 45
0.0
1001
ACAD
1000
AcDbSavedByObjectVersion
1070
     0
  0
VISUALSTYLE
  5
39
102
{ACAD_REACTORS
330
2A
102
}
330
2A
100
AcDbVisualStyle
  2
Facepattern
 70
    15
 71
     2
 72
     2
 73
     0
 90
        0
 40
-0.6
 41
-30.0
 62
     5
 63
     7
421
 16777215
 74
     1
 91
        4
 64
     7
 65
   257
 75
     1
175
     1
 42
1.0
 92
        8
 66
     7
 43
1.0
 76
     1
 77
     6
 78
     2
 67
     7
 79
     5
170
     0
171
     0
290
     0
174
     0
 93
        1
 44
0.0
173
     0
291
     1
 45
0.0
1001
ACAD
1000
AcDbSavedByObjectVersion
1070
     0
  0
VISUALSTYLE
  5
2B
102
{ACAD_REACTORS
330
2A
102
}
330
2A
100
AcDbVisualStyle
  2
Flat
 70
     0
 71
     2
 72
     1
 73
     1
 90
        2
 40
-0.6
 41
30.0
 62
     5
 63
     7
421
 16777215
 74
     0
 91
        4
 64
     7
 65
   257
 75
     1
175
     1
 42
1.0
 92
        8
 66
     7
 43
1.0
 76
     1
 77
     6
 78
     2
 67
     7
 79
     5
170
     0
171
     0
290
     0
174
     0
 93
       13
 44
0.0
173
     0
291
     1
 45
0.0
1001
ACAD
1000
AcDbSavedByObjectVersion
1070
     0
  0
VISUALSTYLE
  5
2C
102
{ACAD_REACTORS
330
2A
102
}
330
2A
100
AcDbVisualStyle
  2
FlatWithEdges
 70
     1
 71
     2
 72
     1
 73
     1
 90
        2
 40
-0.6
 41
30.0
 62
     5
 63
     7
421
 16777215
 74
     1
 91
        4
 64
     7
 65
   257
 75
     1
175
     1
 42
1.0
 92
        0
 66
   257
 43
1.0
 76
     1
 77
     6
 78
     2
 67
     7
 79
     5
170
     0
171
     0
290
     0
174
     0
 93
       13
 44
0.0
173
     0
291
     1
 45
0.0
1001
ACAD
1000
AcDbSavedByObjectVersion
1070
     0
  0
VISUALSTYLE
  5
2D
102
{ACAD_REACTORS
330
2A
102
}
330
2A
100
AcDbVisualStyle
  2
Gouraud
 70
     2
 71
     2
 72
     2
 73
     1
 90
        2
 40
-0.6
 41
30.0
 62
     5
 63
     7
421
 16777215
 74
     0
 91
        4
 64
     7
 65
   257
 75
     1
175
     1
 42
1.0
 92
        0
 66
     7
 43
1.0
 76
     1
 77
     6
 78
     2
 67
     7
 79
     5
170
     0
171
     0
290
     0
174
     0
 93
       13
 44
0.0
173
     0
291
     1
 45
0.0
1001
ACAD
1000
AcDbSavedByObjectVersion
1070
     0
  0
VISUALSTYLE
  5
2E
102
{ACAD_REACTORS
330
2A
102
}
330
2A
100
AcDbVisualStyle
  2
GouraudWithEdges
 70
     3
 71
     2
 72
     2
 73
     1
 90
        2
 40
-0.6
 41
30.0
 62
     5
 63
     7
421
 16777215
 74
     1
 91
        4
 64
     7
 65
   257
 75
     1
175
     1
 42
1.0
 92
        0
 66
   257
 43
1.0
 76
     1
 77
     6
 78
     2
 67
     7
 79
     5
170
     0
171
     0
290
     0
174
     0
 93
       13
 44
0.0
173
     0
291
     1
 45
0.0
1001
ACAD
1000
AcDbSavedByObjectVersion
1070
     0
  0
VISUALSTYLE
  5
38
102
{ACAD_REACTORS
330
2A
102
}
330
2A
100
AcDbVisualStyle
  2
Linepattern
 70
    14
 71
     2
 72
     2
 73
     0
 90
        0
 40
-0.6
 41
-30.0
 62
     5
 63
     7
421
 16777215
 74
     1
 91
        4
 64
     7
 65
   257
 75
     7
175
     7
 42
1.0
 92
        8
 66
     7
 43
1.0
 76
     1
 77
     6
 78
     2
 67
     7
 79
     5
170
     0
171
     0
290
     0
174
     0
 93
        1
 44
0.0
173
     0
291
     1
 45
0.0
1001
ACAD
1000
AcDbSavedByObjectVersion
1070
     0
  0
VISUALSTYLE
  5
33
102
{ACAD_REACTORS
330
2A
102
}
330
2A
100
AcDbVisualStyle
  2
Realistic
 70
     8
 71
     2
 72
     2
 73
     0
 90
        0
 40
-0.6
 41
-30.0
 62
     5
 63
     7
421
 16777215
 74
     1
 91
        0
 64
     7
 65
   257
 75
     1
175
     1
 42
1.0
 92
        8
 66
     8
424
  7895160
 43
1.0
 76
     1
 77
     6
 78
     2
 67
     7
 79
     5
170
     0
171
     0
290
     0
174
     0
 93
       13
 44
0.0
173
     0
291
     0
 45
0.0
1001
ACAD
1000
AcDbSavedByObjectVersion
1070
     0
  0
VISUALSTYLE
  5
37
102
{ACAD_REACTORS
330
2A
102
}
330
2A
100
AcDbVisualStyle
  2
Thicken
 70
    13
 71
     2
 72
     2
 73
     0
 90
        0
 40
-0.6
 41
-30.0
 62
     5
 63
     7
421
 16777215
 74
     1
 91
        4
 64
     7
 65
   257
 75
     1
175
     1
 42
1.0
 92
       12
 66
     7
 43
1.0
 76
     1
 77
     6
 78
     2
 67
     7
 79
     5
170
     0
171
     0
290
     0
174
     0
 93
        1
 44
0.0
173
     0
291
     1
 45
0.0
1001
ACAD
1000
AcDbSavedByObjectVersion
1070
     0
  0
ENDSEC
  0
EOF
