  0
SECTION
  2
HEADER
  9
$ACADVER
  1
AC1018
  9
$ACADMAINTVER
 70
     0
  9
$DWGCODEPAGE
  3
ANSI_1252
  9
$INSBASE
 10
0.0
 20
0.0
 30
0.0
  9
$EXTMIN
 10
322
 20
372
 30
0.0
  9
$EXTMAX
 10
6673
 20
1623
 30
0.0
  9
$LIMMIN
 10
0.0
 20
0.0
  9
$LIMMAX
 10
12.0
 20
9.0
  9
$ORTHOMODE
 70
     0
  9
$REGENMODE
 70
     1
  9
$FILLMODE
 70
     1
  9
$QTEXTMODE
 70
     0
  9
$MIRRTEXT
 70
     1
  9
$LTSCALE
 40
1.0
  9
$ATTMODE
 70
     1
  9
$TEXTSIZE
 40
0.2
  9
$TRACEWID
 40
0.05
  9
$TEXTSTYLE
  7
Standard
  9
$CLAYER
  8
0
  9
$CELTYPE
  6
ByLayer
  9
$CECOLOR
 62
   256
  9
$CELTSCALE
 40
1.0
  9
$DISPSILH
 70
     0
  9
$DIMSCALE
 40
1.0
  9
$DIMASZ
 40
0.18
  9
$DIMEXO
 40
0.0625
  9
$DIMDLI
 40
0.38
  9
$DIMRND
 40
0.0
  9
$DIMDLE
 40
0.0
  9
$DIMEXE
 40
0.18
  9
$DIMTP
 40
0.0
  9
$DIMTM
 40
0.0
  9
$DIMTXT
 40
0.18
  9
$DIMCEN
 40
0.09
  9
$DIMTSZ
 40
0.0
  9
$DIMTOL
 70
     0
  9
$DIMLIM
 70
     0
  9
$DIMTIH
 70
     1
  9
$DIMTOH
 70
     1
  9
$DIMSE1
 70
     0
  9
$DIMSE2
 70
     0
  9
$DIMTAD
 70
     0
  9
$DIMZIN
 70
     0
  9
$DIMBLK
  1

  9
$DIMASO
 70
     1
  9
$DIMSHO
 70
     1
  9
$DIMPOST
  1

  9
$DIMAPOST
  1

  9
$DIMALT
 70
     0
  9
$DIMALTD
 70
     2
  9
$DIMALTF
 40
25.4
  9
$DIMLFAC
 40
1.0
  9
$DIMTOFL
 70
     0
  9
$DIMTVP
 40
0.0
  9
$DIMTIX
 70
     0
  9
$DIMSOXD
 70
     0
  9
$DIMSAH
 70
     0
  9
$DIMBLK1
  1

  9
$DIMBLK2
  1

  9
$DIMSTYLE
  2
Standard
  9
$DIMCLRD
 70
     0
  9
$DIMCLRE
 70
     0
  9
$DIMCLRT
 70
     0
  9
$DIMTFAC
 40
1.0
  9
$DIMGAP
 40
0.09
  9
$DIMJUST
 70
     0
  9
$DIMSD1
 70
     0
  9
$DIMSD2
 70
     0
  9
$DIMTOLJ
 70
     1
  9
$DIMTZIN
 70
     0
  9
$DIMALTZ
 70
     0
  9
$DIMALTTZ
 70
     0
  9
$DIMUPT
 70
     0
  9
$DIMDEC
 70
     4
  9
$DIMTDEC
 70
     4
  9
$DIMALTU
 70
     2
  9
$DIMALTTD
 70
     2
  9
$DIMTXSTY
  7
Standard
  9
$DIMAUNIT
 70
     0
  9
$DIMADEC
 70
     0
  9
$DIMALTRND
 40
0.0
  9
$DIMAZIN
 70
     0
  9
$DIMDSEP
 70
    46
  9
$DIMATFIT
 70
     3
  9
$DIMFRAC
 70
     0
  9
$DIMLDRBLK
  1

  9
$DIMLUNIT
 70
     2
  9
$DIMLWD
 70
    -2
  9
$DIMLWE
 70
    -2
  9
$DIMTMOVE
 70
     0
  9
$LUNITS
 70
     2
  9
$LUPREC
 70
     4
  9
$SKETCHINC
 40
0.1
  9
$FILLETRAD
 40
0.5
  9
$AUNITS
 70
     0
  9
$AUPREC
 70
     0
  9
$MENU
  1
.
  9
$ELEVATION
 40
0.0
  9
$PELEVATION
 40
0.0
  9
$THICKNESS
 40
0.0
  9
$LIMCHECK
 70
     0
  9
$CHAMFERA
 40
0.5
  9
$CHAMFERB
 40
0.5
  9
$CHAMFERC
 40
1.0
  9
$CHAMFERD
 40
0.0
  9
$SKPOLY
 70
     0
  9
$TDCREATE
 40
2455343.56230316
  9
$TDUCREATE
 40
2455343.728969826
  9
$TDUPDATE
 40
2455343.562303171
  9
$TDUUPDATE
 40
2455343.728969838
  9
$TDINDWG
 40
0.0000000116
  9
$TDUSRTIMER
 40
0.0000000116
  9
$USRTIMER
 70
     1
  9
$ANGBASE
 50
0.0
  9
$ANGDIR
 70
     0
  9
$PDMODE
 70
     0
  9
$PDSIZE
 40
0.0
  9
$PLINEWID
 40
0.0
  9
$SPLFRAME
 70
     0
  9
$SPLINETYPE
 70
     6
  9
$SPLINESEGS
 70
     8
  9
$HANDSEED
  5
0002002A
  9
$SURFTAB1
 70
     6
  9
$SURFTAB2
 70
     6
  9
$SURFTYPE
 70
     6
  9
$SURFU
 70
     6
  9
$SURFV
 70
     6
  9
$UCSBASE
  2

  9
$UCSNAME
  2

  9
$UCSORG
 10
0.0
 20
0.0
 30
0.0
  9
$UCSXDIR
 10
1.0
 20
0.0
 30
0.0
  9
$UCSYDIR
 10
0.0
 20
1.0
 30
0.0
  9
$UCSORTHOREF
  2

  9
$UCSORTHOVIEW
 70
     0
  9
$UCSORGTOP
 10
0.0
 20
0.0
 30
0.0
  9
$UCSORGBOTTOM
 10
0.0
 20
0.0
 30
0.0
  9
$UCSORGLEFT
 10
0.0
 20
0.0
 30
0.0
  9
$UCSORGRIGHT
 10
0.0
 20
0.0
 30
0.0
  9
$UCSORGFRONT
 10
0.0
 20
0.0
 30
0.0
  9
$UCSORGBACK
 10
0.0
 20
0.0
 30
0.0
  9
$PUCSBASE
  2

  9
$PUCSNAME
  2

  9
$PUCSORG
 10
0.0
 20
0.0
 30
0.0
  9
$PUCSXDIR
 10
1.0
 20
0.0
 30
0.0
  9
$PUCSYDIR
 10
0.0
 20
1.0
 30
0.0
  9
$PUCSORTHOREF
  2

  9
$PUCSORTHOVIEW
 70
     0
  9
$PUCSORGTOP
 10
0.0
 20
0.0
 30
0.0
  9
$PUCSORGBOTTOM
 10
0.0
 20
0.0
 30
0.0
  9
$PUCSORGLEFT
 10
0.0
 20
0.0
 30
0.0
  9
$PUCSORGRIGHT
 10
0.0
 20
0.0
 30
0.0
  9
$PUCSORGFRONT
 10
0.0
 20
0.0
 30
0.0
  9
$PUCSORGBACK
 10
0.0
 20
0.0
 30
0.0
  9
$USERI1
 70
     0
  9
$USERI2
 70
     0
  9
$USERI3
 70
     0
  9
$USERI4
 70
     0
  9
$USERI5
 70
     0
  9
$USERR1
 40
0.0
  9
$USERR2
 40
0.0
  9
$USERR3
 40
0.0
  9
$USERR4
 40
0.0
  9
$USERR5
 40
0.0
  9
$WORLDVIEW
 70
     1
  9
$SHADEDGE
 70
     3
  9
$SHADEDIF
 70
    70
  9
$TILEMODE
 70
     1
  9
$MAXACTVP
 70
    64
  9
$PINSBASE
 10
0.0
 20
0.0
 30
0.0
  9
$PLIMCHECK
 70
     0
  9
$PEXTMIN
 10
1.000000000000000E+20
 20
1.000000000000000E+20
 30
1.000000000000000E+20
  9
$PEXTMAX
 10
-1.000000000000000E+20
 20
-1.000000000000000E+20
 30
-1.000000000000000E+20
  9
$PLIMMIN
 10
0.0
 20
0.0
  9
$PLIMMAX
 10
12.0
 20
9.0
  9
$UNITMODE
 70
     0
  9
$VISRETAIN
 70
     1
  9
$PLINEGEN
 70
     0
  9
$PSLTSCALE
 70
     1
  9
$TREEDEPTH
 70
  3020
  9
$CMLSTYLE
  2
Standard
  9
$CMLJUST
 70
     0
  9
$CMLSCALE
 40
1.0
  9
$PROXYGRAPHICS
 70
     1
  9
$MEASUREMENT
 70
     0
  9
$CELWEIGHT
370
    -1
  9
$ENDCAPS
280
     0
  9
$JOINSTYLE
280
     0
  9
$LWDISPLAY
290
     0
  9
$INSUNITS
 70
     1
  9
$HYPERLINKBASE
  1

  9
$STYLESHEET
  1

  9
$XEDIT
290
     1
  9
$CEPSNTYPE
380
     0
  9
$PSTYLEMODE
290
     1
  9
$FINGERPRINTGUID
  2
{E7F7769E-AACA-40AB-9EF3-61BBAFBCBA26}
  9
$VERSIONGUID
  2
{FAEB1C32-E019-11D5-929B-00C0DF256EC4}
  9
$EXTNAMES
290
     1
  9
$PSVPSCALE
 40
0.0
  9
$OLESTARTUP
290
     0
  9
$SORTENTS
280
   127
  9
$INDEXCTL
280
     0
  9
$HIDETEXT
280
     1
  9
$XCLIPFRAME
290
     0
  9
$HALOGAP
280
     0
  9
$OBSCOLOR
 70
   257
  9
$OBSLTYPE
280
     0
  9
$INTERSECTIONDISPLAY
280
     0
  9
$INTERSECTIONCOLOR
 70
   257
  9
$DIMASSOC
280
     2
  9
$PROJECTNAME
  1

  0
ENDSEC
  0
SECTION
  2
CLASSES
  0
CLASS
  1
ACDBDICTIONARYWDFLT
  2
AcDbDictionaryWithDefault
  3
ObjectDBX Classes
 90
        0
 91
        4
280
     0
281
     0
  0
CLASS
  1
VISUALSTYLE
  2
AcDbVisualStyle
  3
ObjectDBX Classes
 90
     4095
 91
        4
280
     0
281
     0
  0
ENDSEC
  0
SECTION
  2
TABLES
  0
TABLE
  2
VPORT
  5
8
330
0
100
AcDbSymbolTable
 70
     1
  0
VPORT
  5
29
330
8
100
AcDbSymbolTableRecord
100
AcDbViewportTableRecord
  2
*Active
 70
     0
 10
0.0
 20
0.0
 11
1.0
 21
1.0
 12
80.25
 22
106.4409457059851
 13
0.0
 23
0.0
 14
0.5
 24
0.5
 15
0.5
 25
0.5
 16
0.0
 26
0.0
 36
1.0
 17
0.0
 27
0.0
 37
0.0
 40
113.3818914119703
 41
0.8863849310366128
 42
50.0
 43
0.0
 44
0.0
 50
0.0
 51
0.0
 71
     0
 72
  1000
 73
     1
 74
     3
 75
     0
 76
     0
 77
     0
 78
     0
281
     0
 65
     1
110
0.0
120
0.0
130
0.0
111
1.0
121
0.0
131
0.0
112
0.0
122
1.0
132
0.0
 79
     0
146
0.0
  0
ENDTAB
  0
TABLE
  2
LTYPE
  5
5
330
0
100
AcDbSymbolTable
 70
     1
  0
LTYPE
  5
14
330
5
100
AcDbSymbolTableRecord
100
AcDbLinetypeTableRecord
  2
ByBlock
 70
     0
  3

 72
    65
 73
     0
 40
0.0
  0
LTYPE
  5
15
330
5
100
AcDbSymbolTableRecord
100
AcDbLinetypeTableRecord
  2
ByLayer
 70
     0
  3

 72
    65
 73
     0
 40
0.0
  0
LTYPE
  5
16
330
5
100
AcDbSymbolTableRecord
100
AcDbLinetypeTableRecord
  2
Continuous
 70
     0
  3
Solid line
 72
    65
 73
     0
 40
0.0
  0
ENDTAB
  0
TABLE
  2
LAYER
  5
2
330
0
100
AcDbSymbolTable
 70
     1
  0
LAYER
  5
10
330
2
100
AcDbSymbolTableRecord
100
AcDbLayerTableRecord
  2
0
 70
     0
 62
     7
  6
Continuous
370
    -3
390
F
  0
ENDTAB
  0
TABLE
  2
STYLE
  5
3
330
0
100
AcDbSymbolTable
 70
     1
  0
STYLE
  5
11
330
3
100
AcDbSymbolTableRecord
100
AcDbTextStyleTableRecord
  2
Standard
 70
     0
 40
0.0
 41
1.0
 50
0.0
 71
     0
 42
0.2
  3
txt
  4

  0
ENDTAB
  0
TABLE
  2
VIEW
  5
6
330
0
100
AcDbSymbolTable
 70
     0
  0
ENDTAB
  0
TABLE
  2
UCS
  5
7
330
0
100
AcDbSymbolTable
 70
     0
  0
ENDTAB
  0
TABLE
  2
APPID
  5
9
330
0
100
AcDbSymbolTable
 70
     1
  0
APPID
  5
12
330
9
100
AcDbSymbolTableRecord
100
AcDbRegAppTableRecord
  2
ACAD
 70
     0
  0
ENDTAB
  0
TABLE
  2
DIMSTYLE
  5
A
330
0
100
AcDbSymbolTable
 70
     1
100
AcDbDimStyleTable
  0
DIMSTYLE
105
27
330
A
100
AcDbSymbolTableRecord
100
AcDbDimStyleTableRecord
  2
Standard
 70
     0
340
11
  0
ENDTAB
  0
TABLE
  2
BLOCK_RECORD
  5
1
330
0
100
AcDbSymbolTable
 70
     1
  0
BLOCK_RECORD
  5
1F
330
1
100
AcDbSymbolTableRecord
100
AcDbBlockTableRecord
  2
*Model_Space
340
22
  0
BLOCK_RECORD
  5
1B
330
1
100
AcDbSymbolTableRecord
100
AcDbBlockTableRecord
  2
*Paper_Space
340
1E
  0
BLOCK_RECORD
  5
23
330
1
100
AcDbSymbolTableRecord
100
AcDbBlockTableRecord
  2
*Paper_Space0
340
26
  0
ENDTAB
  0
ENDSEC
  0
SECTION
  2
BLOCKS
  0
BLOCK
  5
20
330
1F
100
AcDbEntity
  8
0
100
AcDbBlockBegin
  2
*Model_Space
 70
     0
 10
0.0
 20
0.0
 30
0.0
  3
*Model_Space
  1

  0
ENDBLK
  5
21
330
1F
100
AcDbEntity
  8
0
100
AcDbBlockEnd
  0
BLOCK
  5
1C
330
1B
100
AcDbEntity
 67
     1
  8
0
100
AcDbBlockBegin
  2
*Paper_Space
 70
     0
 10
0.0
 20
0.0
 30
0.0
  3
*Paper_Space
  1

  0
ENDBLK
  5
1D
330
1B
100
AcDbEntity
 67
     1
  8
0
100
AcDbBlockEnd
  0
BLOCK
  5
24
330
23
100
AcDbEntity
  8
0
100
AcDbBlockBegin
  2
*Paper_Space0
 70
     0
 10
0.0
 20
0.0
 30
0.0
  3
*Paper_Space0
  1

  0
ENDBLK
  5
25
330
23
100
AcDbEntity
  8
0
100
AcDbBlockEnd
  0
ENDSEC
  0
SECTION
  2
ENTITIES
  0
HATCH
  5
20000
  8
0
100
AcDbEntity
100
AcDbHatch
 10
0
 20
0
 30
0
210
0
220
0
230
1
  2
SOLID
 70
1
 71
0
 91
5
 92
2
 72
0
 73
1
 93
6
 10
322
 20
372
 10
322
 20
488
 10
342
 20
488
 10
438
 20
488
 10
438
 20
372
 10
322
 20
372
 97
0
 92
2
 72
0
 73
1
 93
5
 10
352
 20
402
 10
372
 20
402
 10
372
 20
422
 10
352
 20
422
 10
352
 20
402
 97
0
 92
2
 72
0
 73
1
 93
5
 10
352
 20
452
 10
372
 20
452
 10
372
 20
472
 10
352
 20
472
 10
352
 20
452
 97
0
 92
2
 72
0
 73
1
 93
5
 10
402
 20
402
 10
422
 20
402
 10
422
 20
422
 10
402
 20
422
 10
402
 20
402
 97
0
 92
2
 72
0
 73
1
 93
5
 10
402
 20
452
 10
422
 20
452
 10
422
 20
472
 10
402
 20
472
 10
402
 20
452
 97
0
 75
0
 76
1
 98
0
  0
HATCH
  5
20001
  8
0
100
AcDbEntity
100
AcDbHatch
 10
0
 20
0
 30
0
210
0
220
0
230
1
  2
SOLID
 70
1
 71
0
 91
5
 92
2
 72
0
 73
1
 93
6
 10
597
 20
488
 10
597
 20
372
 10
486
 20
372
 10
486
 20
392
 10
486
 20
488
 10
597
 20
488
 97
0
 92
2
 72
0
 73
1
 93
5
 10
502
 20
402
 10
522
 20
402
 10
522
 20
422
 10
502
 20
422
 10
502
 20
402
 97
0
 92
2
 72
0
 73
1
 93
5
 10
502
 20
452
 10
522
 20
452
 10
522
 20
472
 10
502
 20
472
 10
502
 20
452
 97
0
 92
2
 72
0
 73
1
 93
5
 10
552
 20
402
 10
572
 20
402
 10
572
 20
422
 10
552
 20
422
 10
552
 20
402
 97
0
 92
2
 72
0
 73
1
 93
5
 10
552
 20
452
 10
572
 20
452
 10
572
 20
472
 10
552
 20
472
 10
552
 20
452
 97
0
 75
0
 76
1
 98
0
  0
HATCH
  5
20002
  8
0
100
AcDbEntity
100
AcDbHatch
 10
0
 20
0
 30
0
210
0
220
0
230
1
  2
SOLID
 70
1
 71
0
 91
5
 92
2
 72
0
 73
1
 93
6
 10
6398
 20
372
 10
6398
 20
488
 10
6418
 20
488
 10
6514
 20
488
 10
6514
 20
372
 10
6398
 20
372
 97
0
 92
2
 72
0
 73
1
 93
5
 10
6428
 20
402
 10
6448
 20
402
 10
6448
 20
422
 10
6428
 20
422
 10
6428
 20
402
 97
0
 92
2
 72
0
 73
1
 93
5
 10
6428
 20
452
 10
6448
 20
452
 10
6448
 20
472
 10
6428
 20
472
 10
6428
 20
452
 97
0
 92
2
 72
0
 73
1
 93
5
 10
6478
 20
402
 10
6498
 20
402
 10
6498
 20
422
 10
6478
 20
422
 10
6478
 20
402
 97
0
 92
2
 72
0
 73
1
 93
5
 10
6478
 20
452
 10
6498
 20
452
 10
6498
 20
472
 10
6478
 20
472
 10
6478
 20
452
 97
0
 75
0
 76
1
 98
0
  0
HATCH
  5
20003
  8
0
100
AcDbEntity
100
AcDbHatch
 10
0
 20
0
 30
0
210
0
220
0
230
1
  2
SOLID
 70
1
 71
0
 91
5
 92
2
 72
0
 73
1
 93
6
 10
6673
 20
488
 10
6673
 20
372
 10
6562
 20
372
 10
6562
 20
392
 10
6562
 20
488
 10
6673
 20
488
 97
0
 92
2
 72
0
 73
1
 93
5
 10
6578
 20
402
 10
6598
 20
402
 10
6598
 20
422
 10
6578
 20
422
 10
6578
 20
402
 97
0
 92
2
 72
0
 73
1
 93
5
 10
6578
 20
452
 10
6598
 20
452
 10
6598
 20
472
 10
6578
 20
472
 10
6578
 20
452
 97
0
 92
2
 72
0
 73
1
 93
5
 10
6628
 20
402
 10
6648
 20
402
 10
6648
 20
422
 10
6628
 20
422
 10
6628
 20
402
 97
0
 92
2
 72
0
 73
1
 93
5
 10
6628
 20
452
 10
6648
 20
452
 10
6648
 20
472
 10
6628
 20
472
 10
6628
 20
452
 97
0
 75
0
 76
1
 98
0
  0
HATCH
  5
20004
  8
0
100
AcDbEntity
100
AcDbHatch
 10
0
 20
0
 30
0
210
0
220
0
230
1
  2
SOLID
 70
1
 71
0
 91
2
 92
2
 72
0
 73
1
 93
5
 10
4962.5
 20
610.372039839146
 10
4962.5
 20
520.372039839146
 10
4782.5
 20
520.372039839146
 10
4782.5
 20
610.372039839146
 10
4962.5
 20
610.372039839146
 97
0
 92
2
 72
0
 73
1
 93
5
 10
4822.5
 20
560.372039839146
 10
4922.5
 20
560.372039839146
 10
4922.5
 20
570.372039839146
 10
4822.5
 20
570.372039839146
 10
4822.5
 20
560.372039839146
 97
0
 75
0
 76
1
 98
0
  0
HATCH
  5
20005
  8
0
100
AcDbEntity
100
AcDbHatch
 10
0
 20
0
 30
0
210
0
220
0
230
1
  2
SOLID
 70
1
 71
0
 91
2
 92
2
 72
0
 73
1
 93
5
 10
2037.5
 20
520.372039839146
 10
2037.5
 20
610.372039839146
 10
2217.5
 20
610.372039839146
 10
2217.5
 20
520.372039839146
 10
2037.5
 20
520.372039839146
 97
0
 92
2
 72
0
 73
1
 93
5
 10
2077.5
 20
560.372039839146
 10
2177.5
 20
560.372039839146
 10
2177.5
 20
570.372039839146
 10
2077.5
 20
570.372039839146
 10
2077.5
 20
560.372039839146
 97
0
 75
0
 76
1
 98
0
  0
HATCH
  5
20006
  8
0
100
AcDbEntity
100
AcDbHatch
 10
0
 20
0
 30
0
210
0
220
0
230
1
  2
SOLID
 70
1
 71
0
 91
2
 92
2
 72
0
 73
1
 93
5
 10
2417.5
 20
610.37203983914
 10
2417.5
 20
520.37203983914
 10
2237.5
 20
520.37203983914
 10
2237.5
 20
610.37203983914
 10
2417.5
 20
610.37203983914
 97
0
 92
2
 72
0
 73
1
 93
5
 10
2377.5
 20
570.37203983914
 10
2277.5
 20
570.37203983914
 10
2277.5
 20
560.37203983914
 10
2377.5
 20
560.37203983914
 10
2377.5
 20
570.37203983914
 97
0
 75
0
 76
1
 98
0
  0
HATCH
  5
20007
  8
0
100
AcDbEntity
100
AcDbHatch
 10
0
 20
0
 30
0
210
0
220
0
230
1
  2
SOLID
 70
1
 71
0
 91
2
 92
2
 72
0
 73
1
 93
5
 10
4582.5
 20
520.37203983914
 10
4582.5
 20
610.37203983914
 10
4762.5
 20
610.37203983914
 10
4762.5
 20
520.37203983914
 10
4582.5
 20
520.37203983914
 97
0
 92
2
 72
0
 73
1
 93
5
 10
4722.5
 20
570.37203983914
 10
4622.5
 20
570.37203983914
 10
4622.5
 20
560.37203983914
 10
4722.5
 20
560.37203983914
 10
4722.5
 20
570.37203983914
 97
0
 75
0
 76
1
 98
0
  0
HATCH
  5
20008
  8
0
100
AcDbEntity
100
AcDbHatch
 10
0
 20
0
 30
0
210
0
220
0
230
1
  2
SOLID
 70
1
 71
0
 91
5
 92
2
 72
0
 73
1
 93
6
 10
322
 20
536
 10
322
 20
647
 10
438
 20
647
 10
438
 20
632
 10
438
 20
536
 10
322
 20
536
 97
0
 92
2
 72
0
 73
1
 93
5
 10
352
 20
552
 10
372
 20
552
 10
372
 20
572
 10
352
 20
572
 10
352
 20
552
 97
0
 92
2
 72
0
 73
1
 93
5
 10
352
 20
602
 10
372
 20
602
 10
372
 20
622
 10
352
 20
622
 10
352
 20
602
 97
0
 92
2
 72
0
 73
1
 93
5
 10
402
 20
552
 10
422
 20
552
 10
422
 20
572
 10
402
 20
572
 10
402
 20
552
 97
0
 92
2
 72
0
 73
1
 93
5
 10
402
 20
602
 10
422
 20
602
 10
422
 20
622
 10
402
 20
622
 10
402
 20
602
 97
0
 75
0
 76
1
 98
0
  0
HATCH
  5
20009
  8
0
100
AcDbEntity
100
AcDbHatch
 10
0
 20
0
 30
0
210
0
220
0
230
1
  2
SOLID
 70
1
 71
0
 91
5
 92
2
 72
0
 73
1
 93
6
 10
486
 20
647
 10
597
 20
647
 10
597
 20
536
 10
582
 20
536
 10
486
 20
536
 10
486
 20
647
 97
0
 92
2
 72
0
 73
1
 93
5
 10
502
 20
552
 10
522
 20
552
 10
522
 20
572
 10
502
 20
572
 10
502
 20
552
 97
0
 92
2
 72
0
 73
1
 93
5
 10
502
 20
602
 10
522
 20
602
 10
522
 20
622
 10
502
 20
622
 10
502
 20
602
 97
0
 92
2
 72
0
 73
1
 93
5
 10
552
 20
552
 10
572
 20
552
 10
572
 20
572
 10
552
 20
572
 10
552
 20
552
 97
0
 92
2
 72
0
 73
1
 93
5
 10
552
 20
602
 10
572
 20
602
 10
572
 20
622
 10
552
 20
622
 10
552
 20
602
 97
0
 75
0
 76
1
 98
0
  0
HATCH
  5
2000A
  8
0
100
AcDbEntity
100
AcDbHatch
 10
0
 20
0
 30
0
210
0
220
0
230
1
  2
SOLID
 70
1
 71
0
 91
5
 92
2
 72
0
 73
1
 93
6
 10
6562
 20
647
 10
6673
 20
647
 10
6673
 20
536
 10
6658
 20
536
 10
6562
 20
536
 10
6562
 20
647
 97
0
 92
2
 72
0
 73
1
 93
5
 10
6578
 20
552
 10
6598
 20
552
 10
6598
 20
572
 10
6578
 20
572
 10
6578
 20
552
 97
0
 92
2
 72
0
 73
1
 93
5
 10
6578
 20
602
 10
6598
 20
602
 10
6598
 20
622
 10
6578
 20
622
 10
6578
 20
602
 97
0
 92
2
 72
0
 73
1
 93
5
 10
6628
 20
552
 10
6648
 20
552
 10
6648
 20
572
 10
6628
 20
572
 10
6628
 20
552
 97
0
 92
2
 72
0
 73
1
 93
5
 10
6628
 20
602
 10
6648
 20
602
 10
6648
 20
622
 10
6628
 20
622
 10
6628
 20
602
 97
0
 75
0
 76
1
 98
0
  0
HATCH
  5
2000B
  8
0
100
AcDbEntity
100
AcDbHatch
 10
0
 20
0
 30
0
210
0
220
0
230
1
  2
SOLID
 70
1
 71
0
 91
5
 92
2
 72
0
 73
1
 93
6
 10
6398
 20
536
 10
6398
 20
647
 10
6514
 20
647
 10
6514
 20
632
 10
6514
 20
536
 10
6398
 20
536
 97
0
 92
2
 72
0
 73
1
 93
5
 10
6428
 20
552
 10
6448
 20
552
 10
6448
 20
572
 10
6428
 20
572
 10
6428
 20
552
 97
0
 92
2
 72
0
 73
1
 93
5
 10
6428
 20
602
 10
6448
 20
602
 10
6448
 20
622
 10
6428
 20
622
 10
6428
 20
602
 97
0
 92
2
 72
0
 73
1
 93
5
 10
6478
 20
552
 10
6498
 20
552
 10
6498
 20
572
 10
6478
 20
572
 10
6478
 20
552
 97
0
 92
2
 72
0
 73
1
 93
5
 10
6478
 20
602
 10
6498
 20
602
 10
6498
 20
622
 10
6478
 20
622
 10
6478
 20
602
 97
0
 75
0
 76
1
 98
0
  0
HATCH
  5
2000C
  8
0
100
AcDbEntity
100
AcDbHatch
 10
0
 20
0
 30
0
210
0
220
0
230
1
  2
SOLID
 70
1
 71
0
 91
2
 92
2
 72
0
 73
1
 93
5
 10
5362.5
 20
1219.73017028469
 10
5362.5
 20
1129.73017028469
 10
5182.5
 20
1129.73017028469
 10
5182.5
 20
1219.73017028469
 10
5362.5
 20
1219.73017028469
 97
0
 92
2
 72
0
 73
1
 93
5
 10
5222.5
 20
1169.73017028469
 10
5322.5
 20
1169.73017028469
 10
5322.5
 20
1179.73017028469
 10
5222.5
 20
1179.73017028469
 10
5222.5
 20
1169.73017028469
 97
0
 75
0
 76
1
 98
0
  0
HATCH
  5
2000D
  8
0
100
AcDbEntity
100
AcDbHatch
 10
0
 20
0
 30
0
210
0
220
0
230
1
  2
SOLID
 70
1
 71
0
 91
2
 92
2
 72
0
 73
1
 93
5
 10
1637.5
 20
1129.73017028469
 10
1637.5
 20
1219.73017028469
 10
1817.5
 20
1219.73017028469
 10
1817.5
 20
1129.73017028469
 10
1637.5
 20
1129.73017028469
 97
0
 92
2
 72
0
 73
1
 93
5
 10
1677.5
 20
1169.73017028469
 10
1777.5
 20
1169.73017028469
 10
1777.5
 20
1179.73017028469
 10
1677.5
 20
1179.73017028469
 10
1677.5
 20
1169.73017028469
 97
0
 75
0
 76
1
 98
0
  0
HATCH
  5
2000E
  8
0
100
AcDbEntity
100
AcDbHatch
 10
0
 20
0
 30
0
210
0
220
0
230
1
  2
SOLID
 70
1
 71
0
 91
2
 92
2
 72
0
 73
1
 93
5
 10
2817.5
 20
1219.73017028469
 10
2817.5
 20
1129.73017028469
 10
2637.5
 20
1129.73017028469
 10
2637.5
 20
1219.73017028469
 10
2817.5
 20
1219.73017028469
 97
0
 92
2
 72
0
 73
1
 93
5
 10
2777.5
 20
1179.73017028469
 10
2677.5
 20
1179.73017028469
 10
2677.5
 20
1169.73017028469
 10
2777.5
 20
1169.73017028469
 10
2777.5
 20
1179.73017028469
 97
0
 75
0
 76
1
 98
0
  0
HATCH
  5
2000F
  8
0
100
AcDbEntity
100
AcDbHatch
 10
0
 20
0
 30
0
210
0
220
0
230
1
  2
SOLID
 70
1
 71
0
 91
2
 92
2
 72
0
 73
1
 93
5
 10
4182.5
 20
1129.73017028469
 10
4182.5
 20
1219.73017028469
 10
4362.5
 20
1219.73017028469
 10
4362.5
 20
1129.73017028469
 10
4182.5
 20
1129.73017028469
 97
0
 92
2
 72
0
 73
1
 93
5
 10
4322.5
 20
1179.73017028469
 10
4222.5
 20
1179.73017028469
 10
4222.5
 20
1169.73017028469
 10
4322.5
 20
1169.73017028469
 10
4322.5
 20
1179.73017028469
 97
0
 75
0
 76
1
 98
0
  0
HATCH
  5
20010
  8
0
100
AcDbEntity
100
AcDbHatch
 10
0
 20
0
 30
0
210
0
220
0
230
1
  2
SOLID
 70
1
 71
0
 91
2
 92
2
 72
0
 73
1
 93
5
 10
2017.5
 20
782.624416624068
 10
2017.5
 20
692.624416624068
 10
1837.5
 20
692.624416624068
 10
1837.5
 20
782.624416624068
 10
2017.5
 20
782.624416624068
 97
0
 92
2
 72
0
 73
1
 93
5
 10
1977.5
 20
742.624416624068
 10
1877.5
 20
742.624416624068
 10
1877.5
 20
732.624416624068
 10
1977.5
 20
732.624416624068
 10
1977.5
 20
742.624416624068
 97
0
 75
0
 76
1
 98
0
  0
HATCH
  5
20011
  8
0
100
AcDbEntity
100
AcDbHatch
 10
0
 20
0
 30
0
210
0
220
0
230
1
  2
SOLID
 70
1
 71
0
 91
2
 92
2
 72
0
 73
1
 93
5
 10
4982.5
 20
692.624416624068
 10
4982.5
 20
782.624416624068
 10
5162.5
 20
782.624416624068
 10
5162.5
 20
692.624416624068
 10
4982.5
 20
692.624416624068
 97
0
 92
2
 72
0
 73
1
 93
5
 10
5122.5
 20
742.624416624068
 10
5022.5
 20
742.624416624068
 10
5022.5
 20
732.624416624068
 10
5122.5
 20
732.624416624068
 10
5122.5
 20
742.624416624068
 97
0
 75
0
 76
1
 98
0
  0
HATCH
  5
20012
  8
0
100
AcDbEntity
100
AcDbHatch
 10
0
 20
0
 30
0
210
0
220
0
230
1
  2
SOLID
 70
1
 71
0
 91
2
 92
2
 72
0
 73
1
 93
5
 10
2437.5
 20
692.624416624072
 10
2437.5
 20
782.624416624072
 10
2617.5
 20
782.624416624072
 10
2617.5
 20
692.624416624072
 10
2437.5
 20
692.624416624072
 97
0
 92
2
 72
0
 73
1
 93
5
 10
2477.5
 20
732.624416624072
 10
2577.5
 20
732.624416624072
 10
2577.5
 20
742.624416624072
 10
2477.5
 20
742.624416624072
 10
2477.5
 20
732.624416624072
 97
0
 75
0
 76
1
 98
0
  0
HATCH
  5
20013
  8
0
100
AcDbEntity
100
AcDbHatch
 10
0
 20
0
 30
0
210
0
220
0
230
1
  2
SOLID
 70
1
 71
0
 91
2
 92
2
 72
0
 73
1
 93
5
 10
4562.5
 20
782.624416624072
 10
4562.5
 20
692.624416624072
 10
4382.5
 20
692.624416624072
 10
4382.5
 20
782.624416624072
 10
4562.5
 20
782.624416624072
 97
0
 92
2
 72
0
 73
1
 93
5
 10
4422.5
 20
732.624416624072
 10
4522.5
 20
732.624416624072
 10
4522.5
 20
742.624416624072
 10
4422.5
 20
742.624416624072
 10
4422.5
 20
732.624416624072
 97
0
 75
0
 76
1
 98
0
  0
HATCH
  5
20014
  8
0
100
AcDbEntity
100
AcDbHatch
 10
0
 20
0
 30
0
210
0
220
0
230
1
  2
SOLID
 70
1
 71
0
 91
2
 92
2
 72
0
 73
1
 93
5
 10
4982.5
 20
1564.23492385454
 10
5162.5
 20
1564.23492385454
 10
5162.5
 20
1474.23492385454
 10
4982.5
 20
1474.23492385454
 10
4982.5
 20
1564.23492385454
 97
0
 92
2
 72
0
 73
1
 93
5
 10
5022.5
 20
1524.23492385454
 10
5022.5
 20
1514.23492385454
 10
5122.5
 20
1514.23492385454
 10
5122.5
 20
1524.23492385454
 10
5022.5
 20
1524.23492385454
 97
0
 75
0
 76
1
 98
0
  0
HATCH
  5
20015
  8
0
100
AcDbEntity
100
AcDbHatch
 10
0
 20
0
 30
0
210
0
220
0
230
1
  2
SOLID
 70
1
 71
0
 91
2
 92
2
 72
0
 73
1
 93
5
 10
2017.5
 20
1564.23492385454
 10
2017.5
 20
1474.23492385454
 10
1837.5
 20
1474.23492385454
 10
1837.5
 20
1564.23492385454
 10
2017.5
 20
1564.23492385454
 97
0
 92
2
 72
0
 73
1
 93
5
 10
1977.5
 20
1524.23492385454
 10
1877.5
 20
1524.23492385454
 10
1877.5
 20
1514.23492385454
 10
1977.5
 20
1514.23492385454
 10
1977.5
 20
1524.23492385454
 97
0
 75
0
 76
1
 98
0
  0
HATCH
  5
20016
  8
0
100
AcDbEntity
100
AcDbHatch
 10
0
 20
0
 30
0
210
0
220
0
230
1
  2
SOLID
 70
1
 71
0
 91
2
 92
2
 72
0
 73
1
 93
5
 10
2437.5
 20
1474.23492385454
 10
2437.5
 20
1564.23492385454
 10
2617.5
 20
1564.23492385454
 10
2617.5
 20
1474.23492385454
 10
2437.5
 20
1474.23492385454
 97
0
 92
2
 72
0
 73
1
 93
5
 10
2477.5
 20
1514.23492385454
 10
2577.5
 20
1514.23492385454
 10
2577.5
 20
1524.23492385454
 10
2477.5
 20
1524.23492385454
 10
2477.5
 20
1514.23492385454
 97
0
 75
0
 76
1
 98
0
  0
HATCH
  5
20017
  8
0
100
AcDbEntity
100
AcDbHatch
 10
0
 20
0
 30
0
210
0
220
0
230
1
  2
SOLID
 70
1
 71
0
 91
5
 92
2
 72
0
 73
1
 93
6
 10
322
 20
1512
 10
322
 20
1623
 10
438
 20
1623
 10
438
 20
1608
 10
438
 20
1512
 10
322
 20
1512
 97
0
 92
2
 72
0
 73
1
 93
5
 10
352
 20
1528
 10
372
 20
1528
 10
372
 20
1548
 10
352
 20
1548
 10
352
 20
1528
 97
0
 92
2
 72
0
 73
1
 93
5
 10
352
 20
1578
 10
372
 20
1578
 10
372
 20
1598
 10
352
 20
1598
 10
352
 20
1578
 97
0
 92
2
 72
0
 73
1
 93
5
 10
402
 20
1528
 10
422
 20
1528
 10
422
 20
1548
 10
402
 20
1548
 10
402
 20
1528
 97
0
 92
2
 72
0
 73
1
 93
5
 10
402
 20
1578
 10
422
 20
1578
 10
422
 20
1598
 10
402
 20
1598
 10
402
 20
1578
 97
0
 75
0
 76
1
 98
0
  0
HATCH
  5
20018
  8
0
100
AcDbEntity
100
AcDbHatch
 10
0
 20
0
 30
0
210
0
220
0
230
1
  2
SOLID
 70
1
 71
0
 91
5
 92
2
 72
0
 73
1
 93
6
 10
6398
 20
1512
 10
6398
 20
1623
 10
6514
 20
1623
 10
6514
 20
1608
 10
6514
 20
1512
 10
6398
 20
1512
 97
0
 92
2
 72
0
 73
1
 93
5
 10
6428
 20
1528
 10
6448
 20
1528
 10
6448
 20
1548
 10
6428
 20
1548
 10
6428
 20
1528
 97
0
 92
2
 72
0
 73
1
 93
5
 10
6428
 20
1578
 10
6448
 20
1578
 10
6448
 20
1598
 10
6428
 20
1598
 10
6428
 20
1578
 97
0
 92
2
 72
0
 73
1
 93
5
 10
6478
 20
1528
 10
6498
 20
1528
 10
6498
 20
1548
 10
6478
 20
1548
 10
6478
 20
1528
 97
0
 92
2
 72
0
 73
1
 93
5
 10
6478
 20
1578
 10
6498
 20
1578
 10
6498
 20
1598
 10
6478
 20
1598
 10
6478
 20
1578
 97
0
 75
0
 76
1
 98
0
  0
HATCH
  5
20019
  8
0
100
AcDbEntity
100
AcDbHatch
 10
0
 20
0
 30
0
210
0
220
0
230
1
  2
SOLID
 70
1
 71
0
 91
2
 92
2
 72
0
 73
1
 93
5
 10
4562.5
 20
1474.23492385454
 10
4382.5
 20
1474.23492385454
 10
4382.5
 20
1564.23492385454
 10
4562.5
 20
1564.23492385454
 10
4562.5
 20
1474.23492385454
 97
0
 92
2
 72
0
 73
1
 93
5
 10
4522.5
 20
1514.23492385454
 10
4522.5
 20
1524.23492385454
 10
4422.5
 20
1524.23492385454
 10
4422.5
 20
1514.23492385454
 10
4522.5
 20
1514.23492385454
 97
0
 75
0
 76
1
 98
0
  0
HATCH
  5
2001A
  8
0
100
AcDbEntity
100
AcDbHatch
 10
0
 20
0
 30
0
210
0
220
0
230
1
  2
SOLID
 70
1
 71
0
 91
5
 92
2
 72
0
 73
1
 93
6
 10
486
 20
1623
 10
597
 20
1623
 10
597
 20
1512
 10
582
 20
1512
 10
486
 20
1512
 10
486
 20
1623
 97
0
 92
2
 72
0
 73
1
 93
5
 10
502
 20
1528
 10
522
 20
1528
 10
522
 20
1548
 10
502
 20
1548
 10
502
 20
1528
 97
0
 92
2
 72
0
 73
1
 93
5
 10
502
 20
1578
 10
522
 20
1578
 10
522
 20
1598
 10
502
 20
1598
 10
502
 20
1578
 97
0
 92
2
 72
0
 73
1
 93
5
 10
552
 20
1528
 10
572
 20
1528
 10
572
 20
1548
 10
552
 20
1548
 10
552
 20
1528
 97
0
 92
2
 72
0
 73
1
 93
5
 10
552
 20
1578
 10
572
 20
1578
 10
572
 20
1598
 10
552
 20
1598
 10
552
 20
1578
 97
0
 75
0
 76
1
 98
0
  0
HATCH
  5
2001B
  8
0
100
AcDbEntity
100
AcDbHatch
 10
0
 20
0
 30
0
210
0
220
0
230
1
  2
SOLID
 70
1
 71
0
 91
5
 92
2
 72
0
 73
1
 93
6
 10
6562
 20
1623
 10
6673
 20
1623
 10
6673
 20
1512
 10
6658
 20
1512
 10
6562
 20
1512
 10
6562
 20
1623
 97
0
 92
2
 72
0
 73
1
 93
5
 10
6578
 20
1528
 10
6598
 20
1528
 10
6598
 20
1548
 10
6578
 20
1548
 10
6578
 20
1528
 97
0
 92
2
 72
0
 73
1
 93
5
 10
6578
 20
1578
 10
6598
 20
1578
 10
6598
 20
1598
 10
6578
 20
1598
 10
6578
 20
1578
 97
0
 92
2
 72
0
 73
1
 93
5
 10
6628
 20
1528
 10
6648
 20
1528
 10
6648
 20
1548
 10
6628
 20
1548
 10
6628
 20
1528
 97
0
 92
2
 72
0
 73
1
 93
5
 10
6628
 20
1578
 10
6648
 20
1578
 10
6648
 20
1598
 10
6628
 20
1598
 10
6628
 20
1578
 97
0
 75
0
 76
1
 98
0
  0
HATCH
  5
2001C
  8
0
100
AcDbEntity
100
AcDbHatch
 10
0
 20
0
 30
0
210
0
220
0
230
1
  2
SOLID
 70
1
 71
0
 91
2
 92
2
 72
0
 73
1
 93
5
 10
4582.5
 20
1391.98254706961
 10
4762.5
 20
1391.98254706961
 10
4762.5
 20
1301.98254706961
 10
4582.5
 20
1301.98254706961
 10
4582.5
 20
1391.98254706961
 97
0
 92
2
 72
0
 73
1
 93
5
 10
4622.5
 20
1351.98254706961
 10
4622.5
 20
1341.98254706961
 10
4722.5
 20
1341.98254706961
 10
4722.5
 20
1351.98254706961
 10
4622.5
 20
1351.98254706961
 97
0
 75
0
 76
1
 98
0
  0
HATCH
  5
2001D
  8
0
100
AcDbEntity
100
AcDbHatch
 10
0
 20
0
 30
0
210
0
220
0
230
1
  2
SOLID
 70
1
 71
0
 91
2
 92
2
 72
0
 73
1
 93
5
 10
2417.5
 20
1391.98254706961
 10
2417.5
 20
1301.98254706961
 10
2237.5
 20
1301.98254706961
 10
2237.5
 20
1391.98254706961
 10
2417.5
 20
1391.98254706961
 97
0
 92
2
 72
0
 73
1
 93
5
 10
2377.5
 20
1351.98254706961
 10
2277.5
 20
1351.98254706961
 10
2277.5
 20
1341.98254706961
 10
2377.5
 20
1341.98254706961
 10
2377.5
 20
1351.98254706961
 97
0
 75
0
 76
1
 98
0
  0
HATCH
  5
2001E
  8
0
100
AcDbEntity
100
AcDbHatch
 10
0
 20
0
 30
0
210
0
220
0
230
1
  2
SOLID
 70
1
 71
0
 91
5
 92
2
 72
0
 73
1
 93
6
 10
597
 20
1464
 10
597
 20
1348
 10
486
 20
1348
 10
486
 20
1368
 10
486
 20
1464
 10
597
 20
1464
 97
0
 92
2
 72
0
 73
1
 93
5
 10
502
 20
1378
 10
522
 20
1378
 10
522
 20
1398
 10
502
 20
1398
 10
502
 20
1378
 97
0
 92
2
 72
0
 73
1
 93
5
 10
502
 20
1428
 10
522
 20
1428
 10
522
 20
1448
 10
502
 20
1448
 10
502
 20
1428
 97
0
 92
2
 72
0
 73
1
 93
5
 10
552
 20
1378
 10
572
 20
1378
 10
572
 20
1398
 10
552
 20
1398
 10
552
 20
1378
 97
0
 92
2
 72
0
 73
1
 93
5
 10
552
 20
1428
 10
572
 20
1428
 10
572
 20
1448
 10
552
 20
1448
 10
552
 20
1428
 97
0
 75
0
 76
1
 98
0
  0
HATCH
  5
2001F
  8
0
100
AcDbEntity
100
AcDbHatch
 10
0
 20
0
 30
0
210
0
220
0
230
1
  2
SOLID
 70
1
 71
0
 91
5
 92
2
 72
0
 73
1
 93
6
 10
322
 20
1348
 10
322
 20
1464
 10
342
 20
1464
 10
438
 20
1464
 10
438
 20
1348
 10
322
 20
1348
 97
0
 92
2
 72
0
 73
1
 93
5
 10
352
 20
1378
 10
372
 20
1378
 10
372
 20
1398
 10
352
 20
1398
 10
352
 20
1378
 97
0
 92
2
 72
0
 73
1
 93
5
 10
352
 20
1428
 10
372
 20
1428
 10
372
 20
1448
 10
352
 20
1448
 10
352
 20
1428
 97
0
 92
2
 72
0
 73
1
 93
5
 10
402
 20
1378
 10
422
 20
1378
 10
422
 20
1398
 10
402
 20
1398
 10
402
 20
1378
 97
0
 92
2
 72
0
 73
1
 93
5
 10
402
 20
1428
 10
422
 20
1428
 10
422
 20
1448
 10
402
 20
1448
 10
402
 20
1428
 97
0
 75
0
 76
1
 98
0
  0
HATCH
  5
20020
  8
0
100
AcDbEntity
100
AcDbHatch
 10
0
 20
0
 30
0
210
0
220
0
230
1
  2
SOLID
 70
1
 71
0
 91
5
 92
2
 72
0
 73
1
 93
6
 10
6398
 20
1348
 10
6398
 20
1464
 10
6418
 20
1464
 10
6514
 20
1464
 10
6514
 20
1348
 10
6398
 20
1348
 97
0
 92
2
 72
0
 73
1
 93
5
 10
6428
 20
1378
 10
6448
 20
1378
 10
6448
 20
1398
 10
6428
 20
1398
 10
6428
 20
1378
 97
0
 92
2
 72
0
 73
1
 93
5
 10
6428
 20
1428
 10
6448
 20
1428
 10
6448
 20
1448
 10
6428
 20
1448
 10
6428
 20
1428
 97
0
 92
2
 72
0
 73
1
 93
5
 10
6478
 20
1378
 10
6498
 20
1378
 10
6498
 20
1398
 10
6478
 20
1398
 10
6478
 20
1378
 97
0
 92
2
 72
0
 73
1
 93
5
 10
6478
 20
1428
 10
6498
 20
1428
 10
6498
 20
1448
 10
6478
 20
1448
 10
6478
 20
1428
 97
0
 75
0
 76
1
 98
0
  0
HATCH
  5
20021
  8
0
100
AcDbEntity
100
AcDbHatch
 10
0
 20
0
 30
0
210
0
220
0
230
1
  2
SOLID
 70
1
 71
0
 91
5
 92
2
 72
0
 73
1
 93
6
 10
6673
 20
1464
 10
6673
 20
1348
 10
6562
 20
1348
 10
6562
 20
1368
 10
6562
 20
1464
 10
6673
 20
1464
 97
0
 92
2
 72
0
 73
1
 93
5
 10
6578
 20
1378
 10
6598
 20
1378
 10
6598
 20
1398
 10
6578
 20
1398
 10
6578
 20
1378
 97
0
 92
2
 72
0
 73
1
 93
5
 10
6578
 20
1428
 10
6598
 20
1428
 10
6598
 20
1448
 10
6578
 20
1448
 10
6578
 20
1428
 97
0
 92
2
 72
0
 73
1
 93
5
 10
6628
 20
1378
 10
6648
 20
1378
 10
6648
 20
1398
 10
6628
 20
1398
 10
6628
 20
1378
 97
0
 92
2
 72
0
 73
1
 93
5
 10
6628
 20
1428
 10
6648
 20
1428
 10
6648
 20
1448
 10
6628
 20
1448
 10
6628
 20
1428
 97
0
 75
0
 76
1
 98
0
  0
HATCH
  5
20022
  8
0
100
AcDbEntity
100
AcDbHatch
 10
0
 20
0
 30
0
210
0
220
0
230
1
  2
SOLID
 70
1
 71
0
 91
2
 92
2
 72
0
 73
1
 93
5
 10
4962.5
 20
1301.98254706962
 10
4782.5
 20
1301.98254706962
 10
4782.5
 20
1391.98254706962
 10
4962.5
 20
1391.98254706962
 10
4962.5
 20
1301.98254706962
 97
0
 92
2
 72
0
 73
1
 93
5
 10
4922.5
 20
1341.98254706962
 10
4922.5
 20
1351.98254706962
 10
4822.5
 20
1351.98254706962
 10
4822.5
 20
1341.98254706962
 10
4922.5
 20
1341.98254706962
 97
0
 75
0
 76
1
 98
0
  0
HATCH
  5
20023
  8
0
100
AcDbEntity
100
AcDbHatch
 10
0
 20
0
 30
0
210
0
220
0
230
1
  2
SOLID
 70
1
 71
0
 91
2
 92
2
 72
0
 73
1
 93
5
 10
2037.5
 20
1301.98254706962
 10
2037.5
 20
1391.98254706962
 10
2217.5
 20
1391.98254706962
 10
2217.5
 20
1301.98254706962
 10
2037.5
 20
1301.98254706962
 97
0
 92
2
 72
0
 73
1
 93
5
 10
2077.5
 20
1341.98254706962
 10
2177.5
 20
1341.98254706962
 10
2177.5
 20
1351.98254706962
 10
2077.5
 20
1351.98254706962
 10
2077.5
 20
1341.98254706962
 97
0
 75
0
 76
1
 98
0
  0
HATCH
  5
20024
  8
0
100
AcDbEntity
100
AcDbHatch
 10
0
 20
0
 30
0
210
0
220
0
230
1
  2
SOLID
 70
1
 71
0
 91
3
 92
2
 72
0
 73
1
 93
9
 10
5669.05994158785
 20
1350.98386984187
 10
5668.69942959041
 20
1296.89259858821
 10
5488.70342731718
 20
1298.0922508945
 10
5489.30325347033
 20
1388.09025203112
 10
5623.58215633521
 20
1387.19529884619
 10
5622.89410106612
 20
1530.76468748811
 10
5712.89306752448
 20
1531.19600689171
 10
5713.75570633168
 20
1351.198073975
 10
5669.05994158785
 20
1350.98386984187
 97
0
 92
2
 72
0
 73
1
 93
5
 10
5629.03355472589
 20
1347.15807750995
 10
5529.0357756852
 20
1347.82455101345
 10
5528.96912833485
 20
1337.82477310938
 10
5628.96690737554
 20
1337.15829960588
 10
5629.03355472589
 20
1347.15807750995
 97
0
 92
2
 72
0
 73
1
 93
5
 10
5673.56446817081
 20
1391.00591711045
 10
5673.08522438903
 20
1491.00476873084
 10
5663.08533922699
 20
1490.95684435266
 10
5663.56458300877
 20
1390.95799273227
 10
5673.56446817081
 20
1391.00591711045
 97
0
 75
0
 76
1
 98
0
  0
HATCH
  5
20025
  8
0
100
AcDbEntity
100
AcDbHatch
 10
0
 20
0
 30
0
210
0
220
0
230
1
  2
SOLID
 70
1
 71
0
 91
3
 92
2
 72
0
 73
1
 93
9
 10
1510.69674652967
 20
1388.09025203113
 10
1511.29657268283
 20
1298.09225089452
 10
1331.3005704096
 20
1296.89259858819
 10
1330.94005841216
 20
1350.98386984187
 10
1286.24429366832
 20
1351.198073975
 10
1287.10693247553
 20
1531.19600689171
 10
1377.10589893388
 20
1530.76468748811
 10
1376.41784366479
 20
1387.19529884618
 10
1510.69674652967
 20
1388.09025203113
 97
0
 92
2
 72
0
 73
1
 93
5
 10
1470.9642243148
 20
1347.82455101346
 10
1370.96644527412
 20
1347.15807750994
 10
1371.03309262447
 20
1337.15829960587
 10
1471.03087166515
 20
1337.82477310939
 10
1470.9642243148
 20
1347.82455101346
 97
0
 92
2
 72
0
 73
1
 93
5
 10
1326.91477561097
 20
1491.00476873084
 10
1326.43553182919
 20
1391.00591711045
 10
1336.43541699123
 20
1390.95799273227
 10
1336.91466077301
 20
1490.95684435266
 10
1326.91477561097
 20
1491.00476873084
 97
0
 75
0
 76
1
 98
0
  0
HATCH
  5
20026
  8
0
100
AcDbEntity
100
AcDbHatch
 10
0
 20
0
 30
0
210
0
220
0
230
1
  2
SOLID
 70
1
 71
0
 91
2
 92
2
 72
0
 73
1
 93
5
 10
1059.22222214249
 20
1558.62086946131
 10
1128.56841399231
 20
1501.25271038394
 10
1013.83209583756
 20
1362.56032668428
 10
944.485903987734
 20
1419.92848576166
 10
1059.22222214249
 20
1558.62086946131
 97
0
 92
2
 72
0
 73
1
 93
5
 10
1064.54579226358
 20
1502.30338016033
 10
1000.80339328871
 20
1425.25205588275
 10
1008.50852571647
 20
1418.87781598526
 10
1072.25092469133
 20
1495.92914026285
 10
1064.54579226358
 20
1502.30338016033
 97
0
 75
0
 76
1
 98
0
  0
HATCH
  5
20027
  8
0
100
AcDbEntity
100
AcDbHatch
 10
0
 20
0
 30
0
210
0
220
0
230
1
  2
SOLID
 70
1
 71
0
 91
2
 92
2
 72
0
 73
1
 93
5
 10
1136.86389567101
 20
1531.9160455719
 10
1226.86286212937
 20
1531.48472616832
 10
1226.00022332219
 20
1351.48679325161
 10
1136.00125686384
 20
1351.91811265519
 10
1136.86389567101
 20
1531.9160455719
 97
0
 92
2
 72
0
 73
1
 93
5
 10
1176.67173880646
 20
1491.72480741104
 10
1176.1924950247
 20
1391.72595579065
 10
1186.19238018674
 20
1391.67803141247
 10
1186.6716239685
 20
1491.67688303286
 10
1176.67173880646
 20
1491.72480741104
 97
0
 75
0
 76
1
 98
0
  0
HATCH
  5
20028
  8
0
100
AcDbEntity
100
AcDbHatch
 10
0
 20
0
 30
0
210
0
220
0
230
1
  2
SOLID
 70
1
 71
0
 91
2
 92
2
 72
0
 73
1
 93
5
 10
6055.51409601226
 20
1419.92848576165
 10
5986.16790416243
 20
1362.56032668428
 10
5871.43158600769
 20
1501.25271038395
 10
5940.77777785752
 20
1558.62086946132
 10
6055.51409601226
 20
1419.92848576165
 97
0
 92
2
 72
0
 73
1
 93
5
 10
5999.19660671128
 20
1425.25205588275
 10
5935.45420773643
 20
1502.30338016034
 10
5927.74907530867
 20
1495.92914026285
 10
5991.49147428352
 20
1418.87781598526
 10
5999.19660671128
 20
1425.25205588275
 97
0
 75
0
 76
1
 98
0
  0
HATCH
  5
20029
  8
0
100
AcDbEntity
100
AcDbHatch
 10
0
 20
0
 30
0
210
0
220
0
230
1
  2
SOLID
 70
1
 71
0
 91
2
 92
2
 72
0
 73
1
 93
5
 10
5863.99874313618
 20
1351.9181126552
 10
5773.99977667782
 20
1351.4867932516
 10
5773.13713787062
 20
1531.48472616831
 10
5863.13610432898
 20
1531.91604557191
 10
5863.99874313618
 20
1351.9181126552
 97
0
 92
2
 72
0
 73
1
 93
5
 10
5823.80750497531
 20
1391.72595579065
 10
5823.32826119353
 20
1491.72480741104
 10
5813.32837603149
 20
1491.67688303286
 10
5813.80761981327
 20
1391.67803141247
 10
5823.80750497531
 20
1391.72595579065
 97
0
 75
0
 76
1
 98
0
  0
ENDSEC
  0
SECTION
  2
OBJECTS
  0
DICTIONARY
  5
C
330
0
100
AcDbDictionary
281
     1
  3
ACAD_GROUP
350
D
  3
ACAD_LAYOUT
350
1A
  3
ACAD_MLEADERSTYLE
350
43
  3
ACAD_MLINESTYLE
350
17
  3
ACAD_PLOTSETTINGS
350
19
  3
ACAD_PLOTSTYLENAME
350
E
  3
ACAD_TABLESTYLE
350
42
  3
ACAD_VISUALSTYLE
350
2A
  0
DICTIONARY
  5
D
102
{ACAD_REACTORS
330
C
102
}
330
C
100
AcDbDictionary
281
     1
  0
DICTIONARY
  5
1A
102
{ACAD_REACTORS
330
C
102
}
330
C
100
AcDbDictionary
281
     1
  3
Layout1
350
1E
  3
Layout2
350
26
  3
Model
350
22
  0
DICTIONARY
  5
43
102
{ACAD_REACTORS
330
C
102
}
330
C
100
AcDbDictionary
281
     1
  0
DICTIONARY
  5
17
102
{ACAD_REACTORS
330
C
102
}
330
C
100
AcDbDictionary
281
     1
  3
Standard
350
18
  0
DICTIONARY
  5
19
102
{ACAD_REACTORS
330
C
102
}
330
C
100
AcDbDictionary
281
     1
  0
ACDBDICTIONARYWDFLT
  5
E
102
{ACAD_REACTORS
330
C
102
}
330
C
100
AcDbDictionary
281
     1
  3
Normal
350
F
100
AcDbDictionaryWithDefault
340
F
  0
DICTIONARY
  5
42
102
{ACAD_REACTORS
330
C
102
}
330
C
100
AcDbDictionary
281
     1
  0
DICTIONARY
  5
2A
102
{ACAD_REACTORS
330
C
102
}
330
C
100
AcDbDictionary
281
     1
  3
2dWireframe
350
2F
  3
3D Hidden
350
31
  3
3dWireframe
350
30
  3
Basic
350
32
  3
Brighten
350
36
  3
ColorChange
350
3A
  3
Conceptual
350
34
  3
Dim
350
35
  3
Facepattern
350
39
  3
Flat
350
2B
  3
FlatWithEdges
350
2C
  3
Gouraud
350
2D
  3
GouraudWithEdges
350
2E
  3
Linepattern
350
38
  3
Realistic
350
33
  3
Thicken
350
37
  0
LAYOUT
  5
1E
102
{ACAD_REACTORS
330
1A
102
}
330
1A
100
AcDbPlotSettings
  1

  2
none_device
  4

  6

 40
0.0
 41
0.0
 42
0.0
 43
0.0
 44
0.0
 45
0.0
 46
0.0
 47
0.0
 48
0.0
 49
0.0
140
0.0
141
0.0
142
1.0
143
1.0
 70
   688
 72
     0
 73
     0
 74
     5
  7

 75
    16
 76
     0
 77
     2
 78
   300
147
1.0
148
0.0
149
0.0
100
AcDbLayout
  1
Layout1
 70
     1
 71
     1
 10
0.0
 20
0.0
 11
12.0
 21
9.0
 12
0.0
 22
0.0
 32
0.0
 14
1.000000000000000E+20
 24
1.000000000000000E+20
 34
1.000000000000000E+20
 15
-1.000000000000000E+20
 25
-1.000000000000000E+20
 35
-1.000000000000000E+20
146
0.0
 13
0.0
 23
0.0
 33
0.0
 16
1.0
 26
0.0
 36
0.0
 17
0.0
 27
1.0
 37
0.0
 76
     0
330
1B
  0
LAYOUT
  5
26
102
{ACAD_REACTORS
330
1A
102
}
330
1A
100
AcDbPlotSettings
  1

  2
none_device
  4

  6

 40
0.0
 41
0.0
 42
0.0
 43
0.0
 44
0.0
 45
0.0
 46
0.0
 47
0.0
 48
0.0
 49
0.0
140
0.0
141
0.0
142
1.0
143
1.0
 70
   688
 72
     0
 73
     0
 74
     5
  7

 75
    16
 76
     0
 77
     2
 78
   300
147
1.0
148
0.0
149
0.0
100
AcDbLayout
  1
Layout2
 70
     1
 71
     2
 10
0.0
 20
0.0
 11
0.0
 21
0.0
 12
0.0
 22
0.0
 32
0.0
 14
0.0
 24
0.0
 34
0.0
 15
0.0
 25
0.0
 35
0.0
146
0.0
 13
0.0
 23
0.0
 33
0.0
 16
1.0
 26
0.0
 36
0.0
 17
0.0
 27
1.0
 37
0.0
 76
     0
330
23
  0
LAYOUT
  5
22
102
{ACAD_REACTORS
330
1A
102
}
330
1A
100
AcDbPlotSettings
  1

  2
none_device
  4

  6

 40
0.0
 41
0.0
 42
0.0
 43
0.0
 44
0.0
 45
0.0
 46
0.0
 47
0.0
 48
0.0
 49
0.0
140
0.0
141
0.0
142
1.0
143
1.0
 70
  1712
 72
     0
 73
     0
 74
     0
  7

 75
     0
 76
     0
 77
     2
 78
   300
147
1.0
148
0.0
149
0.0
100
AcDbLayout
  1
Model
 70
     1
 71
     0
 10
0.0
 20
0.0
 11
12.0
 21
9.0
 12
0.0
 22
0.0
 32
0.0
 14
30.0
 24
49.75
 34
0.0
 15
130.5
 25
163.1318914119703
 35
0.0
146
0.0
 13
0.0
 23
0.0
 33
0.0
 16
1.0
 26
0.0
 36
0.0
 17
0.0
 27
1.0
 37
0.0
 76
     0
330
1F
331
29
  0
MLINESTYLE
  5
18
102
{ACAD_REACTORS
330
17
102
}
330
17
100
AcDbMlineStyle
  2
Standard
 70
     0
  3

 62
   256
 51
90.0
 52
90.0
 71
     2
 49
0.5
 62
   256
  6
BYLAYER
 49
-0.5
 62
   256
  6
BYLAYER
  0
ACDBPLACEHOLDER
  5
F
102
{ACAD_REACTORS
330
E
102
}
330
E
  0
VISUALSTYLE
  5
2F
102
{ACAD_REACTORS
330
2A
102
}
330
2A
100
AcDbVisualStyle
  2
2dWireframe
 70
     4
 71
     0
 72
     2
 73
     0
 90
        0
 40
-0.6
 41
-30.0
 62
     5
 63
     7
421
 16777215
 74
     1
 91
        4
 64
     7
 65
   257
 75
     1
175
     1
 42
1.0
 92
        0
 66
   257
 43
1.0
 76
     1
 77
     6
 78
     2
 67
     7
 79
     5
170
     0
171
     0
290
     0
174
     0
 93
        1
 44
0.0
173
     0
291
     0
 45
0.0
1001
ACAD
1000
AcDbSavedByObjectVersion
1070
     0
  0
VISUALSTYLE
  5
31
102
{ACAD_REACTORS
330
2A
102
}
330
2A
100
AcDbVisualStyle
  2
3D Hidden
 70
     6
 71
     1
 72
     2
 73
     2
 90
        0
 40
-0.6
 41
-30.0
 62
     5
 63
     7
421
 16777215
 74
     2
 91
        2
 64
     7
 65
   257
 75
     2
175
     1
 42
40.0
 92
        0
 66
   257
 43
1.0
 76
     1
 77
     6
 78
     2
 67
     7
 79
     3
170
     0
171
     0
290
     0
174
     0
 93
        1
 44
0.0
173
     0
291
     0
 45
0.0
1001
ACAD
1000
AcDbSavedByObjectVersion
1070
     0
  0
VISUALSTYLE
  5
30
102
{ACAD_REACTORS
330
2A
102
}
330
2A
100
AcDbVisualStyle
  2
3dWireframe
 70
     5
 71
     0
 72
     2
 73
     0
 90
        0
 40
-0.6
 41
-30.0
 62
     5
 63
     7
421
 16777215
 74
     1
 91
        4
 64
     7
 65
   257
 75
     1
175
     1
 42
1.0
 92
        0
 66
   257
 43
1.0
 76
     1
 77
     6
 78
     2
 67
     7
 79
     5
170
     0
171
     0
290
     0
174
     0
 93
        1
 44
0.0
173
     0
291
     0
 45
0.0
1001
ACAD
1000
AcDbSavedByObjectVersion
1070
     0
  0
VISUALSTYLE
  5
32
102
{ACAD_REACTORS
330
2A
102
}
330
2A
100
AcDbVisualStyle
  2
Basic
 70
     7
 71
     1
 72
     0
 73
     1
 90
        0
 40
-0.6
 41
-30.0
 62
     5
 63
     7
421
 16777215
 74
     0
 91
        4
 64
     7
 65
   257
 75
     1
175
     1
 42
1.0
 92
        8
 66
     7
 43
1.0
 76
     1
 77
     6
 78
     2
 67
     7
 79
     5
170
     0
171
     0
290
     0
174
     0
 93
        1
 44
0.0
173
     0
291
     1
 45
0.0
1001
ACAD
1000
AcDbSavedByObjectVersion
1070
     0
  0
VISUALSTYLE
  5
36
102
{ACAD_REACTORS
330
2A
102
}
330
2A
100
AcDbVisualStyle
  2
Brighten
 70
    12
 71
     2
 72
     2
 73
     0
 90
        0
 40
-0.6
 41
-30.0
 62
     5
 63
     7
421
 16777215
 74
     1
 91
        4
 64
     7
 65
   257
 75
     1
175
     1
 42
1.0
 92
        8
 66
     7
 43
1.0
 76
     1
 77
     6
 78
     2
 67
     7
 79
     5
170
     0
171
     0
290
     0
174
     0
 93
        1
 44
50.0
173
     0
291
     1
 45
0.0
1001
ACAD
1000
AcDbSavedByObjectVersion
1070
     0
  0
VISUALSTYLE
  5
3A
102
{ACAD_REACTORS
330
2A
102
}
330
2A
100
AcDbVisualStyle
  2
ColorChange
 70
    16
 71
     2
 72
     2
 73
     3
 90
        0
 40
-0.6
 41
-30.0
 62
     5
 63
     8
421
  8421504
 74
     1
 91
        4
 64
     7
 65
   257
 75
     1
175
     1
 42
1.0
 92
        8
 66
     8
424
  8421504
 43
1.0
 76
     1
 77
     6
 78
     2
 67
     7
 79
     5
170
     0
171
     0
290
     0
174
     0
 93
        1
 44
0.0
173
     0
291
     1
 45
0.0
1001
ACAD
1000
AcDbSavedByObjectVersion
1070
     0
  0
VISUALSTYLE
  5
34
102
{ACAD_REACTORS
330
2A
102
}
330
2A
100
AcDbVisualStyle
  2
Conceptual
 70
     9
 71
     3
 72
     2
 73
     0
 90
        0
 40
-0.6
 41
-30.0
 62
     5
 63
     7
421
 16777215
 74
     2
 91
        2
 64
     7
 65
   257
 75
     1
175
     1
 42
40.0
 92
        8
 66
     7
 43
1.0
 76
     1
 77
     6
 78
     2
 67
     7
 79
     3
170
     0
171
     0
290
     0
174
     0
 93
        1
 44
0.0
173
     0
291
     0
 45
0.0
1001
ACAD
1000
AcDbSavedByObjectVersion
1070
     0
  0
VISUALSTYLE
  5
35
102
{ACAD_REACTORS
330
2A
102
}
330
2A
100
AcDbVisualStyle
  2
Dim
 70
    11
 71
     2
 72
     2
 73
     0
 90
        0
 40
-0.6
 41
-30.0
 62
     5
 63
     7
421
 16777215
 74
     1
 91
        4
 64
     7
 65
   257
 75
     1
175
     1
 42
1.0
 92
        8
 66
     7
 43
1.0
 76
     1
 77
     6
 78
     2
 67
     7
 79
     5
170
     0
171
     0
290
     0
174
     0
 93
        1
 44
-50.0
173
     0
291
     1
 45
0.0
1001
ACAD
1000
AcDbSavedByObjectVersion
1070
     0
  0
VISUALSTYLE
  5
39
102
{ACAD_REACTORS
330
2A
102
}
330
2A
100
AcDbVisualStyle
  2
Facepattern
 70
    15
 71
     2
 72
     2
 73
     0
 90
        0
 40
-0.6
 41
-30.0
 62
     5
 63
     7
421
 16777215
 74
     1
 91
        4
 64
     7
 65
   257
 75
     1
175
     1
 42
1.0
 92
        8
 66
     7
 43
1.0
 76
     1
 77
     6
 78
     2
 67
     7
 79
     5
170
     0
171
     0
290
     0
174
     0
 93
        1
 44
0.0
173
     0
291
     1
 45
0.0
1001
ACAD
1000
AcDbSavedByObjectVersion
1070
     0
  0
VISUALSTYLE
  5
2B
102
{ACAD_REACTORS
330
2A
102
}
330
2A
100
AcDbVisualStyle
  2
Flat
 70
     0
 71
     2
 72
     1
 73
     1
 90
        2
 40
-0.6
 41
30.0
 62
     5
 63
     7
421
 16777215
 74
     0
 91
        4
 64
     7
 65
   257
 75
     1
175
     1
 42
1.0
 92
        8
 66
     7
 43
1.0
 76
     1
 77
     6
 78
     2
 67
     7
 79
     5
170
     0
171
     0
290
     0
174
     0
 93
       13
 44
0.0
173
     0
291
     1
 45
0.0
1001
ACAD
1000
AcDbSavedByObjectVersion
1070
     0
  0
VISUALSTYLE
  5
2C
102
{ACAD_REACTORS
330
2A
102
}
330
2A
100
AcDbVisualStyle
  2
FlatWithEdges
 70
     1
 71
     2
 72
     1
 73
     1
 90
        2
 40
-0.6
 41
30.0
 62
     5
 63
     7
421
 16777215
 74
     1
 91
        4
 64
     7
 65
   257
 75
     1
175
     1
 42
1.0
 92
        0
 66
   257
 43
1.0
 76
     1
 77
     6
 78
     2
 67
     7
 79
     5
170
     0
171
     0
290
     0
174
     0
 93
       13
 44
0.0
173
     0
291
     1
 45
0.0
1001
ACAD
1000
AcDbSavedByObjectVersion
1070
     0
  0
VISUALSTYLE
  5
2D
102
{ACAD_REACTORS
330
2A
102
}
330
2A
100
AcDbVisualStyle
  2
Gouraud
 70
     2
 71
     2
 72
     2
 73
     1
 90
        2
 40
-0.6
 41
30.0
 62
     5
 63
     7
421
 16777215
 74
     0
 91
        4
 64
     7
 65
   257
 75
     1
175
     1
 42
1.0
 92
        0
 66
     7
 43
1.0
 76
     1
 77
     6
 78
     2
 67
     7
 79
     5
170
     0
171
     0
290
     0
174
     0
 93
       13
 44
0.0
173
     0
291
     1
 45
0.0
1001
ACAD
1000
AcDbSavedByObjectVersion
1070
     0
  0
VISUALSTYLE
  5
2E
102
{ACAD_REACTORS
330
2A
102
}
330
2A
100
AcDbVisualStyle
  2
GouraudWithEdges
 70
     3
 71
     2
 72
     2
 73
     1
 90
        2
 40
-0.6
 41
30.0
 62
     5
 63
     7
421
 16777215
 74
     1
 91
        4
 64
     7
 65
   257
 75
     1
175
     1
 42
1.0
 92
        0
 66
   257
 43
1.0
 76
     1
 77
     6
 78
     2
 67
     7
 79
     5
170
     0
171
     0
290
     0
174
     0
 93
       13
 44
0.0
173
     0
291
     1
 45
0.0
1001
ACAD
1000
AcDbSavedByObjectVersion
1070
     0
  0
VISUALSTYLE
  5
38
102
{ACAD_REACTORS
330
2A
102
}
330
2A
100
AcDbVisualStyle
  2
Linepattern
 70
    14
 71
     2
 72
     2
 73
     0
 90
        0
 40
-0.6
 41
-30.0
 62
     5
 63
     7
421
 16777215
 74
     1
 91
        4
 64
     7
 65
   257
 75
     7
175
     7
 42
1.0
 92
        8
 66
     7
 43
1.0
 76
     1
 77
     6
 78
     2
 67
     7
 79
     5
170
     0
171
     0
290
     0
174
     0
 93
        1
 44
0.0
173
     0
291
     1
 45
0.0
1001
ACAD
1000
AcDbSavedByObjectVersion
1070
     0
  0
VISUALSTYLE
  5
33
102
{ACAD_REACTORS
330
2A
102
}
330
2A
100
AcDbVisualStyle
  2
Realistic
 70
     8
 71
     2
 72
     2
 73
     0
 90
        0
 40
-0.6
 41
-30.0
 62
     5
 63
     7
421
 16777215
 74
     1
 91
        0
 64
     7
 65
   257
 75
     1
175
     1
 42
1.0
 92
        8
 66
     8
424
  7895160
 43
1.0
 76
     1
 77
     6
 78
     2
 67
     7
 79
     5
170
     0
171
     0
290
     0
174
     0
 93
       13
 44
0.0
173
     0
291
     0
 45
0.0
1001
ACAD
1000
AcDbSavedByObjectVersion
1070
     0
  0
VISUALSTYLE
  5
37
102
{ACAD_REACTORS
330
2A
102
}
330
2A
100
AcDbVisualStyle
  2
Thicken
 70
    13
 71
     2
 72
     2
 73
     0
 90
        0
 40
-0.6
 41
-30.0
 62
     5
 63
     7
421
 16777215
 74
     1
 91
        4
 64
     7
 65
   257
 75
     1
175
     1
 42
1.0
 92
       12
 66
     7
 43
1.0
 76
     1
 77
     6
 78
     2
 67
     7
 79
     5
170
     0
171
     0
290
     0
174
     0
 93
        1
 44
0.0
173
     0
291
     1
 45
0.0
1001
ACAD
1000
AcDbSavedByObjectVersion
1070
     0
  0
ENDSEC
  0
EOF
