  0
SECTION
  2
HEADER
  9
$ACADVER
  1
AC1018
  9
$ACADMAINTVER
 70
     0
  9
$DWGCODEPAGE
  3
ANSI_1252
  9
$INSBASE
 10
0.0
 20
0.0
 30
0.0
  9
$EXTMIN
 10
1259.5
 20
1017.25
 30
0.0
  9
$EXTMAX
 10
5740.5
 20
1147.25
 30
0.0
  9
$LIMMIN
 10
0.0
 20
0.0
  9
$LIMMAX
 10
12.0
 20
9.0
  9
$ORTHOMODE
 70
     0
  9
$REGENMODE
 70
     1
  9
$FILLMODE
 70
     1
  9
$QTEXTMODE
 70
     0
  9
$MIRRTEXT
 70
     1
  9
$LTSCALE
 40
1.0
  9
$ATTMODE
 70
     1
  9
$TEXTSIZE
 40
0.2
  9
$TRACEWID
 40
0.05
  9
$TEXTSTYLE
  7
Standard
  9
$CLAYER
  8
0
  9
$CELTYPE
  6
ByLayer
  9
$CECOLOR
 62
   256
  9
$CELTSCALE
 40
1.0
  9
$DISPSILH
 70
     0
  9
$DIMSCALE
 40
1.0
  9
$DIMASZ
 40
0.18
  9
$DIMEXO
 40
0.0625
  9
$DIMDLI
 40
0.38
  9
$DIMRND
 40
0.0
  9
$DIMDLE
 40
0.0
  9
$DIMEXE
 40
0.18
  9
$DIMTP
 40
0.0
  9
$DIMTM
 40
0.0
  9
$DIMTXT
 40
0.18
  9
$DIMCEN
 40
0.09
  9
$DIMTSZ
 40
0.0
  9
$DIMTOL
 70
     0
  9
$DIMLIM
 70
     0
  9
$DIMTIH
 70
     1
  9
$DIMTOH
 70
     1
  9
$DIMSE1
 70
     0
  9
$DIMSE2
 70
     0
  9
$DIMTAD
 70
     0
  9
$DIMZIN
 70
     0
  9
$DIMBLK
  1

  9
$DIMASO
 70
     1
  9
$DIMSHO
 70
     1
  9
$DIMPOST
  1

  9
$DIMAPOST
  1

  9
$DIMALT
 70
     0
  9
$DIMALTD
 70
     2
  9
$DIMALTF
 40
25.4
  9
$DIMLFAC
 40
1.0
  9
$DIMTOFL
 70
     0
  9
$DIMTVP
 40
0.0
  9
$DIMTIX
 70
     0
  9
$DIMSOXD
 70
     0
  9
$DIMSAH
 70
     0
  9
$DIMBLK1
  1

  9
$DIMBLK2
  1

  9
$DIMSTYLE
  2
Standard
  9
$DIMCLRD
 70
     0
  9
$DIMCLRE
 70
     0
  9
$DIMCLRT
 70
     0
  9
$DIMTFAC
 40
1.0
  9
$DIMGAP
 40
0.09
  9
$DIMJUST
 70
     0
  9
$DIMSD1
 70
     0
  9
$DIMSD2
 70
     0
  9
$DIMTOLJ
 70
     1
  9
$DIMTZIN
 70
     0
  9
$DIMALTZ
 70
     0
  9
$DIMALTTZ
 70
     0
  9
$DIMUPT
 70
     0
  9
$DIMDEC
 70
     4
  9
$DIMTDEC
 70
     4
  9
$DIMALTU
 70
     2
  9
$DIMALTTD
 70
     2
  9
$DIMTXSTY
  7
Standard
  9
$DIMAUNIT
 70
     0
  9
$DIMADEC
 70
     0
  9
$DIMALTRND
 40
0.0
  9
$DIMAZIN
 70
     0
  9
$DIMDSEP
 70
    46
  9
$DIMATFIT
 70
     3
  9
$DIMFRAC
 70
     0
  9
$DIMLDRBLK
  1

  9
$DIMLUNIT
 70
     2
  9
$DIMLWD
 70
    -2
  9
$DIMLWE
 70
    -2
  9
$DIMTMOVE
 70
     0
  9
$LUNITS
 70
     2
  9
$LUPREC
 70
     4
  9
$SKETCHINC
 40
0.1
  9
$FILLETRAD
 40
0.5
  9
$AUNITS
 70
     0
  9
$AUPREC
 70
     0
  9
$MENU
  1
.
  9
$ELEVATION
 40
0.0
  9
$PELEVATION
 40
0.0
  9
$THICKNESS
 40
0.0
  9
$LIMCHECK
 70
     0
  9
$CHAMFERA
 40
0.5
  9
$CHAMFERB
 40
0.5
  9
$CHAMFERC
 40
1.0
  9
$CHAMFERD
 40
0.0
  9
$SKPOLY
 70
     0
  9
$TDCREATE
 40
2455343.56230316
  9
$TDUCREATE
 40
2455343.728969826
  9
$TDUPDATE
 40
2455343.562303171
  9
$TDUUPDATE
 40
2455343.728969838
  9
$TDINDWG
 40
0.0000000116
  9
$TDUSRTIMER
 40
0.0000000116
  9
$USRTIMER
 70
     1
  9
$ANGBASE
 50
0.0
  9
$ANGDIR
 70
     0
  9
$PDMODE
 70
     0
  9
$PDSIZE
 40
0.0
  9
$PLINEWID
 40
0.0
  9
$SPLFRAME
 70
     0
  9
$SPLINETYPE
 70
     6
  9
$SPLINESEGS
 70
     8
  9
$HANDSEED
  5
00020004
  9
$SURFTAB1
 70
     6
  9
$SURFTAB2
 70
     6
  9
$SURFTYPE
 70
     6
  9
$SURFU
 70
     6
  9
$SURFV
 70
     6
  9
$UCSBASE
  2

  9
$UCSNAME
  2

  9
$UCSORG
 10
0.0
 20
0.0
 30
0.0
  9
$UCSXDIR
 10
1.0
 20
0.0
 30
0.0
  9
$UCSYDIR
 10
0.0
 20
1.0
 30
0.0
  9
$UCSORTHOREF
  2

  9
$UCSORTHOVIEW
 70
     0
  9
$UCSORGTOP
 10
0.0
 20
0.0
 30
0.0
  9
$UCSORGBOTTOM
 10
0.0
 20
0.0
 30
0.0
  9
$UCSORGLEFT
 10
0.0
 20
0.0
 30
0.0
  9
$UCSORGRIGHT
 10
0.0
 20
0.0
 30
0.0
  9
$UCSORGFRONT
 10
0.0
 20
0.0
 30
0.0
  9
$UCSORGBACK
 10
0.0
 20
0.0
 30
0.0
  9
$PUCSBASE
  2

  9
$PUCSNAME
  2

  9
$PUCSORG
 10
0.0
 20
0.0
 30
0.0
  9
$PUCSXDIR
 10
1.0
 20
0.0
 30
0.0
  9
$PUCSYDIR
 10
0.0
 20
1.0
 30
0.0
  9
$PUCSORTHOREF
  2

  9
$PUCSORTHOVIEW
 70
     0
  9
$PUCSORGTOP
 10
0.0
 20
0.0
 30
0.0
  9
$PUCSORGBOTTOM
 10
0.0
 20
0.0
 30
0.0
  9
$PUCSORGLEFT
 10
0.0
 20
0.0
 30
0.0
  9
$PUCSORGRIGHT
 10
0.0
 20
0.0
 30
0.0
  9
$PUCSORGFRONT
 10
0.0
 20
0.0
 30
0.0
  9
$PUCSORGBACK
 10
0.0
 20
0.0
 30
0.0
  9
$USERI1
 70
     0
  9
$USERI2
 70
     0
  9
$USERI3
 70
     0
  9
$USERI4
 70
     0
  9
$USERI5
 70
     0
  9
$USERR1
 40
0.0
  9
$USERR2
 40
0.0
  9
$USERR3
 40
0.0
  9
$USERR4
 40
0.0
  9
$USERR5
 40
0.0
  9
$WORLDVIEW
 70
     1
  9
$SHADEDGE
 70
     3
  9
$SHADEDIF
 70
    70
  9
$TILEMODE
 70
     1
  9
$MAXACTVP
 70
    64
  9
$PINSBASE
 10
0.0
 20
0.0
 30
0.0
  9
$PLIMCHECK
 70
     0
  9
$PEXTMIN
 10
1.000000000000000E+20
 20
1.000000000000000E+20
 30
1.000000000000000E+20
  9
$PEXTMAX
 10
-1.000000000000000E+20
 20
-1.000000000000000E+20
 30
-1.000000000000000E+20
  9
$PLIMMIN
 10
0.0
 20
0.0
  9
$PLIMMAX
 10
12.0
 20
9.0
  9
$UNITMODE
 70
     0
  9
$VISRETAIN
 70
     1
  9
$PLINEGEN
 70
     0
  9
$PSLTSCALE
 70
     1
  9
$TREEDEPTH
 70
  3020
  9
$CMLSTYLE
  2
Standard
  9
$CMLJUST
 70
     0
  9
$CMLSCALE
 40
1.0
  9
$PROXYGRAPHICS
 70
     1
  9
$MEASUREMENT
 70
     0
  9
$CELWEIGHT
370
    -1
  9
$ENDCAPS
280
     0
  9
$JOINSTYLE
280
     0
  9
$LWDISPLAY
290
     0
  9
$INSUNITS
 70
     1
  9
$HYPERLINKBASE
  1

  9
$STYLESHEET
  1

  9
$XEDIT
290
     1
  9
$CEPSNTYPE
380
     0
  9
$PSTYLEMODE
290
     1
  9
$FINGERPRINTGUID
  2
{E7F7769E-AACA-40AB-9EF3-61BBAFBCBA26}
  9
$VERSIONGUID
  2
{FAEB1C32-E019-11D5-929B-00C0DF256EC4}
  9
$EXTNAMES
290
     1
  9
$PSVPSCALE
 40
0.0
  9
$OLESTARTUP
290
     0
  9
$SORTENTS
280
   127
  9
$INDEXCTL
280
     0
  9
$HIDETEXT
280
     1
  9
$XCLIPFRAME
290
     0
  9
$HALOGAP
280
     0
  9
$OBSCOLOR
 70
   257
  9
$OBSLTYPE
280
     0
  9
$INTERSECTIONDISPLAY
280
     0
  9
$INTERSECTIONCOLOR
 70
   257
  9
$DIMASSOC
280
     2
  9
$PROJECTNAME
  1

  0
ENDSEC
  0
SECTION
  2
CLASSES
  0
CLASS
  1
ACDBDICTIONARYWDFLT
  2
AcDbDictionaryWithDefault
  3
ObjectDBX Classes
 90
        0
 91
        4
280
     0
281
     0
  0
CLASS
  1
VISUALSTYLE
  2
AcDbVisualStyle
  3
ObjectDBX Classes
 90
     4095
 91
        4
280
     0
281
     0
  0
ENDSEC
  0
SECTION
  2
TABLES
  0
TABLE
  2
VPORT
  5
8
330
0
100
AcDbSymbolTable
 70
     1
  0
VPORT
  5
29
330
8
100
AcDbSymbolTableRecord
100
AcDbViewportTableRecord
  2
*Active
 70
     0
 10
0.0
 20
0.0
 11
1.0
 21
1.0
 12
80.25
 22
106.4409457059851
 13
0.0
 23
0.0
 14
0.5
 24
0.5
 15
0.5
 25
0.5
 16
0.0
 26
0.0
 36
1.0
 17
0.0
 27
0.0
 37
0.0
 40
113.3818914119703
 41
0.8863849310366128
 42
50.0
 43
0.0
 44
0.0
 50
0.0
 51
0.0
 71
     0
 72
  1000
 73
     1
 74
     3
 75
     0
 76
     0
 77
     0
 78
     0
281
     0
 65
     1
110
0.0
120
0.0
130
0.0
111
1.0
121
0.0
131
0.0
112
0.0
122
1.0
132
0.0
 79
     0
146
0.0
  0
ENDTAB
  0
TABLE
  2
LTYPE
  5
5
330
0
100
AcDbSymbolTable
 70
     1
  0
LTYPE
  5
14
330
5
100
AcDbSymbolTableRecord
100
AcDbLinetypeTableRecord
  2
ByBlock
 70
     0
  3

 72
    65
 73
     0
 40
0.0
  0
LTYPE
  5
15
330
5
100
AcDbSymbolTableRecord
100
AcDbLinetypeTableRecord
  2
ByLayer
 70
     0
  3

 72
    65
 73
     0
 40
0.0
  0
LTYPE
  5
16
330
5
100
AcDbSymbolTableRecord
100
AcDbLinetypeTableRecord
  2
Continuous
 70
     0
  3
Solid line
 72
    65
 73
     0
 40
0.0
  0
ENDTAB
  0
TABLE
  2
LAYER
  5
2
330
0
100
AcDbSymbolTable
 70
     1
  0
LAYER
  5
10
330
2
100
AcDbSymbolTableRecord
100
AcDbLayerTableRecord
  2
0
 70
     0
 62
     7
  6
Continuous
370
    -3
390
F
  0
ENDTAB
  0
TABLE
  2
STYLE
  5
3
330
0
100
AcDbSymbolTable
 70
     1
  0
STYLE
  5
11
330
3
100
AcDbSymbolTableRecord
100
AcDbTextStyleTableRecord
  2
Standard
 70
     0
 40
0.0
 41
1.0
 50
0.0
 71
     0
 42
0.2
  3
txt
  4

  0
ENDTAB
  0
TABLE
  2
VIEW
  5
6
330
0
100
AcDbSymbolTable
 70
     0
  0
ENDTAB
  0
TABLE
  2
UCS
  5
7
330
0
100
AcDbSymbolTable
 70
     0
  0
ENDTAB
  0
TABLE
  2
APPID
  5
9
330
0
100
AcDbSymbolTable
 70
     1
  0
APPID
  5
12
330
9
100
AcDbSymbolTableRecord
100
AcDbRegAppTableRecord
  2
ACAD
 70
     0
  0
ENDTAB
  0
TABLE
  2
DIMSTYLE
  5
A
330
0
100
AcDbSymbolTable
 70
     1
100
AcDbDimStyleTable
  0
DIMSTYLE
105
27
330
A
100
AcDbSymbolTableRecord
100
AcDbDimStyleTableRecord
  2
Standard
 70
     0
340
11
  0
ENDTAB
  0
TABLE
  2
BLOCK_RECORD
  5
1
330
0
100
AcDbSymbolTable
 70
     1
  0
BLOCK_RECORD
  5
1F
330
1
100
AcDbSymbolTableRecord
100
AcDbBlockTableRecord
  2
*Model_Space
340
22
  0
BLOCK_RECORD
  5
1B
330
1
100
AcDbSymbolTableRecord
100
AcDbBlockTableRecord
  2
*Paper_Space
340
1E
  0
BLOCK_RECORD
  5
23
330
1
100
AcDbSymbolTableRecord
100
AcDbBlockTableRecord
  2
*Paper_Space0
340
26
  0
ENDTAB
  0
ENDSEC
  0
SECTION
  2
BLOCKS
  0
BLOCK
  5
20
330
1F
100
AcDbEntity
  8
0
100
AcDbBlockBegin
  2
*Model_Space
 70
     0
 10
0.0
 20
0.0
 30
0.0
  3
*Model_Space
  1

  0
ENDBLK
  5
21
330
1F
100
AcDbEntity
  8
0
100
AcDbBlockEnd
  0
BLOCK
  5
1C
330
1B
100
AcDbEntity
 67
     1
  8
0
100
AcDbBlockBegin
  2
*Paper_Space
 70
     0
 10
0.0
 20
0.0
 30
0.0
  3
*Paper_Space
  1

  0
ENDBLK
  5
1D
330
1B
100
AcDbEntity
 67
     1
  8
0
100
AcDbBlockEnd
  0
BLOCK
  5
24
330
23
100
AcDbEntity
  8
0
100
AcDbBlockBegin
  2
*Paper_Space0
 70
     0
 10
0.0
 20
0.0
 30
0.0
  3
*Paper_Space0
  1

  0
ENDBLK
  5
25
330
23
100
AcDbEntity
  8
0
100
AcDbBlockEnd
  0
ENDSEC
  0
SECTION
  2
ENTITIES
  0
HATCH
  5
20000
  8
0
100
AcDbEntity
100
AcDbHatch
 10
0
 20
0
 30
0
210
0
220
0
230
1
  2
SOLID
 70
1
 71
0
 91
1
 92
2
 72
0
 73
1
 93
683
 10
1259.5
 20
1017.25
 10
1259.5
 20
1022.8715379759
 10
1264.71291839961
 20
1022.8715379759
 10
1264.84376098951
 20
1022.87439297137
 10
1265.47555454031
 20
1022.90197767352
 10
1265.73615082177
 20
1022.92477689391
 10
1266.29822810751
 20
1022.99877577241
 10
1266.55584565845
 20
1023.04420069735
 10
1267.1093346432
 20
1023.1669062511
 10
1267.36201283851
 20
1023.23461116948
 10
1267.96513909985
 20
1023.42477614922
 10
1268.08906738202
 20
1023.46684413239
 10
1273.18768618384
 20
1025.32258961212
 10
1273.30966153409
 20
1025.37002323165
 10
1273.89391874786
 20
1025.61203049351
 10
1274.13100135793
 20
1025.72258393019
 10
1274.63387212861
 20
1025.9843618841
 10
1274.86041720088
 20
1026.11515774256
 10
1275.33855894445
 20
1026.41976762784
 10
1275.55284233414
 20
1026.56981047261
 10
1276.05455537769
 20
1026.95478843115
 10
1276.15662177232
 20
1027.03670537334
 10
1280.31305390163
 20
1030.52436604006
 10
1280.41144998483
 20
1030.61065708908
 10
1280.87770081887
 20
1031.03789726322
 10
1281.0626740958
 20
1031.22287054015
 10
1281.44568471491
 20
1031.64085328478
 10
1281.61383262934
 20
1031.84124416589
 10
1281.95895618084
 20
1032.29101793498
 10
1282.10899902561
 20
1032.50530132466
 10
1282.44878485384
 20
1033.03865823853
 10
1282.51667864738
 20
1033.15054374754
 10
1285.229597047
 20
1037.84945625246
 10
1285.29254584334
 20
1037.96419675694
 10
1285.58455356593
 20
1038.52513837296
 10
1285.69510700262
 20
1038.76222098303
 10
1285.91206073685
 20
1039.28599363062
 10
1286.00153037336
 20
1039.53180943666
 10
1286.172008739
 20
1040.07249773504
 10
1286.23971365738
 20
1040.32517593036
 10
1286.37658908468
 20
1040.94258108424
 10
1286.40212128365
 20
1041.07094011643
 10
1287.34430795616
 20
1046.41434626288
 10
1287.36421691178
 20
1046.5436968246
 10
1287.446761082
 20
1047.170682045
 10
1287.46956030238
 20
1047.43127832645
 10
1287.49714500453
 20
1048.06307187726
 10
1287.5
 20
1048.19391446716
 10
1287.5
 20
1115.01546369125
 10
1287.52283181145
 20
1115.53839814774
 10
1287.59115348193
 20
1116.05735275725
 10
1287.8459994085
 20
1117.50265582744
 10
1287.95929096884
 20
1118.01368103205
 10
1288.11669020186
 20
1118.51288762139
 10
1288.31699920435
 20
1118.99647633188
 10
1288.55869350387
 20
1119.46076676144
 10
1288.60399614556
 20
1119.53923323856
 10
1288.88523630253
 20
1119.98069185667
 10
1289.20388190955
 20
1120.39595889668
 10
1289.55750788115
 20
1120.78187392568
 10
1289.94342291015
 20
1121.13549989728
 10
1290.012830584
 20
1121.1937398508
 10
1290.42809762401
 20
1121.51238545782
 10
1290.86955624211
 20
1121.7936256148
 10
1291.33384667167
 20
1122.03531991431
 10
1291.81743538216
 20
1122.23562891681
 10
1291.90257649836
 20
1122.26661774881
 10
1292.4017830877
 20
1122.42401698183
 10
1292.91280829231
 20
1122.53730854217
 10
1293.43176290182
 20
1122.60563021265
 10
1293.95469735831
 20
1122.6284620241
 10
1294.04530264169
 20
1122.6284620241
 10
1294.56823709818
 20
1122.60563021265
 10
1295.08719170769
 20
1122.53730854217
 10
1295.5982169123
 20
1122.42401698183
 10
1296.09742350164
 20
1122.26661774881
 10
1296.18256461784
 20
1122.23562891681
 10
1296.66615332833
 20
1122.03531991431
 10
1297.13044375789
 20
1121.7936256148
 10
1297.57190237599
 20
1121.51238545782
 10
1297.987169416
 20
1121.1937398508
 10
1298.05657708985
 20
1121.13549989728
 10
1298.44249211885
 20
1120.78187392568
 10
1298.79611809045
 20
1120.39595889668
 10
1299.11476369747
 20
1119.98069185667
 10
1299.39600385444
 20
1119.53923323856
 10
1299.44130649613
 20
1119.46076676144
 10
1299.68300079565
 20
1118.99647633188
 10
1299.88330979814
 20
1118.51288762139
 10
1300.04070903116
 20
1118.01368103205
 10
1300.1540005915
 20
1117.50265582744
 10
1300.40884651807
 20
1116.05735275725
 10
1300.47716818855
 20
1115.53839814774
 10
1300.5
 20
1115.01546369125
 10
1300.5
 20
1048.19391446716
 10
1300.50285499547
 20
1048.06307187726
 10
1300.53043969762
 20
1047.43127832645
 10
1300.553238918
 20
1047.170682045
 10
1300.63578308822
 20
1046.5436968246
 10
1300.65569204385
 20
1046.41434626288
 10
1301.59787871635
 20
1041.07094011643
 10
1301.62341091532
 20
1040.94258108424
 10
1301.76028634262
 20
1040.32517593036
 10
1301.827991261
 20
1040.07249773504
 10
1301.99846962664
 20
1039.53180943666
 10
1302.08793926315
 20
1039.28599363062
 10
1302.30489299738
 20
1038.76222098303
 10
1302.41544643407
 20
1038.52513837296
 10
1302.70745415666
 20
1037.96419675694
 10
1302.770402953
 20
1037.84945625246
 10
1305.48332135262
 20
1033.15054374754
 10
1305.55121514616
 20
1033.03865823853
 10
1305.89100097439
 20
1032.50530132466
 10
1306.04104381916
 20
1032.29101793498
 10
1306.38616737066
 20
1031.84124416589
 10
1306.55431528509
 20
1031.64085328478
 10
1306.9373259042
 20
1031.22287054015
 10
1307.12229918113
 20
1031.03789726322
 10
1307.58855001517
 20
1030.61065708908
 10
1307.68694609837
 20
1030.52436604006
 10
1311.84337822768
 20
1027.03670537334
 10
1311.94544462231
 20
1026.95478843115
 10
1312.44715766586
 20
1026.56981047261
 10
1312.66144105555
 20
1026.41976762784
 10
1313.13958279912
 20
1026.11515774256
 10
1313.36612787139
 20
1025.9843618841
 10
1313.86899864207
 20
1025.72258393019
 10
1314.10608125214
 20
1025.61203049351
 10
1314.69033846591
 20
1025.37002323165
 10
1314.81231381616
 20
1025.32258961212
 10
1319.91093261798
 20
1023.46684413239
 10
1320.03486090015
 20
1023.42477614922
 10
1320.63798716149
 20
1023.23461116948
 10
1320.8906653568
 20
1023.1669062511
 10
1321.44415434155
 20
1023.04420069735
 10
1321.70177189249
 20
1022.99877577241
 10
1322.26384917823
 20
1022.92477689391
 10
1322.52444545969
 20
1022.90197767352
 10
1323.15623901049
 20
1022.87439297137
 10
1323.28708160039
 20
1022.8715379759
 10
1328.71291839961
 20
1022.8715379759
 10
1328.84376098951
 20
1022.87439297137
 10
1329.47555454031
 20
1022.90197767352
 10
1329.73615082177
 20
1022.92477689391
 10
1330.29822810751
 20
1022.99877577241
 10
1330.55584565845
 20
1023.04420069735
 10
1331.1093346432
 20
1023.1669062511
 10
1331.36201283851
 20
1023.23461116948
 10
1331.96513909985
 20
1023.42477614922
 10
1332.08906738202
 20
1023.46684413239
 10
1337.18768618384
 20
1025.32258961212
 10
1337.30966153409
 20
1025.37002323165
 10
1337.89391874786
 20
1025.61203049351
 10
1338.13100135793
 20
1025.72258393019
 10
1338.63387212861
 20
1025.9843618841
 10
1338.86041720088
 20
1026.11515774256
 10
1339.33855894445
 20
1026.41976762784
 10
1339.55284233414
 20
1026.56981047261
 10
1340.05455537769
 20
1026.95478843115
 10
1340.15662177232
 20
1027.03670537334
 10
1344.31305390163
 20
1030.52436604006
 10
1344.41144998483
 20
1030.61065708908
 10
1344.87770081887
 20
1031.03789726322
 10
1345.0626740958
 20
1031.22287054015
 10
1345.44568471491
 20
1031.64085328478
 10
1345.61383262934
 20
1031.84124416589
 10
1345.95895618084
 20
1032.29101793498
 10
1346.10899902561
 20
1032.50530132466
 10
1346.44878485384
 20
1033.03865823853
 10
1346.51667864738
 20
1033.15054374754
 10
1349.229597047
 20
1037.84945625246
 10
1349.29254584334
 20
1037.96419675694
 10
1349.58455356593
 20
1038.52513837296
 10
1349.69510700262
 20
1038.76222098303
 10
1349.91206073685
 20
1039.28599363062
 10
1350.00153037336
 20
1039.53180943666
 10
1350.172008739
 20
1040.07249773504
 10
1350.23971365738
 20
1040.32517593036
 10
1350.37658908468
 20
1040.94258108424
 10
1350.40212128365
 20
1041.07094011643
 10
1351.34430795616
 20
1046.41434626288
 10
1351.36421691178
 20
1046.5436968246
 10
1351.446761082
 20
1047.170682045
 10
1351.46956030238
 20
1047.43127832645
 10
1351.49714500453
 20
1048.06307187726
 10
1351.5
 20
1048.19391446716
 10
1351.5
 20
1115.01546369125
 10
1351.52283181145
 20
1115.53839814774
 10
1351.59115348193
 20
1116.05735275725
 10
1351.8459994085
 20
1117.50265582744
 10
1351.95929096884
 20
1118.01368103205
 10
1352.11669020186
 20
1118.51288762139
 10
1352.31699920435
 20
1118.99647633188
 10
1352.55869350387
 20
1119.46076676144
 10
1352.60399614556
 20
1119.53923323856
 10
1352.88523630253
 20
1119.98069185667
 10
1353.20388190955
 20
1120.39595889668
 10
1353.55750788115
 20
1120.78187392568
 10
1353.94342291015
 20
1121.13549989728
 10
1354.012830584
 20
1121.1937398508
 10
1354.42809762401
 20
1121.51238545782
 10
1354.86955624211
 20
1121.7936256148
 10
1355.33384667167
 20
1122.03531991431
 10
1355.81743538216
 20
1122.23562891681
 10
1355.90257649836
 20
1122.26661774881
 10
1356.4017830877
 20
1122.42401698183
 10
1356.91280829231
 20
1122.53730854217
 10
1357.43176290182
 20
1122.60563021265
 10
1357.95469735831
 20
1122.6284620241
 10
1358.04530264169
 20
1122.6284620241
 10
1358.56823709818
 20
1122.60563021265
 10
1359.08719170769
 20
1122.53730854217
 10
1359.5982169123
 20
1122.42401698183
 10
1360.09742350164
 20
1122.26661774881
 10
1360.18256461784
 20
1122.23562891681
 10
1360.66615332833
 20
1122.03531991431
 10
1361.13044375789
 20
1121.7936256148
 10
1361.57190237599
 20
1121.51238545782
 10
1361.987169416
 20
1121.1937398508
 10
1362.05657708985
 20
1121.13549989728
 10
1362.44249211885
 20
1120.78187392568
 10
1362.79611809045
 20
1120.39595889668
 10
1363.11476369747
 20
1119.98069185667
 10
1363.39600385444
 20
1119.53923323856
 10
1363.44130649613
 20
1119.46076676144
 10
1363.68300079565
 20
1118.99647633188
 10
1363.88330979814
 20
1118.51288762139
 10
1364.04070903116
 20
1118.01368103205
 10
1364.1540005915
 20
1117.50265582744
 10
1364.40884651807
 20
1116.05735275725
 10
1364.47716818855
 20
1115.53839814774
 10
1364.5
 20
1115.01546369125
 10
1364.5
 20
1048.19391446716
 10
1364.50285499547
 20
1048.06307187726
 10
1364.53043969762
 20
1047.43127832645
 10
1364.553238918
 20
1047.170682045
 10
1364.63578308822
 20
1046.5436968246
 10
1364.65569204385
 20
1046.41434626288
 10
1365.59787871635
 20
1041.07094011643
 10
1365.62341091532
 20
1040.94258108424
 10
1365.76028634262
 20
1040.32517593036
 10
1365.827991261
 20
1040.07249773504
 10
1365.99846962664
 20
1039.53180943666
 10
1366.08793926315
 20
1039.28599363062
 10
1366.30489299738
 20
1038.76222098303
 10
1366.41544643407
 20
1038.52513837296
 10
1366.70745415666
 20
1037.96419675694
 10
1366.770402953
 20
1037.84945625246
 10
1369.48332135262
 20
1033.15054374754
 10
1369.55121514616
 20
1033.03865823853
 10
1369.89100097439
 20
1032.50530132466
 10
1370.04104381916
 20
1032.29101793498
 10
1370.38616737066
 20
1031.84124416589
 10
1370.55431528509
 20
1031.64085328478
 10
1370.9373259042
 20
1031.22287054015
 10
1371.12229918113
 20
1031.03789726322
 10
1371.58855001517
 20
1030.61065708908
 10
1371.68694609837
 20
1030.52436604006
 10
1375.84337822768
 20
1027.03670537334
 10
1375.94544462231
 20
1026.95478843115
 10
1376.44715766586
 20
1026.56981047261
 10
1376.66144105555
 20
1026.41976762784
 10
1377.13958279912
 20
1026.11515774256
 10
1377.36612787139
 20
1025.9843618841
 10
1377.86899864207
 20
1025.72258393019
 10
1378.10608125214
 20
1025.61203049351
 10
1378.69033846591
 20
1025.37002323165
 10
1378.81231381616
 20
1025.32258961212
 10
1383.91093261798
 20
1023.46684413239
 10
1384.03486090015
 20
1023.42477614922
 10
1384.63798716149
 20
1023.23461116948
 10
1384.8906653568
 20
1023.1669062511
 10
1385.44415434155
 20
1023.04420069735
 10
1385.70177189249
 20
1022.99877577241
 10
1386.26384917823
 20
1022.92477689391
 10
1386.52444545969
 20
1022.90197767352
 10
1387.15623901049
 20
1022.87439297137
 10
1387.28708160039
 20
1022.8715379759
 10
1392.71291839961
 20
1022.8715379759
 10
1392.84376098951
 20
1022.87439297137
 10
1393.47555454031
 20
1022.90197767352
 10
1393.73615082177
 20
1022.92477689391
 10
1394.29822810751
 20
1022.99877577241
 10
1394.55584565845
 20
1023.04420069735
 10
1395.1093346432
 20
1023.1669062511
 10
1395.36201283851
 20
1023.23461116948
 10
1395.96513909985
 20
1023.42477614922
 10
1396.08906738202
 20
1023.46684413239
 10
1401.18768618384
 20
1025.32258961212
 10
1401.30966153409
 20
1025.37002323165
 10
1401.89391874786
 20
1025.61203049351
 10
1402.13100135793
 20
1025.72258393019
 10
1402.63387212861
 20
1025.9843618841
 10
1402.86041720088
 20
1026.11515774256
 10
1403.33855894445
 20
1026.41976762784
 10
1403.55284233414
 20
1026.56981047261
 10
1404.05455537769
 20
1026.95478843115
 10
1404.15662177232
 20
1027.03670537334
 10
1408.31305390163
 20
1030.52436604006
 10
1408.41144998483
 20
1030.61065708908
 10
1408.87770081887
 20
1031.03789726322
 10
1409.0626740958
 20
1031.22287054015
 10
1409.44568471491
 20
1031.64085328478
 10
1409.61383262934
 20
1031.84124416589
 10
1409.95895618084
 20
1032.29101793498
 10
1410.10899902561
 20
1032.50530132466
 10
1410.44878485384
 20
1033.03865823853
 10
1410.51667864738
 20
1033.15054374754
 10
1413.229597047
 20
1037.84945625246
 10
1413.29254584334
 20
1037.96419675694
 10
1413.58455356593
 20
1038.52513837296
 10
1413.69510700262
 20
1038.76222098303
 10
1413.91206073685
 20
1039.28599363062
 10
1414.00153037336
 20
1039.53180943666
 10
1414.172008739
 20
1040.07249773504
 10
1414.23971365738
 20
1040.32517593036
 10
1414.37658908468
 20
1040.94258108424
 10
1414.40212128365
 20
1041.07094011643
 10
1415.34430795616
 20
1046.41434626289
 10
1415.36421691178
 20
1046.5436968246
 10
1415.446761082
 20
1047.170682045
 10
1415.46956030238
 20
1047.43127832645
 10
1415.49714500453
 20
1048.06307187726
 10
1415.5
 20
1048.19391446716
 10
1415.5
 20
1105.75
 10
1415.52889163997
 20
1106.33810284198
 10
1415.61528831758
 20
1106.9205419321
 10
1415.75835798561
 20
1107.49170806353
 10
1415.95672280493
 20
1108.04610059419
 10
1416.20847241391
 20
1108.57838042096
 10
1416.51118232618
 20
1109.08342139812
 10
1416.86193727982
 20
1109.55635970498
 10
1417.25735931288
 20
1109.99264068712
 10
1417.69364029502
 20
1110.38806272018
 10
1418.16657860188
 20
1110.73881767382
 10
1418.67161957904
 20
1111.04152758609
 10
1419.20389940581
 20
1111.29327719507
 10
1419.75829193647
 20
1111.49164201439
 10
1420.3294580679
 20
1111.63471168242
 10
1420.91189715802
 20
1111.72110836003
 10
1421.5
 20
1111.75
 10
1422.5
 20
1111.75
 10
1423.08810284198
 20
1111.72110836003
 10
1423.6705419321
 20
1111.63471168242
 10
1424.24170806353
 20
1111.49164201439
 10
1424.79610059419
 20
1111.29327719507
 10
1425.32838042096
 20
1111.04152758609
 10
1425.83342139812
 20
1110.73881767382
 10
1426.30635970498
 20
1110.38806272018
 10
1426.74264068712
 20
1109.99264068712
 10
1427.13806272018
 20
1109.55635970498
 10
1427.48881767382
 20
1109.08342139812
 10
1427.79152758609
 20
1108.57838042096
 10
1428.04327719507
 20
1108.04610059419
 10
1428.24164201439
 20
1107.49170806353
 10
1428.38471168242
 20
1106.9205419321
 10
1428.47110836003
 20
1106.33810284198
 10
1428.5
 20
1105.75
 10
1428.5
 20
1048.19391446716
 10
1428.50285499547
 20
1048.06307187726
 10
1428.53043969762
 20
1047.43127832645
 10
1428.553238918
 20
1047.170682045
 10
1428.63578308822
 20
1046.5436968246
 10
1428.65569204384
 20
1046.41434626289
 10
1429.59787871635
 20
1041.07094011643
 10
1429.62341091532
 20
1040.94258108424
 10
1429.76028634262
 20
1040.32517593036
 10
1429.827991261
 20
1040.07249773504
 10
1429.99846962664
 20
1039.53180943666
 10
1430.08793926315
 20
1039.28599363062
 10
1430.30489299738
 20
1038.76222098303
 10
1430.41544643407
 20
1038.52513837296
 10
1430.70745415666
 20
1037.96419675694
 10
1430.770402953
 20
1037.84945625246
 10
1433.48332135262
 20
1033.15054374754
 10
1433.55121514616
 20
1033.03865823853
 10
1433.89100097439
 20
1032.50530132466
 10
1434.04104381916
 20
1032.29101793498
 10
1434.38616737066
 20
1031.84124416589
 10
1434.55431528509
 20
1031.64085328478
 10
1434.9373259042
 20
1031.22287054015
 10
1435.12229918113
 20
1031.03789726322
 10
1435.58855001517
 20
1030.61065708908
 10
1435.68694609837
 20
1030.52436604006
 10
1439.84337822768
 20
1027.03670537334
 10
1439.94544462231
 20
1026.95478843115
 10
1440.44715766586
 20
1026.56981047261
 10
1440.66144105555
 20
1026.41976762784
 10
1441.13958279912
 20
1026.11515774256
 10
1441.36612787139
 20
1025.9843618841
 10
1441.86899864207
 20
1025.72258393019
 10
1442.10608125214
 20
1025.61203049351
 10
1442.69033846591
 20
1025.37002323165
 10
1442.81231381616
 20
1025.32258961212
 10
1447.91093261798
 20
1023.46684413239
 10
1448.03486090015
 20
1023.42477614922
 10
1448.63798716149
 20
1023.23461116948
 10
1448.8906653568
 20
1023.1669062511
 10
1449.44415434155
 20
1023.04420069735
 10
1449.70177189249
 20
1022.99877577241
 10
1450.26384917823
 20
1022.92477689391
 10
1450.52444545969
 20
1022.90197767352
 10
1451.15623901049
 20
1022.87439297137
 10
1451.28708160039
 20
1022.8715379759
 10
1456.71291839961
 20
1022.8715379759
 10
1456.84376098951
 20
1022.87439297137
 10
1457.47555454031
 20
1022.90197767352
 10
1457.73615082177
 20
1022.92477689391
 10
1458.29822810751
 20
1022.99877577241
 10
1458.55584565845
 20
1023.04420069735
 10
1459.1093346432
 20
1023.1669062511
 10
1459.36201283851
 20
1023.23461116948
 10
1459.96513909985
 20
1023.42477614922
 10
1460.08906738202
 20
1023.46684413239
 10
1465.18768618384
 20
1025.32258961212
 10
1465.30966153409
 20
1025.37002323165
 10
1465.89391874786
 20
1025.61203049351
 10
1466.13100135793
 20
1025.72258393019
 10
1466.63387212861
 20
1025.9843618841
 10
1466.86041720088
 20
1026.11515774256
 10
1467.33855894445
 20
1026.41976762784
 10
1467.55284233414
 20
1026.56981047261
 10
1468.05455537769
 20
1026.95478843115
 10
1468.15662177232
 20
1027.03670537334
 10
1472.31305390163
 20
1030.52436604006
 10
1472.41144998483
 20
1030.61065708908
 10
1472.87770081887
 20
1031.03789726322
 10
1473.0626740958
 20
1031.22287054015
 10
1473.44568471491
 20
1031.64085328478
 10
1473.61383262934
 20
1031.84124416589
 10
1473.95895618084
 20
1032.29101793498
 10
1474.10899902561
 20
1032.50530132466
 10
1474.44878485384
 20
1033.03865823853
 10
1474.51667864738
 20
1033.15054374754
 10
1477.229597047
 20
1037.84945625246
 10
1477.29254584334
 20
1037.96419675694
 10
1477.58455356593
 20
1038.52513837296
 10
1477.69510700262
 20
1038.76222098303
 10
1477.91206073685
 20
1039.28599363062
 10
1478.00153037336
 20
1039.53180943666
 10
1478.172008739
 20
1040.07249773504
 10
1478.23971365738
 20
1040.32517593036
 10
1478.37658908468
 20
1040.94258108424
 10
1478.40212128365
 20
1041.07094011643
 10
1479.34430795616
 20
1046.41434626289
 10
1479.36421691178
 20
1046.5436968246
 10
1479.446761082
 20
1047.170682045
 10
1479.46956030238
 20
1047.43127832645
 10
1479.49714500453
 20
1048.06307187726
 10
1479.5
 20
1048.19391446716
 10
1479.5
 20
1115.01546369125
 10
1479.52283181145
 20
1115.53839814774
 10
1479.59115348193
 20
1116.05735275725
 10
1479.8459994085
 20
1117.50265582744
 10
1479.95929096884
 20
1118.01368103205
 10
1480.11669020186
 20
1118.51288762139
 10
1480.31699920436
 20
1118.99647633188
 10
1480.55869350387
 20
1119.46076676144
 10
1480.60399614556
 20
1119.53923323856
 10
1480.88523630253
 20
1119.98069185667
 10
1481.20388190955
 20
1120.39595889668
 10
1481.55750788115
 20
1120.78187392568
 10
1481.94342291015
 20
1121.13549989728
 10
1482.012830584
 20
1121.1937398508
 10
1482.42809762401
 20
1121.51238545782
 10
1482.86955624211
 20
1121.7936256148
 10
1483.33384667167
 20
1122.03531991431
 10
1483.81743538216
 20
1122.23562891681
 10
1483.90257649836
 20
1122.26661774881
 10
1484.4017830877
 20
1122.42401698183
 10
1484.91280829231
 20
1122.53730854217
 10
1485.43176290182
 20
1122.60563021265
 10
1485.95469735831
 20
1122.6284620241
 10
1486.04530264169
 20
1122.6284620241
 10
1486.56823709818
 20
1122.60563021265
 10
1487.08719170769
 20
1122.53730854217
 10
1487.5982169123
 20
1122.42401698183
 10
1488.09742350164
 20
1122.26661774881
 10
1488.18256461784
 20
1122.23562891681
 10
1488.66615332833
 20
1122.03531991431
 10
1489.13044375789
 20
1121.7936256148
 10
1489.57190237599
 20
1121.51238545782
 10
1489.987169416
 20
1121.1937398508
 10
1490.05657708985
 20
1121.13549989728
 10
1490.44249211885
 20
1120.78187392568
 10
1490.79611809045
 20
1120.39595889668
 10
1491.11476369747
 20
1119.98069185667
 10
1491.39600385444
 20
1119.53923323856
 10
1491.44130649613
 20
1119.46076676144
 10
1491.68300079565
 20
1118.99647633188
 10
1491.88330979814
 20
1118.51288762139
 10
1492.04070903116
 20
1118.01368103205
 10
1492.1540005915
 20
1117.50265582744
 10
1492.40884651807
 20
1116.05735275725
 10
1492.47716818855
 20
1115.53839814774
 10
1492.5
 20
1115.01546369125
 10
1492.5
 20
1048.19391446716
 10
1492.50285499547
 20
1048.06307187726
 10
1492.53043969762
 20
1047.43127832645
 10
1492.553238918
 20
1047.170682045
 10
1492.63578308822
 20
1046.5436968246
 10
1492.65569204384
 20
1046.41434626289
 10
1493.59787871635
 20
1041.07094011643
 10
1493.62341091532
 20
1040.94258108424
 10
1493.76028634262
 20
1040.32517593036
 10
1493.827991261
 20
1040.07249773504
 10
1493.99846962664
 20
1039.53180943666
 10
1494.08793926315
 20
1039.28599363062
 10
1494.30489299738
 20
1038.76222098303
 10
1494.41544643407
 20
1038.52513837296
 10
1494.70745415666
 20
1037.96419675694
 10
1494.770402953
 20
1037.84945625246
 10
1497.48332135262
 20
1033.15054374754
 10
1497.55121514616
 20
1033.03865823853
 10
1497.89100097439
 20
1032.50530132466
 10
1498.04104381916
 20
1032.29101793498
 10
1498.38616737066
 20
1031.84124416589
 10
1498.55431528509
 20
1031.64085328478
 10
1498.9373259042
 20
1031.22287054015
 10
1499.12229918113
 20
1031.03789726322
 10
1499.58855001517
 20
1030.61065708908
 10
1499.68694609837
 20
1030.52436604006
 10
1503.84337822768
 20
1027.03670537334
 10
1503.94544462231
 20
1026.95478843115
 10
1504.44715766586
 20
1026.56981047261
 10
1504.66144105555
 20
1026.41976762784
 10
1505.13958279912
 20
1026.11515774256
 10
1505.36612787139
 20
1025.9843618841
 10
1505.86899864207
 20
1025.72258393019
 10
1506.10608125214
 20
1025.61203049351
 10
1506.69033846591
 20
1025.37002323165
 10
1506.81231381616
 20
1025.32258961212
 10
1511.91093261798
 20
1023.46684413239
 10
1512.03486090015
 20
1023.42477614922
 10
1512.63798716149
 20
1023.23461116948
 10
1512.8906653568
 20
1023.1669062511
 10
1513.44415434155
 20
1023.04420069735
 10
1513.70177189249
 20
1022.99877577241
 10
1514.26384917823
 20
1022.92477689391
 10
1514.52444545969
 20
1022.90197767352
 10
1515.15623901049
 20
1022.87439297137
 10
1515.28708160039
 20
1022.8715379759
 10
1520.71291839961
 20
1022.8715379759
 10
1520.84376098951
 20
1022.87439297137
 10
1521.47555454031
 20
1022.90197767352
 10
1521.73615082177
 20
1022.92477689391
 10
1522.29822810751
 20
1022.99877577241
 10
1522.55584565845
 20
1023.04420069735
 10
1523.1093346432
 20
1023.1669062511
 10
1523.36201283851
 20
1023.23461116948
 10
1523.96513909985
 20
1023.42477614922
 10
1524.08906738202
 20
1023.46684413239
 10
1529.18768618384
 20
1025.32258961212
 10
1529.30966153409
 20
1025.37002323165
 10
1529.89391874786
 20
1025.6120304935
 10
1530.13100135793
 20
1025.7225839302
 10
1530.63387212861
 20
1025.9843618841
 10
1530.86041720088
 20
1026.11515774256
 10
1531.33855894445
 20
1026.41976762784
 10
1531.55284233414
 20
1026.56981047261
 10
1532.05455537769
 20
1026.95478843115
 10
1532.15662177232
 20
1027.03670537334
 10
1536.31305390163
 20
1030.52436604006
 10
1536.41144998483
 20
1030.61065708908
 10
1536.87770081887
 20
1031.03789726322
 10
1537.0626740958
 20
1031.22287054015
 10
1537.44568471491
 20
1031.64085328478
 10
1537.61383262934
 20
1031.84124416589
 10
1537.95895618084
 20
1032.29101793498
 10
1538.10899902561
 20
1032.50530132466
 10
1538.44878485384
 20
1033.03865823853
 10
1538.51667864738
 20
1033.15054374754
 10
1541.229597047
 20
1037.84945625246
 10
1541.29254584334
 20
1037.96419675694
 10
1541.58455356593
 20
1038.52513837296
 10
1541.69510700262
 20
1038.76222098303
 10
1541.91206073685
 20
1039.28599363062
 10
1542.00153037336
 20
1039.53180943666
 10
1542.172008739
 20
1040.07249773504
 10
1542.23971365738
 20
1040.32517593036
 10
1542.37658908468
 20
1040.94258108424
 10
1542.40212128365
 20
1041.07094011643
 10
1543.34430795616
 20
1046.41434626288
 10
1543.36421691178
 20
1046.5436968246
 10
1543.446761082
 20
1047.170682045
 10
1543.46956030238
 20
1047.43127832645
 10
1543.49714500453
 20
1048.06307187726
 10
1543.5
 20
1048.19391446716
 10
1543.5
 20
1115.01546369125
 10
1543.52283181145
 20
1115.53839814774
 10
1543.59115348193
 20
1116.05735275725
 10
1543.8459994085
 20
1117.50265582744
 10
1543.95929096884
 20
1118.01368103205
 10
1544.11669020186
 20
1118.51288762139
 10
1544.31699920436
 20
1118.99647633188
 10
1544.55869350387
 20
1119.46076676144
 10
1544.60399614556
 20
1119.53923323856
 10
1544.88523630253
 20
1119.98069185667
 10
1545.20388190955
 20
1120.39595889668
 10
1545.55750788115
 20
1120.78187392568
 10
1545.94342291015
 20
1121.13549989728
 10
1546.012830584
 20
1121.1937398508
 10
1546.42809762401
 20
1121.51238545782
 10
1546.86955624211
 20
1121.7936256148
 10
1547.33384667167
 20
1122.03531991431
 10
1547.81743538216
 20
1122.23562891681
 10
1547.90257649836
 20
1122.26661774881
 10
1548.40178308769
 20
1122.42401698183
 10
1548.91280829231
 20
1122.53730854217
 10
1549.43176290182
 20
1122.60563021265
 10
1549.95469735831
 20
1122.6284620241
 10
1550.04530264169
 20
1122.6284620241
 10
1550.56823709818
 20
1122.60563021265
 10
1551.08719170769
 20
1122.53730854217
 10
1551.5982169123
 20
1122.42401698183
 10
1552.09742350164
 20
1122.26661774881
 10
1552.18256461784
 20
1122.23562891681
 10
1552.66615332833
 20
1122.03531991431
 10
1553.13044375789
 20
1121.7936256148
 10
1553.57190237599
 20
1121.51238545782
 10
1553.987169416
 20
1121.1937398508
 10
1554.05657708985
 20
1121.13549989728
 10
1554.44249211885
 20
1120.78187392568
 10
1554.79611809045
 20
1120.39595889668
 10
1555.11476369747
 20
1119.98069185667
 10
1555.39600385444
 20
1119.53923323856
 10
1555.44130649613
 20
1119.46076676144
 10
1555.68300079565
 20
1118.99647633188
 10
1555.88330979814
 20
1118.51288762139
 10
1556.04070903116
 20
1118.01368103205
 10
1556.1540005915
 20
1117.50265582744
 10
1556.40884651807
 20
1116.05735275725
 10
1556.47716818855
 20
1115.53839814774
 10
1556.5
 20
1115.01546369125
 10
1556.5
 20
1048.19391446715
 10
1556.50285499547
 20
1048.06307187726
 10
1556.53043969762
 20
1047.43127832645
 10
1556.553238918
 20
1047.170682045
 10
1556.63578308822
 20
1046.5436968246
 10
1556.65569204385
 20
1046.41434626288
 10
1557.59787871635
 20
1041.07094011643
 10
1557.62341091532
 20
1040.94258108424
 10
1557.76028634262
 20
1040.32517593036
 10
1557.827991261
 20
1040.07249773504
 10
1557.99846962664
 20
1039.53180943666
 10
1558.08793926315
 20
1039.28599363062
 10
1558.30489299738
 20
1038.76222098303
 10
1558.41544643407
 20
1038.52513837296
 10
1558.70745415666
 20
1037.96419675694
 10
1558.770402953
 20
1037.84945625246
 10
1561.48332135261
 20
1033.15054374754
 10
1561.55121514617
 20
1033.03865823853
 10
1561.89100097439
 20
1032.50530132466
 10
1562.04104381916
 20
1032.29101793498
 10
1562.38616737066
 20
1031.84124416589
 10
1562.55431528509
 20
1031.64085328478
 10
1562.9373259042
 20
1031.22287054015
 10
1563.12229918113
 20
1031.03789726321
 10
1563.58855001517
 20
1030.61065708908
 10
1563.68694609837
 20
1030.52436604006
 10
1567.84337822769
 20
1027.03670537334
 10
1567.94544462231
 20
1026.95478843115
 10
1568.44715766586
 20
1026.56981047261
 10
1568.66144105555
 20
1026.41976762784
 10
1569.13958279912
 20
1026.11515774256
 10
1569.36612787139
 20
1025.9843618841
 10
1569.86899864207
 20
1025.7225839302
 10
1570.10608125214
 20
1025.6120304935
 10
1570.69033846591
 20
1025.37002323165
 10
1570.81231381616
 20
1025.32258961212
 10
1575.91093261798
 20
1023.46684413239
 10
1576.03486090015
 20
1023.42477614922
 10
1576.63798716149
 20
1023.23461116948
 10
1576.8906653568
 20
1023.1669062511
 10
1577.44415434155
 20
1023.04420069735
 10
1577.70177189249
 20
1022.99877577241
 10
1578.26384917823
 20
1022.92477689391
 10
1578.52444545969
 20
1022.90197767352
 10
1579.15623901049
 20
1022.87439297137
 10
1579.28708160039
 20
1022.8715379759
 10
1584.5
 20
1022.8715379759
 10
1584.5
 20
1017.25
 10
1259.5
 20
1017.25
 97
0
 75
0
 76
1
 98
0
  0
HATCH
  5
20001
  8
0
100
AcDbEntity
100
AcDbHatch
 10
0
 20
0
 30
0
210
0
220
0
230
1
  2
SOLID
 70
1
 71
0
 91
1
 92
2
 72
0
 73
1
 93
683
 10
5415.5
 20
1017.25
 10
5415.5
 20
1022.8715379759
 10
5420.71291839961
 20
1022.8715379759
 10
5420.84376098951
 20
1022.87439297137
 10
5421.47555454032
 20
1022.90197767352
 10
5421.73615082177
 20
1022.92477689391
 10
5422.29822810751
 20
1022.99877577241
 10
5422.55584565845
 20
1023.04420069735
 10
5423.1093346432
 20
1023.1669062511
 10
5423.36201283851
 20
1023.23461116948
 10
5423.96513909985
 20
1023.42477614922
 10
5424.08906738202
 20
1023.46684413239
 10
5429.18768618384
 20
1025.32258961212
 10
5429.30966153409
 20
1025.37002323165
 10
5429.89391874786
 20
1025.61203049351
 10
5430.13100135793
 20
1025.72258393019
 10
5430.63387212861
 20
1025.9843618841
 10
5430.86041720088
 20
1026.11515774256
 10
5431.33855894445
 20
1026.41976762784
 10
5431.55284233414
 20
1026.56981047261
 10
5432.05455537769
 20
1026.95478843115
 10
5432.15662177232
 20
1027.03670537334
 10
5436.31305390163
 20
1030.52436604006
 10
5436.41144998483
 20
1030.61065708908
 10
5436.87770081887
 20
1031.03789726322
 10
5437.0626740958
 20
1031.22287054015
 10
5437.44568471491
 20
1031.64085328478
 10
5437.61383262934
 20
1031.84124416589
 10
5437.95895618084
 20
1032.29101793498
 10
5438.10899902561
 20
1032.50530132466
 10
5438.44878485384
 20
1033.03865823853
 10
5438.51667864738
 20
1033.15054374754
 10
5441.229597047
 20
1037.84945625246
 10
5441.29254584334
 20
1037.96419675694
 10
5441.58455356593
 20
1038.52513837296
 10
5441.69510700262
 20
1038.76222098303
 10
5441.91206073685
 20
1039.28599363062
 10
5442.00153037336
 20
1039.53180943666
 10
5442.172008739
 20
1040.07249773504
 10
5442.23971365738
 20
1040.32517593036
 10
5442.37658908468
 20
1040.94258108424
 10
5442.40212128365
 20
1041.07094011643
 10
5443.34430795615
 20
1046.41434626288
 10
5443.36421691178
 20
1046.5436968246
 10
5443.446761082
 20
1047.170682045
 10
5443.46956030238
 20
1047.43127832645
 10
5443.49714500453
 20
1048.06307187726
 10
5443.5
 20
1048.19391446716
 10
5443.5
 20
1115.01546369125
 10
5443.52283181145
 20
1115.53839814774
 10
5443.59115348193
 20
1116.05735275725
 10
5443.8459994085
 20
1117.50265582744
 10
5443.95929096884
 20
1118.01368103205
 10
5444.11669020186
 20
1118.51288762139
 10
5444.31699920435
 20
1118.99647633188
 10
5444.55869350387
 20
1119.46076676144
 10
5444.60399614556
 20
1119.53923323856
 10
5444.88523630253
 20
1119.98069185667
 10
5445.20388190955
 20
1120.39595889668
 10
5445.55750788115
 20
1120.78187392568
 10
5445.94342291015
 20
1121.13549989728
 10
5446.012830584
 20
1121.1937398508
 10
5446.42809762401
 20
1121.51238545782
 10
5446.86955624211
 20
1121.7936256148
 10
5447.33384667167
 20
1122.03531991431
 10
5447.81743538216
 20
1122.23562891681
 10
5447.90257649836
 20
1122.26661774881
 10
5448.4017830877
 20
1122.42401698183
 10
5448.91280829231
 20
1122.53730854217
 10
5449.43176290182
 20
1122.60563021265
 10
5449.95469735831
 20
1122.6284620241
 10
5450.04530264169
 20
1122.6284620241
 10
5450.56823709818
 20
1122.60563021265
 10
5451.08719170769
 20
1122.53730854217
 10
5451.59821691231
 20
1122.42401698183
 10
5452.09742350164
 20
1122.26661774881
 10
5452.18256461784
 20
1122.23562891681
 10
5452.66615332833
 20
1122.03531991431
 10
5453.13044375789
 20
1121.7936256148
 10
5453.57190237599
 20
1121.51238545782
 10
5453.987169416
 20
1121.1937398508
 10
5454.05657708985
 20
1121.13549989728
 10
5454.44249211885
 20
1120.78187392568
 10
5454.79611809045
 20
1120.39595889668
 10
5455.11476369747
 20
1119.98069185667
 10
5455.39600385444
 20
1119.53923323856
 10
5455.44130649613
 20
1119.46076676144
 10
5455.68300079565
 20
1118.99647633188
 10
5455.88330979814
 20
1118.51288762139
 10
5456.04070903116
 20
1118.01368103205
 10
5456.1540005915
 20
1117.50265582744
 10
5456.40884651807
 20
1116.05735275725
 10
5456.47716818855
 20
1115.53839814774
 10
5456.5
 20
1115.01546369125
 10
5456.5
 20
1048.19391446716
 10
5456.50285499547
 20
1048.06307187726
 10
5456.53043969762
 20
1047.43127832645
 10
5456.553238918
 20
1047.170682045
 10
5456.63578308822
 20
1046.5436968246
 10
5456.65569204385
 20
1046.41434626288
 10
5457.59787871635
 20
1041.07094011643
 10
5457.62341091532
 20
1040.94258108424
 10
5457.76028634262
 20
1040.32517593036
 10
5457.827991261
 20
1040.07249773504
 10
5457.99846962664
 20
1039.53180943666
 10
5458.08793926315
 20
1039.28599363062
 10
5458.30489299738
 20
1038.76222098303
 10
5458.41544643407
 20
1038.52513837296
 10
5458.70745415666
 20
1037.96419675694
 10
5458.770402953
 20
1037.84945625246
 10
5461.48332135262
 20
1033.15054374754
 10
5461.55121514616
 20
1033.03865823853
 10
5461.89100097439
 20
1032.50530132466
 10
5462.04104381916
 20
1032.29101793498
 10
5462.38616737066
 20
1031.84124416589
 10
5462.55431528509
 20
1031.64085328478
 10
5462.9373259042
 20
1031.22287054015
 10
5463.12229918113
 20
1031.03789726322
 10
5463.58855001517
 20
1030.61065708908
 10
5463.68694609837
 20
1030.52436604006
 10
5467.84337822768
 20
1027.03670537334
 10
5467.94544462231
 20
1026.95478843115
 10
5468.44715766586
 20
1026.56981047261
 10
5468.66144105555
 20
1026.41976762784
 10
5469.13958279912
 20
1026.11515774256
 10
5469.36612787139
 20
1025.9843618841
 10
5469.86899864207
 20
1025.72258393019
 10
5470.10608125214
 20
1025.61203049351
 10
5470.69033846591
 20
1025.37002323165
 10
5470.81231381616
 20
1025.32258961212
 10
5475.91093261798
 20
1023.46684413239
 10
5476.03486090015
 20
1023.42477614922
 10
5476.63798716149
 20
1023.23461116948
 10
5476.8906653568
 20
1023.1669062511
 10
5477.44415434155
 20
1023.04420069735
 10
5477.70177189249
 20
1022.99877577241
 10
5478.26384917823
 20
1022.92477689391
 10
5478.52444545969
 20
1022.90197767352
 10
5479.15623901049
 20
1022.87439297137
 10
5479.28708160039
 20
1022.8715379759
 10
5484.71291839961
 20
1022.8715379759
 10
5484.84376098951
 20
1022.87439297137
 10
5485.47555454032
 20
1022.90197767352
 10
5485.73615082177
 20
1022.92477689391
 10
5486.29822810751
 20
1022.99877577241
 10
5486.55584565845
 20
1023.04420069735
 10
5487.1093346432
 20
1023.1669062511
 10
5487.36201283851
 20
1023.23461116948
 10
5487.96513909985
 20
1023.42477614922
 10
5488.08906738202
 20
1023.46684413239
 10
5493.18768618384
 20
1025.32258961212
 10
5493.30966153409
 20
1025.37002323165
 10
5493.89391874786
 20
1025.61203049351
 10
5494.13100135793
 20
1025.72258393019
 10
5494.63387212861
 20
1025.9843618841
 10
5494.86041720088
 20
1026.11515774256
 10
5495.33855894445
 20
1026.41976762784
 10
5495.55284233414
 20
1026.56981047261
 10
5496.05455537769
 20
1026.95478843115
 10
5496.15662177232
 20
1027.03670537334
 10
5500.31305390163
 20
1030.52436604006
 10
5500.41144998483
 20
1030.61065708908
 10
5500.87770081887
 20
1031.03789726322
 10
5501.0626740958
 20
1031.22287054015
 10
5501.44568471491
 20
1031.64085328478
 10
5501.61383262934
 20
1031.84124416589
 10
5501.95895618084
 20
1032.29101793498
 10
5502.10899902561
 20
1032.50530132466
 10
5502.44878485384
 20
1033.03865823853
 10
5502.51667864738
 20
1033.15054374754
 10
5505.229597047
 20
1037.84945625246
 10
5505.29254584334
 20
1037.96419675694
 10
5505.58455356593
 20
1038.52513837296
 10
5505.69510700262
 20
1038.76222098303
 10
5505.91206073685
 20
1039.28599363062
 10
5506.00153037336
 20
1039.53180943666
 10
5506.172008739
 20
1040.07249773504
 10
5506.23971365738
 20
1040.32517593036
 10
5506.37658908468
 20
1040.94258108424
 10
5506.40212128365
 20
1041.07094011643
 10
5507.34430795615
 20
1046.41434626288
 10
5507.36421691178
 20
1046.5436968246
 10
5507.446761082
 20
1047.170682045
 10
5507.46956030238
 20
1047.43127832645
 10
5507.49714500453
 20
1048.06307187726
 10
5507.5
 20
1048.19391446716
 10
5507.5
 20
1115.01546369125
 10
5507.52283181145
 20
1115.53839814774
 10
5507.59115348193
 20
1116.05735275725
 10
5507.8459994085
 20
1117.50265582744
 10
5507.95929096884
 20
1118.01368103205
 10
5508.11669020186
 20
1118.51288762139
 10
5508.31699920435
 20
1118.99647633188
 10
5508.55869350387
 20
1119.46076676144
 10
5508.60399614556
 20
1119.53923323856
 10
5508.88523630253
 20
1119.98069185667
 10
5509.20388190955
 20
1120.39595889668
 10
5509.55750788115
 20
1120.78187392568
 10
5509.94342291015
 20
1121.13549989728
 10
5510.012830584
 20
1121.1937398508
 10
5510.42809762401
 20
1121.51238545782
 10
5510.86955624211
 20
1121.7936256148
 10
5511.33384667167
 20
1122.03531991431
 10
5511.81743538216
 20
1122.23562891681
 10
5511.90257649836
 20
1122.26661774881
 10
5512.4017830877
 20
1122.42401698183
 10
5512.91280829231
 20
1122.53730854217
 10
5513.43176290182
 20
1122.60563021265
 10
5513.95469735831
 20
1122.6284620241
 10
5514.04530264169
 20
1122.6284620241
 10
5514.56823709818
 20
1122.60563021265
 10
5515.08719170769
 20
1122.53730854217
 10
5515.5982169123
 20
1122.42401698183
 10
5516.09742350164
 20
1122.26661774881
 10
5516.18256461784
 20
1122.23562891681
 10
5516.66615332833
 20
1122.03531991431
 10
5517.13044375789
 20
1121.7936256148
 10
5517.57190237599
 20
1121.51238545782
 10
5517.987169416
 20
1121.1937398508
 10
5518.05657708985
 20
1121.13549989728
 10
5518.44249211885
 20
1120.78187392568
 10
5518.79611809045
 20
1120.39595889668
 10
5519.11476369747
 20
1119.98069185667
 10
5519.39600385444
 20
1119.53923323856
 10
5519.44130649613
 20
1119.46076676144
 10
5519.68300079565
 20
1118.99647633188
 10
5519.88330979814
 20
1118.51288762139
 10
5520.04070903116
 20
1118.01368103205
 10
5520.1540005915
 20
1117.50265582744
 10
5520.40884651807
 20
1116.05735275725
 10
5520.47716818855
 20
1115.53839814774
 10
5520.5
 20
1115.01546369125
 10
5520.5
 20
1048.19391446716
 10
5520.50285499547
 20
1048.06307187726
 10
5520.53043969762
 20
1047.43127832645
 10
5520.553238918
 20
1047.170682045
 10
5520.63578308822
 20
1046.5436968246
 10
5520.65569204385
 20
1046.41434626288
 10
5521.59787871635
 20
1041.07094011643
 10
5521.62341091532
 20
1040.94258108424
 10
5521.76028634262
 20
1040.32517593036
 10
5521.827991261
 20
1040.07249773504
 10
5521.99846962664
 20
1039.53180943666
 10
5522.08793926315
 20
1039.28599363062
 10
5522.30489299738
 20
1038.76222098303
 10
5522.41544643407
 20
1038.52513837296
 10
5522.70745415666
 20
1037.96419675694
 10
5522.770402953
 20
1037.84945625246
 10
5525.48332135262
 20
1033.15054374754
 10
5525.55121514616
 20
1033.03865823853
 10
5525.89100097439
 20
1032.50530132466
 10
5526.04104381916
 20
1032.29101793498
 10
5526.38616737066
 20
1031.84124416589
 10
5526.55431528509
 20
1031.64085328478
 10
5526.9373259042
 20
1031.22287054015
 10
5527.12229918113
 20
1031.03789726322
 10
5527.58855001517
 20
1030.61065708908
 10
5527.68694609837
 20
1030.52436604006
 10
5531.84337822768
 20
1027.03670537334
 10
5531.94544462231
 20
1026.95478843115
 10
5532.44715766586
 20
1026.56981047261
 10
5532.66144105555
 20
1026.41976762784
 10
5533.13958279912
 20
1026.11515774256
 10
5533.36612787139
 20
1025.9843618841
 10
5533.86899864207
 20
1025.72258393019
 10
5534.10608125214
 20
1025.61203049351
 10
5534.69033846591
 20
1025.37002323165
 10
5534.81231381616
 20
1025.32258961212
 10
5539.91093261798
 20
1023.46684413239
 10
5540.03486090015
 20
1023.42477614922
 10
5540.63798716149
 20
1023.23461116948
 10
5540.8906653568
 20
1023.1669062511
 10
5541.44415434155
 20
1023.04420069735
 10
5541.70177189249
 20
1022.99877577241
 10
5542.26384917823
 20
1022.92477689391
 10
5542.52444545969
 20
1022.90197767352
 10
5543.15623901049
 20
1022.87439297137
 10
5543.28708160039
 20
1022.8715379759
 10
5548.71291839961
 20
1022.8715379759
 10
5548.84376098951
 20
1022.87439297137
 10
5549.47555454032
 20
1022.90197767352
 10
5549.73615082177
 20
1022.92477689391
 10
5550.29822810751
 20
1022.99877577241
 10
5550.55584565845
 20
1023.04420069735
 10
5551.1093346432
 20
1023.1669062511
 10
5551.36201283851
 20
1023.23461116948
 10
5551.96513909985
 20
1023.42477614922
 10
5552.08906738202
 20
1023.46684413239
 10
5557.18768618384
 20
1025.32258961212
 10
5557.30966153409
 20
1025.37002323165
 10
5557.89391874786
 20
1025.61203049351
 10
5558.13100135793
 20
1025.72258393019
 10
5558.63387212861
 20
1025.9843618841
 10
5558.86041720088
 20
1026.11515774256
 10
5559.33855894445
 20
1026.41976762784
 10
5559.55284233414
 20
1026.56981047261
 10
5560.05455537769
 20
1026.95478843115
 10
5560.15662177232
 20
1027.03670537334
 10
5564.31305390163
 20
1030.52436604006
 10
5564.41144998483
 20
1030.61065708908
 10
5564.87770081887
 20
1031.03789726322
 10
5565.0626740958
 20
1031.22287054015
 10
5565.44568471491
 20
1031.64085328478
 10
5565.61383262934
 20
1031.84124416589
 10
5565.95895618084
 20
1032.29101793498
 10
5566.10899902561
 20
1032.50530132466
 10
5566.44878485384
 20
1033.03865823853
 10
5566.51667864738
 20
1033.15054374754
 10
5569.229597047
 20
1037.84945625246
 10
5569.29254584334
 20
1037.96419675694
 10
5569.58455356593
 20
1038.52513837296
 10
5569.69510700262
 20
1038.76222098303
 10
5569.91206073685
 20
1039.28599363062
 10
5570.00153037336
 20
1039.53180943666
 10
5570.172008739
 20
1040.07249773504
 10
5570.23971365738
 20
1040.32517593036
 10
5570.37658908468
 20
1040.94258108424
 10
5570.40212128365
 20
1041.07094011643
 10
5571.34430795615
 20
1046.41434626289
 10
5571.36421691178
 20
1046.5436968246
 10
5571.446761082
 20
1047.170682045
 10
5571.46956030238
 20
1047.43127832645
 10
5571.49714500453
 20
1048.06307187726
 10
5571.5
 20
1048.19391446716
 10
5571.5
 20
1105.75
 10
5571.52889163997
 20
1106.33810284198
 10
5571.61528831758
 20
1106.9205419321
 10
5571.75835798561
 20
1107.49170806353
 10
5571.95672280493
 20
1108.04610059419
 10
5572.20847241391
 20
1108.57838042096
 10
5572.51118232619
 20
1109.08342139812
 10
5572.86193727982
 20
1109.55635970498
 10
5573.25735931288
 20
1109.99264068712
 10
5573.69364029502
 20
1110.38806272018
 10
5574.16657860188
 20
1110.73881767382
 10
5574.67161957904
 20
1111.04152758609
 10
5575.20389940581
 20
1111.29327719507
 10
5575.75829193647
 20
1111.49164201439
 10
5576.3294580679
 20
1111.63471168242
 10
5576.91189715802
 20
1111.72110836003
 10
5577.5
 20
1111.75
 10
5578.5
 20
1111.75
 10
5579.08810284198
 20
1111.72110836003
 10
5579.6705419321
 20
1111.63471168242
 10
5580.24170806353
 20
1111.49164201439
 10
5580.79610059419
 20
1111.29327719507
 10
5581.32838042096
 20
1111.04152758609
 10
5581.83342139812
 20
1110.73881767382
 10
5582.30635970498
 20
1110.38806272018
 10
5582.74264068712
 20
1109.99264068712
 10
5583.13806272018
 20
1109.55635970498
 10
5583.48881767382
 20
1109.08342139812
 10
5583.79152758609
 20
1108.57838042096
 10
5584.04327719507
 20
1108.04610059419
 10
5584.24164201439
 20
1107.49170806353
 10
5584.38471168242
 20
1106.9205419321
 10
5584.47110836003
 20
1106.33810284198
 10
5584.5
 20
1105.75
 10
5584.5
 20
1048.19391446716
 10
5584.50285499547
 20
1048.06307187726
 10
5584.53043969762
 20
1047.43127832645
 10
5584.553238918
 20
1047.170682045
 10
5584.63578308822
 20
1046.5436968246
 10
5584.65569204385
 20
1046.41434626289
 10
5585.59787871635
 20
1041.07094011643
 10
5585.62341091532
 20
1040.94258108424
 10
5585.76028634262
 20
1040.32517593036
 10
5585.827991261
 20
1040.07249773504
 10
5585.99846962664
 20
1039.53180943666
 10
5586.08793926315
 20
1039.28599363062
 10
5586.30489299738
 20
1038.76222098303
 10
5586.41544643407
 20
1038.52513837296
 10
5586.70745415666
 20
1037.96419675694
 10
5586.770402953
 20
1037.84945625246
 10
5589.48332135262
 20
1033.15054374754
 10
5589.55121514616
 20
1033.03865823853
 10
5589.89100097439
 20
1032.50530132466
 10
5590.04104381916
 20
1032.29101793498
 10
5590.38616737066
 20
1031.84124416589
 10
5590.55431528509
 20
1031.64085328478
 10
5590.9373259042
 20
1031.22287054015
 10
5591.12229918113
 20
1031.03789726322
 10
5591.58855001517
 20
1030.61065708908
 10
5591.68694609837
 20
1030.52436604006
 10
5595.84337822768
 20
1027.03670537334
 10
5595.94544462231
 20
1026.95478843115
 10
5596.44715766586
 20
1026.56981047261
 10
5596.66144105555
 20
1026.41976762784
 10
5597.13958279912
 20
1026.11515774256
 10
5597.36612787139
 20
1025.9843618841
 10
5597.86899864207
 20
1025.72258393019
 10
5598.10608125214
 20
1025.61203049351
 10
5598.69033846591
 20
1025.37002323165
 10
5598.81231381616
 20
1025.32258961212
 10
5603.91093261798
 20
1023.46684413239
 10
5604.03486090015
 20
1023.42477614922
 10
5604.63798716149
 20
1023.23461116948
 10
5604.8906653568
 20
1023.1669062511
 10
5605.44415434155
 20
1023.04420069735
 10
5605.70177189249
 20
1022.99877577241
 10
5606.26384917823
 20
1022.92477689391
 10
5606.52444545969
 20
1022.90197767352
 10
5607.15623901049
 20
1022.87439297137
 10
5607.28708160039
 20
1022.8715379759
 10
5612.71291839961
 20
1022.8715379759
 10
5612.84376098951
 20
1022.87439297137
 10
5613.47555454032
 20
1022.90197767352
 10
5613.73615082177
 20
1022.92477689391
 10
5614.29822810751
 20
1022.99877577241
 10
5614.55584565845
 20
1023.04420069735
 10
5615.1093346432
 20
1023.1669062511
 10
5615.36201283851
 20
1023.23461116948
 10
5615.96513909985
 20
1023.42477614922
 10
5616.08906738202
 20
1023.46684413239
 10
5621.18768618384
 20
1025.32258961212
 10
5621.30966153409
 20
1025.37002323165
 10
5621.89391874786
 20
1025.61203049351
 10
5622.13100135793
 20
1025.72258393019
 10
5622.63387212861
 20
1025.9843618841
 10
5622.86041720088
 20
1026.11515774256
 10
5623.33855894445
 20
1026.41976762784
 10
5623.55284233414
 20
1026.56981047261
 10
5624.05455537769
 20
1026.95478843115
 10
5624.15662177232
 20
1027.03670537334
 10
5628.31305390163
 20
1030.52436604006
 10
5628.41144998483
 20
1030.61065708908
 10
5628.87770081887
 20
1031.03789726322
 10
5629.0626740958
 20
1031.22287054015
 10
5629.44568471491
 20
1031.64085328478
 10
5629.61383262934
 20
1031.84124416589
 10
5629.95895618084
 20
1032.29101793498
 10
5630.10899902561
 20
1032.50530132466
 10
5630.44878485384
 20
1033.03865823853
 10
5630.51667864738
 20
1033.15054374754
 10
5633.229597047
 20
1037.84945625246
 10
5633.29254584334
 20
1037.96419675694
 10
5633.58455356593
 20
1038.52513837296
 10
5633.69510700262
 20
1038.76222098303
 10
5633.91206073685
 20
1039.28599363062
 10
5634.00153037336
 20
1039.53180943666
 10
5634.172008739
 20
1040.07249773504
 10
5634.23971365738
 20
1040.32517593036
 10
5634.37658908468
 20
1040.94258108424
 10
5634.40212128365
 20
1041.07094011643
 10
5635.34430795615
 20
1046.41434626289
 10
5635.36421691178
 20
1046.5436968246
 10
5635.446761082
 20
1047.170682045
 10
5635.46956030238
 20
1047.43127832645
 10
5635.49714500453
 20
1048.06307187726
 10
5635.5
 20
1048.19391446716
 10
5635.5
 20
1115.01546369125
 10
5635.52283181145
 20
1115.53839814774
 10
5635.59115348193
 20
1116.05735275725
 10
5635.8459994085
 20
1117.50265582744
 10
5635.95929096884
 20
1118.01368103205
 10
5636.11669020186
 20
1118.51288762139
 10
5636.31699920436
 20
1118.99647633188
 10
5636.55869350387
 20
1119.46076676144
 10
5636.60399614556
 20
1119.53923323856
 10
5636.88523630253
 20
1119.98069185667
 10
5637.20388190955
 20
1120.39595889668
 10
5637.55750788115
 20
1120.78187392568
 10
5637.94342291015
 20
1121.13549989728
 10
5638.012830584
 20
1121.1937398508
 10
5638.42809762401
 20
1121.51238545782
 10
5638.86955624211
 20
1121.7936256148
 10
5639.33384667167
 20
1122.03531991431
 10
5639.81743538216
 20
1122.23562891681
 10
5639.90257649836
 20
1122.26661774881
 10
5640.4017830877
 20
1122.42401698183
 10
5640.91280829231
 20
1122.53730854217
 10
5641.43176290182
 20
1122.60563021265
 10
5641.95469735831
 20
1122.6284620241
 10
5642.04530264169
 20
1122.6284620241
 10
5642.56823709818
 20
1122.60563021265
 10
5643.08719170769
 20
1122.53730854217
 10
5643.5982169123
 20
1122.42401698183
 10
5644.09742350164
 20
1122.26661774881
 10
5644.18256461784
 20
1122.23562891681
 10
5644.66615332833
 20
1122.03531991431
 10
5645.13044375789
 20
1121.7936256148
 10
5645.57190237599
 20
1121.51238545782
 10
5645.987169416
 20
1121.1937398508
 10
5646.05657708985
 20
1121.13549989728
 10
5646.44249211885
 20
1120.78187392568
 10
5646.79611809045
 20
1120.39595889668
 10
5647.11476369747
 20
1119.98069185667
 10
5647.39600385444
 20
1119.53923323856
 10
5647.44130649613
 20
1119.46076676144
 10
5647.68300079565
 20
1118.99647633188
 10
5647.88330979814
 20
1118.51288762139
 10
5648.04070903116
 20
1118.01368103205
 10
5648.1540005915
 20
1117.50265582744
 10
5648.40884651807
 20
1116.05735275725
 10
5648.47716818855
 20
1115.53839814774
 10
5648.5
 20
1115.01546369125
 10
5648.5
 20
1048.19391446716
 10
5648.50285499547
 20
1048.06307187726
 10
5648.53043969762
 20
1047.43127832645
 10
5648.553238918
 20
1047.170682045
 10
5648.63578308822
 20
1046.5436968246
 10
5648.65569204385
 20
1046.41434626289
 10
5649.59787871635
 20
1041.07094011643
 10
5649.62341091532
 20
1040.94258108424
 10
5649.76028634262
 20
1040.32517593036
 10
5649.827991261
 20
1040.07249773504
 10
5649.99846962664
 20
1039.53180943666
 10
5650.08793926315
 20
1039.28599363062
 10
5650.30489299738
 20
1038.76222098303
 10
5650.41544643407
 20
1038.52513837296
 10
5650.70745415666
 20
1037.96419675694
 10
5650.770402953
 20
1037.84945625246
 10
5653.48332135262
 20
1033.15054374754
 10
5653.55121514616
 20
1033.03865823853
 10
5653.89100097439
 20
1032.50530132466
 10
5654.04104381916
 20
1032.29101793498
 10
5654.38616737066
 20
1031.84124416589
 10
5654.55431528509
 20
1031.64085328478
 10
5654.9373259042
 20
1031.22287054015
 10
5655.12229918113
 20
1031.03789726322
 10
5655.58855001517
 20
1030.61065708908
 10
5655.68694609837
 20
1030.52436604006
 10
5659.84337822768
 20
1027.03670537334
 10
5659.94544462231
 20
1026.95478843115
 10
5660.44715766586
 20
1026.56981047261
 10
5660.66144105555
 20
1026.41976762784
 10
5661.13958279912
 20
1026.11515774256
 10
5661.36612787139
 20
1025.9843618841
 10
5661.86899864207
 20
1025.72258393019
 10
5662.10608125214
 20
1025.61203049351
 10
5662.69033846591
 20
1025.37002323165
 10
5662.81231381616
 20
1025.32258961212
 10
5667.91093261798
 20
1023.46684413239
 10
5668.03486090015
 20
1023.42477614922
 10
5668.63798716149
 20
1023.23461116948
 10
5668.8906653568
 20
1023.1669062511
 10
5669.44415434155
 20
1023.04420069735
 10
5669.70177189249
 20
1022.99877577241
 10
5670.26384917823
 20
1022.92477689391
 10
5670.52444545969
 20
1022.90197767352
 10
5671.15623901049
 20
1022.87439297137
 10
5671.28708160039
 20
1022.8715379759
 10
5676.71291839961
 20
1022.8715379759
 10
5676.84376098951
 20
1022.87439297137
 10
5677.47555454032
 20
1022.90197767352
 10
5677.73615082177
 20
1022.92477689391
 10
5678.29822810751
 20
1022.99877577241
 10
5678.55584565845
 20
1023.04420069735
 10
5679.1093346432
 20
1023.1669062511
 10
5679.36201283851
 20
1023.23461116948
 10
5679.96513909985
 20
1023.42477614922
 10
5680.08906738202
 20
1023.46684413239
 10
5685.18768618384
 20
1025.32258961212
 10
5685.30966153409
 20
1025.37002323165
 10
5685.89391874786
 20
1025.6120304935
 10
5686.13100135793
 20
1025.7225839302
 10
5686.63387212861
 20
1025.9843618841
 10
5686.86041720088
 20
1026.11515774256
 10
5687.33855894445
 20
1026.41976762784
 10
5687.55284233414
 20
1026.56981047261
 10
5688.05455537769
 20
1026.95478843115
 10
5688.15662177232
 20
1027.03670537334
 10
5692.31305390163
 20
1030.52436604006
 10
5692.41144998483
 20
1030.61065708908
 10
5692.87770081887
 20
1031.03789726322
 10
5693.0626740958
 20
1031.22287054015
 10
5693.44568471491
 20
1031.64085328478
 10
5693.61383262934
 20
1031.84124416589
 10
5693.95895618084
 20
1032.29101793498
 10
5694.10899902561
 20
1032.50530132466
 10
5694.44878485384
 20
1033.03865823853
 10
5694.51667864738
 20
1033.15054374754
 10
5697.229597047
 20
1037.84945625246
 10
5697.29254584334
 20
1037.96419675694
 10
5697.58455356593
 20
1038.52513837296
 10
5697.69510700262
 20
1038.76222098303
 10
5697.91206073685
 20
1039.28599363062
 10
5698.00153037336
 20
1039.53180943666
 10
5698.172008739
 20
1040.07249773504
 10
5698.23971365738
 20
1040.32517593036
 10
5698.37658908468
 20
1040.94258108424
 10
5698.40212128365
 20
1041.07094011643
 10
5699.34430795615
 20
1046.41434626288
 10
5699.36421691178
 20
1046.5436968246
 10
5699.446761082
 20
1047.170682045
 10
5699.46956030238
 20
1047.43127832645
 10
5699.49714500453
 20
1048.06307187726
 10
5699.5
 20
1048.19391446716
 10
5699.5
 20
1115.01546369125
 10
5699.52283181145
 20
1115.53839814774
 10
5699.59115348193
 20
1116.05735275725
 10
5699.8459994085
 20
1117.50265582744
 10
5699.95929096884
 20
1118.01368103205
 10
5700.11669020186
 20
1118.51288762139
 10
5700.31699920436
 20
1118.99647633188
 10
5700.55869350387
 20
1119.46076676144
 10
5700.60399614556
 20
1119.53923323856
 10
5700.88523630253
 20
1119.98069185667
 10
5701.20388190955
 20
1120.39595889668
 10
5701.55750788115
 20
1120.78187392568
 10
5701.94342291015
 20
1121.13549989728
 10
5702.012830584
 20
1121.1937398508
 10
5702.42809762401
 20
1121.51238545782
 10
5702.86955624211
 20
1121.7936256148
 10
5703.33384667167
 20
1122.03531991431
 10
5703.81743538216
 20
1122.23562891681
 10
5703.90257649836
 20
1122.26661774881
 10
5704.40178308769
 20
1122.42401698183
 10
5704.91280829231
 20
1122.53730854217
 10
5705.43176290182
 20
1122.60563021265
 10
5705.95469735831
 20
1122.6284620241
 10
5706.04530264169
 20
1122.6284620241
 10
5706.56823709818
 20
1122.60563021265
 10
5707.08719170769
 20
1122.53730854217
 10
5707.5982169123
 20
1122.42401698183
 10
5708.09742350164
 20
1122.26661774881
 10
5708.18256461784
 20
1122.23562891681
 10
5708.66615332833
 20
1122.03531991431
 10
5709.13044375789
 20
1121.7936256148
 10
5709.57190237599
 20
1121.51238545782
 10
5709.987169416
 20
1121.1937398508
 10
5710.05657708985
 20
1121.13549989728
 10
5710.44249211885
 20
1120.78187392568
 10
5710.79611809045
 20
1120.39595889668
 10
5711.11476369747
 20
1119.98069185667
 10
5711.39600385444
 20
1119.53923323856
 10
5711.44130649613
 20
1119.46076676144
 10
5711.68300079565
 20
1118.99647633188
 10
5711.88330979814
 20
1118.51288762139
 10
5712.04070903116
 20
1118.01368103205
 10
5712.1540005915
 20
1117.50265582744
 10
5712.40884651807
 20
1116.05735275725
 10
5712.47716818855
 20
1115.53839814774
 10
5712.5
 20
1115.01546369125
 10
5712.5
 20
1048.19391446715
 10
5712.50285499547
 20
1048.06307187726
 10
5712.53043969762
 20
1047.43127832645
 10
5712.553238918
 20
1047.170682045
 10
5712.63578308822
 20
1046.5436968246
 10
5712.65569204385
 20
1046.41434626288
 10
5713.59787871635
 20
1041.07094011643
 10
5713.62341091532
 20
1040.94258108424
 10
5713.76028634262
 20
1040.32517593036
 10
5713.827991261
 20
1040.07249773504
 10
5713.99846962664
 20
1039.53180943666
 10
5714.08793926315
 20
1039.28599363062
 10
5714.30489299738
 20
1038.76222098303
 10
5714.41544643407
 20
1038.52513837296
 10
5714.70745415666
 20
1037.96419675694
 10
5714.770402953
 20
1037.84945625246
 10
5717.48332135261
 20
1033.15054374754
 10
5717.55121514617
 20
1033.03865823853
 10
5717.89100097439
 20
1032.50530132466
 10
5718.04104381916
 20
1032.29101793498
 10
5718.38616737066
 20
1031.84124416589
 10
5718.55431528509
 20
1031.64085328478
 10
5718.9373259042
 20
1031.22287054015
 10
5719.12229918113
 20
1031.03789726321
 10
5719.58855001517
 20
1030.61065708908
 10
5719.68694609837
 20
1030.52436604006
 10
5723.84337822769
 20
1027.03670537334
 10
5723.94544462231
 20
1026.95478843115
 10
5724.44715766586
 20
1026.56981047261
 10
5724.66144105555
 20
1026.41976762784
 10
5725.13958279912
 20
1026.11515774256
 10
5725.36612787139
 20
1025.9843618841
 10
5725.86899864207
 20
1025.7225839302
 10
5726.10608125214
 20
1025.6120304935
 10
5726.69033846591
 20
1025.37002323165
 10
5726.81231381616
 20
1025.32258961212
 10
5731.91093261798
 20
1023.46684413239
 10
5732.03486090015
 20
1023.42477614922
 10
5732.63798716149
 20
1023.23461116948
 10
5732.8906653568
 20
1023.1669062511
 10
5733.44415434155
 20
1023.04420069735
 10
5733.70177189249
 20
1022.99877577241
 10
5734.26384917823
 20
1022.92477689391
 10
5734.52444545969
 20
1022.90197767352
 10
5735.15623901049
 20
1022.87439297137
 10
5735.28708160039
 20
1022.8715379759
 10
5740.5
 20
1022.8715379759
 10
5740.5
 20
1017.25
 10
5415.5
 20
1017.25
 97
0
 75
0
 76
1
 98
0
  0
HATCH
  5
20002
  8
0
100
AcDbEntity
100
AcDbHatch
 10
0
 20
0
 30
0
210
0
220
0
230
1
  2
SOLID
 70
1
 71
0
 91
1
 92
2
 72
0
 73
1
 93
707
 10
1259.5
 20
1042.39585712366
 10
1259.5
 20
1147.25
 10
1584.5
 20
1147.25
 10
1584.5
 20
1042.39585712366
 10
1584.18256461784
 20
1042.26437108319
 10
1584.09742350164
 20
1042.23338225119
 10
1583.59821691231
 20
1042.07598301817
 10
1583.08719170769
 20
1041.96269145783
 10
1582.56823709818
 20
1041.89436978735
 10
1582.04530264169
 20
1041.8715379759
 10
1581.95469735831
 20
1041.8715379759
 10
1581.43176290182
 20
1041.89436978735
 10
1580.91280829231
 20
1041.96269145783
 10
1580.40178308769
 20
1042.07598301817
 10
1579.90257649836
 20
1042.23338225119
 10
1579.81743538216
 20
1042.26437108319
 10
1579.33384667167
 20
1042.46468008569
 10
1578.86955624211
 20
1042.7063743852
 10
1578.42809762401
 20
1042.98761454218
 10
1578.012830584
 20
1043.3062601492
 10
1577.94342291015
 20
1043.36450010272
 10
1577.55750788115
 20
1043.71812607432
 10
1577.20388190955
 20
1044.10404110332
 10
1576.88523630253
 20
1044.51930814333
 10
1576.60399614556
 20
1044.96076676144
 10
1576.55869350387
 20
1045.03923323856
 10
1576.31699920435
 20
1045.50352366812
 10
1576.11669020186
 20
1045.98711237861
 10
1575.95929096884
 20
1046.48631896795
 10
1575.8459994085
 20
1046.99734417256
 10
1575.59115348193
 20
1048.44264724275
 10
1575.52283181145
 20
1048.96160185226
 10
1575.5
 20
1049.48453630875
 10
1575.5
 20
1116.30608553284
 10
1575.49714500453
 20
1116.43692812274
 10
1575.46956030238
 20
1117.06872167355
 10
1575.446761082
 20
1117.329317955
 10
1575.36421691178
 20
1117.9563031754
 10
1575.34430795616
 20
1118.08565373712
 10
1574.40212128365
 20
1123.42905988357
 10
1574.37658908468
 20
1123.55741891576
 10
1574.23971365738
 20
1124.17482406964
 10
1574.172008739
 20
1124.42750226496
 10
1574.00153037336
 20
1124.96819056334
 10
1573.91206073685
 20
1125.21400636939
 10
1573.69510700262
 20
1125.73777901697
 10
1573.58455356593
 20
1125.97486162704
 10
1573.29254584334
 20
1126.53580324306
 10
1573.229597047
 20
1126.65054374754
 10
1570.51667864738
 20
1131.34945625246
 10
1570.44878485384
 20
1131.46134176147
 10
1570.10899902561
 20
1131.99469867534
 10
1569.95895618084
 20
1132.20898206502
 10
1569.61383262934
 20
1132.65875583411
 10
1569.44568471491
 20
1132.85914671522
 10
1569.0626740958
 20
1133.27712945985
 10
1568.87770081887
 20
1133.46210273678
 10
1568.41144998483
 20
1133.88934291092
 10
1568.31305390163
 20
1133.97563395994
 10
1564.15662177232
 20
1137.46329462666
 10
1564.05455537769
 20
1137.54521156885
 10
1563.55284233414
 20
1137.93018952739
 10
1563.33855894445
 20
1138.08023237216
 10
1562.86041720088
 20
1138.38484225744
 10
1562.63387212861
 20
1138.5156381159
 10
1562.13100135793
 20
1138.77741606981
 10
1561.89391874786
 20
1138.8879695065
 10
1561.30966153409
 20
1139.12997676835
 10
1561.18768618384
 20
1139.17741038788
 10
1556.08906738202
 20
1141.03315586761
 10
1555.96513909985
 20
1141.07522385078
 10
1555.36201283851
 20
1141.26538883052
 10
1555.1093346432
 20
1141.3330937489
 10
1554.55584565845
 20
1141.45579930265
 10
1554.29822810751
 20
1141.50122422759
 10
1553.73615082177
 20
1141.57522310609
 10
1553.47555454031
 20
1141.59802232648
 10
1552.84376098951
 20
1141.62560702863
 10
1552.71291839961
 20
1141.6284620241
 10
1547.28708160039
 20
1141.6284620241
 10
1547.15623901049
 20
1141.62560702863
 10
1546.52444545969
 20
1141.59802232648
 10
1546.26384917823
 20
1141.57522310609
 10
1545.70177189249
 20
1141.50122422759
 10
1545.44415434155
 20
1141.45579930265
 10
1544.8906653568
 20
1141.3330937489
 10
1544.63798716149
 20
1141.26538883052
 10
1544.03486090015
 20
1141.07522385078
 10
1543.91093261798
 20
1141.03315586761
 10
1538.81231381616
 20
1139.17741038788
 10
1538.69033846591
 20
1139.12997676835
 10
1538.10608125214
 20
1138.8879695065
 10
1537.86899864207
 20
1138.77741606981
 10
1537.36612787139
 20
1138.5156381159
 10
1537.13958279912
 20
1138.38484225744
 10
1536.66144105555
 20
1138.08023237216
 10
1536.44715766586
 20
1137.93018952739
 10
1535.94544462231
 20
1137.54521156885
 10
1535.84337822769
 20
1137.46329462666
 10
1531.68694609837
 20
1133.97563395994
 10
1531.58855001517
 20
1133.88934291092
 10
1531.12229918113
 20
1133.46210273678
 10
1530.9373259042
 20
1133.27712945985
 10
1530.55431528509
 20
1132.85914671522
 10
1530.38616737066
 20
1132.65875583411
 10
1530.04104381916
 20
1132.20898206502
 10
1529.89100097439
 20
1131.99469867534
 10
1529.55121514617
 20
1131.46134176147
 10
1529.48332135261
 20
1131.34945625246
 10
1526.770402953
 20
1126.65054374754
 10
1526.70745415666
 20
1126.53580324306
 10
1526.41544643407
 20
1125.97486162704
 10
1526.30489299738
 20
1125.73777901697
 10
1526.08793926315
 20
1125.21400636938
 10
1525.99846962664
 20
1124.96819056334
 10
1525.827991261
 20
1124.42750226496
 10
1525.76028634262
 20
1124.17482406964
 10
1525.62341091532
 20
1123.55741891576
 10
1525.59787871635
 20
1123.42905988357
 10
1524.65569204385
 20
1118.08565373712
 10
1524.63578308822
 20
1117.9563031754
 10
1524.553238918
 20
1117.329317955
 10
1524.53043969762
 20
1117.06872167355
 10
1524.50285499547
 20
1116.43692812274
 10
1524.5
 20
1116.30608553285
 10
1524.5
 20
1049.48453630875
 10
1524.47716818855
 20
1048.96160185226
 10
1524.40884651807
 20
1048.44264724275
 10
1524.1540005915
 20
1046.99734417256
 10
1524.04070903116
 20
1046.48631896795
 10
1523.88330979814
 20
1045.98711237861
 10
1523.68300079565
 20
1045.50352366812
 10
1523.44130649613
 20
1045.03923323856
 10
1523.39600385444
 20
1044.96076676144
 10
1523.11476369747
 20
1044.51930814333
 10
1522.79611809045
 20
1044.10404110332
 10
1522.44249211885
 20
1043.71812607432
 10
1522.05657708985
 20
1043.36450010272
 10
1521.987169416
 20
1043.30626014919
 10
1521.57190237599
 20
1042.98761454218
 10
1521.13044375789
 20
1042.7063743852
 10
1520.66615332833
 20
1042.46468008569
 10
1520.18256461784
 20
1042.26437108319
 10
1520.09742350164
 20
1042.23338225119
 10
1519.59821691231
 20
1042.07598301817
 10
1519.08719170769
 20
1041.96269145783
 10
1518.56823709818
 20
1041.89436978735
 10
1518.04530264169
 20
1041.8715379759
 10
1517.95469735831
 20
1041.8715379759
 10
1517.43176290182
 20
1041.89436978735
 10
1516.91280829231
 20
1041.96269145783
 10
1516.4017830877
 20
1042.07598301817
 10
1515.90257649836
 20
1042.23338225119
 10
1515.81743538216
 20
1042.26437108319
 10
1515.33384667167
 20
1042.46468008569
 10
1514.86955624211
 20
1042.7063743852
 10
1514.42809762401
 20
1042.98761454218
 10
1514.012830584
 20
1043.3062601492
 10
1513.94342291015
 20
1043.36450010272
 10
1513.55750788115
 20
1043.71812607432
 10
1513.20388190955
 20
1044.10404110332
 10
1512.88523630253
 20
1044.51930814333
 10
1512.60399614556
 20
1044.96076676144
 10
1512.55869350387
 20
1045.03923323856
 10
1512.31699920436
 20
1045.50352366812
 10
1512.11669020186
 20
1045.98711237861
 10
1511.95929096884
 20
1046.48631896795
 10
1511.8459994085
 20
1046.99734417256
 10
1511.59115348193
 20
1048.44264724275
 10
1511.52283181145
 20
1048.96160185226
 10
1511.5
 20
1049.48453630875
 10
1511.5
 20
1116.30608553284
 10
1511.49714500453
 20
1116.43692812274
 10
1511.46956030238
 20
1117.06872167355
 10
1511.446761082
 20
1117.32931795501
 10
1511.36421691178
 20
1117.9563031754
 10
1511.34430795616
 20
1118.08565373712
 10
1510.40212128365
 20
1123.42905988357
 10
1510.37658908468
 20
1123.55741891576
 10
1510.23971365738
 20
1124.17482406964
 10
1510.172008739
 20
1124.42750226496
 10
1510.00153037336
 20
1124.96819056334
 10
1509.91206073685
 20
1125.21400636938
 10
1509.69510700262
 20
1125.73777901697
 10
1509.58455356593
 20
1125.97486162704
 10
1509.29254584334
 20
1126.53580324306
 10
1509.229597047
 20
1126.65054374754
 10
1506.51667864738
 20
1131.34945625246
 10
1506.44878485384
 20
1131.46134176147
 10
1506.10899902561
 20
1131.99469867534
 10
1505.95895618084
 20
1132.20898206502
 10
1505.61383262934
 20
1132.65875583411
 10
1505.44568471491
 20
1132.85914671522
 10
1505.0626740958
 20
1133.27712945985
 10
1504.87770081887
 20
1133.46210273678
 10
1504.41144998483
 20
1133.88934291092
 10
1504.31305390163
 20
1133.97563395994
 10
1500.15662177232
 20
1137.46329462666
 10
1500.05455537769
 20
1137.54521156885
 10
1499.55284233414
 20
1137.93018952739
 10
1499.33855894445
 20
1138.08023237216
 10
1498.86041720088
 20
1138.38484225744
 10
1498.63387212861
 20
1138.5156381159
 10
1498.13100135793
 20
1138.77741606981
 10
1497.89391874786
 20
1138.8879695065
 10
1497.30966153409
 20
1139.12997676835
 10
1497.18768618384
 20
1139.17741038788
 10
1492.08906738202
 20
1141.03315586761
 10
1491.96513909985
 20
1141.07522385078
 10
1491.36201283851
 20
1141.26538883052
 10
1491.1093346432
 20
1141.3330937489
 10
1490.55584565845
 20
1141.45579930265
 10
1490.29822810751
 20
1141.50122422759
 10
1489.73615082177
 20
1141.57522310609
 10
1489.47555454031
 20
1141.59802232648
 10
1488.84376098951
 20
1141.62560702863
 10
1488.71291839961
 20
1141.6284620241
 10
1483.28708160039
 20
1141.6284620241
 10
1483.15623901049
 20
1141.62560702863
 10
1482.52444545969
 20
1141.59802232648
 10
1482.26384917823
 20
1141.57522310609
 10
1481.70177189249
 20
1141.50122422759
 10
1481.44415434155
 20
1141.45579930265
 10
1480.8906653568
 20
1141.3330937489
 10
1480.63798716149
 20
1141.26538883052
 10
1480.03486090015
 20
1141.07522385078
 10
1479.91093261798
 20
1141.03315586761
 10
1474.81231381616
 20
1139.17741038788
 10
1474.69033846591
 20
1139.12997676835
 10
1474.10608125214
 20
1138.8879695065
 10
1473.86899864207
 20
1138.77741606981
 10
1473.36612787139
 20
1138.5156381159
 10
1473.13958279912
 20
1138.38484225744
 10
1472.66144105555
 20
1138.08023237216
 10
1472.44715766586
 20
1137.93018952739
 10
1471.94544462231
 20
1137.54521156885
 10
1471.84337822769
 20
1137.46329462666
 10
1467.68694609837
 20
1133.97563395994
 10
1467.58855001517
 20
1133.88934291092
 10
1467.12229918113
 20
1133.46210273678
 10
1466.9373259042
 20
1133.27712945985
 10
1466.55431528509
 20
1132.85914671522
 10
1466.38616737066
 20
1132.65875583411
 10
1466.04104381916
 20
1132.20898206502
 10
1465.89100097439
 20
1131.99469867534
 10
1465.55121514617
 20
1131.46134176147
 10
1465.48332135261
 20
1131.34945625246
 10
1462.770402953
 20
1126.65054374754
 10
1462.70745415666
 20
1126.53580324306
 10
1462.41544643407
 20
1125.97486162704
 10
1462.30489299738
 20
1125.73777901697
 10
1462.08793926315
 20
1125.21400636938
 10
1461.99846962664
 20
1124.96819056334
 10
1461.827991261
 20
1124.42750226496
 10
1461.76028634262
 20
1124.17482406964
 10
1461.62341091532
 20
1123.55741891576
 10
1461.59787871635
 20
1123.42905988357
 10
1460.65569204385
 20
1118.08565373712
 10
1460.63578308822
 20
1117.9563031754
 10
1460.553238918
 20
1117.329317955
 10
1460.53043969762
 20
1117.06872167355
 10
1460.50285499547
 20
1116.43692812274
 10
1460.5
 20
1116.30608553284
 10
1460.5
 20
1049.48453630875
 10
1460.47716818855
 20
1048.96160185226
 10
1460.40884651807
 20
1048.44264724275
 10
1460.1540005915
 20
1046.99734417256
 10
1460.04070903116
 20
1046.48631896795
 10
1459.88330979814
 20
1045.98711237861
 10
1459.68300079565
 20
1045.50352366812
 10
1459.44130649613
 20
1045.03923323856
 10
1459.39600385444
 20
1044.96076676144
 10
1459.11476369747
 20
1044.51930814333
 10
1458.79611809045
 20
1044.10404110332
 10
1458.44249211885
 20
1043.71812607432
 10
1458.05657708985
 20
1043.36450010272
 10
1457.987169416
 20
1043.3062601492
 10
1457.57190237599
 20
1042.98761454218
 10
1457.13044375789
 20
1042.7063743852
 10
1456.66615332833
 20
1042.46468008569
 10
1456.18256461784
 20
1042.26437108319
 10
1456.09742350164
 20
1042.23338225119
 10
1455.5982169123
 20
1042.07598301817
 10
1455.08719170769
 20
1041.96269145783
 10
1454.56823709818
 20
1041.89436978735
 10
1454.04530264169
 20
1041.8715379759
 10
1453.95469735831
 20
1041.8715379759
 10
1453.43176290182
 20
1041.89436978735
 10
1452.91280829231
 20
1041.96269145783
 10
1452.4017830877
 20
1042.07598301817
 10
1451.90257649836
 20
1042.23338225119
 10
1451.81743538216
 20
1042.26437108319
 10
1451.33384667167
 20
1042.46468008569
 10
1450.86955624211
 20
1042.7063743852
 10
1450.42809762401
 20
1042.98761454218
 10
1450.01283058399
 20
1043.3062601492
 10
1449.94342291015
 20
1043.36450010272
 10
1449.55750788115
 20
1043.71812607432
 10
1449.20388190955
 20
1044.10404110332
 10
1448.88523630253
 20
1044.51930814333
 10
1448.60399614556
 20
1044.96076676144
 10
1448.55869350387
 20
1045.03923323856
 10
1448.31699920435
 20
1045.50352366812
 10
1448.11669020186
 20
1045.98711237861
 10
1447.95929096884
 20
1046.48631896795
 10
1447.8459994085
 20
1046.99734417256
 10
1447.59115348193
 20
1048.44264724275
 10
1447.52283181145
 20
1048.96160185226
 10
1447.5
 20
1049.48453630875
 10
1447.5
 20
1116.30608553284
 10
1447.49714500453
 20
1116.43692812274
 10
1447.46956030238
 20
1117.06872167355
 10
1447.446761082
 20
1117.329317955
 10
1447.36421691178
 20
1117.9563031754
 10
1447.34430795616
 20
1118.08565373711
 10
1446.40212128365
 20
1123.42905988357
 10
1446.37658908468
 20
1123.55741891576
 10
1446.23971365738
 20
1124.17482406964
 10
1446.172008739
 20
1124.42750226496
 10
1446.00153037336
 20
1124.96819056334
 10
1445.91206073685
 20
1125.21400636938
 10
1445.69510700262
 20
1125.73777901697
 10
1445.58455356593
 20
1125.97486162704
 10
1445.29254584334
 20
1126.53580324306
 10
1445.229597047
 20
1126.65054374754
 10
1442.51667864739
 20
1131.34945625246
 10
1442.44878485384
 20
1131.46134176147
 10
1442.10899902561
 20
1131.99469867534
 10
1441.95895618084
 20
1132.20898206502
 10
1441.61383262934
 20
1132.65875583411
 10
1441.44568471491
 20
1132.85914671522
 10
1441.0626740958
 20
1133.27712945985
 10
1440.87770081887
 20
1133.46210273678
 10
1440.41144998483
 20
1133.88934291092
 10
1440.31305390163
 20
1133.97563395994
 10
1436.15662177232
 20
1137.46329462666
 10
1436.05455537769
 20
1137.54521156885
 10
1435.55284233414
 20
1137.93018952739
 10
1435.33855894445
 20
1138.08023237216
 10
1434.86041720088
 20
1138.38484225744
 10
1434.63387212861
 20
1138.5156381159
 10
1434.13100135793
 20
1138.77741606981
 10
1433.89391874786
 20
1138.8879695065
 10
1433.30966153409
 20
1139.12997676835
 10
1433.18768618384
 20
1139.17741038788
 10
1428.08906738202
 20
1141.03315586761
 10
1427.96513909985
 20
1141.07522385078
 10
1427.36201283851
 20
1141.26538883052
 10
1427.1093346432
 20
1141.3330937489
 10
1426.55584565845
 20
1141.45579930265
 10
1426.29822810751
 20
1141.50122422759
 10
1425.73615082177
 20
1141.57522310609
 10
1425.47555454031
 20
1141.59802232648
 10
1424.84376098951
 20
1141.62560702863
 10
1424.71291839961
 20
1141.6284620241
 10
1419.28708160039
 20
1141.6284620241
 10
1419.15623901049
 20
1141.62560702863
 10
1418.52444545969
 20
1141.59802232648
 10
1418.26384917823
 20
1141.57522310609
 10
1417.70177189249
 20
1141.50122422759
 10
1417.44415434155
 20
1141.45579930265
 10
1416.8906653568
 20
1141.3330937489
 10
1416.63798716149
 20
1141.26538883052
 10
1416.03486090015
 20
1141.07522385078
 10
1415.91093261798
 20
1141.03315586761
 10
1410.81231381616
 20
1139.17741038788
 10
1410.69033846591
 20
1139.12997676835
 10
1410.10608125214
 20
1138.8879695065
 10
1409.86899864207
 20
1138.77741606981
 10
1409.36612787139
 20
1138.5156381159
 10
1409.13958279912
 20
1138.38484225744
 10
1408.66144105555
 20
1138.08023237216
 10
1408.44715766586
 20
1137.93018952739
 10
1407.94544462231
 20
1137.54521156885
 10
1407.84337822769
 20
1137.46329462666
 10
1403.68694609837
 20
1133.97563395994
 10
1403.58855001517
 20
1133.88934291092
 10
1403.12229918113
 20
1133.46210273678
 10
1402.9373259042
 20
1133.27712945985
 10
1402.55431528509
 20
1132.85914671522
 10
1402.38616737066
 20
1132.65875583411
 10
1402.04104381916
 20
1132.20898206502
 10
1401.89100097439
 20
1131.99469867534
 10
1401.55121514617
 20
1131.46134176147
 10
1401.48332135261
 20
1131.34945625246
 10
1398.770402953
 20
1126.65054374754
 10
1398.70745415666
 20
1126.53580324306
 10
1398.41544643407
 20
1125.97486162704
 10
1398.30489299738
 20
1125.73777901697
 10
1398.08793926315
 20
1125.21400636938
 10
1397.99846962664
 20
1124.96819056334
 10
1397.827991261
 20
1124.42750226496
 10
1397.76028634262
 20
1124.17482406964
 10
1397.62341091532
 20
1123.55741891576
 10
1397.59787871635
 20
1123.42905988357
 10
1396.65569204385
 20
1118.08565373712
 10
1396.63578308822
 20
1117.9563031754
 10
1396.553238918
 20
1117.329317955
 10
1396.53043969762
 20
1117.06872167355
 10
1396.50285499547
 20
1116.43692812274
 10
1396.5
 20
1116.30608553284
 10
1396.5
 20
1049.48453630875
 10
1396.47716818855
 20
1048.96160185226
 10
1396.40884651807
 20
1048.44264724275
 10
1396.1540005915
 20
1046.99734417256
 10
1396.04070903116
 20
1046.48631896795
 10
1395.88330979814
 20
1045.98711237861
 10
1395.68300079565
 20
1045.50352366812
 10
1395.44130649613
 20
1045.03923323856
 10
1395.39600385444
 20
1044.96076676144
 10
1395.11476369747
 20
1044.51930814333
 10
1394.79611809045
 20
1044.10404110332
 10
1394.44249211885
 20
1043.71812607432
 10
1394.05657708985
 20
1043.36450010272
 10
1393.987169416
 20
1043.3062601492
 10
1393.57190237599
 20
1042.98761454218
 10
1393.13044375789
 20
1042.7063743852
 10
1392.66615332833
 20
1042.46468008569
 10
1392.18256461784
 20
1042.26437108319
 10
1392.09742350164
 20
1042.23338225119
 10
1391.5982169123
 20
1042.07598301817
 10
1391.08719170769
 20
1041.96269145783
 10
1390.56823709818
 20
1041.89436978735
 10
1390.04530264169
 20
1041.8715379759
 10
1389.95469735831
 20
1041.8715379759
 10
1389.43176290182
 20
1041.89436978735
 10
1388.91280829231
 20
1041.96269145783
 10
1388.4017830877
 20
1042.07598301817
 10
1387.90257649836
 20
1042.23338225119
 10
1387.81743538216
 20
1042.26437108319
 10
1387.33384667167
 20
1042.46468008569
 10
1386.86955624211
 20
1042.7063743852
 10
1386.42809762401
 20
1042.98761454218
 10
1386.01283058399
 20
1043.3062601492
 10
1385.94342291015
 20
1043.36450010272
 10
1385.55750788115
 20
1043.71812607432
 10
1385.20388190955
 20
1044.10404110332
 10
1384.88523630253
 20
1044.51930814333
 10
1384.60399614556
 20
1044.96076676144
 10
1384.55869350387
 20
1045.03923323856
 10
1384.31699920436
 20
1045.50352366812
 10
1384.11669020186
 20
1045.98711237861
 10
1383.95929096884
 20
1046.48631896795
 10
1383.8459994085
 20
1046.99734417256
 10
1383.59115348193
 20
1048.44264724275
 10
1383.52283181145
 20
1048.96160185226
 10
1383.5
 20
1049.48453630875
 10
1383.5
 20
1116.30608553284
 10
1383.49714500453
 20
1116.43692812274
 10
1383.46956030238
 20
1117.06872167355
 10
1383.446761082
 20
1117.329317955
 10
1383.36421691178
 20
1117.9563031754
 10
1383.34430795616
 20
1118.08565373712
 10
1382.40212128365
 20
1123.42905988357
 10
1382.37658908468
 20
1123.55741891576
 10
1382.23971365738
 20
1124.17482406964
 10
1382.172008739
 20
1124.42750226496
 10
1382.00153037336
 20
1124.96819056334
 10
1381.91206073685
 20
1125.21400636938
 10
1381.69510700262
 20
1125.73777901697
 10
1381.58455356593
 20
1125.97486162704
 10
1381.29254584334
 20
1126.53580324306
 10
1381.229597047
 20
1126.65054374754
 10
1378.51667864738
 20
1131.34945625246
 10
1378.44878485384
 20
1131.46134176147
 10
1378.10899902561
 20
1131.99469867534
 10
1377.95895618084
 20
1132.20898206502
 10
1377.61383262934
 20
1132.65875583411
 10
1377.44568471491
 20
1132.85914671522
 10
1377.0626740958
 20
1133.27712945985
 10
1376.87770081887
 20
1133.46210273679
 10
1376.41144998483
 20
1133.88934291092
 10
1376.31305390163
 20
1133.97563395994
 10
1372.15662177232
 20
1137.46329462666
 10
1372.05455537769
 20
1137.54521156885
 10
1371.55284233414
 20
1137.93018952739
 10
1371.33855894445
 20
1138.08023237216
 10
1370.86041720088
 20
1138.38484225744
 10
1370.63387212861
 20
1138.5156381159
 10
1370.13100135793
 20
1138.77741606981
 10
1369.89391874786
 20
1138.8879695065
 10
1369.30966153409
 20
1139.12997676835
 10
1369.18768618384
 20
1139.17741038788
 10
1364.08906738202
 20
1141.03315586761
 10
1363.96513909985
 20
1141.07522385078
 10
1363.36201283851
 20
1141.26538883052
 10
1363.1093346432
 20
1141.3330937489
 10
1362.55584565845
 20
1141.45579930265
 10
1362.29822810751
 20
1141.50122422759
 10
1361.73615082177
 20
1141.57522310609
 10
1361.47555454031
 20
1141.59802232648
 10
1360.84376098951
 20
1141.62560702863
 10
1360.71291839961
 20
1141.6284620241
 10
1355.28708160039
 20
1141.6284620241
 10
1355.15623901049
 20
1141.62560702863
 10
1354.52444545969
 20
1141.59802232648
 10
1354.26384917823
 20
1141.57522310609
 10
1353.70177189249
 20
1141.50122422759
 10
1353.44415434155
 20
1141.45579930265
 10
1352.8906653568
 20
1141.3330937489
 10
1352.63798716149
 20
1141.26538883052
 10
1352.03486090015
 20
1141.07522385078
 10
1351.91093261798
 20
1141.03315586761
 10
1346.81231381616
 20
1139.17741038788
 10
1346.69033846591
 20
1139.12997676835
 10
1346.10608125214
 20
1138.8879695065
 10
1345.86899864207
 20
1138.77741606981
 10
1345.36612787139
 20
1138.5156381159
 10
1345.13958279912
 20
1138.38484225744
 10
1344.66144105555
 20
1138.08023237216
 10
1344.44715766586
 20
1137.93018952739
 10
1343.94544462231
 20
1137.54521156885
 10
1343.84337822768
 20
1137.46329462666
 10
1339.68694609837
 20
1133.97563395994
 10
1339.58855001517
 20
1133.88934291092
 10
1339.12229918113
 20
1133.46210273678
 10
1338.9373259042
 20
1133.27712945985
 10
1338.55431528509
 20
1132.85914671522
 10
1338.38616737066
 20
1132.65875583411
 10
1338.04104381916
 20
1132.20898206502
 10
1337.89100097439
 20
1131.99469867534
 10
1337.55121514616
 20
1131.46134176147
 10
1337.48332135262
 20
1131.34945625246
 10
1334.770402953
 20
1126.65054374754
 10
1334.70745415666
 20
1126.53580324306
 10
1334.41544643407
 20
1125.97486162704
 10
1334.30489299738
 20
1125.73777901697
 10
1334.08793926315
 20
1125.21400636938
 10
1333.99846962664
 20
1124.96819056334
 10
1333.827991261
 20
1124.42750226496
 10
1333.76028634262
 20
1124.17482406964
 10
1333.62341091532
 20
1123.55741891576
 10
1333.59787871635
 20
1123.42905988357
 10
1332.65569204385
 20
1118.08565373712
 10
1332.63578308822
 20
1117.9563031754
 10
1332.553238918
 20
1117.329317955
 10
1332.53043969762
 20
1117.06872167355
 10
1332.50285499547
 20
1116.43692812274
 10
1332.5
 20
1116.30608553284
 10
1332.5
 20
1049.48453630875
 10
1332.47716818855
 20
1048.96160185226
 10
1332.40884651807
 20
1048.44264724275
 10
1332.1540005915
 20
1046.99734417256
 10
1332.04070903116
 20
1046.48631896795
 10
1331.88330979814
 20
1045.98711237861
 10
1331.68300079565
 20
1045.50352366812
 10
1331.44130649613
 20
1045.03923323856
 10
1331.39600385444
 20
1044.96076676144
 10
1331.11476369747
 20
1044.51930814333
 10
1330.79611809045
 20
1044.10404110332
 10
1330.44249211885
 20
1043.71812607432
 10
1330.05657708985
 20
1043.36450010272
 10
1329.987169416
 20
1043.3062601492
 10
1329.57190237599
 20
1042.98761454218
 10
1329.13044375789
 20
1042.7063743852
 10
1328.66615332833
 20
1042.46468008569
 10
1328.18256461784
 20
1042.26437108319
 10
1328.09742350164
 20
1042.23338225119
 10
1327.5982169123
 20
1042.07598301817
 10
1327.08719170769
 20
1041.96269145783
 10
1326.56823709818
 20
1041.89436978735
 10
1326.04530264169
 20
1041.8715379759
 10
1325.95469735831
 20
1041.8715379759
 10
1325.43176290182
 20
1041.89436978735
 10
1324.91280829231
 20
1041.96269145783
 10
1324.4017830877
 20
1042.07598301817
 10
1323.90257649836
 20
1042.23338225119
 10
1323.81743538216
 20
1042.26437108319
 10
1323.33384667167
 20
1042.46468008569
 10
1322.86955624211
 20
1042.7063743852
 10
1322.42809762401
 20
1042.98761454218
 10
1322.012830584
 20
1043.3062601492
 10
1321.94342291015
 20
1043.36450010272
 10
1321.55750788115
 20
1043.71812607432
 10
1321.20388190955
 20
1044.10404110332
 10
1320.88523630253
 20
1044.51930814333
 10
1320.60399614556
 20
1044.96076676144
 10
1320.55869350387
 20
1045.03923323856
 10
1320.31699920435
 20
1045.50352366812
 10
1320.11669020186
 20
1045.98711237861
 10
1319.95929096884
 20
1046.48631896795
 10
1319.8459994085
 20
1046.99734417256
 10
1319.59115348193
 20
1048.44264724275
 10
1319.52283181145
 20
1048.96160185226
 10
1319.5
 20
1049.48453630875
 10
1319.5
 20
1116.30608553284
 10
1319.49714500453
 20
1116.43692812274
 10
1319.46956030238
 20
1117.06872167355
 10
1319.446761082
 20
1117.329317955
 10
1319.36421691178
 20
1117.9563031754
 10
1319.34430795616
 20
1118.08565373712
 10
1318.40212128365
 20
1123.42905988357
 10
1318.37658908468
 20
1123.55741891576
 10
1318.23971365738
 20
1124.17482406964
 10
1318.172008739
 20
1124.42750226496
 10
1318.00153037336
 20
1124.96819056334
 10
1317.91206073685
 20
1125.21400636938
 10
1317.69510700262
 20
1125.73777901697
 10
1317.58455356593
 20
1125.97486162704
 10
1317.29254584334
 20
1126.53580324306
 10
1317.229597047
 20
1126.65054374754
 10
1314.51667864739
 20
1131.34945625246
 10
1314.44878485384
 20
1131.46134176147
 10
1314.10899902561
 20
1131.99469867534
 10
1313.95895618084
 20
1132.20898206502
 10
1313.61383262934
 20
1132.65875583411
 10
1313.44568471491
 20
1132.85914671522
 10
1313.0626740958
 20
1133.27712945985
 10
1312.87770081887
 20
1133.46210273678
 10
1312.41144998483
 20
1133.88934291092
 10
1312.31305390163
 20
1133.97563395994
 10
1308.15662177232
 20
1137.46329462666
 10
1308.05455537769
 20
1137.54521156885
 10
1307.55284233414
 20
1137.93018952739
 10
1307.33855894445
 20
1138.08023237216
 10
1306.86041720088
 20
1138.38484225744
 10
1306.63387212861
 20
1138.5156381159
 10
1306.13100135793
 20
1138.77741606981
 10
1305.89391874786
 20
1138.8879695065
 10
1305.30966153409
 20
1139.12997676835
 10
1305.18768618384
 20
1139.17741038788
 10
1300.08906738202
 20
1141.03315586761
 10
1299.96513909985
 20
1141.07522385078
 10
1299.36201283851
 20
1141.26538883052
 10
1299.1093346432
 20
1141.3330937489
 10
1298.55584565845
 20
1141.45579930265
 10
1298.29822810751
 20
1141.50122422759
 10
1297.73615082177
 20
1141.57522310609
 10
1297.47555454031
 20
1141.59802232648
 10
1296.84376098951
 20
1141.62560702863
 10
1296.71291839961
 20
1141.6284620241
 10
1291.28708160039
 20
1141.6284620241
 10
1291.15623901049
 20
1141.62560702863
 10
1290.52444545969
 20
1141.59802232648
 10
1290.26384917823
 20
1141.57522310609
 10
1289.70177189249
 20
1141.50122422759
 10
1289.44415434155
 20
1141.45579930265
 10
1288.8906653568
 20
1141.3330937489
 10
1288.63798716149
 20
1141.26538883052
 10
1288.03486090015
 20
1141.07522385078
 10
1287.91093261798
 20
1141.03315586761
 10
1282.81231381616
 20
1139.17741038788
 10
1282.69033846591
 20
1139.12997676835
 10
1282.10608125214
 20
1138.8879695065
 10
1281.86899864207
 20
1138.77741606981
 10
1281.36612787139
 20
1138.5156381159
 10
1281.13958279912
 20
1138.38484225744
 10
1280.66144105555
 20
1138.08023237216
 10
1280.44715766586
 20
1137.93018952739
 10
1279.94544462231
 20
1137.54521156885
 10
1279.84337822768
 20
1137.46329462666
 10
1275.68694609837
 20
1133.97563395994
 10
1275.58855001517
 20
1133.88934291092
 10
1275.12229918113
 20
1133.46210273678
 10
1274.9373259042
 20
1133.27712945985
 10
1274.55431528509
 20
1132.85914671522
 10
1274.38616737066
 20
1132.65875583411
 10
1274.04104381916
 20
1132.20898206502
 10
1273.89100097439
 20
1131.99469867534
 10
1273.55121514616
 20
1131.46134176147
 10
1273.48332135262
 20
1131.34945625246
 10
1270.770402953
 20
1126.65054374754
 10
1270.70745415666
 20
1126.53580324306
 10
1270.41544643407
 20
1125.97486162704
 10
1270.30489299738
 20
1125.73777901697
 10
1270.08793926315
 20
1125.21400636938
 10
1269.99846962664
 20
1124.96819056334
 10
1269.827991261
 20
1124.42750226496
 10
1269.76028634262
 20
1124.17482406964
 10
1269.62341091532
 20
1123.55741891576
 10
1269.59787871635
 20
1123.42905988357
 10
1268.65569204385
 20
1118.08565373712
 10
1268.63578308822
 20
1117.9563031754
 10
1268.553238918
 20
1117.329317955
 10
1268.53043969762
 20
1117.06872167355
 10
1268.50285499547
 20
1116.43692812274
 10
1268.5
 20
1116.30608553284
 10
1268.5
 20
1049.48453630875
 10
1268.47716818855
 20
1048.96160185226
 10
1268.40884651807
 20
1048.44264724275
 10
1268.1540005915
 20
1046.99734417256
 10
1268.04070903116
 20
1046.48631896795
 10
1267.88330979814
 20
1045.98711237861
 10
1267.68300079565
 20
1045.50352366812
 10
1267.44130649613
 20
1045.03923323856
 10
1267.39600385444
 20
1044.96076676144
 10
1267.11476369747
 20
1044.51930814333
 10
1266.79611809045
 20
1044.10404110332
 10
1266.44249211885
 20
1043.71812607432
 10
1266.05657708985
 20
1043.36450010272
 10
1265.987169416
 20
1043.3062601492
 10
1265.57190237599
 20
1042.98761454218
 10
1265.13044375789
 20
1042.7063743852
 10
1264.66615332833
 20
1042.46468008569
 10
1264.18256461784
 20
1042.26437108319
 10
1264.09742350164
 20
1042.23338225119
 10
1263.5982169123
 20
1042.07598301817
 10
1263.08719170769
 20
1041.96269145783
 10
1262.56823709818
 20
1041.89436978735
 10
1262.04530264169
 20
1041.8715379759
 10
1261.95469735831
 20
1041.8715379759
 10
1261.43176290182
 20
1041.89436978735
 10
1260.91280829231
 20
1041.96269145783
 10
1260.4017830877
 20
1042.07598301817
 10
1259.90257649836
 20
1042.23338225119
 10
1259.81743538216
 20
1042.26437108319
 10
1259.5
 20
1042.39585712366
 97
0
 75
0
 76
1
 98
0
  0
HATCH
  5
20003
  8
0
100
AcDbEntity
100
AcDbHatch
 10
0
 20
0
 30
0
210
0
220
0
230
1
  2
SOLID
 70
1
 71
0
 91
1
 92
2
 72
0
 73
1
 93
707
 10
5415.5
 20
1042.39585712366
 10
5415.5
 20
1147.25
 10
5740.5
 20
1147.25
 10
5740.5
 20
1042.39585712366
 10
5740.18256461784
 20
1042.26437108319
 10
5740.09742350164
 20
1042.23338225119
 10
5739.59821691231
 20
1042.07598301817
 10
5739.08719170769
 20
1041.96269145783
 10
5738.56823709818
 20
1041.89436978735
 10
5738.04530264169
 20
1041.8715379759
 10
5737.95469735831
 20
1041.8715379759
 10
5737.43176290182
 20
1041.89436978735
 10
5736.91280829231
 20
1041.96269145783
 10
5736.40178308769
 20
1042.07598301817
 10
5735.90257649836
 20
1042.23338225119
 10
5735.81743538216
 20
1042.26437108319
 10
5735.33384667167
 20
1042.46468008569
 10
5734.86955624211
 20
1042.7063743852
 10
5734.42809762401
 20
1042.98761454218
 10
5734.012830584
 20
1043.3062601492
 10
5733.94342291015
 20
1043.36450010272
 10
5733.55750788115
 20
1043.71812607432
 10
5733.20388190955
 20
1044.10404110332
 10
5732.88523630253
 20
1044.51930814333
 10
5732.60399614556
 20
1044.96076676144
 10
5732.55869350387
 20
1045.03923323856
 10
5732.31699920435
 20
1045.50352366812
 10
5732.11669020186
 20
1045.98711237861
 10
5731.95929096884
 20
1046.48631896795
 10
5731.8459994085
 20
1046.99734417256
 10
5731.59115348193
 20
1048.44264724275
 10
5731.52283181145
 20
1048.96160185226
 10
5731.5
 20
1049.48453630875
 10
5731.5
 20
1116.30608553284
 10
5731.49714500453
 20
1116.43692812274
 10
5731.46956030238
 20
1117.06872167355
 10
5731.446761082
 20
1117.329317955
 10
5731.36421691178
 20
1117.9563031754
 10
5731.34430795615
 20
1118.08565373712
 10
5730.40212128365
 20
1123.42905988357
 10
5730.37658908468
 20
1123.55741891576
 10
5730.23971365738
 20
1124.17482406964
 10
5730.172008739
 20
1124.42750226496
 10
5730.00153037336
 20
1124.96819056334
 10
5729.91206073685
 20
1125.21400636939
 10
5729.69510700262
 20
1125.73777901697
 10
5729.58455356593
 20
1125.97486162704
 10
5729.29254584334
 20
1126.53580324306
 10
5729.229597047
 20
1126.65054374754
 10
5726.51667864738
 20
1131.34945625246
 10
5726.44878485384
 20
1131.46134176147
 10
5726.10899902561
 20
1131.99469867534
 10
5725.95895618084
 20
1132.20898206502
 10
5725.61383262934
 20
1132.65875583411
 10
5725.44568471491
 20
1132.85914671522
 10
5725.0626740958
 20
1133.27712945985
 10
5724.87770081887
 20
1133.46210273678
 10
5724.41144998483
 20
1133.88934291092
 10
5724.31305390163
 20
1133.97563395994
 10
5720.15662177231
 20
1137.46329462666
 10
5720.05455537769
 20
1137.54521156885
 10
5719.55284233414
 20
1137.93018952739
 10
5719.33855894445
 20
1138.08023237216
 10
5718.86041720088
 20
1138.38484225744
 10
5718.63387212861
 20
1138.5156381159
 10
5718.13100135793
 20
1138.77741606981
 10
5717.89391874786
 20
1138.8879695065
 10
5717.30966153409
 20
1139.12997676835
 10
5717.18768618384
 20
1139.17741038788
 10
5712.08906738202
 20
1141.03315586761
 10
5711.96513909985
 20
1141.07522385078
 10
5711.36201283851
 20
1141.26538883052
 10
5711.1093346432
 20
1141.3330937489
 10
5710.55584565845
 20
1141.45579930265
 10
5710.29822810751
 20
1141.50122422759
 10
5709.73615082177
 20
1141.57522310609
 10
5709.47555454032
 20
1141.59802232648
 10
5708.84376098951
 20
1141.62560702863
 10
5708.71291839961
 20
1141.6284620241
 10
5703.28708160039
 20
1141.6284620241
 10
5703.15623901049
 20
1141.62560702863
 10
5702.52444545969
 20
1141.59802232648
 10
5702.26384917823
 20
1141.57522310609
 10
5701.70177189249
 20
1141.50122422759
 10
5701.44415434155
 20
1141.45579930265
 10
5700.8906653568
 20
1141.3330937489
 10
5700.63798716149
 20
1141.26538883052
 10
5700.03486090015
 20
1141.07522385078
 10
5699.91093261798
 20
1141.03315586761
 10
5694.81231381616
 20
1139.17741038788
 10
5694.69033846591
 20
1139.12997676835
 10
5694.10608125214
 20
1138.8879695065
 10
5693.86899864207
 20
1138.77741606981
 10
5693.36612787139
 20
1138.5156381159
 10
5693.13958279912
 20
1138.38484225744
 10
5692.66144105555
 20
1138.08023237216
 10
5692.44715766586
 20
1137.93018952739
 10
5691.94544462231
 20
1137.54521156885
 10
5691.84337822769
 20
1137.46329462666
 10
5687.68694609837
 20
1133.97563395994
 10
5687.58855001517
 20
1133.88934291092
 10
5687.12229918113
 20
1133.46210273678
 10
5686.9373259042
 20
1133.27712945985
 10
5686.55431528509
 20
1132.85914671522
 10
5686.38616737066
 20
1132.65875583411
 10
5686.04104381916
 20
1132.20898206502
 10
5685.89100097439
 20
1131.99469867534
 10
5685.55121514617
 20
1131.46134176147
 10
5685.48332135261
 20
1131.34945625246
 10
5682.770402953
 20
1126.65054374754
 10
5682.70745415666
 20
1126.53580324306
 10
5682.41544643407
 20
1125.97486162704
 10
5682.30489299738
 20
1125.73777901697
 10
5682.08793926315
 20
1125.21400636938
 10
5681.99846962664
 20
1124.96819056334
 10
5681.827991261
 20
1124.42750226496
 10
5681.76028634262
 20
1124.17482406964
 10
5681.62341091532
 20
1123.55741891576
 10
5681.59787871635
 20
1123.42905988357
 10
5680.65569204385
 20
1118.08565373712
 10
5680.63578308822
 20
1117.9563031754
 10
5680.553238918
 20
1117.329317955
 10
5680.53043969762
 20
1117.06872167355
 10
5680.50285499547
 20
1116.43692812274
 10
5680.5
 20
1116.30608553285
 10
5680.5
 20
1049.48453630875
 10
5680.47716818855
 20
1048.96160185226
 10
5680.40884651807
 20
1048.44264724275
 10
5680.1540005915
 20
1046.99734417256
 10
5680.04070903116
 20
1046.48631896795
 10
5679.88330979814
 20
1045.98711237861
 10
5679.68300079565
 20
1045.50352366812
 10
5679.44130649613
 20
1045.03923323856
 10
5679.39600385444
 20
1044.96076676144
 10
5679.11476369747
 20
1044.51930814333
 10
5678.79611809045
 20
1044.10404110332
 10
5678.44249211885
 20
1043.71812607432
 10
5678.05657708985
 20
1043.36450010272
 10
5677.987169416
 20
1043.30626014919
 10
5677.57190237599
 20
1042.98761454218
 10
5677.13044375789
 20
1042.7063743852
 10
5676.66615332833
 20
1042.46468008569
 10
5676.18256461784
 20
1042.26437108319
 10
5676.09742350164
 20
1042.23338225119
 10
5675.59821691231
 20
1042.07598301817
 10
5675.08719170769
 20
1041.96269145783
 10
5674.56823709818
 20
1041.89436978735
 10
5674.04530264169
 20
1041.8715379759
 10
5673.95469735831
 20
1041.8715379759
 10
5673.43176290182
 20
1041.89436978735
 10
5672.91280829231
 20
1041.96269145783
 10
5672.40178308769
 20
1042.07598301817
 10
5671.90257649836
 20
1042.23338225119
 10
5671.81743538216
 20
1042.26437108319
 10
5671.33384667167
 20
1042.46468008569
 10
5670.86955624211
 20
1042.7063743852
 10
5670.42809762401
 20
1042.98761454218
 10
5670.012830584
 20
1043.3062601492
 10
5669.94342291015
 20
1043.36450010272
 10
5669.55750788115
 20
1043.71812607432
 10
5669.20388190955
 20
1044.10404110332
 10
5668.88523630253
 20
1044.51930814333
 10
5668.60399614556
 20
1044.96076676144
 10
5668.55869350387
 20
1045.03923323856
 10
5668.31699920435
 20
1045.50352366812
 10
5668.11669020186
 20
1045.98711237861
 10
5667.95929096884
 20
1046.48631896795
 10
5667.8459994085
 20
1046.99734417256
 10
5667.59115348193
 20
1048.44264724275
 10
5667.52283181145
 20
1048.96160185226
 10
5667.5
 20
1049.48453630875
 10
5667.5
 20
1116.30608553284
 10
5667.49714500453
 20
1116.43692812274
 10
5667.46956030238
 20
1117.06872167355
 10
5667.446761082
 20
1117.32931795501
 10
5667.36421691178
 20
1117.9563031754
 10
5667.34430795615
 20
1118.08565373712
 10
5666.40212128365
 20
1123.42905988357
 10
5666.37658908468
 20
1123.55741891576
 10
5666.23971365738
 20
1124.17482406964
 10
5666.172008739
 20
1124.42750226496
 10
5666.00153037336
 20
1124.96819056334
 10
5665.91206073685
 20
1125.21400636938
 10
5665.69510700262
 20
1125.73777901697
 10
5665.58455356593
 20
1125.97486162704
 10
5665.29254584334
 20
1126.53580324306
 10
5665.229597047
 20
1126.65054374754
 10
5662.51667864738
 20
1131.34945625246
 10
5662.44878485384
 20
1131.46134176147
 10
5662.10899902561
 20
1131.99469867534
 10
5661.95895618084
 20
1132.20898206502
 10
5661.61383262934
 20
1132.65875583411
 10
5661.44568471491
 20
1132.85914671522
 10
5661.0626740958
 20
1133.27712945985
 10
5660.87770081887
 20
1133.46210273678
 10
5660.41144998483
 20
1133.88934291092
 10
5660.31305390163
 20
1133.97563395994
 10
5656.15662177231
 20
1137.46329462666
 10
5656.05455537769
 20
1137.54521156885
 10
5655.55284233414
 20
1137.93018952739
 10
5655.33855894445
 20
1138.08023237216
 10
5654.86041720088
 20
1138.38484225744
 10
5654.63387212861
 20
1138.5156381159
 10
5654.13100135793
 20
1138.77741606981
 10
5653.89391874786
 20
1138.8879695065
 10
5653.30966153409
 20
1139.12997676835
 10
5653.18768618384
 20
1139.17741038788
 10
5648.08906738202
 20
1141.03315586761
 10
5647.96513909985
 20
1141.07522385078
 10
5647.36201283851
 20
1141.26538883052
 10
5647.1093346432
 20
1141.3330937489
 10
5646.55584565845
 20
1141.45579930265
 10
5646.29822810751
 20
1141.50122422759
 10
5645.73615082177
 20
1141.57522310609
 10
5645.47555454031
 20
1141.59802232648
 10
5644.84376098951
 20
1141.62560702863
 10
5644.71291839961
 20
1141.6284620241
 10
5639.28708160039
 20
1141.6284620241
 10
5639.15623901049
 20
1141.62560702863
 10
5638.52444545969
 20
1141.59802232648
 10
5638.26384917823
 20
1141.57522310609
 10
5637.70177189249
 20
1141.50122422759
 10
5637.44415434155
 20
1141.45579930265
 10
5636.8906653568
 20
1141.3330937489
 10
5636.63798716149
 20
1141.26538883052
 10
5636.03486090015
 20
1141.07522385078
 10
5635.91093261798
 20
1141.03315586761
 10
5630.81231381616
 20
1139.17741038788
 10
5630.69033846591
 20
1139.12997676835
 10
5630.10608125214
 20
1138.8879695065
 10
5629.86899864207
 20
1138.77741606981
 10
5629.36612787139
 20
1138.5156381159
 10
5629.13958279912
 20
1138.38484225744
 10
5628.66144105555
 20
1138.08023237216
 10
5628.44715766586
 20
1137.93018952739
 10
5627.94544462231
 20
1137.54521156885
 10
5627.84337822769
 20
1137.46329462666
 10
5623.68694609837
 20
1133.97563395994
 10
5623.58855001517
 20
1133.88934291092
 10
5623.12229918113
 20
1133.46210273678
 10
5622.9373259042
 20
1133.27712945985
 10
5622.55431528509
 20
1132.85914671522
 10
5622.38616737066
 20
1132.65875583411
 10
5622.04104381916
 20
1132.20898206502
 10
5621.89100097439
 20
1131.99469867534
 10
5621.55121514617
 20
1131.46134176147
 10
5621.48332135261
 20
1131.34945625246
 10
5618.770402953
 20
1126.65054374754
 10
5618.70745415666
 20
1126.53580324306
 10
5618.41544643407
 20
1125.97486162704
 10
5618.30489299738
 20
1125.73777901697
 10
5618.08793926315
 20
1125.21400636938
 10
5617.99846962664
 20
1124.96819056334
 10
5617.827991261
 20
1124.42750226496
 10
5617.76028634262
 20
1124.17482406964
 10
5617.62341091532
 20
1123.55741891576
 10
5617.59787871635
 20
1123.42905988357
 10
5616.65569204385
 20
1118.08565373712
 10
5616.63578308822
 20
1117.9563031754
 10
5616.553238918
 20
1117.329317955
 10
5616.53043969762
 20
1117.06872167355
 10
5616.50285499547
 20
1116.43692812274
 10
5616.5
 20
1116.30608553284
 10
5616.5
 20
1049.48453630875
 10
5616.47716818855
 20
1048.96160185226
 10
5616.40884651807
 20
1048.44264724275
 10
5616.1540005915
 20
1046.99734417256
 10
5616.04070903116
 20
1046.48631896795
 10
5615.88330979814
 20
1045.98711237861
 10
5615.68300079565
 20
1045.50352366812
 10
5615.44130649613
 20
1045.03923323856
 10
5615.39600385444
 20
1044.96076676144
 10
5615.11476369747
 20
1044.51930814333
 10
5614.79611809045
 20
1044.10404110332
 10
5614.44249211885
 20
1043.71812607432
 10
5614.05657708985
 20
1043.36450010272
 10
5613.987169416
 20
1043.3062601492
 10
5613.57190237599
 20
1042.98761454218
 10
5613.13044375789
 20
1042.7063743852
 10
5612.66615332833
 20
1042.46468008569
 10
5612.18256461784
 20
1042.26437108319
 10
5612.09742350164
 20
1042.23338225119
 10
5611.59821691231
 20
1042.07598301817
 10
5611.08719170769
 20
1041.96269145783
 10
5610.56823709818
 20
1041.89436978735
 10
5610.04530264169
 20
1041.8715379759
 10
5609.95469735831
 20
1041.8715379759
 10
5609.43176290182
 20
1041.89436978735
 10
5608.91280829231
 20
1041.96269145783
 10
5608.4017830877
 20
1042.07598301817
 10
5607.90257649836
 20
1042.23338225119
 10
5607.81743538216
 20
1042.26437108319
 10
5607.33384667167
 20
1042.46468008569
 10
5606.86955624211
 20
1042.7063743852
 10
5606.42809762401
 20
1042.98761454218
 10
5606.012830584
 20
1043.3062601492
 10
5605.94342291015
 20
1043.36450010272
 10
5605.55750788115
 20
1043.71812607432
 10
5605.20388190955
 20
1044.10404110332
 10
5604.88523630253
 20
1044.51930814333
 10
5604.60399614556
 20
1044.96076676144
 10
5604.55869350387
 20
1045.03923323856
 10
5604.31699920435
 20
1045.50352366812
 10
5604.11669020186
 20
1045.98711237861
 10
5603.95929096884
 20
1046.48631896795
 10
5603.8459994085
 20
1046.99734417256
 10
5603.59115348193
 20
1048.44264724275
 10
5603.52283181145
 20
1048.96160185226
 10
5603.5
 20
1049.48453630875
 10
5603.5
 20
1116.30608553284
 10
5603.49714500453
 20
1116.43692812274
 10
5603.46956030238
 20
1117.06872167355
 10
5603.446761082
 20
1117.329317955
 10
5603.36421691178
 20
1117.9563031754
 10
5603.34430795615
 20
1118.08565373711
 10
5602.40212128365
 20
1123.42905988357
 10
5602.37658908468
 20
1123.55741891576
 10
5602.23971365738
 20
1124.17482406964
 10
5602.172008739
 20
1124.42750226496
 10
5602.00153037336
 20
1124.96819056334
 10
5601.91206073685
 20
1125.21400636938
 10
5601.69510700262
 20
1125.73777901697
 10
5601.58455356593
 20
1125.97486162704
 10
5601.29254584334
 20
1126.53580324306
 10
5601.229597047
 20
1126.65054374754
 10
5598.51667864739
 20
1131.34945625246
 10
5598.44878485383
 20
1131.46134176147
 10
5598.10899902561
 20
1131.99469867534
 10
5597.95895618084
 20
1132.20898206502
 10
5597.61383262934
 20
1132.65875583411
 10
5597.44568471491
 20
1132.85914671522
 10
5597.0626740958
 20
1133.27712945985
 10
5596.87770081887
 20
1133.46210273678
 10
5596.41144998483
 20
1133.88934291092
 10
5596.31305390163
 20
1133.97563395994
 10
5592.15662177231
 20
1137.46329462666
 10
5592.05455537769
 20
1137.54521156885
 10
5591.55284233414
 20
1137.93018952739
 10
5591.33855894445
 20
1138.08023237216
 10
5590.86041720088
 20
1138.38484225744
 10
5590.63387212861
 20
1138.5156381159
 10
5590.13100135793
 20
1138.77741606981
 10
5589.89391874786
 20
1138.8879695065
 10
5589.30966153409
 20
1139.12997676835
 10
5589.18768618384
 20
1139.17741038788
 10
5584.08906738202
 20
1141.03315586761
 10
5583.96513909985
 20
1141.07522385078
 10
5583.36201283851
 20
1141.26538883052
 10
5583.1093346432
 20
1141.3330937489
 10
5582.55584565845
 20
1141.45579930265
 10
5582.29822810751
 20
1141.50122422759
 10
5581.73615082177
 20
1141.57522310609
 10
5581.47555454031
 20
1141.59802232648
 10
5580.84376098951
 20
1141.62560702863
 10
5580.71291839961
 20
1141.6284620241
 10
5575.28708160039
 20
1141.6284620241
 10
5575.15623901049
 20
1141.62560702863
 10
5574.52444545969
 20
1141.59802232648
 10
5574.26384917823
 20
1141.57522310609
 10
5573.70177189249
 20
1141.50122422759
 10
5573.44415434155
 20
1141.45579930265
 10
5572.8906653568
 20
1141.3330937489
 10
5572.63798716149
 20
1141.26538883052
 10
5572.03486090015
 20
1141.07522385078
 10
5571.91093261798
 20
1141.03315586761
 10
5566.81231381616
 20
1139.17741038788
 10
5566.69033846591
 20
1139.12997676835
 10
5566.10608125214
 20
1138.8879695065
 10
5565.86899864207
 20
1138.77741606981
 10
5565.36612787139
 20
1138.5156381159
 10
5565.13958279912
 20
1138.38484225744
 10
5564.66144105555
 20
1138.08023237216
 10
5564.44715766586
 20
1137.93018952739
 10
5563.94544462231
 20
1137.54521156885
 10
5563.84337822769
 20
1137.46329462666
 10
5559.68694609837
 20
1133.97563395994
 10
5559.58855001517
 20
1133.88934291092
 10
5559.12229918113
 20
1133.46210273678
 10
5558.9373259042
 20
1133.27712945985
 10
5558.55431528509
 20
1132.85914671522
 10
5558.38616737066
 20
1132.65875583411
 10
5558.04104381916
 20
1132.20898206502
 10
5557.89100097439
 20
1131.99469867534
 10
5557.55121514617
 20
1131.46134176147
 10
5557.48332135261
 20
1131.34945625246
 10
5554.770402953
 20
1126.65054374754
 10
5554.70745415666
 20
1126.53580324306
 10
5554.41544643407
 20
1125.97486162704
 10
5554.30489299738
 20
1125.73777901697
 10
5554.08793926315
 20
1125.21400636938
 10
5553.99846962664
 20
1124.96819056334
 10
5553.827991261
 20
1124.42750226496
 10
5553.76028634262
 20
1124.17482406964
 10
5553.62341091532
 20
1123.55741891576
 10
5553.59787871635
 20
1123.42905988357
 10
5552.65569204385
 20
1118.08565373712
 10
5552.63578308822
 20
1117.9563031754
 10
5552.553238918
 20
1117.329317955
 10
5552.53043969762
 20
1117.06872167355
 10
5552.50285499547
 20
1116.43692812274
 10
5552.5
 20
1116.30608553284
 10
5552.5
 20
1049.48453630875
 10
5552.47716818855
 20
1048.96160185226
 10
5552.40884651807
 20
1048.44264724275
 10
5552.1540005915
 20
1046.99734417256
 10
5552.04070903116
 20
1046.48631896795
 10
5551.88330979814
 20
1045.98711237861
 10
5551.68300079565
 20
1045.50352366812
 10
5551.44130649613
 20
1045.03923323856
 10
5551.39600385444
 20
1044.96076676144
 10
5551.11476369747
 20
1044.51930814333
 10
5550.79611809045
 20
1044.10404110332
 10
5550.44249211885
 20
1043.71812607432
 10
5550.05657708985
 20
1043.36450010272
 10
5549.987169416
 20
1043.3062601492
 10
5549.57190237599
 20
1042.98761454218
 10
5549.13044375789
 20
1042.7063743852
 10
5548.66615332833
 20
1042.46468008569
 10
5548.18256461784
 20
1042.26437108319
 10
5548.09742350164
 20
1042.23338225119
 10
5547.59821691231
 20
1042.07598301817
 10
5547.08719170769
 20
1041.96269145783
 10
5546.56823709818
 20
1041.89436978735
 10
5546.04530264169
 20
1041.8715379759
 10
5545.95469735831
 20
1041.8715379759
 10
5545.43176290182
 20
1041.89436978735
 10
5544.91280829231
 20
1041.96269145783
 10
5544.4017830877
 20
1042.07598301817
 10
5543.90257649836
 20
1042.23338225119
 10
5543.81743538216
 20
1042.26437108319
 10
5543.33384667167
 20
1042.46468008569
 10
5542.86955624211
 20
1042.7063743852
 10
5542.42809762401
 20
1042.98761454218
 10
5542.012830584
 20
1043.3062601492
 10
5541.94342291015
 20
1043.36450010272
 10
5541.55750788115
 20
1043.71812607432
 10
5541.20388190955
 20
1044.10404110332
 10
5540.88523630253
 20
1044.51930814333
 10
5540.60399614556
 20
1044.96076676144
 10
5540.55869350387
 20
1045.03923323856
 10
5540.31699920435
 20
1045.50352366812
 10
5540.11669020186
 20
1045.98711237861
 10
5539.95929096884
 20
1046.48631896795
 10
5539.8459994085
 20
1046.99734417256
 10
5539.59115348193
 20
1048.44264724275
 10
5539.52283181145
 20
1048.96160185226
 10
5539.5
 20
1049.48453630875
 10
5539.5
 20
1116.30608553284
 10
5539.49714500453
 20
1116.43692812274
 10
5539.46956030238
 20
1117.06872167355
 10
5539.446761082
 20
1117.329317955
 10
5539.36421691178
 20
1117.9563031754
 10
5539.34430795615
 20
1118.08565373712
 10
5538.40212128365
 20
1123.42905988357
 10
5538.37658908468
 20
1123.55741891576
 10
5538.23971365738
 20
1124.17482406964
 10
5538.172008739
 20
1124.42750226496
 10
5538.00153037336
 20
1124.96819056334
 10
5537.91206073685
 20
1125.21400636938
 10
5537.69510700262
 20
1125.73777901697
 10
5537.58455356593
 20
1125.97486162704
 10
5537.29254584334
 20
1126.53580324306
 10
5537.229597047
 20
1126.65054374754
 10
5534.51667864738
 20
1131.34945625246
 10
5534.44878485384
 20
1131.46134176147
 10
5534.10899902561
 20
1131.99469867534
 10
5533.95895618084
 20
1132.20898206502
 10
5533.61383262934
 20
1132.65875583411
 10
5533.44568471491
 20
1132.85914671522
 10
5533.0626740958
 20
1133.27712945985
 10
5532.87770081887
 20
1133.46210273679
 10
5532.41144998483
 20
1133.88934291092
 10
5532.31305390163
 20
1133.97563395994
 10
5528.15662177232
 20
1137.46329462666
 10
5528.05455537769
 20
1137.54521156885
 10
5527.55284233414
 20
1137.93018952739
 10
5527.33855894445
 20
1138.08023237216
 10
5526.86041720088
 20
1138.38484225744
 10
5526.63387212861
 20
1138.5156381159
 10
5526.13100135793
 20
1138.77741606981
 10
5525.89391874786
 20
1138.8879695065
 10
5525.30966153409
 20
1139.12997676835
 10
5525.18768618384
 20
1139.17741038788
 10
5520.08906738202
 20
1141.03315586761
 10
5519.96513909985
 20
1141.07522385078
 10
5519.36201283851
 20
1141.26538883052
 10
5519.1093346432
 20
1141.3330937489
 10
5518.55584565845
 20
1141.45579930265
 10
5518.29822810751
 20
1141.50122422759
 10
5517.73615082177
 20
1141.57522310609
 10
5517.47555454031
 20
1141.59802232648
 10
5516.84376098951
 20
1141.62560702863
 10
5516.71291839961
 20
1141.6284620241
 10
5511.28708160039
 20
1141.6284620241
 10
5511.15623901049
 20
1141.62560702863
 10
5510.52444545969
 20
1141.59802232648
 10
5510.26384917823
 20
1141.57522310609
 10
5509.70177189249
 20
1141.50122422759
 10
5509.44415434155
 20
1141.45579930265
 10
5508.8906653568
 20
1141.3330937489
 10
5508.63798716149
 20
1141.26538883052
 10
5508.03486090015
 20
1141.07522385078
 10
5507.91093261798
 20
1141.03315586761
 10
5502.81231381616
 20
1139.17741038788
 10
5502.69033846591
 20
1139.12997676835
 10
5502.10608125214
 20
1138.8879695065
 10
5501.86899864207
 20
1138.77741606981
 10
5501.36612787139
 20
1138.5156381159
 10
5501.13958279912
 20
1138.38484225744
 10
5500.66144105555
 20
1138.08023237216
 10
5500.44715766586
 20
1137.93018952739
 10
5499.94544462231
 20
1137.54521156885
 10
5499.84337822768
 20
1137.46329462666
 10
5495.68694609837
 20
1133.97563395994
 10
5495.58855001517
 20
1133.88934291092
 10
5495.12229918113
 20
1133.46210273678
 10
5494.9373259042
 20
1133.27712945985
 10
5494.55431528509
 20
1132.85914671522
 10
5494.38616737066
 20
1132.65875583411
 10
5494.04104381916
 20
1132.20898206502
 10
5493.89100097439
 20
1131.99469867534
 10
5493.55121514616
 20
1131.46134176147
 10
5493.48332135262
 20
1131.34945625246
 10
5490.770402953
 20
1126.65054374754
 10
5490.70745415666
 20
1126.53580324306
 10
5490.41544643407
 20
1125.97486162704
 10
5490.30489299738
 20
1125.73777901697
 10
5490.08793926315
 20
1125.21400636938
 10
5489.99846962664
 20
1124.96819056334
 10
5489.827991261
 20
1124.42750226496
 10
5489.76028634262
 20
1124.17482406964
 10
5489.62341091532
 20
1123.55741891576
 10
5489.59787871635
 20
1123.42905988357
 10
5488.65569204385
 20
1118.08565373712
 10
5488.63578308822
 20
1117.9563031754
 10
5488.553238918
 20
1117.329317955
 10
5488.53043969762
 20
1117.06872167355
 10
5488.50285499547
 20
1116.43692812274
 10
5488.5
 20
1116.30608553284
 10
5488.5
 20
1049.48453630875
 10
5488.47716818855
 20
1048.96160185226
 10
5488.40884651807
 20
1048.44264724275
 10
5488.1540005915
 20
1046.99734417256
 10
5488.04070903116
 20
1046.48631896795
 10
5487.88330979814
 20
1045.98711237861
 10
5487.68300079565
 20
1045.50352366812
 10
5487.44130649613
 20
1045.03923323856
 10
5487.39600385444
 20
1044.96076676144
 10
5487.11476369747
 20
1044.51930814333
 10
5486.79611809045
 20
1044.10404110332
 10
5486.44249211885
 20
1043.71812607432
 10
5486.05657708985
 20
1043.36450010272
 10
5485.987169416
 20
1043.3062601492
 10
5485.57190237599
 20
1042.98761454218
 10
5485.13044375789
 20
1042.7063743852
 10
5484.66615332833
 20
1042.46468008569
 10
5484.18256461784
 20
1042.26437108319
 10
5484.09742350164
 20
1042.23338225119
 10
5483.5982169123
 20
1042.07598301817
 10
5483.08719170769
 20
1041.96269145783
 10
5482.56823709818
 20
1041.89436978735
 10
5482.04530264169
 20
1041.8715379759
 10
5481.95469735831
 20
1041.8715379759
 10
5481.43176290182
 20
1041.89436978735
 10
5480.91280829231
 20
1041.96269145783
 10
5480.4017830877
 20
1042.07598301817
 10
5479.90257649836
 20
1042.23338225119
 10
5479.81743538216
 20
1042.26437108319
 10
5479.33384667167
 20
1042.46468008569
 10
5478.86955624211
 20
1042.7063743852
 10
5478.42809762401
 20
1042.98761454218
 10
5478.012830584
 20
1043.3062601492
 10
5477.94342291015
 20
1043.36450010272
 10
5477.55750788115
 20
1043.71812607432
 10
5477.20388190955
 20
1044.10404110332
 10
5476.88523630253
 20
1044.51930814333
 10
5476.60399614556
 20
1044.96076676144
 10
5476.55869350387
 20
1045.03923323856
 10
5476.31699920435
 20
1045.50352366812
 10
5476.11669020186
 20
1045.98711237861
 10
5475.95929096884
 20
1046.48631896795
 10
5475.8459994085
 20
1046.99734417256
 10
5475.59115348193
 20
1048.44264724275
 10
5475.52283181145
 20
1048.96160185226
 10
5475.5
 20
1049.48453630875
 10
5475.5
 20
1116.30608553284
 10
5475.49714500453
 20
1116.43692812274
 10
5475.46956030238
 20
1117.06872167355
 10
5475.446761082
 20
1117.329317955
 10
5475.36421691178
 20
1117.9563031754
 10
5475.34430795615
 20
1118.08565373712
 10
5474.40212128365
 20
1123.42905988357
 10
5474.37658908468
 20
1123.55741891576
 10
5474.23971365738
 20
1124.17482406964
 10
5474.172008739
 20
1124.42750226496
 10
5474.00153037336
 20
1124.96819056334
 10
5473.91206073685
 20
1125.21400636938
 10
5473.69510700262
 20
1125.73777901697
 10
5473.58455356593
 20
1125.97486162704
 10
5473.29254584334
 20
1126.53580324306
 10
5473.229597047
 20
1126.65054374754
 10
5470.51667864738
 20
1131.34945625246
 10
5470.44878485384
 20
1131.46134176147
 10
5470.10899902561
 20
1131.99469867534
 10
5469.95895618084
 20
1132.20898206502
 10
5469.61383262934
 20
1132.65875583411
 10
5469.44568471491
 20
1132.85914671522
 10
5469.0626740958
 20
1133.27712945985
 10
5468.87770081887
 20
1133.46210273678
 10
5468.41144998483
 20
1133.88934291092
 10
5468.31305390163
 20
1133.97563395994
 10
5464.15662177231
 20
1137.46329462666
 10
5464.05455537769
 20
1137.54521156885
 10
5463.55284233414
 20
1137.93018952739
 10
5463.33855894445
 20
1138.08023237216
 10
5462.86041720088
 20
1138.38484225744
 10
5462.63387212861
 20
1138.5156381159
 10
5462.13100135793
 20
1138.77741606981
 10
5461.89391874786
 20
1138.8879695065
 10
5461.30966153409
 20
1139.12997676835
 10
5461.18768618384
 20
1139.17741038788
 10
5456.08906738202
 20
1141.03315586761
 10
5455.96513909985
 20
1141.07522385078
 10
5455.36201283851
 20
1141.26538883052
 10
5455.1093346432
 20
1141.3330937489
 10
5454.55584565845
 20
1141.45579930265
 10
5454.29822810751
 20
1141.50122422759
 10
5453.73615082177
 20
1141.57522310609
 10
5453.47555454031
 20
1141.59802232648
 10
5452.84376098951
 20
1141.62560702863
 10
5452.71291839961
 20
1141.6284620241
 10
5447.28708160039
 20
1141.6284620241
 10
5447.15623901049
 20
1141.62560702863
 10
5446.52444545969
 20
1141.59802232648
 10
5446.26384917823
 20
1141.57522310609
 10
5445.70177189249
 20
1141.50122422759
 10
5445.44415434155
 20
1141.45579930265
 10
5444.8906653568
 20
1141.3330937489
 10
5444.63798716149
 20
1141.26538883052
 10
5444.03486090015
 20
1141.07522385078
 10
5443.91093261798
 20
1141.03315586761
 10
5438.81231381616
 20
1139.17741038788
 10
5438.69033846591
 20
1139.12997676835
 10
5438.10608125214
 20
1138.8879695065
 10
5437.86899864207
 20
1138.77741606981
 10
5437.36612787139
 20
1138.5156381159
 10
5437.13958279912
 20
1138.38484225744
 10
5436.66144105555
 20
1138.08023237216
 10
5436.44715766586
 20
1137.93018952739
 10
5435.94544462231
 20
1137.54521156885
 10
5435.84337822769
 20
1137.46329462666
 10
5431.68694609837
 20
1133.97563395994
 10
5431.58855001517
 20
1133.88934291092
 10
5431.12229918113
 20
1133.46210273678
 10
5430.9373259042
 20
1133.27712945985
 10
5430.55431528509
 20
1132.85914671522
 10
5430.38616737066
 20
1132.65875583411
 10
5430.04104381916
 20
1132.20898206502
 10
5429.89100097439
 20
1131.99469867534
 10
5429.55121514616
 20
1131.46134176147
 10
5429.48332135262
 20
1131.34945625246
 10
5426.770402953
 20
1126.65054374754
 10
5426.70745415666
 20
1126.53580324306
 10
5426.41544643407
 20
1125.97486162704
 10
5426.30489299738
 20
1125.73777901697
 10
5426.08793926315
 20
1125.21400636938
 10
5425.99846962664
 20
1124.96819056334
 10
5425.827991261
 20
1124.42750226496
 10
5425.76028634262
 20
1124.17482406964
 10
5425.62341091532
 20
1123.55741891576
 10
5425.59787871635
 20
1123.42905988357
 10
5424.65569204385
 20
1118.08565373712
 10
5424.63578308822
 20
1117.9563031754
 10
5424.553238918
 20
1117.329317955
 10
5424.53043969762
 20
1117.06872167355
 10
5424.50285499547
 20
1116.43692812274
 10
5424.5
 20
1116.30608553284
 10
5424.5
 20
1049.48453630875
 10
5424.47716818855
 20
1048.96160185226
 10
5424.40884651807
 20
1048.44264724275
 10
5424.1540005915
 20
1046.99734417256
 10
5424.04070903116
 20
1046.48631896795
 10
5423.88330979814
 20
1045.98711237861
 10
5423.68300079565
 20
1045.50352366812
 10
5423.44130649613
 20
1045.03923323856
 10
5423.39600385444
 20
1044.96076676144
 10
5423.11476369747
 20
1044.51930814333
 10
5422.79611809045
 20
1044.10404110332
 10
5422.44249211885
 20
1043.71812607432
 10
5422.05657708985
 20
1043.36450010272
 10
5421.987169416
 20
1043.3062601492
 10
5421.57190237599
 20
1042.98761454218
 10
5421.13044375789
 20
1042.7063743852
 10
5420.66615332833
 20
1042.46468008569
 10
5420.18256461784
 20
1042.26437108319
 10
5420.09742350164
 20
1042.23338225119
 10
5419.59821691231
 20
1042.07598301817
 10
5419.08719170769
 20
1041.96269145783
 10
5418.56823709818
 20
1041.89436978735
 10
5418.04530264169
 20
1041.8715379759
 10
5417.95469735831
 20
1041.8715379759
 10
5417.43176290182
 20
1041.89436978735
 10
5416.91280829231
 20
1041.96269145783
 10
5416.4017830877
 20
1042.07598301817
 10
5415.90257649836
 20
1042.23338225119
 10
5415.81743538216
 20
1042.26437108319
 10
5415.5
 20
1042.39585712366
 97
0
 75
0
 76
1
 98
0
  0
ENDSEC
  0
SECTION
  2
OBJECTS
  0
DICTIONARY
  5
C
330
0
100
AcDbDictionary
281
     1
  3
ACAD_GROUP
350
D
  3
ACAD_LAYOUT
350
1A
  3
ACAD_MLEADERSTYLE
350
43
  3
ACAD_MLINESTYLE
350
17
  3
ACAD_PLOTSETTINGS
350
19
  3
ACAD_PLOTSTYLENAME
350
E
  3
ACAD_TABLESTYLE
350
42
  3
ACAD_VISUALSTYLE
350
2A
  0
DICTIONARY
  5
D
102
{ACAD_REACTORS
330
C
102
}
330
C
100
AcDbDictionary
281
     1
  0
DICTIONARY
  5
1A
102
{ACAD_REACTORS
330
C
102
}
330
C
100
AcDbDictionary
281
     1
  3
Layout1
350
1E
  3
Layout2
350
26
  3
Model
350
22
  0
DICTIONARY
  5
43
102
{ACAD_REACTORS
330
C
102
}
330
C
100
AcDbDictionary
281
     1
  0
DICTIONARY
  5
17
102
{ACAD_REACTORS
330
C
102
}
330
C
100
AcDbDictionary
281
     1
  3
Standard
350
18
  0
DICTIONARY
  5
19
102
{ACAD_REACTORS
330
C
102
}
330
C
100
AcDbDictionary
281
     1
  0
ACDBDICTIONARYWDFLT
  5
E
102
{ACAD_REACTORS
330
C
102
}
330
C
100
AcDbDictionary
281
     1
  3
Normal
350
F
100
AcDbDictionaryWithDefault
340
F
  0
DICTIONARY
  5
42
102
{ACAD_REACTORS
330
C
102
}
330
C
100
AcDbDictionary
281
     1
  0
DICTIONARY
  5
2A
102
{ACAD_REACTORS
330
C
102
}
330
C
100
AcDbDictionary
281
     1
  3
2dWireframe
350
2F
  3
3D Hidden
350
31
  3
3dWireframe
350
30
  3
Basic
350
32
  3
Brighten
350
36
  3
ColorChange
350
3A
  3
Conceptual
350
34
  3
Dim
350
35
  3
Facepattern
350
39
  3
Flat
350
2B
  3
FlatWithEdges
350
2C
  3
Gouraud
350
2D
  3
GouraudWithEdges
350
2E
  3
Linepattern
350
38
  3
Realistic
350
33
  3
Thicken
350
37
  0
LAYOUT
  5
1E
102
{ACAD_REACTORS
330
1A
102
}
330
1A
100
AcDbPlotSettings
  1

  2
none_device
  4

  6

 40
0.0
 41
0.0
 42
0.0
 43
0.0
 44
0.0
 45
0.0
 46
0.0
 47
0.0
 48
0.0
 49
0.0
140
0.0
141
0.0
142
1.0
143
1.0
 70
   688
 72
     0
 73
     0
 74
     5
  7

 75
    16
 76
     0
 77
     2
 78
   300
147
1.0
148
0.0
149
0.0
100
AcDbLayout
  1
Layout1
 70
     1
 71
     1
 10
0.0
 20
0.0
 11
12.0
 21
9.0
 12
0.0
 22
0.0
 32
0.0
 14
1.000000000000000E+20
 24
1.000000000000000E+20
 34
1.000000000000000E+20
 15
-1.000000000000000E+20
 25
-1.000000000000000E+20
 35
-1.000000000000000E+20
146
0.0
 13
0.0
 23
0.0
 33
0.0
 16
1.0
 26
0.0
 36
0.0
 17
0.0
 27
1.0
 37
0.0
 76
     0
330
1B
  0
LAYOUT
  5
26
102
{ACAD_REACTORS
330
1A
102
}
330
1A
100
AcDbPlotSettings
  1

  2
none_device
  4

  6

 40
0.0
 41
0.0
 42
0.0
 43
0.0
 44
0.0
 45
0.0
 46
0.0
 47
0.0
 48
0.0
 49
0.0
140
0.0
141
0.0
142
1.0
143
1.0
 70
   688
 72
     0
 73
     0
 74
     5
  7

 75
    16
 76
     0
 77
     2
 78
   300
147
1.0
148
0.0
149
0.0
100
AcDbLayout
  1
Layout2
 70
     1
 71
     2
 10
0.0
 20
0.0
 11
0.0
 21
0.0
 12
0.0
 22
0.0
 32
0.0
 14
0.0
 24
0.0
 34
0.0
 15
0.0
 25
0.0
 35
0.0
146
0.0
 13
0.0
 23
0.0
 33
0.0
 16
1.0
 26
0.0
 36
0.0
 17
0.0
 27
1.0
 37
0.0
 76
     0
330
23
  0
LAYOUT
  5
22
102
{ACAD_REACTORS
330
1A
102
}
330
1A
100
AcDbPlotSettings
  1

  2
none_device
  4

  6

 40
0.0
 41
0.0
 42
0.0
 43
0.0
 44
0.0
 45
0.0
 46
0.0
 47
0.0
 48
0.0
 49
0.0
140
0.0
141
0.0
142
1.0
143
1.0
 70
  1712
 72
     0
 73
     0
 74
     0
  7

 75
     0
 76
     0
 77
     2
 78
   300
147
1.0
148
0.0
149
0.0
100
AcDbLayout
  1
Model
 70
     1
 71
     0
 10
0.0
 20
0.0
 11
12.0
 21
9.0
 12
0.0
 22
0.0
 32
0.0
 14
30.0
 24
49.75
 34
0.0
 15
130.5
 25
163.1318914119703
 35
0.0
146
0.0
 13
0.0
 23
0.0
 33
0.0
 16
1.0
 26
0.0
 36
0.0
 17
0.0
 27
1.0
 37
0.0
 76
     0
330
1F
331
29
  0
MLINESTYLE
  5
18
102
{ACAD_REACTORS
330
17
102
}
330
17
100
AcDbMlineStyle
  2
Standard
 70
     0
  3

 62
   256
 51
90.0
 52
90.0
 71
     2
 49
0.5
 62
   256
  6
BYLAYER
 49
-0.5
 62
   256
  6
BYLAYER
  0
ACDBPLACEHOLDER
  5
F
102
{ACAD_REACTORS
330
E
102
}
330
E
  0
VISUALSTYLE
  5
2F
102
{ACAD_REACTORS
330
2A
102
}
330
2A
100
AcDbVisualStyle
  2
2dWireframe
 70
     4
 71
     0
 72
     2
 73
     0
 90
        0
 40
-0.6
 41
-30.0
 62
     5
 63
     7
421
 16777215
 74
     1
 91
        4
 64
     7
 65
   257
 75
     1
175
     1
 42
1.0
 92
        0
 66
   257
 43
1.0
 76
     1
 77
     6
 78
     2
 67
     7
 79
     5
170
     0
171
     0
290
     0
174
     0
 93
        1
 44
0.0
173
     0
291
     0
 45
0.0
1001
ACAD
1000
AcDbSavedByObjectVersion
1070
     0
  0
VISUALSTYLE
  5
31
102
{ACAD_REACTORS
330
2A
102
}
330
2A
100
AcDbVisualStyle
  2
3D Hidden
 70
     6
 71
     1
 72
     2
 73
     2
 90
        0
 40
-0.6
 41
-30.0
 62
     5
 63
     7
421
 16777215
 74
     2
 91
        2
 64
     7
 65
   257
 75
     2
175
     1
 42
40.0
 92
        0
 66
   257
 43
1.0
 76
     1
 77
     6
 78
     2
 67
     7
 79
     3
170
     0
171
     0
290
     0
174
     0
 93
        1
 44
0.0
173
     0
291
     0
 45
0.0
1001
ACAD
1000
AcDbSavedByObjectVersion
1070
     0
  0
VISUALSTYLE
  5
30
102
{ACAD_REACTORS
330
2A
102
}
330
2A
100
AcDbVisualStyle
  2
3dWireframe
 70
     5
 71
     0
 72
     2
 73
     0
 90
        0
 40
-0.6
 41
-30.0
 62
     5
 63
     7
421
 16777215
 74
     1
 91
        4
 64
     7
 65
   257
 75
     1
175
     1
 42
1.0
 92
        0
 66
   257
 43
1.0
 76
     1
 77
     6
 78
     2
 67
     7
 79
     5
170
     0
171
     0
290
     0
174
     0
 93
        1
 44
0.0
173
     0
291
     0
 45
0.0
1001
ACAD
1000
AcDbSavedByObjectVersion
1070
     0
  0
VISUALSTYLE
  5
32
102
{ACAD_REACTORS
330
2A
102
}
330
2A
100
AcDbVisualStyle
  2
Basic
 70
     7
 71
     1
 72
     0
 73
     1
 90
        0
 40
-0.6
 41
-30.0
 62
     5
 63
     7
421
 16777215
 74
     0
 91
        4
 64
     7
 65
   257
 75
     1
175
     1
 42
1.0
 92
        8
 66
     7
 43
1.0
 76
     1
 77
     6
 78
     2
 67
     7
 79
     5
170
     0
171
     0
290
     0
174
     0
 93
        1
 44
0.0
173
     0
291
     1
 45
0.0
1001
ACAD
1000
AcDbSavedByObjectVersion
1070
     0
  0
VISUALSTYLE
  5
36
102
{ACAD_REACTORS
330
2A
102
}
330
2A
100
AcDbVisualStyle
  2
Brighten
 70
    12
 71
     2
 72
     2
 73
     0
 90
        0
 40
-0.6
 41
-30.0
 62
     5
 63
     7
421
 16777215
 74
     1
 91
        4
 64
     7
 65
   257
 75
     1
175
     1
 42
1.0
 92
        8
 66
     7
 43
1.0
 76
     1
 77
     6
 78
     2
 67
     7
 79
     5
170
     0
171
     0
290
     0
174
     0
 93
        1
 44
50.0
173
     0
291
     1
 45
0.0
1001
ACAD
1000
AcDbSavedByObjectVersion
1070
     0
  0
VISUALSTYLE
  5
3A
102
{ACAD_REACTORS
330
2A
102
}
330
2A
100
AcDbVisualStyle
  2
ColorChange
 70
    16
 71
     2
 72
     2
 73
     3
 90
        0
 40
-0.6
 41
-30.0
 62
     5
 63
     8
421
  8421504
 74
     1
 91
        4
 64
     7
 65
   257
 75
     1
175
     1
 42
1.0
 92
        8
 66
     8
424
  8421504
 43
1.0
 76
     1
 77
     6
 78
     2
 67
     7
 79
     5
170
     0
171
     0
290
     0
174
     0
 93
        1
 44
0.0
173
     0
291
     1
 45
0.0
1001
ACAD
1000
AcDbSavedByObjectVersion
1070
     0
  0
VISUALSTYLE
  5
34
102
{ACAD_REACTORS
330
2A
102
}
330
2A
100
AcDbVisualStyle
  2
Conceptual
 70
     9
 71
     3
 72
     2
 73
     0
 90
        0
 40
-0.6
 41
-30.0
 62
     5
 63
     7
421
 16777215
 74
     2
 91
        2
 64
     7
 65
   257
 75
     1
175
     1
 42
40.0
 92
        8
 66
     7
 43
1.0
 76
     1
 77
     6
 78
     2
 67
     7
 79
     3
170
     0
171
     0
290
     0
174
     0
 93
        1
 44
0.0
173
     0
291
     0
 45
0.0
1001
ACAD
1000
AcDbSavedByObjectVersion
1070
     0
  0
VISUALSTYLE
  5
35
102
{ACAD_REACTORS
330
2A
102
}
330
2A
100
AcDbVisualStyle
  2
Dim
 70
    11
 71
     2
 72
     2
 73
     0
 90
        0
 40
-0.6
 41
-30.0
 62
     5
 63
     7
421
 16777215
 74
     1
 91
        4
 64
     7
 65
   257
 75
     1
175
     1
 42
1.0
 92
        8
 66
     7
 43
1.0
 76
     1
 77
     6
 78
     2
 67
     7
 79
     5
170
     0
171
     0
290
     0
174
     0
 93
        1
 44
-50.0
173
     0
291
     1
 45
0.0
1001
ACAD
1000
AcDbSavedByObjectVersion
1070
     0
  0
VISUALSTYLE
  5
39
102
{ACAD_REACTORS
330
2A
102
}
330
2A
100
AcDbVisualStyle
  2
Facepattern
 70
    15
 71
     2
 72
     2
 73
     0
 90
        0
 40
-0.6
 41
-30.0
 62
     5
 63
     7
421
 16777215
 74
     1
 91
        4
 64
     7
 65
   257
 75
     1
175
     1
 42
1.0
 92
        8
 66
     7
 43
1.0
 76
     1
 77
     6
 78
     2
 67
     7
 79
     5
170
     0
171
     0
290
     0
174
     0
 93
        1
 44
0.0
173
     0
291
     1
 45
0.0
1001
ACAD
1000
AcDbSavedByObjectVersion
1070
     0
  0
VISUALSTYLE
  5
2B
102
{ACAD_REACTORS
330
2A
102
}
330
2A
100
AcDbVisualStyle
  2
Flat
 70
     0
 71
     2
 72
     1
 73
     1
 90
        2
 40
-0.6
 41
30.0
 62
     5
 63
     7
421
 16777215
 74
     0
 91
        4
 64
     7
 65
   257
 75
     1
175
     1
 42
1.0
 92
        8
 66
     7
 43
1.0
 76
     1
 77
     6
 78
     2
 67
     7
 79
     5
170
     0
171
     0
290
     0
174
     0
 93
       13
 44
0.0
173
     0
291
     1
 45
0.0
1001
ACAD
1000
AcDbSavedByObjectVersion
1070
     0
  0
VISUALSTYLE
  5
2C
102
{ACAD_REACTORS
330
2A
102
}
330
2A
100
AcDbVisualStyle
  2
FlatWithEdges
 70
     1
 71
     2
 72
     1
 73
     1
 90
        2
 40
-0.6
 41
30.0
 62
     5
 63
     7
421
 16777215
 74
     1
 91
        4
 64
     7
 65
   257
 75
     1
175
     1
 42
1.0
 92
        0
 66
   257
 43
1.0
 76
     1
 77
     6
 78
     2
 67
     7
 79
     5
170
     0
171
     0
290
     0
174
     0
 93
       13
 44
0.0
173
     0
291
     1
 45
0.0
1001
ACAD
1000
AcDbSavedByObjectVersion
1070
     0
  0
VISUALSTYLE
  5
2D
102
{ACAD_REACTORS
330
2A
102
}
330
2A
100
AcDbVisualStyle
  2
Gouraud
 70
     2
 71
     2
 72
     2
 73
     1
 90
        2
 40
-0.6
 41
30.0
 62
     5
 63
     7
421
 16777215
 74
     0
 91
        4
 64
     7
 65
   257
 75
     1
175
     1
 42
1.0
 92
        0
 66
     7
 43
1.0
 76
     1
 77
     6
 78
     2
 67
     7
 79
     5
170
     0
171
     0
290
     0
174
     0
 93
       13
 44
0.0
173
     0
291
     1
 45
0.0
1001
ACAD
1000
AcDbSavedByObjectVersion
1070
     0
  0
VISUALSTYLE
  5
2E
102
{ACAD_REACTORS
330
2A
102
}
330
2A
100
AcDbVisualStyle
  2
GouraudWithEdges
 70
     3
 71
     2
 72
     2
 73
     1
 90
        2
 40
-0.6
 41
30.0
 62
     5
 63
     7
421
 16777215
 74
     1
 91
        4
 64
     7
 65
   257
 75
     1
175
     1
 42
1.0
 92
        0
 66
   257
 43
1.0
 76
     1
 77
     6
 78
     2
 67
     7
 79
     5
170
     0
171
     0
290
     0
174
     0
 93
       13
 44
0.0
173
     0
291
     1
 45
0.0
1001
ACAD
1000
AcDbSavedByObjectVersion
1070
     0
  0
VISUALSTYLE
  5
38
102
{ACAD_REACTORS
330
2A
102
}
330
2A
100
AcDbVisualStyle
  2
Linepattern
 70
    14
 71
     2
 72
     2
 73
     0
 90
        0
 40
-0.6
 41
-30.0
 62
     5
 63
     7
421
 16777215
 74
     1
 91
        4
 64
     7
 65
   257
 75
     7
175
     7
 42
1.0
 92
        8
 66
     7
 43
1.0
 76
     1
 77
     6
 78
     2
 67
     7
 79
     5
170
     0
171
     0
290
     0
174
     0
 93
        1
 44
0.0
173
     0
291
     1
 45
0.0
1001
ACAD
1000
AcDbSavedByObjectVersion
1070
     0
  0
VISUALSTYLE
  5
33
102
{ACAD_REACTORS
330
2A
102
}
330
2A
100
AcDbVisualStyle
  2
Realistic
 70
     8
 71
     2
 72
     2
 73
     0
 90
        0
 40
-0.6
 41
-30.0
 62
     5
 63
     7
421
 16777215
 74
     1
 91
        0
 64
     7
 65
   257
 75
     1
175
     1
 42
1.0
 92
        8
 66
     8
424
  7895160
 43
1.0
 76
     1
 77
     6
 78
     2
 67
     7
 79
     5
170
     0
171
     0
290
     0
174
     0
 93
       13
 44
0.0
173
     0
291
     0
 45
0.0
1001
ACAD
1000
AcDbSavedByObjectVersion
1070
     0
  0
VISUALSTYLE
  5
37
102
{ACAD_REACTORS
330
2A
102
}
330
2A
100
AcDbVisualStyle
  2
Thicken
 70
    13
 71
     2
 72
     2
 73
     0
 90
        0
 40
-0.6
 41
-30.0
 62
     5
 63
     7
421
 16777215
 74
     1
 91
        4
 64
     7
 65
   257
 75
     1
175
     1
 42
1.0
 92
       12
 66
     7
 43
1.0
 76
     1
 77
     6
 78
     2
 67
     7
 79
     5
170
     0
171
     0
290
     0
174
     0
 93
        1
 44
0.0
173
     0
291
     1
 45
0.0
1001
ACAD
1000
AcDbSavedByObjectVersion
1070
     0
  0
ENDSEC
  0
EOF
